<?xml version="1.0" encoding="UTF-8"?>
<svg width="161px" height="50px" viewBox="0 0 161 50" version="1.1" xmlns="http://www.w3.org/2000/svg" xmlns:xlink="http://www.w3.org/1999/xlink">
    <!-- Generator: Sketch 56.3 (81716) - https://sketch.com -->
    <title>Shape</title>
    <desc>Created with Sketch.</desc>
    <g id="Web" stroke="none" stroke-width="1" fill="none" fill-rule="evenodd">
        <g id="Home" transform="translate(-441.000000, -2000.000000)" fill="#DDDDDD" fill-rule="nonzero">
            <g id="#7" transform="translate(0.000000, 1886.000000)">
                <path d="M525.354167,126.55 C525.354167,128.35 523.904167,129.8 522.104167,129.8 C520.304167,129.8 518.854167,128.35 518.854167,126.55 C518.854167,124.75 520.254167,123.3 522.104167,123.3 C523.954167,123.35 525.354167,124.8 525.354167,126.55 Z M511.954167,133.1 C511.954167,133.4 511.954167,133.9 511.954167,133.9 C511.954167,133.9 510.404167,131.9 507.104167,131.9 C501.654167,131.9 497.404167,136.05 497.404167,141.8 C497.404167,147.5 501.604167,151.7 507.104167,151.7 C510.454167,151.7 511.954167,149.65 511.954167,149.65 L511.954167,150.5 C511.954167,150.9 512.254167,151.2 512.654167,151.2 L516.704167,151.2 L516.704167,132.4 C516.704167,132.4 513.004167,132.4 512.654167,132.4 C512.254167,132.4 511.954167,132.75 511.954167,133.1 Z M511.954167,145.15 C511.204167,146.25 509.704167,147.2 507.904167,147.2 C504.704167,147.2 502.254167,145.2 502.254167,141.8 C502.254167,138.4 504.704167,136.4 507.904167,136.4 C509.654167,136.4 511.254167,137.4 511.954167,138.45 L511.954167,145.15 Z M519.704167,132.4 L524.504167,132.4 L524.504167,151.2 L519.704167,151.2 L519.704167,132.4 Z M591.404167,131.9 C588.104167,131.9 586.554167,133.9 586.554167,133.9 L586.554167,123.35 L581.754167,123.35 L581.754167,151.2 C581.754167,151.2 585.454167,151.2 585.804167,151.2 C586.204167,151.2 586.504167,150.85 586.504167,150.5 L586.504167,149.65 L586.504167,149.65 C586.504167,149.65 588.054167,151.7 591.354167,151.7 C596.804167,151.7 601.054167,147.5 601.054167,141.8 C601.054167,136.1 596.804167,131.9 591.404167,131.9 Z M590.604167,147.15 C588.754167,147.15 587.304167,146.2 586.554167,145.1 L586.554167,138.4 C587.304167,137.4 588.904167,136.35 590.604167,136.35 C593.804167,136.35 596.254167,138.35 596.254167,141.75 C596.254167,145.15 593.804167,147.15 590.604167,147.15 Z M579.254167,140.05 L579.254167,151.25 L574.454167,151.25 L574.454167,140.6 C574.454167,137.5 573.454167,136.25 570.754167,136.25 C569.304167,136.25 567.804167,137 566.854167,138.1 L566.854167,151.2 L562.054167,151.2 L562.054167,132.4 L565.854167,132.4 C566.254167,132.4 566.554167,132.75 566.554167,133.1 L566.554167,133.9 C567.954167,132.45 569.804167,131.9 571.654167,131.9 C573.754167,131.9 575.504167,132.5 576.904167,133.7 C578.604167,135.1 579.254167,136.9 579.254167,140.05 Z M550.404167,131.9 C547.104167,131.9 545.554167,133.9 545.554167,133.9 L545.554167,123.35 L540.754167,123.35 L540.754167,151.2 C540.754167,151.2 544.454167,151.2 544.804167,151.2 C545.204167,151.2 545.504167,150.85 545.504167,150.5 L545.504167,149.65 L545.504167,149.65 C545.504167,149.65 547.054167,151.7 550.354167,151.7 C555.804167,151.7 560.054167,147.5 560.054167,141.8 C560.104167,136.1 555.854167,131.9 550.404167,131.9 Z M549.604167,147.15 C547.754167,147.15 546.304167,146.2 545.554167,145.1 L545.554167,138.4 C546.304167,137.4 547.904167,136.35 549.604167,136.35 C552.804167,136.35 555.254167,138.35 555.254167,141.75 C555.254167,145.15 552.804167,147.15 549.604167,147.15 Z M536.604167,131.9 C538.054167,131.9 538.804167,132.15 538.804167,132.15 L538.804167,136.6 C538.804167,136.6 534.804167,135.25 532.304167,138.1 L532.304167,151.25 L527.504167,151.25 L527.504167,132.4 C527.504167,132.4 531.204167,132.4 531.554167,132.4 C531.954167,132.4 532.254167,132.75 532.254167,133.1 L532.254167,133.9 C533.154167,132.85 535.104167,131.9 536.604167,131.9 Z M486.754167,149.5 C486.504167,148.9 486.254167,148.25 486.004167,147.7 C485.604167,146.8 485.204167,145.95 484.854167,145.15 L484.804167,145.1 C481.354167,137.6 477.654167,130 473.754167,122.5 L473.604167,122.2 C473.204167,121.45 472.804167,120.65 472.404167,119.85 C471.904167,118.95 471.404167,118 470.604167,117.1 C469.004167,115.1 466.704167,114 464.254167,114 C461.754167,114 459.504167,115.1 457.854167,117 C457.104167,117.9 456.554167,118.85 456.054167,119.75 C455.654167,120.55 455.254167,121.35 454.854167,122.1 L454.704167,122.4 C450.854167,129.9 447.104167,137.5 443.654167,145 L443.604167,145.1 C443.254167,145.9 442.854167,146.75 442.454167,147.65 C442.204167,148.2 441.954167,148.8 441.704167,149.45 C441.054167,151.3 440.854167,153.05 441.104167,154.85 C441.654167,158.6 444.154167,161.75 447.604167,163.15 C448.904167,163.7 450.254167,163.95 451.654167,163.95 C452.054167,163.95 452.554167,163.9 452.954167,163.85 C454.604167,163.65 456.304167,163.1 457.954167,162.15 C460.004167,161 461.954167,159.35 464.154167,156.95 C466.354167,159.35 468.354167,161 470.354167,162.15 C472.004167,163.1 473.704167,163.65 475.354167,163.85 C475.754167,163.9 476.254167,163.95 476.654167,163.95 C478.054167,163.95 479.454167,163.7 480.704167,163.15 C484.204167,161.75 486.654167,158.55 487.204167,154.85 C487.604167,153.1 487.404167,151.35 486.754167,149.5 Z M464.204167,152.1 C461.504167,148.7 459.754167,145.5 459.154167,142.8 C458.904167,141.65 458.854167,140.65 459.004167,139.75 C459.104167,138.95 459.404167,138.25 459.804167,137.65 C460.754167,136.3 462.354167,135.45 464.204167,135.45 C466.054167,135.45 467.704167,136.25 468.604167,137.65 C469.004167,138.25 469.304167,138.95 469.404167,139.75 C469.554167,140.65 469.504167,141.7 469.254167,142.8 C468.654167,145.45 466.904167,148.65 464.204167,152.1 Z M484.154167,154.45 C483.804167,157.05 482.054167,159.3 479.604167,160.3 C478.404167,160.8 477.104167,160.95 475.804167,160.8 C474.554167,160.65 473.304167,160.25 472.004167,159.5 C470.204167,158.5 468.404167,156.95 466.304167,154.65 C469.604167,150.6 471.604167,146.9 472.354167,143.6 C472.704167,142.05 472.754167,140.65 472.604167,139.35 C472.404167,138.1 471.954167,136.95 471.254167,135.95 C469.704167,133.7 467.104167,132.4 464.204167,132.4 C461.304167,132.4 458.704167,133.75 457.154167,135.95 C456.454167,136.95 456.004167,138.1 455.804167,139.35 C455.604167,140.65 455.654167,142.1 456.054167,143.6 C456.804167,146.9 458.854167,150.65 462.104167,154.7 C460.054167,157 458.204167,158.55 456.404167,159.55 C455.104167,160.3 453.854167,160.7 452.604167,160.85 C451.254167,161 449.954167,160.8 448.804167,160.35 C446.354167,159.35 444.604167,157.1 444.254167,154.5 C444.104167,153.25 444.204167,152 444.704167,150.6 C444.854167,150.1 445.104167,149.6 445.354167,149 C445.704167,148.2 446.104167,147.35 446.504167,146.5 L446.554167,146.4 C450.004167,138.95 453.704167,131.35 457.554167,123.95 L457.704167,123.65 C458.104167,122.9 458.504167,122.1 458.904167,121.35 C459.304167,120.55 459.754167,119.8 460.304167,119.15 C461.354167,117.95 462.754167,117.3 464.304167,117.3 C465.854167,117.3 467.254167,117.95 468.304167,119.15 C468.854167,119.8 469.304167,120.55 469.704167,121.35 C470.104167,122.1 470.504167,122.9 470.904167,123.65 L471.054167,123.95 C474.854167,131.4 478.554167,139 482.004167,146.45 L482.004167,146.5 C482.404167,147.3 482.754167,148.2 483.154167,149 C483.404167,149.6 483.654167,150.1 483.804167,150.6 C484.204167,151.9 484.354167,153.15 484.154167,154.45 Z" id="Shape"></path>
            </g>
        </g>
    </g>
</svg>