<?xml version="1.0" encoding="UTF-8"?>
<svg width="199px" height="57px" viewBox="0 0 199 57" version="1.1" xmlns="http://www.w3.org/2000/svg" xmlns:xlink="http://www.w3.org/1999/xlink">
    <!-- Generator: Sketch 56.3 (81716) - https://sketch.com -->
    <title>path3402</title>
    <desc>Created with Sketch.</desc>
    <g id="Web" stroke="none" stroke-width="1" fill="none" fill-rule="evenodd">
        <g id="Home" transform="translate(-132.000000, -1996.000000)" fill="#DDDDDD" fill-rule="nonzero">
            <g id="#7" transform="translate(0.000000, 1886.000000)">
                <path d="M255.033913,151.757809 C255.033913,151.757809 255.527513,152.496694 255.941951,153.05899 C256.697485,154.081346 258.063034,155.498703 259.089815,156.377 C259.406464,156.644207 259.7755,156.949752 259.7755,156.949752 C259.7755,156.949752 259.194589,156.88934 258.867462,156.821958 C258.087481,156.669766 256.943121,155.911131 256.370359,155.420865 C255.427396,154.616921 254.391302,153.306447 254.858126,152.144678 C254.927976,151.977384 255.033913,151.757809 255.033913,151.757809 L255.033913,151.757809 Z M260.277249,150.357878 C261.767362,150.457791 263.164343,150.888807 264.462371,151.605618 C265.737117,152.31662 267.610235,153.703771 267.419315,155.337218 C267.357615,155.863499 267.013026,156.263147 266.575305,156.450192 C266.004871,156.697648 265.709177,156.653501 264.981583,156.440898 C264.455386,156.285221 264.219064,156.192279 263.721971,155.907646 C262.25747,155.059555 260.186445,153.246035 259.060711,151.797309 C258.799941,151.458073 258.536843,151.075851 258.333117,150.815615 C258.200404,150.656453 258.101451,150.506585 258.113092,150.465923 C258.15733,150.29979 259.694009,150.316055 260.277249,150.357878 L260.277249,150.357878 Z M256.480953,147.575443 C256.328449,147.416281 256.166632,147.02128 255.996666,146.736647 C255.907026,146.585617 255.739389,146.39044 255.629959,146.313763 C255.242296,146.02913 254.91517,146.01635 254.537985,146.345131 C254.014117,146.805191 253.711438,147.524326 253.689319,148.221387 C253.677677,148.526932 253.727736,148.860359 253.673021,149.120595 C253.576396,149.552773 253.141004,149.996569 252.908174,150.41132 C252.633434,150.902748 252.411081,151.752001 252.384306,152.300355 C252.287681,154.012802 253.193391,155.58816 254.369183,156.833575 C255.55196,158.09177 257.099117,159.137362 258.783643,159.847202 C260.373873,160.518704 262.706832,160.974118 264.454222,160.368836 C265.021164,160.173659 265.815115,159.690364 266.213254,159.187318 C266.297073,159.080435 266.366922,158.964258 266.454234,158.909655 C266.529903,158.860861 266.73363,158.841111 266.895447,158.812067 C267.454239,158.71564 268.257503,158.29508 268.58463,158.015094 C269.240047,157.446989 269.603262,156.904443 269.769735,156.117926 C270.105011,154.536759 269.192316,152.799916 268.15273,151.74503 C266.370415,149.924539 264.611383,148.647755 262.331975,147.755517 C261.333134,147.365163 259.774336,147.00153 258.638124,147.103765 C258.286551,147.13281 257.922172,147.224589 257.579911,147.250148 C257.406453,147.265251 256.765006,147.426737 256.697485,147.477855 C256.612502,147.539428 256.504236,147.597517 256.480953,147.575443 L256.480953,147.575443 Z M202.134897,142.902811 C203.081351,142.960899 203.668083,143.006208 204.407319,143.325695 C204.815936,143.498798 205.288581,143.896123 205.055751,144.370124 C204.914889,144.660567 204.414304,144.76164 204.122102,144.739567 C203.13141,144.673346 202.417785,143.946079 202.079017,142.973679 C202.066212,142.938826 202.069704,142.902811 202.134897,142.902811 L202.134897,142.902811 Z M206.276945,145.34601 C206.828753,144.657081 207.077881,143.84849 207.139581,142.960899 C207.201281,142.066338 206.9149,141.205467 206.415479,140.523509 C205.558664,139.361741 204.129087,138.782019 202.694853,138.675136 C202.498112,138.662357 201.32814,138.627504 201.027789,138.720445 C200.973074,138.740195 200.939314,138.761107 200.909046,138.752975 C200.875285,138.749489 200.678544,137.943222 200.642455,137.662074 C200.514399,136.673409 200.358402,135.974025 200.244316,135.19564 C200.148855,134.577579 200.08017,133.914209 200.025455,133.254325 C199.701821,129.408872 199.81358,127.50938 200.132557,123.746413 C200.154676,123.516383 200.166317,123.254985 200.132557,123.096984 C200.04641,122.645056 199.77167,122.330217 199.329293,122.216364 C197.999833,121.867833 196.72858,123.180632 196.076655,124.23087 C194.553946,126.685687 195.051038,131.702202 195.489923,134.180254 C195.669202,135.206096 196.137191,137.484323 196.461989,138.304532 C196.634284,138.746004 196.910187,139.613845 196.889233,139.655669 C196.870606,139.694007 196.174444,139.95889 195.536489,140.204023 C195.296674,140.291156 194.492246,140.708231 194.147657,140.921996 C193.438689,141.365792 192.953238,141.727101 192.463131,142.278941 C192.31412,142.450883 191.818191,143.186283 191.74485,143.350092 C191.349039,144.249301 191.325755,145.032332 191.677329,145.988468 C191.766969,146.233601 192.260569,147.266413 192.588859,147.233883 C193.061504,147.19206 192.957895,146.411351 193.082459,146.007056 C193.123204,145.867644 193.255918,145.63529 193.360691,145.509819 C194.014944,144.739567 196.211697,143.886829 197.111585,143.61846 C197.240806,143.577798 198.648265,143.150268 198.854319,143.244371 C198.909034,143.26993 199.176789,143.745093 199.347919,144.03205 C199.439887,144.193536 199.543497,144.313198 199.656419,144.435183 C200.51207,145.354142 201.776338,146.224307 203.034785,146.482219 C203.588921,146.593749 204.675074,146.500808 205.224553,146.188292 C205.349117,146.117424 205.758898,145.955938 206.276945,145.34601 L206.276945,145.34601 Z M192.980014,134.443976 C193.019595,134.441652 193.080131,134.421902 193.132518,134.399829 C193.778621,134.117519 193.778621,132.966206 193.622625,132.424822 C193.203531,131.000494 191.849623,129.529696 190.769291,128.797782 C190.124352,128.367927 188.804205,127.756837 187.860078,127.576763 C186.382771,127.293292 185.074265,127.683646 184.283807,128.876782 C183.569018,129.956065 183.253533,131.290936 183.19649,132.545646 C183.033509,136.14829 184.172048,141.4111 185.573686,144.418919 C185.762278,144.822052 186.688942,146.701794 187.550414,147.005015 C188.407229,147.307075 188.784414,146.304469 188.869397,145.555128 C188.978827,144.59086 188.670327,143.312915 188.425856,142.278941 C187.99512,140.470068 187.376956,137.642324 187.230273,136.83141 C187.075441,135.974025 186.716882,134.138431 186.846103,133.202045 C186.912459,132.704809 187.006756,132.45619 187.385105,132.486396 C187.557399,132.501499 189.982325,133.614473 191.305965,134.108225 C191.801893,134.291784 192.418893,134.490446 192.980014,134.443976 L192.980014,134.443976 Z M175.045105,136.105304 C175.045105,136.105304 175.321009,136.100657 175.605062,136.105304 C176.509607,136.116922 178.026496,136.283055 178.026496,136.283055 C178.026496,136.283055 177.85653,137.615603 177.71916,138.466018 C177.626028,139.034122 177.551522,139.384976 177.429286,139.834581 C177.373407,140.034405 177.234873,140.604833 177.089354,140.827893 C177.063743,140.873202 177.02649,140.920834 177.02649,140.920834 C177.02649,140.920834 176.294239,139.510447 175.884458,138.527591 C175.558496,137.748045 175.395515,137.167161 175.167341,136.694321 C175.112626,136.583953 175.05209,136.432923 175.045105,136.302805 C175.03812,136.212187 175.045105,136.105304 175.045105,136.105304 L175.045105,136.105304 Z M170.192924,135.951951 C170.192924,135.951951 170.627153,136.925513 170.964756,137.662074 C171.319822,138.435812 173.113779,142.031485 173.853015,143.048032 C174.672577,144.184242 176.239524,146.328866 176.25233,146.393925 C176.28609,146.629764 176.337313,147.049162 176.557337,147.384913 C176.728467,147.65212 177.151054,147.764812 177.561999,147.791532 C178.017182,147.818253 178.488664,147.482502 178.693554,147.108412 C179.088201,146.39741 179.76108,144.37361 179.906599,143.890314 C180.692401,141.196173 181.541067,136.164555 181.819299,133.57962 C181.891477,132.901147 182.117322,129.367048 182.134784,128.571237 C182.151082,128.012426 182.134784,127.085335 181.813479,126.627598 C181.694735,126.453333 181.466562,126.308112 181.246537,126.311597 C180.949679,126.322053 180.351305,126.736805 180.089371,126.980776 C179.364105,127.663896 178.880982,128.357471 178.72615,129.206724 C178.593437,129.945609 178.406009,132.065836 178.406009,132.065836 L175.244175,131.939203 L173.482815,131.910159 C173.482815,131.910159 173.316341,131.500055 173.180135,131.158495 C172.885605,130.426581 172.621343,129.694667 172.507256,129.283401 C172.276754,128.457383 171.833213,126.81929 171.727275,126.563701 C171.504922,126.026964 171.309345,125.714448 170.786641,125.644742 C170.206894,125.569227 169.808754,125.527404 169.38966,125.753948 C168.600366,126.186126 168.240643,127.099276 168.106766,128.04147 C167.871607,129.645872 168.522368,130.940082 169.19059,132.843059 C169.471151,133.643517 169.084653,133.909562 168.418758,134.950507 C168.332611,135.08411 168.244136,135.224684 168.227838,135.331567 C168.204555,135.438449 168.307,135.716112 168.452519,135.831127 C168.497921,135.868304 168.510726,135.872951 168.593381,135.876436 L170.192924,135.951951 L170.192924,135.951951 Z M152.136944,146.340484 C152.136944,146.340484 152.096199,147.359354 152.011216,147.927459 C151.940202,148.408431 151.843578,148.769741 151.61424,149.13686 C151.362784,149.539994 151.170699,149.793259 150.773723,149.853671 C150.287108,149.924539 150.018189,149.593435 149.714346,149.11711 C149.310386,148.470005 148.907589,147.269898 148.670103,146.511264 C148.326678,145.433142 148.181159,144.770935 147.997223,143.544107 C147.69338,141.531924 147.386044,138.109355 147.71317,135.781171 C147.773706,135.380361 147.873823,134.793668 147.873823,134.793668 C147.873823,134.793668 148.360438,135.338537 148.715504,135.719597 C148.866844,135.884568 149.588618,136.961528 149.652646,137.074219 C149.77721,137.290308 150.111321,137.859575 150.157887,137.975751 C150.228901,138.100061 150.749276,139.214197 150.84008,139.475594 C151.014702,139.975155 151.268487,140.744245 151.464065,141.357659 C151.921576,142.770369 151.840085,143.293165 152.136944,144.861552 C152.170704,145.041627 152.199808,146.340484 152.167212,146.340484 C152.153242,146.345131 152.136944,146.340484 152.136944,146.340484 L152.136944,146.340484 Z M148.684072,131.414084 C148.684072,131.414084 148.876157,131.078333 149.027497,130.826229 C149.869178,129.426298 151.213772,128.624678 152.837763,128.544516 C154.501334,128.460869 156.637551,129.422813 157.856417,130.26858 C161.338393,132.685058 163.170766,137.04169 164.169608,141.217085 C165.346564,146.112777 165.400115,151.276837 163.997313,156.014529 C163.183572,158.764434 161.600327,162.206754 159.638732,164.265407 C159.054329,164.876497 158.159096,165.709485 157.904147,166.051045 C157.638721,166.403061 157.574693,166.699312 157.979817,166.935151 C158.407061,167.180284 159.343038,166.67143 159.809862,166.390282 C162.099747,165.001968 163.596845,163.618302 164.953081,161.630517 C165.295341,161.128633 166.670204,158.871317 166.92166,158.399639 C168.460668,155.501027 169.249962,152.975343 169.672549,149.775833 C170.20573,145.703835 169.864634,141.079996 168.451355,136.997543 C167.834355,135.206096 166.882079,133.362369 165.890223,131.807923 C165.655064,131.443128 164.209189,129.504137 164.031074,129.313607 C163.533981,128.790811 162.305802,127.728955 161.731876,127.267733 C158.861079,124.968593 155.759781,123.46178 152.355804,123.877693 C150.48385,124.107723 148.94717,124.726945 147.447744,125.943317 C146.872654,126.414995 145.901752,127.396689 145.512925,128.096073 C145.260305,128.544516 144.945984,129.089385 144.905239,129.096356 C144.861001,129.106812 144.694527,128.99412 144.51292,128.867488 C144.354595,128.758281 143.680552,128.445766 143.323157,128.313324 C140.987871,127.444321 138.375516,127.648793 136.229986,129.038268 C134.673516,130.043197 133.356862,131.953144 132.774786,133.685341 C131.916807,136.254011 131.848122,138.91446 132.197367,141.646939 C132.794577,146.283557 134.467462,150.676203 136.961073,154.564642 C138.535005,157.014811 140.575761,159.434775 143.011165,161.170456 C143.28474,161.367957 144.770197,162.229989 145.07404,162.369401 C145.62352,162.627314 146.354606,162.865476 146.777193,162.41471 C146.997218,162.181195 146.990233,161.991827 146.827252,161.683958 C146.56881,161.206471 145.907572,160.558205 145.542029,160.170174 C145.22538,159.828614 143.431423,157.634034 143.061223,157.120532 C142.654935,156.572177 140.829546,153.843184 140.589731,153.423785 C138.287041,149.444729 136.45816,143.140974 136.635111,138.252252 C136.672363,137.242676 136.821375,135.78698 137.048384,134.838977 C137.356884,133.561032 138.119403,131.831159 139.263763,131.02373 C140.468659,130.170992 141.58508,130.219786 143.027463,130.791376 C143.410469,130.945891 143.955291,131.191024 143.955291,131.191024 C143.955291,131.191024 143.535033,132.26566 143.260293,133.073089 C142.504759,135.316464 142.200916,138.89471 142.479148,141.357659 C142.708486,143.376813 143.160176,144.923126 144.075199,146.526366 C144.803957,147.811282 145.785337,149.071801 147.011187,150.115069 C148.192801,151.12116 150.081053,151.997134 151.742297,152.041281 C153.12298,152.07381 154.552557,151.474338 155.277823,150.221952 C156.537434,148.043636 156.617761,144.605963 156.262695,142.340515 C155.729514,138.91446 153.951855,135.697524 151.387231,133.518046 C150.466387,132.737338 148.684072,131.414084 148.684072,131.414084 L148.684072,131.414084 Z M258.517053,144.066903 C258.585738,144.054123 258.694004,144.022756 258.785972,143.990226 C259.584579,143.685843 259.91287,142.946958 260.109611,142.138367 C260.565958,140.256303 260.761536,136.09601 260.836041,134.463726 C260.891921,133.243869 260.922189,132.036792 260.973411,130.829714 C261.016485,129.806196 261.097975,128.444604 260.8861,127.483822 C260.808102,127.138776 260.5776,126.741452 260.245817,126.533495 C259.865139,126.291847 259.002504,126.273259 258.528694,126.370847 C257.358723,126.612495 256.978045,127.362998 256.812736,128.516634 C256.41576,131.271186 256.605517,136.676894 256.840675,138.958608 C256.916345,139.707948 257.202726,142.122103 257.597374,143.132841 C257.730087,143.476725 258.017632,144.164491 258.517053,144.066903 L258.517053,144.066903 Z M222.484254,139.933331 C222.484254,139.933331 220.751998,139.811345 219.562235,139.678904 C218.045347,139.517418 215.19667,139.02599 213.555217,138.436974 C213.060453,138.265032 212.058119,137.845633 211.970807,137.341426 C211.882332,136.813983 212.205966,136.406202 212.570345,135.979833 C212.779892,135.7347 213.967326,134.595006 214.299109,134.317343 C215.694926,133.156736 218.523813,131.361804 220.611135,130.490478 C221.323596,130.194227 222.508701,129.771343 222.508701,129.771343 C222.508701,129.771343 222.420226,133.136986 222.437688,136.451511 C222.444673,138.203458 222.484254,139.933331 222.484254,139.933331 L222.484254,139.933331 Z M254.220172,138.593812 C254.320289,137.689956 254.08513,135.979833 254.046713,135.75445 C253.972208,135.23514 253.578725,134.037357 253.515861,133.889812 C253.198047,133.163707 252.887219,132.563073 252.554272,131.969409 C251.986166,130.949377 250.638079,129.333357 249.834815,128.642105 C246.856917,126.072273 242.244552,124.608445 238.286438,124.126311 C235.603071,123.802178 232.518071,123.852134 229.671722,124.376091 C228.693835,124.556165 227.238646,124.888431 227.238646,124.888431 C227.238646,124.888431 227.242139,124.307547 227.194409,123.897443 C227.17229,123.713883 227.030263,123.221294 226.952265,123.062131 C226.743882,122.635762 226.405114,122.416188 225.912679,122.323247 C225.316633,122.209393 224.684499,122.175702 224.132692,122.408056 C223.229311,122.790277 222.903349,123.636045 222.747352,124.60496 C222.619296,125.385668 222.485418,126.741452 222.485418,126.741452 C222.485418,126.741452 221.810211,127.059776 221.245598,127.340924 C219.513341,128.193662 217.866068,129.222989 216.428341,130.287169 C216.030202,130.581096 214.316572,132.014718 213.937058,132.372543 C212.876517,133.372825 211.923077,134.37427 211.196647,135.656862 C210.632034,136.658306 210.470217,137.549382 210.898625,138.610077 C211.492341,140.089008 213.616917,141.205467 215.072105,141.840955 C216.14196,142.311471 219.460954,143.393077 220.841637,143.592901 C221.492398,143.685843 222.502881,143.864755 222.564581,143.906579 C222.590192,143.925167 222.608818,143.941432 222.626281,143.963506 C222.657713,144.008814 222.711264,145.474966 222.700786,146.00938 C222.689145,146.536822 223.091941,149.995407 223.221162,150.726159 C223.291011,151.124646 223.591362,152.647724 223.898698,153.04621 C224.097767,153.315741 224.452833,153.297152 224.741543,153.117078 C226.323624,152.137708 226.803254,148.731403 226.920833,146.998044 C226.991846,145.943159 227.026771,144.355021 227.026771,144.355021 C227.026771,144.355021 228.841682,144.407301 229.959267,144.378257 C231.043092,144.351536 232.238675,144.179594 233.365573,144.000682 C234.807956,143.772976 237.618216,143.160724 239.229401,142.344 C240.557697,141.67366 241.798682,140.540936 242.200314,139.343153 C242.57517,138.245282 242.518127,137.487809 241.948857,136.49682 C241.309738,135.376876 240.097857,134.547373 238.869678,134.478829 C238.502971,134.454432 237.128108,134.637991 236.705522,134.964448 C236.537884,135.09689 236.547197,135.331567 236.668269,135.490729 C236.713671,135.548817 237.355118,135.884568 237.735795,136.086716 C237.925552,136.190114 238.083876,136.300482 238.230559,136.435247 C238.547208,136.715233 238.830097,137.019616 238.798665,137.375117 C238.754427,137.839825 238.26432,138.126781 237.794003,138.310341 C235.593757,139.181667 231.200252,139.907772 229.074512,140.033243 C228.243309,140.082037 227.06286,140.123861 227.06286,140.123861 L227.311988,128.42253 C227.311988,128.42253 228.289875,128.235486 229.059378,128.110015 C229.50292,128.044956 231.374875,127.876499 231.871967,127.86372 C235.661278,127.763808 239.890638,128.100721 243.367957,129.742299 C244.894159,130.45911 246.294632,131.350187 247.35401,132.557264 C248.753319,134.159342 249.48557,136.34579 249.291157,138.629827 C249.078117,141.129953 247.316757,144.090138 245.912791,145.894365 C242.197985,150.663424 235.831244,154.582068 230.231678,156.880046 C224.512205,159.225656 218.861417,160.577955 212.79037,160.803338 C211.226915,160.859103 207.813625,160.780102 206.091845,160.303777 C205.842717,160.235233 205.595917,160.151586 205.366579,160.102791 C205.184972,160.058644 204.903247,159.938982 204.824085,159.877408 C204.782176,159.83907 204.736774,159.793761 204.736774,159.793761 C204.736774,159.793761 204.843876,159.735673 204.945157,159.690364 C205.127929,159.610202 205.897432,159.564893 206.295572,159.492863 C206.649474,159.42548 207.023166,159.236112 207.167521,158.974714 C207.307219,158.728419 207.32701,158.534404 207.158208,158.328771 C206.767053,157.851284 205.295566,157.934932 204.649462,158.034844 C203.976583,158.14405 203.139559,158.347359 202.984727,158.932891 C202.807776,159.621819 203.132574,160.296807 203.48764,160.921838 C204.2001,162.170739 205.217568,162.821329 206.712338,163.226786 C208.831093,163.807671 211.507475,164.215451 213.509815,164.292128 C218.041854,164.460584 222.329422,163.672905 226.718271,162.340357 C229.230509,161.584046 232.522727,160.31191 234.929027,159.153627 C236.654299,158.324124 239.378412,156.792913 240.908106,155.792631 C241.390065,155.475468 244.213131,153.406359 244.650851,153.042725 C245.565874,152.29687 246.763785,151.224558 247.627585,150.366011 C249.303963,148.708167 251.388957,146.168542 252.404096,144.154036 C252.645076,143.668416 252.835996,143.193253 253.147989,142.634443 C253.256255,142.443913 253.720751,141.296085 253.797585,140.96382 C253.873255,140.636201 253.985013,140.154067 254.001311,140.136641 C254.024594,139.95889 254.23647,138.976034 254.220172,138.593812 L254.220172,138.593812 Z M273.742982,137.743398 C273.827965,137.735265 273.84892,137.73178 273.926918,137.720162 C275.314586,137.531956 276.674314,137.283338 277.713901,136.81863 C278.678982,136.391099 279.247088,135.854362 279.762807,134.89358 C280.548608,133.437884 280.600995,131.401304 279.890863,129.858476 C279.358846,128.711811 278.194695,127.748705 277.13299,127.237527 C276.025882,126.703113 274.942058,126.449848 273.694088,126.308112 C271.517126,126.069949 269.158556,126.518392 267.195798,127.466395 C266.035139,128.032176 264.617203,129.005738 263.901251,130.26161 C263.375054,131.184054 263.391353,132.379513 264.0328,133.253163 C265.051432,134.644962 267.234215,134.951668 268.881488,134.89358 C270.136443,134.847109 272.392567,134.457917 273.585822,134.037357 C273.917605,133.917695 275.134143,133.443693 275.346018,133.229928 C275.495029,133.076574 275.593982,132.859324 275.526461,132.653691 C275.251722,131.823026 273.23192,131.38504 272.64868,131.297907 C271.082898,131.059745 270.272649,131.648761 268.49499,132.349307 C268.053777,132.521249 267.465881,132.711779 267.01419,132.753603 C266.208598,132.830279 265.234203,132.608382 265.0817,131.7266 C265.002537,131.272348 265.535719,130.849464 265.942007,130.674037 C266.895447,130.26161 267.670771,130.116389 268.611405,130.101286 C271.38092,130.059462 274.495024,130.513713 276.763954,132.116954 C277.07711,132.336528 277.37979,132.661823 277.384446,133.069604 C277.384446,133.121883 277.309941,133.561032 277.167914,133.606341 C277.14696,133.615635 277.124841,133.605179 277.108543,133.608664 C277.056156,133.623767 276.968844,133.766665 276.895503,133.860768 C276.732522,134.05943 276.074777,134.34174 275.945556,134.396343 C274.41819,135.03183 271.596288,135.340861 270.139935,135.460523 C268.614898,135.590641 266.215583,135.792789 265.638164,135.876436 C265.045611,135.960083 264.400671,136.077422 263.884953,136.308614 C263.371562,136.540968 262.866321,137.06144 262.714981,137.636515 C262.449554,138.675136 262.790651,139.950758 263.36807,140.782584 C264.883794,142.957414 268.429798,143.781108 271.082898,144.108727 C273.64985,144.428213 277.798884,144.424728 280.319271,143.087532 C280.709261,142.880737 280.909495,142.686722 280.825676,142.270809 C280.662695,141.491262 280.071307,140.989379 279.362339,140.768643 C278.617282,140.531642 277.072454,140.439862 276.394918,140.398038 C273.35532,140.227259 269.682424,140.316715 266.789509,139.527874 C266.5625,139.462815 266.171345,139.361741 266.042124,139.217682 C265.589269,138.727416 266.883805,138.588003 267.162037,138.527591 C267.243528,138.511327 267.26099,138.507841 267.345973,138.499709 L273.742982,137.743398 L273.742982,137.743398 Z M283.224991,126.39873 C281.997976,126.848334 281.719744,128.825664 281.662701,129.825947 C281.468288,133.082383 282.330923,137.61328 283.426389,140.665245 C283.739546,141.534248 284.190072,142.953929 285.164467,142.873767 C285.835018,142.814517 286.313484,142.298691 286.689504,141.768925 C287.651093,140.415465 288.915361,138.581033 289.75355,137.304249 C290.690691,135.872951 291.59058,134.431196 292.475334,133.12653 C292.5836,132.96853 292.686046,132.815176 292.804789,132.717588 C292.965442,132.588632 293.109797,132.581661 293.174989,132.701323 C293.205257,132.747794 293.147049,134.392858 293.106304,134.7228 C293.037619,135.247919 293.006187,135.673127 292.946816,136.126216 C292.783834,137.4425 292.363576,139.294359 292.034121,140.546745 C291.670906,141.947837 291.227365,143.40818 290.895582,144.763964 C290.789644,145.204274 290.690691,145.649231 290.694184,146.06863 C290.697676,146.675073 291.087667,147.010824 291.720965,146.784279 C292.968934,146.345131 294.623193,143.641696 295.105151,142.702987 C295.269297,142.385824 295.918893,140.77329 296.064412,140.321362 C296.582459,138.772725 296.895615,137.304249 297.038806,135.6162 C297.176176,133.975783 297.060925,131.586026 296.365927,129.968844 C296.110978,129.374019 295.58711,128.57356 295.151717,128.170427 C294.468361,127.538425 293.106304,127.044673 292.167999,127.579087 C291.141217,128.159971 289.454363,131.076009 289.166818,131.574408 C288.187767,133.279884 286.50324,136.615321 286.24247,136.98941 C286.185427,137.071896 286.110921,137.150896 285.980537,137.190396 C285.881584,137.21944 285.842003,137.013807 285.816391,136.880204 C285.648754,135.908966 285.533503,131.366451 285.531174,131.239819 C285.503235,130.475375 285.465982,128.600281 285.244793,127.676675 C285.100438,127.073717 284.953755,126.578804 284.398455,126.325539 C284.003808,126.147788 283.703457,126.222141 283.224991,126.39873 L283.224991,126.39873 Z M300.140104,126.689172 C300.007391,126.790246 299.793187,127.008658 299.637191,127.184085 C299.612744,127.208482 299.17153,127.868367 299.084219,128.071676 C299.007385,128.247103 298.949178,128.373736 298.893298,128.520119 C298.491666,129.555255 298.502144,130.574125 298.724496,131.685938 C298.930551,132.723397 299.126128,132.768706 299.65931,134.193034 C299.69307,134.270872 299.709368,134.338255 299.72101,134.424226 C299.743128,134.619403 299.426479,135.932201 299.407853,136.353923 C299.385734,136.997543 299.886319,137.454117 300.724508,137.542412 C300.801342,137.549382 300.858385,137.548221 300.914264,137.564485 C301.248376,137.645809 301.462579,138.284782 301.645351,138.797122 C301.9003,139.517418 302.29844,140.615289 302.29844,140.615289 C302.29844,140.615289 301.239062,140.859261 300.672121,141.073026 C300.038823,141.311188 299.560357,141.619057 299.273976,142.198779 C298.930551,142.877252 299.156396,143.253665 299.866528,143.473239 C300.127298,143.556887 302.183189,143.950726 302.832785,144.042506 C303.643034,144.161006 304.405553,144.26208 305.176221,144.357345 C305.846772,144.438669 308.922458,144.79417 309.901509,144.768611 C311.393951,144.725626 312.362524,144.112212 313.234473,142.851693 C313.703626,142.179029 314.023767,141.379733 313.315964,140.946393 C312.228647,140.28767 308.705926,140.237714 308.059822,140.230744 C307.031877,140.220288 305.610449,140.237714 305.610449,140.237714 L304.893332,137.845633 C304.893332,137.845633 307.417211,137.872354 308.835147,137.878163 C309.179736,137.878163 309.524324,137.859575 309.717573,137.818913 C310.441675,137.658589 310.691968,137.103263 310.721071,136.302805 C310.760653,135.36642 310.583702,134.935404 309.836317,134.809933 C309.449819,134.748359 305.114521,134.7228 304.526624,134.654256 C304.159917,134.614756 303.772255,134.556667 303.772255,134.556667 C303.772255,134.556667 303.459098,133.741106 303.186687,132.917412 C302.911947,132.058865 302.676789,131.184054 302.676789,131.184054 C302.676789,131.184054 302.896813,131.17476 303.079585,131.17476 C303.384592,131.172436 303.694257,131.216583 303.9364,131.258407 C305.258875,131.500055 307.225126,131.790497 308.838639,132.043762 C309.705932,132.182013 310.142488,132.243586 310.598836,131.669673 C310.993483,131.16198 311.198373,130.736773 311.226313,130.123359 C311.25076,129.54596 310.809547,129.163739 310.270545,128.752473 C308.565064,127.451292 305.65003,126.040905 303.477725,125.799257 C302.474226,125.686566 302.229755,125.798096 301.350821,126.026964 C301.183183,126.069949 300.575496,126.353421 300.581317,126.383627 C300.581317,126.383627 300.251862,126.602039 300.140104,126.689172 L300.140104,126.689172 Z M327.548873,138.711151 C326.431288,137.777089 324.987741,135.872951 324.298563,134.884286 C323.37772,133.573811 322.511592,132.072807 321.682716,130.909876 C321.504601,130.648479 320.970256,129.713255 320.988882,129.681887 C321.026135,129.615666 321.563973,129.636578 322.116945,129.72952 C323.293901,129.92702 324.894609,130.751876 325.749095,131.432672 C327.05178,132.474778 327.958654,133.906077 328.387061,135.580185 C328.576818,136.341143 328.673442,137.936251 328.133276,138.646092 C328.027339,138.782019 327.757256,138.888901 327.548873,138.711151 L327.548873,138.711151 Z M318.673386,125.034814 C318.673386,125.034814 318.319484,123.998517 318.059879,123.185279 C317.611681,121.781863 316.625645,118.00263 316.397471,116.828082 C316.054047,115.08543 315.07616,110.518518 315.026101,110.42093 C314.957416,110.288488 314.912015,110.246665 314.746705,110.140944 C314.343909,109.905105 314.182092,109.982943 313.694313,110.243179 C313.061015,110.575445 312.504551,110.914681 312.029577,111.540875 C311.074973,112.778158 311.303147,115.106342 311.489411,116.472581 C312.144828,121.250934 312.80723,123.352573 314.629126,128.108853 C314.659394,128.190177 314.659394,128.208765 314.622141,128.280795 C314.054035,129.487872 313.747864,130.945891 313.747864,132.123924 C313.75252,135.852039 315.899215,139.540653 318.306679,142.503163 C318.488286,142.728546 319.669899,144.141256 320.206573,144.113374 C320.744411,144.087815 320.831722,143.461622 320.751396,142.938826 C320.481312,141.217085 319.267103,139.462815 318.437064,138.010605 C317.503415,136.387614 317.300852,135.719597 316.844505,134.231372 C316.771164,133.999018 316.588392,132.911603 316.596541,132.772191 C316.615167,132.372543 316.702479,131.868335 316.702479,131.868335 C316.702479,131.868335 318.220531,133.989724 319.222865,135.299037 C319.770016,136.018172 320.163499,136.493335 320.619846,137.005675 C321.082014,137.526147 322.862001,139.372197 323.374227,139.858978 C324.451067,140.884819 324.928369,141.311188 326.09252,141.914146 C327.015691,142.390471 327.844567,142.508972 328.744456,141.915308 C330.171705,140.980084 330.793361,139.001593 330.954014,137.397191 C331.141442,135.480273 330.749123,133.324031 329.901622,131.682452 C328.896959,129.723711 327.524425,128.313324 325.658292,127.079526 C323.750248,125.817846 321.511586,124.959299 319.315997,125.010417 C319.019139,125.017387 318.673386,125.034814 318.673386,125.034814 L318.673386,125.034814 Z" id="path3402" transform="translate(231.500000, 138.500000) scale(1, -1) translate(-231.500000, -138.500000) "></path>
            </g>
        </g>
    </g>
</svg>