<?xml version="1.0" encoding="UTF-8"?>
<svg width="171px" height="42px" viewBox="0 0 171 42" version="1.1" xmlns="http://www.w3.org/2000/svg" xmlns:xlink="http://www.w3.org/1999/xlink">
    <!-- Generator: Sketch 56.3 (81716) - https://sketch.com -->
    <title>Dribbble Logo</title>
    <desc>Created with Sketch.</desc>
    <g id="Page-1" stroke="none" stroke-width="1" fill="none" fill-rule="evenodd">
        <g id="Home" transform="translate(-948.000000, -1999.000000)" fill="#DDDDDD">
            <g id="#7" transform="translate(0.000000, 1886.000000)">
                <path d="M1118.73519,146.158705 C1111.5893,158.340464 1100.27202,154.805656 1096.8734,152.038293 C1095.42727,153.024931 1092.89041,155.187633 1089.50823,154.938126 C1082.30533,154.406591 1079.72589,144.056817 1079.72589,144.056817 C1079.77761,144.098157 1077.58045,144.819119 1076.39287,144.806441 C1076.37753,147.8415 1073.76812,155.091542 1066.72621,154.999125 C1058.82399,154.8955 1057.21742,143.058053 1057.21742,143.058053 C1057.21742,143.058053 1056.43112,144.156032 1053.44091,145.249785 C1053.59129,142.91805 1053.48147,154.643972 1044.01033,154.816496 C1036.52291,154.952824 1034.50172,142.875241 1034.50172,142.875241 C1034.50172,142.875241 1033.20268,144.232464 1030.68538,144.702817 C1030.84545,142.333233 1030.58542,154.856182 1021.11281,154.816496 C1014.71155,154.789487 1012.52426,147.376844 1012.69456,146.347948 C1012.91147,145.036657 1010.53102,155.000962 1004.31304,154.845709 C1001.74713,154.769644 999.834481,152.902198 998.633936,150.411168 C997.026997,152.260424 994.693883,154.845709 992.07644,154.845709 C987.3786,154.845709 985.307889,150.894565 985.658367,139.610334 C985.688153,138.27185 985.592401,137.745276 984.269061,137.54556 C983.475094,137.412171 982.661208,137.159908 981.801092,137.026703 C981.525168,137.952158 979.185293,154.544573 971.140547,154.859489 C968.441605,154.964951 966.965867,152.614659 965.75381,150.869394 C963.896163,153.340765 961.443726,154.938126 957.950086,154.938126 C952.032149,154.938126 948,150.12767 948,144.194065 C948,138.260275 952.032149,133.450003 957.950086,133.450003 C958.996406,133.450003 959.290055,133.601031 960.246288,133.881405 C958.280281,115.88473 962.922753,113.071986 966.98414,113.071986 C970.882895,113.071986 977.544,122.171284 968.171711,145.251255 C970.252655,152.135487 974.738344,151.746344 976.894573,137.574957 C977.332763,134.693865 976.15981,130.80666 977.984748,130.264285 C981.31996,129.272686 981.674094,132.247665 983.238091,132.743189 C984.891809,133.267191 985.856996,133.216113 987.444932,133.549218 C990.157578,134.081856 991.216141,135.547297 990.88558,138.811102 C990.488504,142.940465 989.794308,148.950319 991.911616,149.68304 C993.438153,150.214943 996.225537,147.03198 996.714526,145.290206 C997.203515,143.548432 997.305479,142.952408 997.348786,141.674923 C997.415118,138.944124 997.497895,136.942921 997.961119,134.878148 C998.159565,134.078916 998.385421,133.549586 999.284459,133.513391 C1000.02397,133.49465 1001.3771,133.270682 1001.97262,133.736808 C1002.76677,134.336324 1002.66718,134.945026 1002.576,136.546245 C1001.65284,159.380751 1008.75853,147.981871 1010.8773,138.854279 C1010.12299,128.533535 1010.64048,113.261046 1017.07335,113.00474 C1020.41807,112.871719 1021.89691,115.56614 1022.05973,117.577448 C1022.51984,123.258055 1019.94224,132.667859 1016.55312,138.99612 C1014.61562,151.908211 1025.02345,154.460975 1026.6874,144.154746 C1023.9647,142.852825 1021.02181,137.583776 1023.41632,135.016314 C1024.76013,133.575308 1030.35317,135.645594 1030.44527,140.160609 C1033.18879,139.422744 1033.55481,137.865436 1033.593,138.123395 C1032.83886,127.802651 1033.53818,113.261046 1039.97068,113.00474 C1043.31576,112.871719 1044.79443,115.56614 1044.95742,117.577448 C1045.41736,123.258055 1042.83993,132.667859 1039.45045,138.99612 C1037.51313,151.908211 1047.92078,154.460975 1049.58509,144.154746 C1047.56884,143.763582 1043.31321,138.15959 1045.76857,135.016314 C1047.08076,133.336641 1052.65352,136.829743 1053.27755,140.309983 C1055.91344,139.559991 1056.27142,138.05174 1056.30869,138.306024 C1055.55456,127.985464 1056.25387,113.443675 1062.68638,113.187553 C1066.03146,113.054348 1067.51012,115.749136 1067.67312,117.76026 C1068.13324,123.440684 1065.55563,132.850672 1062.16651,139.178932 C1060.22901,152.091024 1070.63647,154.643604 1072.30079,144.337375 C1069.5304,143.87327 1065.59309,137.9562 1068.76201,134.929041 C1070.02834,133.719354 1074.86579,136.85914 1075.99818,140.440983 C1077.57149,140.379984 1078.55111,139.834853 1078.76107,139.77955 C1076.24907,127.663383 1078.11895,113.126003 1085.03899,113.00474 C1088.77895,112.939148 1092.43577,115.037912 1090.83048,126.564669 C1089.29901,137.563015 1083.79167,142.178347 1083.80446,142.2489 C1084.12515,143.566438 1086.95091,154.593078 1094.06683,148.77504 C1093.69844,147.936122 1093.32951,147.079566 1093.12321,146.041668 C1091.94386,139.995435 1094.26053,133.16669 1100.55726,132.062831 C1104.16475,131.430612 1107.563,133.19627 1108.10023,137.177914 C1108.98483,143.692478 1103.13378,148.4107 1100.90902,149.434084 C1099.91259,148.864701 1109.94198,155.332597 1115.8939,142.371449 C1116.23908,141.631379 1116.65553,141.694215 1117.1944,142.075642 C1117.57503,142.345176 1119.74332,144.4105 1118.73519,146.158705 L1118.73519,146.158705 Z M962.582624,142.887218 C962.270228,142 961.628845,140.045829 961.402042,139.198711 C960.15359,138.167383 959.262215,138 957.658947,138 C954.096654,138 952,141.127641 952,144.499821 C952,147.872359 954.284242,151 957.846536,151 C960.933731,151 963.283394,149.006803 964,146.185285 C963.498319,145.085213 963.000597,144.074472 962.582624,142.887218 L962.582624,142.887218 Z M967.167267,118 C964.695343,118 963.856785,123.79876 964.019507,128.745796 C964.163611,133.119399 965.406182,136.969921 966.050926,138.694792 C966.214579,138.911385 966.184418,138.770591 966.330197,139 C970.622225,129.75223 968.842336,118 967.167267,118 L967.167267,118 Z M1017.52853,118.007459 C1014.80004,117.639374 1014.81769,131.002415 1015.15667,134 C1016.5733,131.334608 1019.03499,118.724749 1017.52853,118.007459 L1017.52853,118.007459 Z M1039.52859,118.007459 C1036.80011,117.639374 1036.8176,131.002415 1037.15673,134 C1038.57336,131.334608 1041.03489,118.724749 1039.52859,118.007459 L1039.52859,118.007459 Z M1062.52852,118.007452 C1059.79998,117.639558 1059.81763,131.002449 1060.15677,134 C1061.57327,131.334638 1064.03501,118.72492 1062.52852,118.007452 L1062.52852,118.007452 Z M1085.99966,117.005166 C1080.68345,117.979647 1081.92159,134.16206 1082.72885,137 C1088.99051,129.147875 1089.11935,116.709808 1085.99966,117.005166 L1085.99966,117.005166 Z M1103.88104,137.474279 C1103.61715,136.43811 1102.29421,135.883737 1101.38091,136.020506 C1098.76889,136.354772 1096.2349,139.403829 1097.21572,144.045616 C1097.43388,145.079232 1097.98034,146.030785 1097.97158,145.999237 C1103.81818,142.323774 1104.31501,139.427171 1103.88104,137.474279 L1103.88104,137.474279 Z M1000.50009,130 C998.567046,130 997,128.432957 997,126.49982 C997,124.567043 998.567046,123 1000.50009,123 C1002.43295,123 1004,124.567043 1004,126.49982 C1004,128.432957 1002.43295,130 1000.50009,130 L1000.50009,130 Z" id="Dribbble-Logo"></path>
            </g>
        </g>
    </g>
</svg>