<?xml version="1.0" encoding="UTF-8"?>
<svg width="65px" height="65px" viewBox="0 0 65 65" version="1.1" xmlns="http://www.w3.org/2000/svg" xmlns:xlink="http://www.w3.org/1999/xlink">
    <!-- Generator: Sketch 56.3 (81716) - https://sketch.com -->
    <title>GE Logo</title>
    <desc>Created with Sketch.</desc>
    <g id="Page-1" stroke="none" stroke-width="1" fill="none" fill-rule="evenodd">
        <g id="Home" transform="translate(-821.000000, -1987.000000)" fill="#DDDDDD">
            <g id="#7" transform="translate(0.000000, 1886.000000)">
                <path d="M847.554893,118.194207 C846.44959,118.996968 845.772467,120.275047 845.184964,121.521439 C844.55763,122.926271 844.059746,124.426166 844,126 C844.418223,125.79931 844.826488,125.535244 845.165049,125.207802 C846.549167,123.919159 847.764004,122.398139 848.580534,120.634177 C848.869307,120.000419 849.108291,119.282159 848.948968,118.563899 C848.739857,117.982954 848.002988,117.835077 847.554893,118.194207 L847.554893,118.194207 Z M862.962608,118.794278 C861.681083,120.491858 860.971315,122.75155 861.000889,125 C862.44014,123.639688 863.780812,122.043288 864.67788,120.15459 C864.934185,119.547509 865.279211,118.558191 864.618732,118.119743 C864.027259,117.759991 863.356923,118.277135 862.962608,118.794278 L862.962608,118.794278 Z M842.207131,139.944236 C840.899394,141.193787 839.622306,142.649786 839.152338,144.486084 C838.917354,145.485725 838.866271,146.735276 839.652956,147.463276 C840.470292,148.267335 841.71673,148.02829 842.666883,147.647992 C844.505889,146.898261 845.619509,145.007635 846.365328,143.160473 C847.233748,140.878683 847.775233,138.444774 848,136 C845.915793,137.021372 843.964404,138.368715 842.207131,139.944236 L842.207131,139.944236 Z M846.814099,116.561078 C848.008382,115.94058 849.533224,115.761793 850.748833,116.413841 C851.729851,116.960721 852.113727,118.159649 852.017758,119.21134 C851.836483,121.293689 850.812813,123.228801 849.522561,124.858923 C848.136341,126.520595 846.41956,127.982446 844.361555,128.771214 C844.521504,129.423263 845.022676,130.106862 845.758439,130.106862 C847.059354,130.14893 848.189657,129.339128 849.128021,128.539842 C849.799805,128.035031 849.831795,127.15161 850.151692,126.43646 C850.610211,125.332184 851.228679,124.143773 852.358982,123.575859 C852.892144,123.30242 853.713213,123.249835 854.075763,123.807231 C854.480966,124.564449 854.118416,125.426836 853.734539,126.110435 C853.201377,127.109542 852.369645,127.877277 851.708524,128.771214 C851.46327,129.602051 851.409954,130.474954 851.399291,131.337341 C852.316329,130.937699 853.137398,130.369785 854.011783,129.864973 C855.515299,128.907934 857.082795,128.013997 858.479679,126.899204 C858.639627,126.362841 858.426363,125.773894 858.447689,125.216498 C858.362383,122.513651 859.311411,119.747703 861.177477,117.749489 C862.33977,116.540044 864.088541,115.688174 865.794658,116.108851 C866.818329,116.298155 867.628735,117.118475 867.916642,118.086031 C868.279192,119.547882 867.77802,121.072834 866.999604,122.31383 C865.656036,124.385662 863.704664,125.963199 861.731966,127.414533 C861.998546,128.066581 862.37176,128.802765 863.075533,129.034137 C864.099204,128.844833 865.133538,128.571393 866.167871,128.781731 C866.860982,128.918451 867.703377,129.12879 868.044601,129.812389 C868.353835,130.474954 867.756694,131.158554 867.138226,131.368892 C865.826648,131.789569 864.429764,131.54768 863.09686,131.453027 C861.497374,131.831636 860.111154,132.862294 859.119473,134.13484 C857.573304,136.133054 857.093458,138.783316 857.424019,141.244274 C857.754579,143.284555 858.788913,145.335353 860.612326,146.439629 C862.67033,147.733209 865.624046,147.459769 867.330164,145.713962 C868.929649,144.073323 869.441485,141.475646 868.545773,139.372263 C868.161896,138.457292 867.351491,137.668523 866.32782,137.510769 C865.133538,137.247847 863.715327,138.005064 863.544716,139.256577 C863.374104,140.224133 864.056551,141.023418 864.632366,141.707018 C865.080221,142.159245 865.133538,143.000598 864.579049,143.400241 C863.725991,143.978671 862.531708,143.568511 861.849261,142.895429 C860.153807,141.25479 860.207123,138.289021 861.827935,136.606315 C863.885939,134.282077 867.980621,134.240009 870.081279,136.52218 C872.331221,138.983137 872.608466,142.916463 870.881021,145.734995 C869.59077,147.943547 867.244858,149.542118 864.675019,149.899693 C861.881251,150.309853 858.852892,149.436949 856.890857,147.386151 C853.052092,143.526444 853.105408,136.743035 856.773561,132.778158 C857.754579,131.621298 859.055494,130.800979 860.356408,130.033244 C860.068501,129.665152 859.780594,129.29706 859.482023,128.939485 C856.954836,130.737877 854.310354,132.378516 851.601892,133.882434 C851.13271,134.050705 851.218016,134.597584 851.154036,134.98671 C850.908782,138.278504 850.631538,141.717535 848.968073,144.66227 C847.83777,146.744619 846.142316,148.658697 843.860383,149.510567 C842.047633,150.18365 839.86167,150.246751 838.208869,149.163509 C836.620046,148.174919 835.894946,146.218773 836.012242,144.430898 C836.26816,142.159245 837.579738,140.108447 839.243202,138.562461 C841.535798,136.501146 844.308239,135.070845 847.027364,133.661579 C847.581852,133.356589 848.189657,133.125217 848.680166,132.736091 C848.861441,132.241796 848.89343,131.705433 848.946746,131.190105 C847.528536,132.031458 845.747776,132.715057 844.126964,132.063008 C842.804723,131.558196 841.972991,130.306684 841.557124,129.02362 C840.298863,128.897417 839.040601,128.403123 838.240858,127.404016 C836.854638,125.763377 836.758669,123.260352 837.771676,121.398858 C838.102236,120.736293 838.859326,120.378718 839.595089,120.420785 C839.744374,120.704742 840.010955,120.988699 839.914986,121.335757 C839.691058,122.545202 839.264529,123.796715 839.669732,125.016676 C839.872333,125.847513 840.565444,126.510078 841.439829,126.625764 C841.621104,124.648585 842.015644,122.671405 842.954008,120.904563 C843.839057,119.169273 845.054666,117.497084 846.814099,116.561078 L846.814099,116.561078 Z M846.152704,106.079994 C840.832371,107.519048 835.853221,110.652989 832.697272,115.225984 C830.564874,118.242669 829.338745,121.802996 828.709687,125.405962 C828.411152,127.66581 828.29387,130.117533 829.413379,132.174848 C829.935816,133.198175 830.842086,133.965671 831.289889,135.031637 C831.716369,135.969687 831.417833,137.238187 830.500902,137.78183 C829.637281,138.40009 828.421814,138.165578 827.643488,137.515338 C826.523979,136.641246 826.04419,135.202192 825.809626,133.848415 C825.329836,130.789091 825.948232,127.708449 826.726557,124.755722 C826.118824,125.011554 826.20412,125.853668 825.980218,126.386651 C824.647469,131.545927 824.658131,137.056973 826.108162,142.184271 C827.494221,147.087715 830.308986,151.639391 834.360543,154.762672 C837.420534,157.182416 841.173555,158.557512 844.958561,159.293029 C847.250889,159.687437 849.735133,159.836672 851.878193,158.792025 C852.944393,158.259042 853.744042,157.331651 854.778255,156.766689 C855.6632,156.318983 856.804033,156.468218 857.486401,157.182416 C858.275388,157.981891 858.296712,159.335668 857.64633,160.20976 C856.953301,161.15847 855.833792,161.691453 854.724945,161.989924 C852.283349,162.608184 849.735133,162.331033 847.293537,161.883327 C846.39793,161.744751 845.544971,161.350344 844.638702,161.350344 C845.118491,161.830029 845.843507,161.915306 846.472564,162.10718 C851.27046,163.290402 856.35623,163.290402 861.154125,162.149819 C866.677037,160.817361 871.901412,157.715399 875.185305,153.003828 C877.317704,150.072421 878.479861,146.586711 879.204876,143.079682 C879.588708,140.478725 879.791285,137.557977 878.213311,135.298129 C877.477633,134.210843 876.304814,133.176856 876.539378,131.737801 C876.635336,130.394684 878.149339,129.541911 879.38613,129.978957 C881.006752,130.501281 881.763754,132.238806 882.094275,133.773797 C882.723333,136.961036 882.094275,140.222893 881.251978,143.314195 C881.47588,143.282216 881.603824,143.1543 881.657134,142.941107 C883.107165,138.41075 883.363052,133.528625 882.520755,128.859692 C881.561176,123.380626 879.034284,118.040135 874.822798,114.319913 C872.295906,112.017426 869.182605,110.397157 865.888049,109.501745 C863.137256,108.680951 860.173222,108.115989 857.337133,108.819527 C855.940412,109.128657 854.863551,110.098686 853.744042,110.91948 C852.805787,111.644338 851.291784,111.697636 850.438825,110.791565 C849.671161,109.98143 849.735133,108.627653 850.396177,107.76422 C851.281122,106.602317 852.741815,106.069334 854.127874,105.824162 C856.334906,105.493712 858.60591,105.706905 860.791618,106.143952 C861.655239,106.293187 862.46555,106.687594 863.350496,106.751552 C863.169242,106.602317 862.987988,106.431763 862.753424,106.357145 C857.411767,104.63028 851.558334,104.566322 846.152704,106.079994 L846.152704,106.079994 Z M851.636619,103.09763 C857.553059,102.617159 863.597653,103.91977 868.798567,106.791921 C877.662548,111.564604 883.942091,120.875073 884.828489,130.922264 C885.501297,137.115007 884.17704,143.499938 881.165422,148.945281 C878.153805,154.433332 873.433468,158.981795 867.816054,161.757852 C863.405422,163.978698 858.450137,165.099798 853.505531,164.993026 C846.745411,164.93964 840.049367,162.515929 834.763018,158.319812 C830.202873,154.710938 826.67864,149.810129 824.756331,144.322078 C821.744713,135.876458 822.631112,126.128227 827.223294,118.408653 C830.298989,113.070081 835.051364,108.713807 840.604701,106.044521 C844.054178,104.389564 847.81336,103.364559 851.636619,103.09763 L851.636619,103.09763 Z M851.144986,101.087918 C844.751733,101.535427 838.507656,103.954111 833.467642,107.928424 C829.12023,111.338023 825.657218,115.866395 823.526133,120.959483 C821.224562,126.446805 820.446717,132.573427 821.395049,138.454984 C822.343382,145.050426 825.476076,151.283597 830.100529,156.078345 C834.469251,160.606718 840.169902,163.835181 846.31808,165.19902 C852.167907,166.52024 858.390673,166.211245 864.070013,164.240071 C870.463266,162.066452 876.121295,157.825764 880.010524,152.317132 C883.857131,146.93636 885.956249,140.362228 885.998871,133.756131 C886.052148,127.448374 884.219415,121.119308 880.756403,115.83443 C877.975338,111.508502 874.118075,107.885804 869.674765,105.317951 C864.101979,102.100142 857.55955,100.608443 851.144986,101.087918 L851.144986,101.087918 Z" id="GE-Logo"></path>
            </g>
        </g>
    </g>
</svg>