<?xml version="1.0" encoding="UTF-8"?>
<svg width="99px" height="60px" viewBox="0 0 99 60" version="1.1" xmlns="http://www.w3.org/2000/svg" xmlns:xlink="http://www.w3.org/1999/xlink">
    <!-- Generator: Sketch 56.3 (81716) - https://sketch.com -->
    <title>Georgia-Pacific_logo</title>
    <desc>Created with Sketch.</desc>
    <g id="Web" stroke="none" stroke-width="1" fill="none" fill-rule="evenodd">
        <g id="Home" transform="translate(-955.000000, -1991.000000)" fill-rule="nonzero">
            <g id="#7" transform="translate(0.000000, 1886.000000)">
                <g id="Georgia-Pacific_logo" transform="translate(954.000000, 103.000000)">
                    <g id="g5156" transform="translate(50.686492, 31.864401) scale(-1, 1) rotate(-180.000000) translate(-50.686492, -31.864401) translate(0.186492, 0.364401)">
                        <g id="g6284" transform="translate(0.531088, 0.261338)">
                            <g id="g5508" transform="translate(0.262116, 0.611847)" fill="#DDDDDD">
                                <path d="M49.5409266,60.0467732 L49.5409266,60.0467732 L98.8355745,10.3205391 L59.1971983,10.3205391 C57.2644428,10.3205391 56.0372368,10.1366459 54.8850894,9.46487263 C53.5528016,8.74055843 52.9298163,7.77230421 52.1904904,6.21484103 L49.5409266,0.836901902 C49.5409266,0.836901902 46.8876098,6.21484103 46.8913627,6.21484103 C46.140778,7.77230421 45.5215457,8.74055843 44.1930108,9.46487263 C43.0296046,10.1366459 41.8174104,10.3205391 39.877149,10.3205391 L0.242525754,10.3205391 L49.5409266,60.0467732 Z" id="path5510"></path>
                            </g>
                            <g id="g5512" transform="translate(24.096336, 14.334478)" fill="#FFFFFF">
                                <path d="M24.2704633,1.75292333 C21.9586625,0.983574044 18.5397494,0.0603549062 14.1300645,0.0603549062 C4.5000632,0.0603549062 0.304294922,4.97293154 0.304294922,11.2328076 C0.304294922,18.4234087 6.01999715,22.7355176 14.3402282,22.7355176 C18.6973721,22.7355176 21.3544419,21.9811801 24.184146,20.8140209 L24.184146,15.7137981 L23.4448202,15.7137981 C21.4032299,17.2787671 19.0538999,18.6335724 15.1546125,18.6335724 C10.23453,18.6335724 7.1383683,15.9051972 7.1383683,11.5142769 C7.1383683,7.63375418 9.07112381,4.03845363 15.3572704,4.24486442 C15.9765027,4.2748878 17.0273213,4.40624012 17.7178592,4.60889798 L17.7178592,8.63203178 L12.5613425,8.63203178 L12.5613425,12.7264711 L24.2704633,12.7264711 L24.2704633,1.75292333 Z" id="path5514"></path>
                            </g>
                            <g id="g5516" transform="translate(50.742399, 14.797964)" fill="#FFFFFF">
                                <path d="M18.7646166,20.51754 C16.9632134,21.5270763 14.636401,21.8122985 11.99059,21.8122985 L0.735572972,21.8122985 L0.735572972,0.0528490595 L7.29568295,0.0528490595 L7.29568295,7.14587415 L11.8367202,7.14587415 C14.3812022,7.14587415 16.786826,7.46862555 18.7158286,8.55697332 C20.997606,9.83672017 22.2022944,11.8482871 22.2022944,14.9406959 C22.2022944,17.6352948 21.046394,19.2265343 18.7646166,20.51754 M15.4582912,14.5654036 C15.4582912,12.9854228 14.5913659,12.193556 13.6981701,11.7807345 C12.8612682,11.4016892 11.6190506,11.2515723 10.5194441,11.2515723 L7.29568295,11.2515723 L7.29568295,17.6953416 L10.5194441,17.6953416 C11.6190506,17.6953416 12.8612682,17.6503065 13.6981701,17.2675084 C14.5913659,16.8584397 15.4582912,16.1566431 15.4582912,14.5654036" id="path5518"></path>
                            </g>
                        </g>
                    </g>
                </g>
            </g>
        </g>
    </g>
</svg>