<?xml version="1.0" encoding="UTF-8"?>
<svg width="142px" height="65px" viewBox="0 0 142 65" version="1.1" xmlns="http://www.w3.org/2000/svg" xmlns:xlink="http://www.w3.org/1999/xlink">
    <!-- Generator: Sketch 56.3 (81716) - https://sketch.com -->
    <title>Keller_Williams_Realty_logo</title>
    <desc>Created with Sketch.</desc>
    <defs>
        <rect id="path-1" x="0" y="0" width="141.905696" height="64.6017722"></rect>
        <polygon id="path-3" points="0 0 0 64.6017722 141.905696 64.6017722 141.905696 0"></polygon>
        <polygon id="path-5" points="0 0 0 64.6017722 141.905696 64.6017722 141.905696 0"></polygon>
        <polygon id="path-7" points="0 0 0 64.6017722 141.905696 64.6017722 141.905696 0"></polygon>
        <polygon id="path-9" points="0 0 0 64.6017722 141.905696 64.6017722 141.905696 0"></polygon>
        <polygon id="path-11" points="0 0 0 64.6017722 141.905696 64.6017722 141.905696 0"></polygon>
        <polygon id="path-13" points="0 0 0 64.6017722 141.905696 64.6017722 141.905696 0"></polygon>
        <polygon id="path-15" points="0 0 0 64.6017722 141.905696 64.6017722 141.905696 0"></polygon>
        <polygon id="path-17" points="0 0 0 64.6017722 141.905696 64.6017722 141.905696 0"></polygon>
        <polygon id="path-19" points="0 0 0 64.6017722 141.905696 64.6017722 141.905696 0"></polygon>
        <polygon id="path-21" points="0 0 0 64.6017722 141.905696 64.6017722 141.905696 0"></polygon>
        <polygon id="path-23" points="0 0 0 64.6017722 141.905696 64.6017722 141.905696 0"></polygon>
        <polygon id="path-25" points="0 0 0 64.6017722 141.905696 64.6017722 141.905696 0"></polygon>
        <polygon id="path-27" points="0 0 0 64.6017722 141.905696 64.6017722 141.905696 0"></polygon>
        <polygon id="path-29" points="0 0 0 64.6017722 141.905696 64.6017722 141.905696 0"></polygon>
        <polygon id="path-31" points="0 0 0 64.6017722 141.905696 64.6017722 141.905696 0"></polygon>
        <polygon id="path-33" points="0 0 0 64.6017722 141.905696 64.6017722 141.905696 0"></polygon>
        <polygon id="path-35" points="0 0 0 64.6017722 141.905696 64.6017722 141.905696 0"></polygon>
    </defs>
    <g id="Web" stroke="none" stroke-width="1" fill="none" fill-rule="evenodd">
        <g id="Home" transform="translate(-1166.000000, -1992.000000)">
            <g id="#7" transform="translate(0.000000, 1886.000000)">
                <g id="Keller_Williams_Realty_logo" transform="translate(1166.000000, 106.000000)">
                    <mask id="mask-2" fill="white">
                        <use xlink:href="#path-1"></use>
                    </mask>
                    <g id="Rectangle"></g>
                    <g id="Group" mask="url(#mask-2)">
                        <g id="Clipped">
                            <mask id="mask-4" fill="white">
                                <use xlink:href="#path-3"></use>
                            </mask>
                            <g id="Path"></g>
                            <path d="M141.040949,63.9871519 L140.75462,63.2622785 C140.921646,63.1199367 140.942215,63.026962 140.942215,62.8722785 C140.94057,62.6032278 140.746392,62.4378481 140.434557,62.4378481 L140.040443,62.4378481 L140.040443,63.9887975 L140.260949,63.9887975 L140.260949,63.2918987 L140.53,63.2918987 L140.808924,63.9871519 L141.040949,63.9871519 Z M140.260949,63.115 L140.260949,62.6270886 L140.408228,62.6270886 C140.619684,62.6270886 140.711013,62.7184177 140.711835,62.8632278 C140.711835,62.9907595 140.644367,63.115 140.408228,63.115 L140.260949,63.115 Z" id="Shape" fill="#DDDDDD" fill-rule="nonzero" mask="url(#mask-4)"></path>
                        </g>
                        <g id="Clipped">
                            <mask id="mask-6" fill="white">
                                <use xlink:href="#path-5"></use>
                            </mask>
                            <g id="Path"></g>
                            <path d="M140.497089,64.6017722 C139.718734,64.6017722 139.086013,63.9698734 139.086013,63.1923418 C139.086013,62.4172785 139.718734,61.7870253 140.497089,61.7870253 C141.271329,61.7870253 141.905696,62.4172785 141.905696,63.1923418 C141.905696,63.9698734 141.271329,64.6017722 140.497089,64.6017722 Z M140.497089,61.9647468 C139.818291,61.9647468 139.26538,62.518481 139.26538,63.1923418 C139.26538,63.8736076 139.818291,64.4199367 140.497089,64.4199367 C141.171772,64.4199367 141.722215,63.8736076 141.722215,63.1923418 C141.722215,62.518481 141.171772,61.9647468 140.497089,61.9647468 Z" id="Shape" fill="#DDDDDD" fill-rule="nonzero" mask="url(#mask-6)"></path>
                        </g>
                        <g id="Clipped">
                            <mask id="mask-8" fill="white">
                                <use xlink:href="#path-7"></use>
                            </mask>
                            <g id="Path"></g>
                            <polygon id="Path" fill="#DDDDDD" fill-rule="nonzero" mask="url(#mask-8)" points="66.2868354 50.0796203 62.5012025 61.8298101 57.9413291 50.1520253 56.7713291 50.1520253 62.2535443 64.48 62.7677848 64.48 66.6867089 51.8494304 70.6722785 64.48 71.1873418 64.48 76.6432278 50.1520253 75.4460759 50.1520253 70.9512025 61.8199367 67.1170253 50.0796203"></polygon>
                        </g>
                        <g id="Clipped">
                            <mask id="mask-10" fill="white">
                                <use xlink:href="#path-9"></use>
                            </mask>
                            <g id="Path"></g>
                            <polygon id="Path" fill="#DDDDDD" fill-rule="nonzero" mask="url(#mask-10)" points="81.3725949 50.1396835 81.3725949 64.3631646 88.3317089 64.3631646 88.3317089 63.4465823 82.4751266 63.4465823 82.4751266 50.1396835"></polygon>
                        </g>
                        <g id="Clipped">
                            <mask id="mask-12" fill="white">
                                <use xlink:href="#path-11"></use>
                            </mask>
                            <g id="Path"></g>
                            <polygon id="Path" fill="#DDDDDD" fill-rule="nonzero" mask="url(#mask-12)" points="90.3606962 50.1396835 90.3606962 64.3631646 97.3181646 64.3631646 97.3181646 63.4465823 91.4582911 63.4465823 91.4582911 50.1396835"></polygon>
                        </g>
                        <g id="Clipped">
                            <mask id="mask-14" fill="white">
                                <use xlink:href="#path-13"></use>
                            </mask>
                            <g id="Path"></g>
                            <polygon id="Path" fill="#DDDDDD" fill-rule="nonzero" mask="url(#mask-14)" points="99.2582911 64.3631646 100.360823 64.3631646 100.360823 50.1413291 99.2582911 50.1413291"></polygon>
                        </g>
                        <g id="Clipped">
                            <mask id="mask-16" fill="white">
                                <use xlink:href="#path-15"></use>
                            </mask>
                            <g id="Path"></g>
                            <polygon id="Path" fill="#DDDDDD" fill-rule="nonzero" mask="url(#mask-16)" points="78.2377848 64.3631646 79.3468987 64.3631646 79.3468987 50.1413291 78.2377848 50.1413291"></polygon>
                        </g>
                        <g id="Clipped">
                            <mask id="mask-18" fill="white">
                                <use xlink:href="#path-17"></use>
                            </mask>
                            <g id="Path"></g>
                            <path d="M107.801266,50.0656329 L101.92,64.3631646 L102.94519,64.3631646 L104.96019,59.4503165 L111.177975,59.4503165 L113.188038,64.3631646 L114.218987,64.3631646 L108.339367,50.0656329 L107.801266,50.0656329 Z M108.058797,51.8543671 L110.803608,58.5386709 L105.336203,58.5386709 L108.058797,51.8543671 Z" id="Shape" fill="#DDDDDD" fill-rule="nonzero" mask="url(#mask-18)"></path>
                        </g>
                        <g id="Clipped">
                            <mask id="mask-20" fill="white">
                                <use xlink:href="#path-19"></use>
                            </mask>
                            <g id="Path"></g>
                            <polygon id="Path" fill="#DDDDDD" fill-rule="nonzero" mask="url(#mask-20)" points="127.671519 50.1676582 122.260886 56.7696835 116.850253 50.1676582 115.745253 50.1676582 115.745253 64.3631646 116.850253 64.3631646 116.850253 51.7753797 116.891392 51.7753797 122.260886 58.4078481 127.626266 51.7753797 127.671519 51.7753797 127.671519 64.3631646 128.775696 64.3631646 128.775696 50.1676582"></polygon>
                        </g>
                        <g id="Clipped">
                            <mask id="mask-22" fill="white">
                                <use xlink:href="#path-21"></use>
                            </mask>
                            <g id="Path"></g>
                            <path d="M137.901203,52.4714557 C137.002722,51.3105063 135.724937,51.0348734 134.745,51.0348734 C133.041013,51.0348734 131.750886,52.2024051 131.750886,53.7467722 C131.750886,57.5307595 138.511709,55.7231013 138.511709,60.6968354 C138.511709,62.8805063 136.703228,64.5853165 134.39038,64.5853165 C133.226139,64.5853165 131.977975,64.2677215 130.747911,63.3363291 L130.747911,62.0470253 C132.132658,63.3593671 133.226139,63.5675316 134.327848,63.5675316 C136.016203,63.5675316 137.321139,62.3382911 137.321139,60.7371519 C137.321139,56.6997468 130.563608,58.4662658 130.563608,53.7879114 C130.563608,51.6889873 132.39019,50.0244937 134.643797,50.0179114 C135.787468,50.0179114 137.248734,50.4860759 137.901203,51.2660759 L137.901203,52.4714557 Z" id="Path" fill="#DDDDDD" fill-rule="nonzero" mask="url(#mask-22)"></path>
                        </g>
                        <g id="Clipped">
                            <mask id="mask-24" fill="white">
                                <use xlink:href="#path-23"></use>
                            </mask>
                            <g id="Path"></g>
                            <polygon id="Path" fill="#DDDDDD" fill-rule="nonzero" mask="url(#mask-24)" points="21.2171519 50.1841139 21.2171519 64.4026582 28.5267722 64.4026582 28.5267722 62.5653797 23.2601266 62.5653797 23.2601266 50.1841139"></polygon>
                        </g>
                        <g id="Clipped">
                            <mask id="mask-26" fill="white">
                                <use xlink:href="#path-25"></use>
                            </mask>
                            <g id="Path"></g>
                            <polygon id="Path" fill="#DDDDDD" fill-rule="nonzero" mask="url(#mask-26)" points="29.8358228 50.1841139 29.8358228 64.4026582 37.145443 64.4026582 37.145443 62.5653797 31.8796203 62.5653797 31.8796203 50.1841139"></polygon>
                        </g>
                        <g id="Clipped">
                            <mask id="mask-28" fill="white">
                                <use xlink:href="#path-27"></use>
                            </mask>
                            <g id="Path"></g>
                            <polygon id="Path" fill="#DDDDDD" fill-rule="nonzero" mask="url(#mask-28)" points="38.4627215 50.1841139 38.4627215 64.4026582 46.7201899 64.4026582 46.7201899 62.5653797 40.5056962 62.5653797 40.5056962 58.1494937 46.3260759 58.1494937 46.3260759 56.3122152 40.5056962 56.3122152 40.5056962 52.0181013 46.5317722 52.0181013 46.5317722 50.1841139"></polygon>
                        </g>
                        <g id="Clipped">
                            <mask id="mask-30" fill="white">
                                <use xlink:href="#path-29"></use>
                            </mask>
                            <g id="Path"></g>
                            <path d="M57.2123418,64.3993671 L54.5794304,57.7570253 C56.1451899,56.4636076 56.3220886,55.5856962 56.3048101,54.1631013 C56.2825949,51.7029747 54.5152532,50.1841139 51.6363291,50.1841139 L48.0506329,50.1841139 L48.0506329,64.4043038 L50.0944304,64.4043038 L50.0944304,58.0458228 C50.0944304,58.0458228 51.781962,58.0474684 52.5290506,58.0425316 L55.0994304,64.3993671 L57.2123418,64.3993671 Z M50.0944304,56.3986076 L50.0944304,51.9358228 L51.4067722,51.9358228 C53.388038,51.9358228 54.1803797,52.7503797 54.2017722,54.0824684 C54.2231646,55.2738608 53.5962025,56.3986076 51.4067722,56.3986076 L50.0944304,56.3986076 Z" id="Shape" fill="#DDDDDD" fill-rule="nonzero" mask="url(#mask-30)"></path>
                        </g>
                        <g id="Clipped">
                            <mask id="mask-32" fill="white">
                                <use xlink:href="#path-31"></use>
                            </mask>
                            <g id="Path"></g>
                            <polygon id="Path" fill="#DDDDDD" fill-rule="nonzero" mask="url(#mask-32)" points="11.6415823 50.1841139 11.6415823 64.3796203 19.8825949 64.3796203 19.8825949 62.5448101 13.6820886 62.5448101 13.6820886 58.1338608 19.488481 58.1338608 19.488481 56.3031646 13.6820886 56.3031646 13.6820886 52.0164557 19.6966456 52.0164557 19.6966456 50.1841139"></polygon>
                        </g>
                        <g id="Clipped">
                            <mask id="mask-34" fill="white">
                                <use xlink:href="#path-33"></use>
                            </mask>
                            <g id="Path"></g>
                            <polygon id="Path" fill="#DDDDDD" fill-rule="nonzero" mask="url(#mask-34)" points="8.00405063 50.1841139 7.28246835 50.9649367 2.04708861 56.6618987 2.04708861 50.1841139 0.00740506329 50.1841139 0.00740506329 64.3508228 2.04708861 64.3508228 2.04708861 59.4873418 4.31632911 57.0008861 7.28740506 64.3541139 9.39291139 64.3541139 9.39291139 64.3524684 8.64993671 62.5242405 5.77018987 55.4046835 8.86962025 52.011519 10.5390506 50.1841139"></polygon>
                        </g>
                        <g id="Clipped">
                            <mask id="mask-36" fill="white">
                                <use xlink:href="#path-35"></use>
                            </mask>
                            <g id="Path"></g>
                            <polygon id="Path" fill="#DDDDDD" fill-rule="nonzero" mask="url(#mask-36)" points="0 0 0 43.0118987 6.00139241 43.0118987 6.00139241 32.9229114 10.4024684 28.5489873 16.5231646 43.0118987 22.6035443 43.0118987 14.5205063 23.8220886 20.1952532 17.5351899 31.2 43.0118987 33.5103797 43.0118987 41.7670253 23.3070253 50.156962 43.0118987 52.4344304 43.0118987 65.0098734 14.0029747 58.8521519 14.0029747 51.2825316 31.6039873 43.9408228 14.0029747 39.6936076 14.0029747 32.2901899 31.6039873 24.6786076 14.0029747 16.6967722 14.0029747 6.00139241 24.6777848 6.00139241 0"></polygon>
                        </g>
                    </g>
                </g>
            </g>
        </g>
    </g>
</svg>