<?xml version="1.0" encoding="UTF-8"?>
<svg width="113px" height="41px" viewBox="0 0 113 41" version="1.1" xmlns="http://www.w3.org/2000/svg" xmlns:xlink="http://www.w3.org/1999/xlink">
    <!-- Generator: Sketch 56.3 (81716) - https://sketch.com -->
    <title>Nike Logo</title>
    <desc>Created with Sketch.</desc>
    <g id="Page-1" stroke="none" stroke-width="1" fill="none" fill-rule="evenodd">
        <g id="Home" transform="translate(-132.000000, -1999.000000)" fill="#DDDDDD">
            <g id="#7" transform="translate(0.000000, 1886.000000)">
                <path d="M146.47721,114.815958 C139.126971,123.52807 132.071963,134.32084 132.0007,142.387231 C131.970159,145.421096 132.937296,148.075727 135.238063,150.084638 C138.556869,152.975009 142.221808,153.989714 145.856206,153.999964 C151.170368,154.010213 156.453989,151.84756 160.587226,150.176884 C167.55061,147.368509 244.524513,113.678259 244.524513,113.678259 C245.267681,113.299026 245.125156,112.827547 244.198741,113.063286 C243.822066,113.155532 160.403979,135.950517 160.403979,135.950517 C158.795478,136.401497 157.146255,136.637237 155.547934,136.647486 C149.134291,136.688485 143.433274,133.101144 143.473996,125.536981 C143.494356,122.585112 144.39023,119.018271 146.47721,114.815958" id="Nike-Logo"></path>
            </g>
        </g>
    </g>
</svg>