<?xml version="1.0" encoding="UTF-8"?>
<svg width="192px" height="40px" viewBox="0 0 192 40" version="1.1" xmlns="http://www.w3.org/2000/svg" xmlns:xlink="http://www.w3.org/1999/xlink">
    <!-- Generator: Sketch 56.3 (81716) - https://sketch.com -->
    <title>Tumblr Logo</title>
    <desc>Created with Sketch.</desc>
    <g id="Page-1" stroke="none" stroke-width="1" fill="none" fill-rule="evenodd">
        <g id="Home" transform="translate(-566.000000, -2000.000000)" fill="#DDDDDD">
            <g id="#7" transform="translate(0.000000, 1886.000000)">
                <path d="M602.117232,154 C592.979828,154 591,147.119031 591,142.716233 L591,125 L600.588214,125 L600.588214,142.224192 C600.588214,144.68025 601.24608,146.562029 604.350512,146.561338 C604.399678,146.561338 604.45023,146.561338 604.500782,146.559956 C609.244337,146.470117 609.927825,142.919407 609.927825,141.974025 L609.940982,132.328091 C609.929902,131.560314 609.582965,131.209942 608.757517,131.209942 L606.248626,131.209251 L606.248626,125 L619.269513,125 L619.269513,146.146697 C619.269513,146.940044 619.733481,147.345701 620.488987,147.394767 C621.135773,147.437613 622,147.504647 622,147.504647 L622,153.579139 L611.315574,153.579139 L611.237323,150.017372 C609.366215,152.330378 605.765961,153.907397 602.623442,153.993089 C602.451704,153.997927 602.284122,154 602.117232,154 M693.847221,132 C693.775446,132 693.702987,132.001356 693.630528,132.004069 C690.817623,132.107831 689,133.820915 689,135.773397 L689,140.289402 L689.001367,140.289402 L689,140.291437 L689,144.196401 C690.362362,146.568677 692.397361,147 693.735799,147 C693.901224,147 694.056395,146.993218 694.197895,146.983045 C695.750974,146.869111 699,146.626322 699,139.276879 C699,133.966724 696.606125,132 693.847221,132 M725,154 L709.412458,154 L709.412458,147.871097 C709.412458,147.871097 710.827663,147.776259 711.459198,147.733024 C712.19689,147.684211 712.651946,147.246282 712.651946,146.445738 L712.651946,123.743903 C712.641127,122.96916 712.304399,122.61561 711.499768,122.61561 L709,122.61561 L709,116.486707 C712.960276,116.050871 718.458141,114 718.458141,114 L721.767274,114 L721.75916,146.445738 C721.75916,147.246282 722.214216,147.684211 722.952584,147.733024 C723.583443,147.776259 725,147.871097 725,147.871097 L725,154 M743.763321,154 L728.295703,154 L728.295703,147.93057 C728.295703,147.93057 729.583246,147.837353 730.223252,147.794543 C730.969356,147.746208 731.432761,147.312579 731.432761,146.519893 L731.432761,132.761828 C731.421809,131.99469 731.119261,131.645301 730.303338,131.645301 L728,131.648754 L728,125.443987 L738.98552,125.443987 L739.851411,128.065787 C741.929549,126.06543 744.836615,125 747.476043,125 C750.872525,125 753.826822,126.764899 754,130.574347 C754,132.967594 752.065607,135.56799 748.623262,135.56799 C747.259741,135.56799 744.465617,134.696588 744.087774,131.778566 C741.028749,132.524989 740.63174,135.443011 740.63174,137.191338 L740.635162,146.519893 C740.635162,147.312579 741.097883,147.746208 741.845356,147.794543 C742.483993,147.837353 743.763321,147.93057 743.763321,147.93057 L743.763321,154 M640.141826,154 L624.663569,153.995159 L624.663569,147.916176 C624.663569,147.916176 625.95787,147.822813 626.596812,147.779935 C627.343156,147.730833 627.804234,147.296521 627.804234,146.502587 L627.804234,144.934777 L627.80355,132.77197 C627.792604,132.004316 627.448506,131.652994 626.633753,131.652994 L624,131.613574 L624,125.39835 L635.445537,125.39835 L635.719858,129.12458 C637.546383,126.62867 640.855334,125.171512 643.958374,125.020056 C644.231326,125.006916 644.498122,125 644.760129,125 C648.974818,125 651.73718,126.697827 653.504873,129.278802 L653.68,129.491808 L653.968003,129.12458 C655.794527,126.62867 659.103479,125.171512 662.20515,125.020056 C662.479471,125.006916 662.746951,125 663.010326,125 C667.23254,125 670.061258,126.683996 671.80706,128.930937 C673.831288,131.538883 673.868228,134.73398 673.868228,137.826724 C673.868228,139.441562 673.867544,146.502587 673.867544,146.502587 C673.867544,147.296521 674.320413,147.728758 675.067441,147.779935 C675.780949,147.829037 677,147.916176 677,147.916176 L677,153.995159 L661.519006,153.995159 L661.519006,147.917559 C661.519006,147.917559 662.812623,147.824196 663.452249,147.780626 C664.197909,147.730833 664.659671,147.297904 664.659671,146.503279 L664.661039,144.934777 L664.661039,136.784513 C664.661039,134.451124 663.846286,132.445544 660.592062,132.445544 C656.556605,132.445544 655.423066,135.63165 655.423066,137.184938 C655.423066,138.738917 655.410068,146.502587 655.410068,146.502587 L655.433327,146.502587 C655.433327,147.296521 655.887564,147.728758 656.633224,147.779935 C657.347415,147.829037 658.567151,147.916176 658.567151,147.916176 L658.567151,153.995159 L643.105311,153.995159 L643.105311,147.917559 C643.105311,147.917559 644.399613,147.824196 645.038554,147.780626 C645.784214,147.730833 646.245292,147.297904 646.245292,146.503279 C646.245292,146.503279 646.241872,139.117902 646.241872,136.784513 C646.241872,134.451124 645.574882,132.445544 642.319974,132.445544 C638.285202,132.445544 637.014159,135.63165 637.014159,137.184938 C637.014159,138.738917 637.001846,146.502587 637.001846,146.502587 C637.001846,147.296521 637.462239,147.728758 638.208583,147.779935 C638.922091,147.829037 640.141826,147.916176 640.141826,147.916176 L640.141826,154 M752.5,154 C749.461491,154 747,151.535989 747,148.500693 C747,145.463318 749.461491,143 752.5,143 C755.539188,143 758,145.463318 758,148.500693 C758,151.535989 755.539188,154 752.5,154 M696.031493,154 C691.394449,154 688.538596,151.262308 688.329879,151.143548 L687.261298,153.601602 L679.778533,153.609887 L679.778533,123.652006 C679.768401,122.884209 679.422565,122.534143 678.618765,122.534143 L676,122.530691 L676.135092,116.462197 C680.277024,115.942968 685.626681,114 685.626681,114 L688.898617,114 L688.898617,127.252779 C690.669678,125.67921 693.108095,124.775392 695.41885,124.671822 C695.682955,124.660084 695.940982,124.654561 696.19428,124.654561 C706.726079,124.654561 708,134.678727 708,139.020369 C708,147.495132 704.375472,153.080992 697.473604,153.913001 C696.975789,153.973072 696.49486,154 696.031493,154 M581.768659,154 C573.289911,154 570.620081,147.894795 570.620081,143.582829 L570.620081,131.516822 L566,131.516822 L566,125.801784 C572.068999,123.669752 573.52977,118.332384 573.873522,115.291584 C573.897229,115.082615 574.06527,115 574.161493,115 L580.024101,115 L580.024101,124.873576 L587.45974,124.873576 L587.45974,131.516822 L579.994119,131.516822 L579.994119,142.978834 C580.020615,144.602677 580.618869,146.827044 583.676378,146.827044 C583.731462,146.827044 583.78794,146.826349 583.844419,146.824961 C584.907749,146.797885 586.33017,146.496582 587.07485,146.152236 L589,151.713152 C588.276936,152.748273 585.00955,153.948626 582.068484,153.997223 C581.96738,153.999306 581.868368,154 581.768659,154" id="Tumblr-Logo"></path>
            </g>
        </g>
    </g>
</svg>