<?xml version="1.0" encoding="UTF-8"?>
<svg width="125px" height="54px" viewBox="0 0 125 54" version="1.1" xmlns="http://www.w3.org/2000/svg" xmlns:xlink="http://www.w3.org/1999/xlink">
    <!-- Generator: Sketch 56.3 (81716) - https://sketch.com -->
    <title>Vans Logo</title>
    <desc>Created with Sketch.</desc>
    <g id="Page-1" stroke="none" stroke-width="1" fill="none" fill-rule="evenodd">
        <g id="Home" transform="translate(-1182.000000, -1993.000000)" fill="#DDDDDD">
            <g id="#7" transform="translate(0.000000, 1886.000000)">
                <g id="Vans-Logo" transform="translate(1182.000000, 107.000000)">
                    <path d="M124.936683,22.5042281 C124.216632,20.5753187 122.530844,19.3951595 120.834202,18.5941283 C110.838159,15.3384538 101.433716,10.65913 92.1273294,5.98053744 C87.4216704,3.78291144 82.4189451,2.43969435 77.2204673,1.38383944 C63.5094685,-1.45724385 49.3432818,0.292155653 37.021366,4.66327801 C25.4640068,8.9546994 14.9838292,16.4275784 2.06524825,17.2399432 L1.10023535,18.0837497 C0.599094417,19.6101327 -0.382201039,21.3200474 0.157294361,23.053726 L8.68971625,38.8389032 C9.43147719,39.910479 9.77992392,41.5439831 11.2931162,41.8602277 L17.8358096,42.0788569 C19.9170823,42.5003946 22.4875553,41.9750263 24.1646587,43.5419911 C25.5501235,45.6752713 23.1254698,48.601174 25.2697016,50.5589659 C27.8843185,53.003738 31.2815836,53.9316327 34.9820662,54 C38.2150584,53.7714995 41.7295579,53.3601987 43.5854076,50.6105156 C44.4606856,49.2877722 43.8444812,46.686523 46.0292386,46.4390113 L52.5589059,47.5182646 C64.9665765,48.9002354 78.2506104,48.5730227 89.9744135,45.919127 C90.7335425,45.8332108 91.8754926,45.7600907 92.3357462,46.5344331 C92.9682331,48.1818299 93.7848938,50.111105 95.6718613,50.7180022 C101.441314,51.78775 106.788868,49.8763893 111.032102,46.21307 C113.443006,44.0531009 114.07296,40.708951 113.753822,37.4441364 C114.536109,36.1181026 116.157851,35.6658545 117.312465,34.6359572 C120.883773,31.4438972 125.602096,27.7893523 124.936683,22.5042281 L124.936683,22.5042281 Z M119,19.7337247 C118.554167,21.2244245 118.28109,22.814987 117.501603,24 L116,23.365757 C116.276923,21.8731514 116.80609,20.3874066 117.495513,19 L119,19.7337247 L119,19.7337247 Z M114.2896,18 C114.940183,18.1176973 115.598895,18.3340584 116,18.6518024 L114.624427,23 C113.966653,22.8823027 113.481451,22.6655531 113,22.1442666 C113.348583,20.726849 113.69654,19.2064947 114.2896,18 L114.2896,18 Z M112.161295,19.0031067 L112.340753,19.5676912 C112.679606,22.0120775 112.536624,24.4471613 112.971407,26.8038903 C113.927784,26.8196328 114.610233,26.0833115 115.472503,25.8171196 C115.937561,26.5763391 116.016712,27.7030037 115.99738,28.6404 C113.967906,29.7323595 111.93442,31.1023178 109.720018,32 C109.315145,27.9548842 109.207178,23.5437545 109,19.3193885 C109.964766,19.0535543 111.111178,18.9834285 112.161295,19.0031067 L112.161295,19.0031067 Z M106.063348,19.0026986 L106.238185,19.6778773 C106.445163,23.3329275 106.387944,26.6970976 106.972498,30.2594618 C107.524911,30.46828 108.088626,29.8993421 108.742409,29.7176337 C109.099499,30.588442 108.985414,31.5493718 108.972699,32.410655 C107.285085,33.5313124 105.510935,34.3632878 103.741024,35 C103.270202,30.0953381 103.095719,24.4220789 103,19.3294807 C103.931402,19.0591162 105.046824,18.9840149 106.063348,19.0026986 L106.063348,19.0026986 Z M94.3890307,20.5686836 C95.4542338,20.0206925 96.9796514,20.2372316 98.3168988,20.0713261 C100.334257,19.5448812 99.6216906,22.0736839 100.270075,23.0310523 C101.150755,27.1883868 102.221063,31.3507487 103,35.5996545 C102.031435,36.152673 101.070892,36.6001152 99.9188972,36.6787587 C99.6479469,36.0158547 99.5688134,35.1640626 99.1975786,34.4975676 C98.5284078,34.205976 97.7582233,34.7561217 97.0868646,34.834047 C96.3994603,35.6686022 96.7572022,36.9976421 96.4552549,38.0250356 C95.2952374,38.382343 94.2376924,38.9281794 93.088615,39 L93,38.5281388 L94.3890307,20.5686836 L94.3890307,20.5686836 Z M82.7373861,20.7063244 C83.6818961,20.2391567 84.9874585,20.5554104 86.0160834,20.3804537 L86.461607,21.4557162 C86.8843198,24.1795667 87.3929295,26.907486 88.0027622,29.6346655 C88.3766457,29.5447829 88.2911051,29.0561617 88.2989463,28.6714788 L88.805774,21.0166599 C88.6257825,20.8172906 88.908779,20.4348271 88.9134125,20.2417459 C89.8532891,19.9709883 90.976365,19.9902225 92,20.0105663 C91.8820254,26.7003491 91.4896082,33.1911325 91.00274,39.5868549 C89.68898,40.042926 88.3695173,40.5052852 87.0600343,40.673214 C86.2598739,38.3307174 85.9234145,35.9974679 85.4044686,33.6564508 C85.0284467,33.6505326 85.1154129,34.1376743 85.1125615,34.5242066 L84.4303758,41.3020226 C83.2032256,41.8598127 81.7073355,41.7336811 80.3967833,42 L80.0360874,41.123367 L76,21.255977 L76.2844223,21.0665947 L79.8379185,20.8431827 L80.2028914,21.3351329 C80.5197478,24.7373569 81.1138981,28.0452595 81.7073355,31.3550116 C82.3339199,27.8754812 82.3941547,24.3848542 82.7373861,20.7063244 L82.7373861,20.7063244 Z M74.610169,11.944378 C76.5280306,13.1811155 79.8448726,12.2202276 80.7630923,14.920873 C81.228679,16.0394397 81.0058784,17.5142827 80.1135657,18.3319546 C78.629092,19.8787584 76.3896129,20.3027626 74.1656781,19.7979789 C73.2008257,19.5059029 72.0375993,19.297781 71.1808163,18.6349659 C71.4879998,17.7164078 71.9854151,17.0751104 72.5794267,16.4405151 C73.7437633,16.648637 74.8914455,17.4066943 76.3492719,17.1544789 C76.9347712,17.1640031 77.5250817,16.8959139 77.7256763,16.3470367 C77.7671275,14.3123812 75.1297903,15.2838516 73.7781827,14.7967054 C72.5194704,14.5878781 71.4754164,13.5546766 71.1071663,12.4371682 C70.8403237,11.2300615 71.054612,10.0285988 71.944334,9.21269069 C74.1109032,7.58757663 77.7049506,7.64895493 80.0021654,9.07899887 C80.0843277,9.81906601 79.390389,10.6402654 78.7967476,11.1831459 C77.6446242,10.7951221 76.2045626,9.84164194 74.930306,10.6543753 C74.529487,11.0184122 74.2289653,11.5679949 74.610169,11.944378 L74.610169,11.944378 Z M58.5781169,42.3938181 L58.3000979,42.4853498 L55.1513382,42.1333622 L54.8931272,41.1533035 L54,23.2770928 L54.1008084,22.6951597 C55.0328441,22.5180497 56.1435053,22.6341386 57.1685677,22.4607493 C57.6715486,25.3019521 57.6234435,28.1271554 57.9421396,31.0584015 C58.5837764,31.6615431 59.7050489,31.1971873 60.5359225,31.2120705 L60.7294039,30.9207319 L60.3219257,22.4242855 C61.2525465,22.0514614 62.4640161,21.9811382 63.5764458,22.0038351 L63.7497655,22.4897716 L64.9764448,42.6129733 C65.0680566,42.8098036 64.8752826,43.0040293 64.6934738,42.9999364 C63.5803366,42.881615 62.3678059,43.2469975 61.5429455,42.5478593 L61.0254623,35.1237474 C60.1988333,34.7166919 59.16988,35.182536 58.3340545,35.168769 L58.145525,35.4601077 L58.5781169,42.3938181 L58.5781169,42.3938181 Z M50.8268254,41.7040429 L50.7203009,42 L47.5581864,41.5480199 C47.056917,36.6368524 46.751698,31.7204466 46.2500508,26.8077824 L46.0574002,26.5103287 L43.1838839,26.5556015 C43.2012602,25.5741911 42.7256776,24.3873693 43.2394126,23.5152124 C46.3146455,23.2783718 49.5874397,23.141805 52.6600283,23 L52.9520262,23.2996987 L53,25.9490951 C52.1085187,26.1309348 51.1139126,26.2102558 50.1257282,26.1911739 L49.8208869,26.5765542 L50.8268254,41.7040429 L50.8268254,41.7040429 Z M52.3671484,20.0120718 L52.0431899,21.8014315 C51.0574732,21.9851214 49.8794763,22.0596622 49,21.9463297 C49.7586465,17.9694255 50.6111886,14.1948463 51.5624894,10.4229293 C52.9443632,9.95172487 54.8058153,9.98557248 56.2800884,10.0148564 L57.4045911,12.9272722 L60,21.1518616 C59.1100493,21.5340734 58.0334297,21.3142541 56.9534433,21.4933802 C56.4746132,20.788285 56.6953239,19.3955889 55.5188233,19.3746718 C54.4380888,19.4492126 53.0708043,19.1263292 52.3671484,20.0120718 L52.3671484,20.0120718 Z M63.4488597,15.7799792 C63.2637389,15.677953 63.2591109,15.8785918 63.1633465,15.9741702 L63.3609273,20.6544766 C62.6079841,21.1350234 61.5866157,20.8171874 60.6506876,21 L60.4716189,20.3969459 C60.2526779,17.0126368 59.9461606,13.2281881 60.0081049,9.7471628 C60.9436769,9.46611684 62.0654377,9.38950243 63.0903662,9.31175017 L63.4630998,9.51769883 L66.1861555,14.0466728 L66.5638732,13.9537494 C66.3958404,12.6550971 66.520797,10.8702088 66.3609523,9.27420152 C67.2068119,8.89302584 68.4207772,9.01439521 69.3545692,9.0329799 C69.6607305,12.8204629 69.8746875,16.6060494 70,20.2854378 C68.8707631,20.6620622 67.5710015,20.4394252 66.4510207,20.5130054 C65.356672,18.9029648 64.6336328,17.3964675 63.4488597,15.7799792 L63.4488597,15.7799792 Z M73.1590665,22 L73.449747,22.0997837 C73.6225342,22.9502699 73.6026398,23.8826575 73.590482,24.727779 L70.1026845,25.2284858 L69.8053725,25.5982935 L70.2883663,30.6743873 C71.1504605,31.0656539 72.3146562,30.7101521 73.183382,30.9093619 C73.3528535,31.9458249 73.5315354,33.0727728 73.409958,34.0051603 C72.6285469,34.4668835 71.6695592,34.1657442 70.7956756,34.4311188 L70.5963624,34.709011 L70.8881481,39.5937633 L71.3656157,39.9739428 L74.6529948,40.0333123 C75.0280426,40.7918831 75.0103586,41.7278471 74.9923062,42.5718957 C72.6642833,43 70.0544219,42.9535058 67.5418224,43 L67.3649826,42.3433588 L66.0537888,24.5925882 L66,22.5293186 C68.3261808,22.1040755 70.7396763,22.1448473 73.1590665,22 L73.1590665,22 Z M40.582963,5.47363462 C42.0236209,9.04522201 42.7999954,12.884536 44.0520386,16.4561234 L44.5291442,16.1855486 L46.6143259,5.3013212 L46.9056909,4.93284104 L76.331758,3.13850288 C77.2751913,3.34179 78.9874546,2.3474276 78.9605096,3.83950523 C78.7553685,4.48959679 79.3937848,5.52881764 78.5434014,5.88483712 L52.604014,7.46378349 L49.8710751,7.69519615 L49.4823489,8.24595828 L47.0846055,20.6211953 L46.6110925,20.798849 L42.2707962,21 L41.7204002,20.2423906 C40.2096853,15.3617196 38.5085593,10.5700534 37,5.68724631 C38.1309704,5.52027317 39.4559445,5.35579218 40.582963,5.47363462 L40.582963,5.47363462 Z M39.8657735,24.0407015 L39.951539,24.3296664 L40,26.7164504 C38.9903377,26.9864667 37.9834645,26.9671538 36.8855962,27.1362328 C36.4152804,27.7936005 36.8563104,28.6626814 36.8430621,29.5262964 C37.6539994,30.016407 38.4855065,29.4625273 39.4909852,29.6698678 C39.752814,30.4383758 39.6402032,31.5847609 39.714115,32.5431184 C38.8871402,32.8098552 37.9730053,32.7005369 37.0546867,32.9669092 C36.7443969,35.0650928 37.2596872,36.9858162 37.1313876,38.9910791 C36.1245144,39.0650512 34.9436697,38.6580225 33.9402829,38.5432383 C33.4734535,33.8556674 33.0955274,29.3553953 33,24.4805257 C35.2916127,24.142732 37.4890925,23.9000453 39.8657735,24.0407015 L39.8657735,24.0407015 Z M24.0938559,24.528175 C26.1741565,24.1922898 28.4294485,24.1439508 30.5943225,24 L30.7706891,24.3735612 L31,26.6177717 C30.9040813,26.8004648 30.7232454,26.8889679 30.4506164,26.982447 L27.8339964,27.2070813 C27.4620107,27.7597813 27.7181376,28.6021599 27.7996169,29.2575803 C28.418447,29.8298291 29.5065567,29.4761722 30.3179117,29.4928776 L30.5812583,29.7804238 L30.713963,32.3900205 C29.9854624,32.9345455 28.7302687,32.4433356 28.0010805,32.9885714 C27.7965228,34.2891046 28.1344728,35.6031442 28.0196454,37 C27.0267669,36.9815174 25.8595845,36.7714559 24.8701439,36.5663705 L24.6071411,36.1853452 L24,24.7115789 L24.0938559,24.528175 L24.0938559,24.528175 Z M19.1328916,25.2094843 C20.2066827,25.5192597 21.1894455,26.1240242 21.8043163,27.0078822 C23.2916853,29.5552122 23.3201961,33.0466549 22.2831598,35.7377828 C21.5387883,37.1765012 20.1774849,37.8282125 18.7323668,37.9967777 C17.110001,38.0610986 15.6830885,37.1591272 14.8995576,35.591767 C13.8597733,33.1494205 13.5636735,29.5552122 14.8648638,27.1590734 C15.8812899,25.7247909 17.4332375,24.494561 19.1328916,25.2094843 L19.1328916,25.2094843 Z M13.0445529,23 C13.9848439,24.1657002 14.1711932,25.625705 15,26.8930813 C14.5622012,27.5094924 13.596684,27.6969577 12.9554471,28 C12.3317058,26.8438319 11.3999593,25.4727937 11,24.0076257 C11.4382057,23.4956708 12.1913335,23.094527 13.0445529,23 L13.0445529,23 Z M9.9527206,27.9605742 C9.34053393,26.8331139 8.40187487,25.8723073 8,24.655439 C8.65131445,24.2337097 9.40330141,24.075931 10.1516201,24 C10.8775219,25.0452839 11.5969024,26.1776748 12,27.3031629 C11.3535765,27.6374566 10.5926228,28.1456355 9.9527206,27.9605742 L9.9527206,27.9605742 Z M37.0285305,51.6545546 C33.9717703,52.3249535 30.0811835,52.1655822 28.0368234,49.856777 C27.860423,49.1323305 28.3443467,48.6808939 28.9224471,48.3295841 C31.8803218,47.5642554 35.288796,48.1691734 37.6312618,49.7566502 L38,50.3068277 C37.9902201,50.9460452 37.5052098,51.3895132 37.0285305,51.6545546 L37.0285305,51.6545546 Z M41.8395071,49.390105 C41.7419716,49.6527457 41.5493834,49.9147095 41.2681266,50 L40.7148345,49.9008328 C37.3479102,46.1162347 31.3117061,45.5686153 26.4494745,46.9000953 C25.986979,46.802282 25.9944272,46.3558605 26.0018753,46.0048832 C26.0128703,45.2931134 26.4952275,44.5918357 27.2450092,44.2476275 C32.3721827,43.5439806 37.7515297,44.2598118 41.5979738,47.4328227 C42.2409985,47.8010612 41.9455547,48.7676872 41.8395071,49.390105 L41.8395071,49.390105 Z M107.82543,45.9051728 C106.076818,47.9258609 103.885371,48.9581504 101.269684,49 C100.813764,48.8138885 100.275888,48.8040215 100.017969,48.2623587 C99.8599125,47.0990766 100.776574,46.4009032 101.51004,45.7006883 C103.073048,44.3900821 105.068904,43.7170865 107.227982,44.1127861 L107.761381,44.4731008 C108.119505,44.8432824 108.017578,45.3754185 107.82543,45.9051728 L107.82543,45.9051728 Z M110.756979,42.5131533 C110.460627,42.9596052 109.79892,42.7666853 109.42158,42.6721304 C106.016078,41.4266371 102.180938,42.8120579 99.5660694,45.127096 C98.029108,45.6469752 97.4810752,49.5427785 95.3317988,47.3205635 C94.8654806,46.9561978 94.9686226,46.319597 95.1698222,45.8669107 C98.5647928,42.4792105 102.704638,40.1887636 107.47314,40 C108.711571,40.11118 110.239453,39.7779863 110.886633,40.8773177 C110.969437,41.4231735 111.14812,42.1529439 110.756979,42.5131533 L110.756979,42.5131533 Z M122.913288,26.4197354 C119.60285,31.2481987 113.68001,34.1497246 108.711466,36.8801505 C94.2725134,44.7069887 77.4572065,48.0629878 59.8770917,46.7063836 C48.0541505,46.2081491 37.3295153,42.7197897 25.6126871,41.656961 L12.4802966,40.473609 C12.2976667,40.2849327 11.9172478,40.2766826 12.0161423,39.9039931 C12.2160968,39.3401164 12.2276465,38.6811842 12.8015231,38.412159 C18.0082805,38.5090081 22.8198209,39.2583328 27.7277293,39.9086562 L50.5712672,43.1509473 C66.339159,45.3207248 83.0137038,44.4038871 97.0184589,39.299942 C106.257151,36.2700014 114.680144,31.0674138 122.656307,25 C123.121544,25.2923407 123.011822,25.9505555 122.913288,26.4197354 L122.913288,26.4197354 Z" id="Fill-1"></path>
                    <path d="M20.1172919,33.9822762 C21.7697265,32.5695148 20.6286517,30.3975912 20.4513253,28.6842495 C20.1379112,28.1427253 18.9597217,27.6762604 18.4071231,28.2931868 C17.7209112,29.814253 18.0038087,31.7908166 18.5089827,33.3293625 C18.7143514,33.8708867 19.4657205,34.0631621 20.1172919,33.9822762" id="Fill-2"></path>
                    <path d="M98,30.7354012 C97.8771869,29.1601094 97.6211257,27.4856783 97.2922864,26 C97.0576305,27.56753 96.9647849,29.3213431 97.0118766,30.8945181 C97.3583753,31.0882101 97.7102254,31.003536 98,30.7354012" id="Fill-3"></path>
                    <path d="M54.6852514,14 C54.1686919,14.8357203 54.2711461,15.8845773 54,16.8260647 C54.6171075,17.1537825 55.3714558,16.953466 56,16.7547521 C55.7736478,15.8060533 55.2928282,14.8509444 54.6852514,14" id="Fill-4"></path>
                </g>
            </g>
        </g>
    </g>
</svg>