<?xml version="1.0" encoding="UTF-8"?>
<svg width="196px" height="40px" viewBox="0 0 196 40" version="1.1" xmlns="http://www.w3.org/2000/svg" xmlns:xlink="http://www.w3.org/1999/xlink">
    <!-- Generator: Sketch 56.3 (81716) - https://sketch.com -->
    <title>Wired Logo</title>
    <desc>Created with Sketch.</desc>
    <g id="Page-1" stroke="none" stroke-width="1" fill="none" fill-rule="evenodd">
        <g id="Home" transform="translate(-308.000000, -1999.000000)" fill="#DDDDDD">
            <g id="#7" transform="translate(0.000000, 1886.000000)">
                <path d="M492,136.720696 C492,136.720696 491.877844,142 487.70763,142 L479,142 L479,124.004009 L487.339692,124.004009 C487.339692,124.004009 492,123.64337 492,129.762726 L492,136.720696 L492,136.720696 Z M465,113 L504,113 L504,153 L465,153 L465,113 Z M496.996161,135.909113 L496.996161,128.429633 C496.996161,117.744661 484.815732,119.050365 484.815732,119.050365 L473,119.050365 L473,146 C473,146 477.507183,145.881753 487.495046,145.881753 C497.48291,145.881753 496.996161,135.909113 496.996161,135.909113 Z M408.670172,130.887393 C405.205864,130.887393 401,131 401,131 L401,124.031825 L408.794136,124.031825 C408.794136,124.031825 413,123.470137 413,127.066157 C413,130.213097 412.13448,130.887393 408.670172,130.887393 Z M387,113 L426,113 L426,153 L387,153 L387,113 Z M413.978968,133.706897 C413.978968,133.706897 418,133.345335 418,125.993336 C418,118.641338 411.376581,119.002899 411.376581,119.002899 L396,119.002899 L396,146 L401.204774,146 L401.204774,135.514706 C401.204774,135.514706 406.527355,135.393945 409.602387,135.393945 C412.677419,135.393945 412.677419,139.973487 412.677419,139.973487 L412.677419,145.879238 L418,145.879238 L418,139.611925 C418,133.946974 413.978968,133.706897 413.978968,133.706897 Z M308,113 L347,113 L347,153 L308,153 L308,113 Z M311,119 L316.460708,146 L322.989057,146 L327.618587,126.32024 L331.891999,145.87976 L338.540004,145.87976 L344,119 L338.896122,119 L335.334945,139.88 L330.586472,119.12024 L324.769646,119 L320.021885,139.52 L316.341765,119 L311,119 Z M377,123.539544 L369.784993,123.539544 L369.784993,141.460456 L377,141.460456 L377,146 L358,146 L358,141.460456 L364.613997,141.460456 L364.613997,123.539544 L358,123.539544 L358,119 L377,119 L377,123.539544 Z M433,119 L456,119 L456,127.76024 L451.062449,127.76024 L451.062449,123.44024 L441.669975,123.44024 L441.669975,129.8 L448.894955,129.8 L448.894955,134.24024 L441.669975,134.24024 L441.669975,141.56048 L451.423698,141.56048 L451.423698,137.24048 L456,137.24048 L456,146 L433,146 L433,141.56048 L436.733147,141.56048 L436.733147,123.44024 L433,123.44024 L433,119 Z" id="Wired-Logo"></path>
            </g>
        </g>
    </g>
</svg>