<?xml version="1.0" encoding="UTF-8"?>
<svg width="120px" height="120px" viewBox="0 0 120 120" version="1.1" xmlns="http://www.w3.org/2000/svg" xmlns:xlink="http://www.w3.org/1999/xlink">
    <!-- Generator: Sketch 56.3 (81716) - https://sketch.com -->
    <title>Icon 100x100</title>
    <desc>Created with Sketch.</desc>
    <g id="Page-1" stroke="none" stroke-width="1" fill="none" fill-rule="evenodd">
        <g id="Home" transform="translate(-660.000000, -4065.000000)" fill="#2E71F2">
            <g id="Advantages-#2" transform="translate(0.000000, 3709.000000)">
                <path d="M660,416 C660,382.8632 686.8632,356 720.0012,356 C753.138,356 780,382.8632 780,416 C780,449.1368 753.138,476 720,476 C686.8632,476 660,449.1368 660,416 Z M777,416 C777,384.569957 751.430043,359 720.001213,359 C688.57117,359 663,384.569957 663,416 C663,447.430043 688.569957,473 720,473 C751.430043,473 777,447.430043 777,416 Z M732.446564,414.886966 L750.237564,432.995912 C752.587564,435.38626 752.587564,439.277053 750.238564,441.669433 L745.911564,446.073241 C744.772564,447.232351 743.257564,447.871335 741.645564,447.871335 L741.644564,447.871335 C740.033564,447.871335 738.518564,447.232351 737.379564,446.072225 L719.497564,427.872866 C714.233564,433.341309 709.086564,438.915402 704.086564,444.579908 L702.750564,446.083399 C702.727564,446.109812 702.704564,446.134193 702.680564,446.158574 C701.529564,447.329875 699.927564,448.001367 698.285564,448.001367 C696.674564,448.001367 695.174564,447.377621 694.062564,446.244923 L689.736564,441.842131 C687.387564,439.449751 687.426564,435.51934 689.823564,433.080229 L692.970564,430.168738 C697.985564,425.546518 702.930564,420.80036 707.789564,415.954648 L695.225564,403.165827 C694.626564,402.558335 694.168564,401.840113 693.866564,401.03351 L689.469564,389.337768 C689.441564,389.266657 689.419564,389.193514 689.400564,389.119356 C689.042564,387.707293 689.432564,386.247484 690.440564,385.212309 C691.449564,384.180183 692.881564,383.773834 694.269564,384.122278 C694.350564,384.143611 694.429564,384.169008 694.507564,384.198468 L705.996564,388.705895 C706.784564,389.015737 707.484564,389.47999 708.079564,390.08545 L720.548564,402.777764 C723.913564,399.181574 727.229564,395.546782 730.478564,391.87237 L731.986564,390.168752 C732.009564,390.143355 732.032564,390.118974 732.057564,390.093577 C732.649564,389.490149 733.371564,389.012689 734.146564,388.707927 L744.747564,384.725706 C746.543564,384.049135 748.606564,384.723675 749.693564,386.308436 C750.493564,387.474658 750.674564,388.913133 750.188564,390.255101 L746.290564,401.007097 C745.979564,401.835034 745.521564,402.553256 744.921564,403.162779 C744.895564,403.190208 744.867564,403.215605 744.840564,403.242017 C740.655564,407.042397 736.525564,410.933189 732.446564,414.886966 Z M746.413564,388.633768 C746.373564,388.575864 746.301564,388.516943 746.226564,388.516943 L741.114564,390.430847 L744.582564,393.961005 L746.434564,388.850149 C746.461564,388.778022 746.468564,388.713006 746.413564,388.633768 Z M735.559564,392.509323 C735.340564,392.595672 735.112564,392.743989 734.919564,392.932942 L734.145564,393.805576 L741.263564,401.05078 C741.552564,400.787669 741.836564,400.518463 742.126564,400.256368 C742.309564,400.06132 742.450564,399.83478 742.544564,399.581828 L743.059564,398.161638 L736.983564,391.977005 L735.559564,392.509323 Z M697.601564,399.58386 C697.701564,399.850019 697.857564,400.094844 698.053564,400.293955 L698.097564,400.337637 L705.299564,393.0071 L705.249564,392.955291 C705.050564,392.753132 704.817564,392.599735 704.555564,392.496116 L696.576564,389.367228 L694.534564,391.423355 L697.601564,399.58386 Z M708.125564,395.883036 L700.922564,403.213573 L710.628564,413.092935 C713.035564,410.655856 715.421564,408.196428 717.781564,405.71262 L708.125564,395.883036 Z M699.821564,443.317178 L701.113564,441.862448 C701.959564,440.903465 702.820564,439.95464 703.674564,439.000735 L696.856564,432.060293 C696.456564,432.431087 696.060564,432.808991 695.659564,433.177753 L692.584564,436.019149 C691.839564,436.778006 691.799564,438.191085 692.567564,438.972291 L696.893564,443.374067 C697.630564,444.123781 699.036564,444.085178 699.821564,443.317178 Z M699.802564,429.308294 L706.374564,435.9968 C716.534564,424.826264 727.237564,414.031601 738.297564,403.783477 L731.455564,396.818654 C721.395564,408.064365 710.779564,418.96671 699.802564,429.308294 Z M722.308564,424.981692 L734.563564,437.455593 L741.766564,430.125056 L729.609564,417.750711 C729.591564,417.732425 729.580564,417.711092 729.563564,417.692806 C727.121564,420.097377 724.705564,422.530392 722.308564,424.981692 Z M743.080564,443.201369 L747.408564,438.798577 C748.202564,437.990958 748.202564,436.675403 747.407564,435.866768 L744.591564,432.999975 L737.389564,440.330512 L740.210564,443.201369 C740.594564,443.59248 741.103564,443.807845 741.645564,443.807845 C742.187564,443.807845 742.697564,443.59248 743.080564,443.201369 Z M715.553564,416.920743 L723.681564,408.798841 C724.468564,408.012555 725.733564,408.022714 726.509564,408.823222 C727.283564,409.622714 727.272564,410.908808 726.485564,411.69611 L718.357564,419.818012 C717.967564,420.207091 717.461564,420.401123 716.955564,420.401123 C716.437564,420.401123 715.921564,420.198964 715.529564,419.793631 C714.755564,418.994139 714.766564,417.708044 715.553564,416.920743 Z" id="Icon-100x100"></path>
            </g>
        </g>
    </g>
</svg>