<?xml version="1.0" encoding="UTF-8"?>
<svg width="120px" height="120px" viewBox="0 0 120 120" version="1.1" xmlns="http://www.w3.org/2000/svg" xmlns:xlink="http://www.w3.org/1999/xlink">
    <!-- Generator: Sketch 56.3 (81716) - https://sketch.com -->
    <title>Icon 100x100</title>
    <desc>Created with Sketch.</desc>
    <g id="Page-1" stroke="none" stroke-width="1" fill="none" fill-rule="evenodd">
        <g id="Home" transform="translate(-259.000000, -4065.000000)" fill="#2E71F2">
            <g id="Advantages-#2" transform="translate(0.000000, 3709.000000)">
                <path d="M259,416 C259,382.8632 285.863469,356 319.0006,356 C352.137731,356 379,382.8632 379,416 C379,449.1368 352.137731,476 319.0006,476 C285.863469,476 259,449.1368 259,416 Z M376,416 C376,384.569957 350.429771,359 319.000606,359 C287.570229,359 262,384.569957 262,416 C262,447.430043 287.570229,473 319.000606,473 C350.429771,473 376,447.430043 376,416 Z M343.371762,384 C347.579893,384 351,387.492 351,391.784 L351,445.5 C351,446.882 349.881965,448 348.501922,448 L289.500078,448 C288.118035,448 287,446.882 287,445.5 L287,391.784 C287,387.492 290.424107,384 294.630238,384 L343.371762,384 Z M294.630238,389 C293.178193,389 291.998156,390.248 291.998156,391.784 L291.998156,398.09 L345.999844,398.09 L345.999844,391.784 C345.999844,390.248 344.821807,389 343.371762,389 L294.630238,389 Z M291.998156,403.09 L291.998156,443 L345.999844,443 L345.999844,403.09 L291.998156,403.09 Z M310.336729,415.566 C311.270758,416.582 311.204756,418.164 310.186725,419.098 L306.038595,422.912 L310.186725,426.728 C311.204756,427.66 311.270758,429.242 310.336729,430.258 C309.842714,430.796 309.170693,431.066 308.496672,431.066 C307.890653,431.066 307.284634,430.848 306.804619,430.406 L300.654427,424.752 C300.138411,424.28 299.844401,423.612 299.844401,422.912 C299.844401,422.214 300.138411,421.546 300.654427,421.072 L306.804619,415.418 C307.820651,414.486 309.4027,414.548 310.336729,415.566 Z M331.871402,415.418 L338.019594,421.072 C338.53561,421.546 338.82962,422.214 338.82962,422.912 C338.82962,423.612 338.53561,424.28 338.019594,424.752 L331.871402,430.406 C331.393387,430.848 330.785368,431.066 330.179349,431.066 C329.505328,431.066 328.833307,430.796 328.341292,430.258 C327.405263,429.242 327.471265,427.66 328.489297,426.728 L332.635426,422.912 L328.489297,419.098 C327.471265,418.164 327.405263,416.582 328.341292,415.566 C329.275321,414.548 330.861371,414.486 331.871402,415.418 Z M320.633051,410.82 C321.993094,411.064 322.897122,412.366 322.653114,413.724 L319.079002,433.604 C318.858996,434.814 317.806963,435.662 316.618926,435.662 C316.472921,435.662 316.324916,435.65 316.174912,435.624 C314.816869,435.38 313.912841,434.078 314.156849,432.722 L317.73096,412.84 C317.976968,411.48 319.283009,410.568 320.633051,410.82 Z" id="Icon-100x100"></path>
            </g>
        </g>
    </g>
</svg>