<?xml version="1.0" encoding="UTF-8"?>
<svg width="38px" height="36px" viewBox="0 0 38 36" version="1.1" xmlns="http://www.w3.org/2000/svg" xmlns:xlink="http://www.w3.org/1999/xlink">
    <!-- Generator: Sketch 56.3 (81716) - https://sketch.com -->
    <title>Icon 25x25</title>
    <desc>Created with Sketch.</desc>
    <g id="Page-1" stroke="none" stroke-width="1" fill="none" fill-rule="evenodd">
        <g id="Home" transform="translate(-172.000000, -1453.000000)" fill="#276CF2">
            <g id="#4" transform="translate(0.000000, 960.000000)">
                <path d="M198.887375,493 C196.005313,493 193.157688,494.14 191,496.108 C188.842312,494.14 185.994687,493 183.112625,493 C176.880625,493 172,497.9896 172,504.3592 C172,511.858 178.448125,518.2768 187.5895,526.5556 L190.042875,528.6472 C190.319563,528.8824 190.660375,529 191,529 C191.339625,529 191.680437,528.8824 191.957125,528.6472 L194.44375,526.5256 C203.551875,518.2768 210,511.858 210,504.3592 C210,497.9896 205.119375,493 198.887375,493 L198.887375,493 Z M192.497437,524.2612 L191,525.538 L189.537,524.2924 C181.007188,516.5656 174.96875,510.6136 174.96875,504.3592 C174.96875,499.672 178.546688,496 183.112625,496 C185.628937,496 188.214125,497.2372 189.861188,499.228 C190.42525,499.9096 191.57475,499.9096 192.138813,499.228 C193.785875,497.2372 196.371063,496 198.887375,496 C203.453312,496 207.03125,499.672 207.03125,504.3592 C207.03125,510.6136 200.992812,516.5656 192.497437,524.2612 Z M183.378625,498.2956 C179.772187,498.2956 176.947125,501.1792 176.947125,504.8608 C176.947125,505.69 177.612125,506.3608 178.4315,506.3608 C179.250875,506.3608 179.915875,505.69 179.915875,504.8608 C179.915875,502.828 181.405,501.2956 183.378625,501.2956 C184.199187,501.2956 184.863,500.6236 184.863,499.7956 C184.863,498.9664 184.199187,498.2956 183.378625,498.2956 Z" id="Icon-25x25"></path>
            </g>
        </g>
    </g>
</svg>