<?xml version="1.0" encoding="UTF-8"?>
<svg width="38px" height="47px" viewBox="0 0 38 47" version="1.1" xmlns="http://www.w3.org/2000/svg" xmlns:xlink="http://www.w3.org/1999/xlink">
    <!-- Generator: Sketch 56.3 (81716) - https://sketch.com -->
    <title>Icon 32x32</title>
    <desc>Created with Sketch.</desc>
    <g id="Page-1" stroke="none" stroke-width="1" fill="none" fill-rule="evenodd">
        <g id="Home" transform="translate(-773.000000, -1453.000000)" fill="#276CF2">
            <g id="#4" transform="translate(0.000000, 960.000000)">
                <path d="M810.841176,513.565565 C810.538623,512.875707 809.854458,512.428437 809.098836,512.428437 L796.992157,512.428437 L798.886534,495.100122 C798.976235,494.287455 798.533809,493.509659 797.787309,493.168521 C797.04537,492.834963 796.162037,493.004775 795.604062,493.605178 L773.507055,517.386315 C772.993171,517.938201 772.856338,518.741771 773.158891,519.433145 C773.462964,520.124519 774.145609,520.570273 774.901231,520.570273 L786.988145,520.570273 L785.093768,537.898587 C785.004067,538.711255 785.446494,539.48905 786.194514,539.828673 C786.446895,539.943902 786.714479,540 786.982064,540 C787.498988,540 788.008311,539.789252 788.37624,539.393532 L810.491491,515.612395 C811.006896,515.060509 811.143729,514.256939 810.841176,513.565565 L810.841176,513.565565 Z M789.49523,532.617765 L790.995831,518.879743 C791.055126,518.344535 790.883324,517.809326 790.521477,517.409057 C790.16115,517.008788 789.647266,516.779847 789.107536,516.779847 L779.25252,516.779847 L794.486593,500.385493 L792.985991,514.118967 C792.925176,514.654175 793.098498,515.189384 793.458825,515.589653 C793.819152,515.989922 794.333036,516.218863 794.874286,516.218863 L804.744506,516.218863 L789.49523,532.617765 L789.49523,532.617765 Z" id="Icon-32x32"></path>
            </g>
        </g>
    </g>
</svg>