<?xml version="1.0" encoding="UTF-8"?>
<svg width="38px" height="38px" viewBox="0 0 38 38" version="1.1" xmlns="http://www.w3.org/2000/svg" xmlns:xlink="http://www.w3.org/1999/xlink">
    <!-- Generator: Sketch 56.3 (81716) - https://sketch.com -->
    <title>Icon 100x100</title>
    <desc>Created with Sketch.</desc>
    <g id="Page-1" stroke="none" stroke-width="1" fill="none" fill-rule="evenodd">
        <g id="Home" transform="translate(-172.000000, -1312.000000)" fill="#2E71F2">
            <g id="#4" transform="translate(0.000000, 960.000000)">
                <path d="M205.782223,365.15247 L201.822278,365.15247 C200.344634,365.15247 199.046583,365.924566 198.293535,367.084946 L197.838329,366.808495 C196.18198,365.801997 194.923937,364.234543 194.29625,362.394218 L193.16001,359.062485 C192.942187,358.424589 192.82394,357.761642 192.808825,357.089749 L192.762593,355.185007 C192.719029,353.399256 191.29384,352 189.519244,352 L188.170515,352 C186.190543,352 184.43284,353.339313 183.89406,355.254791 L181.666924,363.176155 L176.533399,363.176155 C174.033317,363.176155 172,365.222254 172,367.737157 L172,367.921458 C172,368.931535 172.333404,369.903141 172.946866,370.697603 C172.333404,371.490276 172,372.462777 172,373.472854 L172,373.657155 C172,374.666337 172.333404,375.637943 172.946866,376.432406 C172.333404,377.225974 172,378.198474 172,379.207656 L172,379.392852 C172,380.402034 172.333404,381.37364 172.946866,382.168103 C172.333404,382.961671 172,383.933277 172,384.943354 L172,385.127655 C172,387.642558 174.033317,389.688657 176.533399,389.688657 L191.275169,389.688657 C192.855946,389.688657 194.408273,389.255639 195.764114,388.435231 L197.861445,387.165701 C198.4429,388.81099 199.990782,390 201.822278,390 L205.782223,390 C208.108935,390 210,388.095258 210,385.754815 L210,369.397655 C210,367.057211 208.108935,365.15247 205.782223,365.15247 L205.782223,365.15247 Z M197.603612,384.189151 L194.388713,386.135047 C193.44896,386.704054 192.3714,387.004662 191.275169,387.004662 L176.533399,387.004662 C175.504738,387.004662 174.667228,386.162782 174.667228,385.127655 L174.667228,384.943354 C174.667228,384.481706 174.840598,384.038847 175.151775,383.696191 C175.93594,382.839102 175.93594,381.496209 175.153553,380.64091 C174.840598,380.296464 174.667228,379.853605 174.667228,379.392852 L174.667228,379.207656 C174.667228,378.746904 174.840598,378.30315 175.151775,377.961388 C175.93594,377.104299 175.93594,375.761407 175.153553,374.905213 C174.840598,374.561661 174.667228,374.118802 174.667228,373.657155 L174.667228,373.472854 C174.667228,373.011207 174.840598,372.568348 175.152664,372.225691 C175.935051,371.368602 175.935051,370.026605 175.153553,369.169515 C174.840598,368.825964 174.667228,368.383105 174.667228,367.921458 L174.667228,367.737157 C174.667228,366.702924 175.504738,365.86015 176.533399,365.86015 L185.155659,365.86015 C185.891813,365.86015 186.489273,365.25983 186.489273,364.518152 C186.489273,363.77737 185.891813,363.176155 185.155659,363.176155 L184.439063,363.176155 L186.460822,355.985732 C186.675979,355.219899 187.379238,354.683995 188.170515,354.683995 L189.519244,354.683995 C189.829531,354.683995 190.088252,354.93808 190.095365,355.250318 L190.141597,357.15506 C190.163824,358.10072 190.33097,359.03654 190.636812,359.933889 L191.773941,363.265621 C192.605227,365.700899 194.268688,367.774733 196.459372,369.105994 L197.603612,369.801149 L197.603612,384.189151 L197.603612,384.189151 Z M207.332772,385.754815 C207.332772,386.615482 206.637514,387.316005 205.782223,387.316005 L201.822278,387.316005 C200.966987,387.316005 200.270841,386.615482 200.270841,385.754815 L200.270841,369.397655 C200.270841,368.536987 200.966987,367.836465 201.822278,367.836465 L205.782223,367.836465 C206.637514,367.836465 207.332772,368.536987 207.332772,369.397655 L207.332772,385.754815 Z M189.793968,377.715355 C190.530123,377.715355 191.127582,378.31657 191.127582,379.057353 C191.127582,379.79903 190.530123,380.39935 189.793968,380.39935 L182.836948,380.39935 C182.100793,380.39935 181.503334,379.79903 181.503334,379.057353 C181.503334,378.31657 182.100793,377.715355 182.836948,377.715355 L189.793968,377.715355 Z M189.793968,371.714837 C190.530123,371.714837 191.127582,372.315158 191.127582,373.056835 C191.127582,373.797617 190.530123,374.398832 189.793968,374.398832 L182.836948,374.398832 C182.100793,374.398832 181.503334,373.797617 181.503334,373.056835 C181.503334,372.315158 182.100793,371.714837 182.836948,371.714837 L189.793968,371.714837 Z M203.802251,377.404907 C203.066096,377.404907 202.468637,378.005227 202.468637,378.746904 L202.468637,383.797288 C202.468637,384.538965 203.066096,385.139285 203.802251,385.139285 C204.538406,385.139285 205.135865,384.538965 205.135865,383.797288 L205.135865,378.746904 C205.135865,378.005227 204.538406,377.404907 203.802251,377.404907 Z" id="Icon-100x100"></path>
            </g>
        </g>
    </g>
</svg>