<?xml version="1.0" encoding="UTF-8"?>
<svg width="35px" height="38px" viewBox="0 0 35 38" version="1.1" xmlns="http://www.w3.org/2000/svg" xmlns:xlink="http://www.w3.org/1999/xlink">
    <!-- Generator: Sketch 56.3 (81716) - https://sketch.com -->
    <title>Icon 25x25</title>
    <desc>Created with Sketch.</desc>
    <g id="Page-1" stroke="none" stroke-width="1" fill="none" fill-rule="evenodd">
        <g id="Home" transform="translate(-776.000000, -1616.000000)" fill="#276CF2">
            <g id="#4" transform="translate(0.000000, 960.000000)">
                <path d="M810.877806,687.62816 L809.964788,683.38128 C809.101985,679.36544 806.349234,676.10352 802.601293,674.65496 L801.040031,674.05 C802.147827,672.1728 802.811287,669.86544 802.811287,667.36656 C802.811287,657.47744 797.057749,656 793.627842,656 C790.197936,656 784.444397,657.47744 784.444397,667.36656 C784.444397,669.83048 785.088075,672.10744 786.168481,673.97096 L784.397225,674.65496 C780.649284,676.10352 777.896533,679.36544 777.03373,683.38128 L776.120711,687.62816 C775.781373,689.21656 776.164841,690.84448 777.178291,692.09696 C778.158265,693.30688 779.600834,694 781.13927,694 L805.860769,694 C807.399206,694 808.841775,693.30536 809.821748,692.09544 C810.835199,690.84296 811.220188,689.21504 810.877806,687.62816 L810.877806,687.62816 Z M793.627842,659.04 C796.263423,659.04 799.767892,659.90336 799.767892,667.36656 C799.767892,671.95696 797.013619,675.69312 793.627842,675.69312 C790.242065,675.69312 787.487793,671.95696 787.487793,667.36656 C787.487793,659.90336 790.992262,659.04 793.627842,659.04 L793.627842,659.04 Z M807.453987,690.18632 C807.049215,690.6864 806.483144,690.96 805.860769,690.96 L781.13927,690.96 C780.516896,690.96 779.950824,690.6864 779.546053,690.18632 C779.113891,689.65128 778.948026,688.95056 779.09563,688.26656 L780.008649,684.01968 C780.656892,681.00856 782.706619,678.56744 785.494369,677.48976 L788.148209,676.46528 C789.679037,677.88192 791.572029,678.73312 793.627842,678.73312 C795.650178,678.73312 797.514258,677.90928 799.032912,676.5352 L801.502627,677.48976 C804.291899,678.56744 806.341626,681.00856 806.989869,684.01968 L807.902887,688.26656 C808.050492,688.95208 807.886149,689.65128 807.453987,690.18632 L807.453987,690.18632 Z" id="Icon-25x25"></path>
            </g>
        </g>
    </g>
</svg>