<?xml version="1.0" encoding="UTF-8"?>
<svg width="85px" height="51px" viewBox="0 0 85 51" version="1.1" xmlns="http://www.w3.org/2000/svg" xmlns:xlink="http://www.w3.org/1999/xlink">
    <!-- Generator: Sketch 56.2 (81672) - https://sketch.com -->
    <title>hcp</title>
    <desc>Created with Sketch.</desc>
    <g id="v7.0" stroke="none" stroke-width="1" fill="none" fill-rule="evenodd">
        <g id="HCPDetail" transform="translate(-153.000000, -246.000000)" fill="#FFFFFF" fill-rule="nonzero">
            <g id="TopBar" transform="translate(0.000000, 100.000000)">
                <g id="Logo" transform="translate(150.000000, 143.000000)">
                    <g id="BusinessInfo">
                        <path d="M3.63,44 L3.63,3.135 L10.4225,3.135 L10.4225,18.8375 C11.5225055,17.7924948 12.7324934,16.9491699 14.0525,16.3075 C15.3725066,15.6658301 16.9216578,15.345 18.7,15.345 C20.2400077,15.345 21.6058274,15.6062474 22.7975,16.12875 C23.9891726,16.6512526 24.983746,17.3845786 25.78125,18.32875 C26.578754,19.2729214 27.1837479,20.4004101 27.59625,21.71125 C28.0087521,23.0220899 28.215,24.4658254 28.215,26.0425 L28.215,44 L21.4225,44 L21.4225,26.0425 C21.4225,24.319158 21.023754,22.9854214 20.22625,22.04125 C19.428746,21.0970786 18.232508,20.625 16.6375,20.625 C15.4641608,20.625 14.3641718,20.8908307 13.3375,21.4225 C12.3108282,21.9541693 11.3391712,22.6783287 10.4225,23.595 L10.4225,44 L3.63,44 Z M54.725,21.7525 C54.5233323,22.0091679 54.326251,22.2108326 54.13375,22.3575 C53.941249,22.5041674 53.6616685,22.5775 53.295,22.5775 C52.9466649,22.5775 52.6075017,22.4720844 52.2775,22.26125 C51.9474984,22.0504156 51.5533356,21.8120847 51.095,21.54625 C50.6366644,21.2804153 50.0912532,21.0420844 49.45875,20.83125 C48.8262468,20.6204156 48.0425047,20.515 47.1075,20.515 C45.9158274,20.515 44.8708378,20.7304145 43.9725,21.16125 C43.0741622,21.5920855 42.3270863,22.2108293 41.73125,23.0175 C41.1354137,23.8241707 40.6908348,24.8004109 40.3975,25.94625 C40.1041652,27.0920891 39.9575,28.3891594 39.9575,29.8375 C39.9575,31.3408408 40.1179151,32.6791608 40.43875,33.8525 C40.7595849,35.0258392 41.222497,36.011246 41.8275,36.80875 C42.432503,37.606254 43.165829,38.2112479 44.0275,38.62375 C44.889171,39.0362521 45.8608279,39.2425 46.9425,39.2425 C48.0241721,39.2425 48.89958,39.1095847 49.56875,38.84375 C50.23792,38.5779153 50.8016644,38.2845849 51.26,37.96375 C51.7183356,37.6429151 52.1170816,37.3495847 52.45625,37.08375 C52.7954184,36.8179153 53.1758312,36.685 53.5975,36.685 C54.1475028,36.685 54.5599986,36.8958312 54.835,37.3175 L56.7875,39.7925 C56.0358296,40.6725044 55.2200044,41.4104137 54.34,42.00625 C53.4599956,42.6020863 52.5479214,43.0787482 51.60375,43.43625 C50.6595786,43.7937518 49.6833384,44.0458326 48.675,44.1925 C47.6666616,44.3391674 46.667505,44.4125 45.6775,44.4125 C43.9358246,44.4125 42.2950077,44.0870866 40.755,43.43625 C39.2149923,42.7854134 37.8720891,41.8366729 36.72625,40.59 C35.5804109,39.3433271 34.67292,37.8170924 34.00375,36.01125 C33.33458,34.2054076 33,32.1475116 33,29.8375 C33,27.765823 33.2979137,25.8454255 33.89375,24.07625 C34.4895863,22.3070745 35.3649942,20.7762565 36.52,19.48375 C37.6750058,18.1912435 39.1049915,17.178337 40.81,16.445 C42.5150085,15.711663 44.4766556,15.345 46.695,15.345 C48.8033439,15.345 50.6504087,15.6841633 52.23625,16.3625 C53.8220913,17.0408367 55.2474937,18.0124937 56.5125,19.2775 L54.725,21.7525 Z M61.1325,53.2125 L61.1325,15.785 L65.285,15.785 C65.7250022,15.785 66.1008318,15.8858323 66.4125,16.0875 C66.7241682,16.2891677 66.9258329,16.6008312 67.0175,17.0225 L67.5675,19.635 C68.7041723,18.3333268 70.0104093,17.2791707 71.48625,16.4725 C72.9620907,15.6658293 74.6899901,15.2625 76.67,15.2625 C78.2100077,15.2625 79.617077,15.5833301 80.89125,16.225 C82.165423,16.8666699 83.265412,17.7970772 84.19125,19.01625 C85.117088,20.2354228 85.8320808,21.7387411 86.33625,23.52625 C86.8404192,25.3137589 87.0925,27.3624885 87.0925,29.6725 C87.0925,31.7808439 86.8083362,33.7333243 86.24,35.53 C85.6716638,37.3266756 84.8604219,38.8849934 83.80625,40.205 C82.7520781,41.5250066 81.4779241,42.5562463 79.98375,43.29875 C78.4895759,44.0412537 76.8166759,44.4125 74.965,44.4125 C73.369992,44.4125 72.0179222,44.1695858 70.90875,43.68375 C69.7995778,43.1979142 68.8050044,42.524171 67.925,41.6625 L67.925,53.2125 L61.1325,53.2125 Z M74.3325,20.625 C72.9208263,20.625 71.7154217,20.9229137 70.71625,21.51875 C69.7170783,22.1145863 68.786671,22.9533279 67.925,24.035 L67.925,36.685 C68.6950038,37.6383381 69.5337455,38.3029148 70.44125,38.67875 C71.3487545,39.0545852 72.3249948,39.2425 73.37,39.2425 C74.3966718,39.2425 75.3270792,39.0500019 76.16125,38.665 C76.9954208,38.2799981 77.7012471,37.6933373 78.27875,36.905 C78.8562529,36.1166627 79.3008318,35.1220893 79.6125,33.92125 C79.9241682,32.7204107 80.08,31.3041748 80.08,29.6725 C80.08,28.0224918 79.9470847,26.6245891 79.68125,25.47875 C79.4154153,24.3329109 79.0350025,23.4025036 78.54,22.6875 C78.0449975,21.9724964 77.4445869,21.4500016 76.73875,21.12 C76.0329131,20.7899983 75.2308378,20.625 74.3325,20.625 Z" id="hcp"></path>
                    </g>
                </g>
            </g>
        </g>
    </g>
</svg>