<svg xmlns="http://www.w3.org/2000/svg" width="30" height="31" viewBox="0 0 30 31">
    <g fill="none" fill-rule="evenodd">
        <path fill="#3C3D41" d="M15.1 3c2.265 0 4.319.53 6.16 1.59 1.843 1.06 3.296 2.54 4.36 4.44 1.064 1.9 1.596 4.049 1.596 6.445 0 2.395-.532 4.55-1.596 6.461-1.064 1.913-2.517 3.398-4.36 4.458-1.841 1.06-3.895 1.59-6.16 1.59-2.266 0-4.32-.53-6.162-1.59-1.842-1.06-3.295-2.545-4.36-4.458-1.063-1.912-1.595-4.066-1.595-6.461 0-2.396.532-4.544 1.596-6.445 1.064-1.9 2.517-3.38 4.359-4.44C10.78 3.53 12.834 3 15.099 3zm0 4.492c-1.42 0-2.667.323-3.742.968-1.076.645-1.917 1.572-2.523 2.781-.606 1.21-.91 2.621-.91 4.234 0 1.612.304 3.023.91 4.233.606 1.21 1.447 2.136 2.523 2.781 1.075.645 2.323.968 3.741.968 1.42 0 2.666-.323 3.742-.968 1.075-.645 1.916-1.572 2.523-2.781.606-1.21.91-2.62.91-4.233 0-1.613-.304-3.024-.91-4.233-.607-1.21-1.448-2.137-2.523-2.782-1.076-.645-2.323-.968-3.742-.968z"/>
        <path fill="#276CF2" fill-rule="nonzero" d="M1.163 26.715l25.052-25.22a1.98 1.98 0 0 1 2.81 0 2.007 2.007 0 0 1 0 2.829L3.971 29.544a1.98 1.98 0 0 1-2.81 0 2.007 2.007 0 0 1 0-2.829z"/>
    </g>
</svg>
