<?xml version="1.0" encoding="UTF-8"?>
<svg width="161px" height="50px" viewBox="0 0 161 50" version="1.1" xmlns="http://www.w3.org/2000/svg" xmlns:xlink="http://www.w3.org/1999/xlink">
    <!-- Generator: Sketch 56.3 (81716) - https://sketch.com -->
    <title>Shape</title>
    <desc>Created with Sketch.</desc>
    <g id="Web" stroke="none" stroke-width="1" fill="none" fill-rule="evenodd">
        <g id="Partnership-Program" transform="translate(-455.000000, -1015.000000)" fill="#000000" fill-rule="nonzero">
            <g id="#1">
                <g id="#7" transform="translate(146.000000, 913.000000)">
                    <path d="M393.354167,114.55 C393.354167,116.35 391.904167,117.8 390.104167,117.8 C388.304167,117.8 386.854167,116.35 386.854167,114.55 C386.854167,112.75 388.254167,111.3 390.104167,111.3 C391.954167,111.35 393.354167,112.8 393.354167,114.55 Z M379.954167,121.1 C379.954167,121.4 379.954167,121.9 379.954167,121.9 C379.954167,121.9 378.404167,119.9 375.104167,119.9 C369.654167,119.9 365.404167,124.05 365.404167,129.8 C365.404167,135.5 369.604167,139.7 375.104167,139.7 C378.454167,139.7 379.954167,137.65 379.954167,137.65 L379.954167,138.5 C379.954167,138.9 380.254167,139.2 380.654167,139.2 L384.704167,139.2 L384.704167,120.4 C384.704167,120.4 381.004167,120.4 380.654167,120.4 C380.254167,120.4 379.954167,120.75 379.954167,121.1 Z M379.954167,133.15 C379.204167,134.25 377.704167,135.2 375.904167,135.2 C372.704167,135.2 370.254167,133.2 370.254167,129.8 C370.254167,126.4 372.704167,124.4 375.904167,124.4 C377.654167,124.4 379.254167,125.4 379.954167,126.45 L379.954167,133.15 Z M387.704167,120.4 L392.504167,120.4 L392.504167,139.2 L387.704167,139.2 L387.704167,120.4 Z M459.404167,119.9 C456.104167,119.9 454.554167,121.9 454.554167,121.9 L454.554167,111.35 L449.754167,111.35 L449.754167,139.2 C449.754167,139.2 453.454167,139.2 453.804167,139.2 C454.204167,139.2 454.504167,138.85 454.504167,138.5 L454.504167,137.65 L454.504167,137.65 C454.504167,137.65 456.054167,139.7 459.354167,139.7 C464.804167,139.7 469.054167,135.5 469.054167,129.8 C469.054167,124.1 464.804167,119.9 459.404167,119.9 Z M458.604167,135.15 C456.754167,135.15 455.304167,134.2 454.554167,133.1 L454.554167,126.4 C455.304167,125.4 456.904167,124.35 458.604167,124.35 C461.804167,124.35 464.254167,126.35 464.254167,129.75 C464.254167,133.15 461.804167,135.15 458.604167,135.15 Z M447.254167,128.05 L447.254167,139.25 L442.454167,139.25 L442.454167,128.6 C442.454167,125.5 441.454167,124.25 438.754167,124.25 C437.304167,124.25 435.804167,125 434.854167,126.1 L434.854167,139.2 L430.054167,139.2 L430.054167,120.4 L433.854167,120.4 C434.254167,120.4 434.554167,120.75 434.554167,121.1 L434.554167,121.9 C435.954167,120.45 437.804167,119.9 439.654167,119.9 C441.754167,119.9 443.504167,120.5 444.904167,121.7 C446.604167,123.1 447.254167,124.9 447.254167,128.05 Z M418.404167,119.9 C415.104167,119.9 413.554167,121.9 413.554167,121.9 L413.554167,111.35 L408.754167,111.35 L408.754167,139.2 C408.754167,139.2 412.454167,139.2 412.804167,139.2 C413.204167,139.2 413.504167,138.85 413.504167,138.5 L413.504167,137.65 L413.504167,137.65 C413.504167,137.65 415.054167,139.7 418.354167,139.7 C423.804167,139.7 428.054167,135.5 428.054167,129.8 C428.104167,124.1 423.854167,119.9 418.404167,119.9 Z M417.604167,135.15 C415.754167,135.15 414.304167,134.2 413.554167,133.1 L413.554167,126.4 C414.304167,125.4 415.904167,124.35 417.604167,124.35 C420.804167,124.35 423.254167,126.35 423.254167,129.75 C423.254167,133.15 420.804167,135.15 417.604167,135.15 Z M404.604167,119.9 C406.054167,119.9 406.804167,120.15 406.804167,120.15 L406.804167,124.6 C406.804167,124.6 402.804167,123.25 400.304167,126.1 L400.304167,139.25 L395.504167,139.25 L395.504167,120.4 C395.504167,120.4 399.204167,120.4 399.554167,120.4 C399.954167,120.4 400.254167,120.75 400.254167,121.1 L400.254167,121.9 C401.154167,120.85 403.104167,119.9 404.604167,119.9 Z M354.754167,137.5 C354.504167,136.9 354.254167,136.25 354.004167,135.7 C353.604167,134.8 353.204167,133.95 352.854167,133.15 L352.804167,133.1 C349.354167,125.6 345.654167,118 341.754167,110.5 L341.604167,110.2 C341.204167,109.45 340.804167,108.65 340.404167,107.85 C339.904167,106.95 339.404167,106 338.604167,105.1 C337.004167,103.1 334.704167,102 332.254167,102 C329.754167,102 327.504167,103.1 325.854167,105 C325.104167,105.9 324.554167,106.85 324.054167,107.75 C323.654167,108.55 323.254167,109.35 322.854167,110.1 L322.704167,110.4 C318.854167,117.9 315.104167,125.5 311.654167,133 L311.604167,133.1 C311.254167,133.9 310.854167,134.75 310.454167,135.65 C310.204167,136.2 309.954167,136.8 309.704167,137.45 C309.054167,139.3 308.854167,141.05 309.104167,142.85 C309.654167,146.6 312.154167,149.75 315.604167,151.15 C316.904167,151.7 318.254167,151.95 319.654167,151.95 C320.054167,151.95 320.554167,151.9 320.954167,151.85 C322.604167,151.65 324.304167,151.1 325.954167,150.15 C328.004167,149 329.954167,147.35 332.154167,144.95 C334.354167,147.35 336.354167,149 338.354167,150.15 C340.004167,151.1 341.704167,151.65 343.354167,151.85 C343.754167,151.9 344.254167,151.95 344.654167,151.95 C346.054167,151.95 347.454167,151.7 348.704167,151.15 C352.204167,149.75 354.654167,146.55 355.204167,142.85 C355.604167,141.1 355.404167,139.35 354.754167,137.5 Z M332.204167,140.1 C329.504167,136.7 327.754167,133.5 327.154167,130.8 C326.904167,129.65 326.854167,128.65 327.004167,127.75 C327.104167,126.95 327.404167,126.25 327.804167,125.65 C328.754167,124.3 330.354167,123.45 332.204167,123.45 C334.054167,123.45 335.704167,124.25 336.604167,125.65 C337.004167,126.25 337.304167,126.95 337.404167,127.75 C337.554167,128.65 337.504167,129.7 337.254167,130.8 C336.654167,133.45 334.904167,136.65 332.204167,140.1 Z M352.154167,142.45 C351.804167,145.05 350.054167,147.3 347.604167,148.3 C346.404167,148.8 345.104167,148.95 343.804167,148.8 C342.554167,148.65 341.304167,148.25 340.004167,147.5 C338.204167,146.5 336.404167,144.95 334.304167,142.65 C337.604167,138.6 339.604167,134.9 340.354167,131.6 C340.704167,130.05 340.754167,128.65 340.604167,127.35 C340.404167,126.1 339.954167,124.95 339.254167,123.95 C337.704167,121.7 335.104167,120.4 332.204167,120.4 C329.304167,120.4 326.704167,121.75 325.154167,123.95 C324.454167,124.95 324.004167,126.1 323.804167,127.35 C323.604167,128.65 323.654167,130.1 324.054167,131.6 C324.804167,134.9 326.854167,138.65 330.104167,142.7 C328.054167,145 326.204167,146.55 324.404167,147.55 C323.104167,148.3 321.854167,148.7 320.604167,148.85 C319.254167,149 317.954167,148.8 316.804167,148.35 C314.354167,147.35 312.604167,145.1 312.254167,142.5 C312.104167,141.25 312.204167,140 312.704167,138.6 C312.854167,138.1 313.104167,137.6 313.354167,137 C313.704167,136.2 314.104167,135.35 314.504167,134.5 L314.554167,134.4 C318.004167,126.95 321.704167,119.35 325.554167,111.95 L325.704167,111.65 C326.104167,110.9 326.504167,110.1 326.904167,109.35 C327.304167,108.55 327.754167,107.8 328.304167,107.15 C329.354167,105.95 330.754167,105.3 332.304167,105.3 C333.854167,105.3 335.254167,105.95 336.304167,107.15 C336.854167,107.8 337.304167,108.55 337.704167,109.35 C338.104167,110.1 338.504167,110.9 338.904167,111.65 L339.054167,111.95 C342.854167,119.4 346.554167,127 350.004167,134.45 L350.004167,134.5 C350.404167,135.3 350.754167,136.2 351.154167,137 C351.404167,137.6 351.654167,138.1 351.804167,138.6 C352.204167,139.9 352.354167,141.15 352.154167,142.45 Z" id="Shape"></path>
                </g>
            </g>
        </g>
    </g>
</svg>