<?xml version="1.0" encoding="UTF-8"?>
<svg width="133px" height="40px" viewBox="0 0 133 40" version="1.1" xmlns="http://www.w3.org/2000/svg" xmlns:xlink="http://www.w3.org/1999/xlink">
    <!-- Generator: Sketch 56.3 (81716) - https://sketch.com -->
    <title>Amazon_logo</title>
    <desc>Created with Sketch.</desc>
    <g id="Web" stroke="none" stroke-width="1" fill="none" fill-rule="evenodd">
        <g id="Partnership-Program" transform="translate(-725.000000, -1027.000000)" fill="#3C3D41">
            <g id="#1">
                <g id="#7" transform="translate(146.000000, 913.000000)">
                    <g id="Amazon_logo" transform="translate(579.000000, 114.000000)">
                        <path d="M82.1695947,31.2143285 C74.4726821,36.8875629 63.3164755,39.9144384 53.7111947,39.9144384 C40.2430344,39.9144384 28.1182371,34.9330649 18.9453589,26.6480715 C18.2246755,25.9965682 18.8704053,25.1086874 19.7352305,25.6160464 C29.634555,31.3757629 41.8746689,34.8408159 54.5183629,34.8408159 C63.0454993,34.8408159 72.4259338,33.0765762 81.0510901,29.4155007 C82.3540874,28.8620106 83.4437629,30.2687907 82.1695947,31.2143285" id="path8"></path>
                        <path d="M85.3694358,27.5532517 C84.3893007,26.2963775 78.8659735,26.9594066 76.3868199,27.2534464 C75.6315391,27.3456954 75.5162344,26.6884291 76.1965563,26.215657 C80.5956172,23.119596 87.8139987,24.0132464 88.6557576,25.0510305 C89.4975152,26.0945841 88.4366702,33.3302623 84.3028199,36.7837801 C83.6686172,37.3142026 83.0632424,37.031698 83.3457523,36.3283073 C84.2739934,34.0105841 86.3553338,28.8158914 85.3694358,27.5532517" id="path10"></path>
                        <path d="M76.5597841,4.35872993 L76.5597841,1.34915086 C76.5597841,0.893678291 76.9057126,0.588108225 77.3208278,0.588108225 L90.794747,0.588108225 C91.2271603,0.588108225 91.5730887,0.899444517 91.5730887,1.34915086 L91.5730887,3.92631987 C91.5673272,4.35872993 91.204098,4.92374675 90.5583616,5.81739563 L83.5763695,15.7859086 C86.1708371,15.7224927 88.9094397,16.1087748 91.261755,17.4348358 C91.7921775,17.7346397 91.9363152,18.1728159 91.9766728,18.6052305 L91.9766728,21.8166026 C91.9766728,22.2547775 91.4923722,22.7679007 90.9850106,22.5026914 C86.8396305,20.3291046 81.3335987,20.0927205 76.7500437,22.525755 C76.2830411,22.7794371 75.7929762,22.2720755 75.7929762,21.8338967 L75.7929762,18.7839603 C75.7929762,18.2938954 75.7987377,17.4578967 76.2888026,16.714151 L84.3777709,5.11400834 L77.3381232,5.11400834 C76.9057126,5.11400834 76.5597841,4.80844079 76.5597841,4.35872993" id="path12"></path>
                        <path d="M27.4090808,23.1368927 L23.3098265,23.1368927 C22.9177762,23.1080689 22.6064397,22.8140291 22.5776106,22.4392689 L22.5776106,1.40104424 C22.5776106,0.980164252 22.929306,0.645763854 23.3674808,0.645763854 L27.1899921,0.645763854 C27.5878146,0.663048623 27.9049113,0.968629682 27.9337417,1.34915086 L27.9337417,4.09928755 L28.0086927,4.09928755 C29.0061192,1.44139868 30.879898,0.201820808 33.4051788,0.201820808 C35.9708159,0.201820808 37.5736199,1.44139868 38.7267152,4.09928755 C39.7183775,1.44139868 41.9726781,0.201820808 44.3884159,0.201820808 C46.1065285,0.201820808 47.9860742,0.910974583 49.1334053,2.50224675 C50.4306371,4.27224834 50.1654238,6.84365126 50.1654238,9.09795616 L50.1596623,22.375853 C50.1596623,22.7967311 49.8079669,23.1368927 49.3697921,23.1368927 L45.2762993,23.1368927 C44.8669536,23.1080689 44.5383219,22.7794371 44.5383219,22.375853 L44.5383219,11.2254164 C44.5383219,10.3375336 44.6190331,8.12358967 44.4230106,7.28182742 C44.1174411,5.86928914 43.2007311,5.47146715 42.0130384,5.47146715 C41.0213762,5.47146715 39.9835921,6.13449762 39.5627113,7.19534808 C39.1418305,8.25619616 39.1821894,10.0319596 39.1821894,11.2254164 L39.1821894,22.375853 C39.1821894,22.7967311 38.8304954,23.1368927 38.3923179,23.1368927 L34.2988318,23.1368927 C33.8837166,23.1080689 33.560849,22.7794371 33.560849,22.375853 L33.5550874,11.2254164 C33.5550874,8.87886795 33.9413695,5.42534424 31.0298079,5.42534424 C28.083645,5.42534424 28.198955,8.79238212 28.198955,11.2254164 L28.198955,22.375853 C28.198955,22.7967311 27.8472596,23.1368927 27.4090848,23.1368927" id="path14"></path>
                        <path d="M103.173232,0.201820808 C109.255812,0.201820808 112.547897,5.42534424 112.547897,12.0671764 C112.547897,18.4841523 108.909877,23.5750689 103.173232,23.5750689 C97.2001947,23.5750689 93.9484636,18.3515457 93.9484636,11.8423221 C93.9484636,5.29273762 97.2405523,0.201820808 103.173232,0.201820808 M103.207823,4.4971049 C100.186714,4.4971049 99.9964262,8.61365258 99.9964262,11.1792936 C99.9964262,13.7506967 99.9560927,19.2394305 103.173232,19.2394305 C106.350009,19.2394305 106.499914,14.811547 106.499914,12.1132971 C106.499914,10.3375336 106.424962,8.21583735 105.88877,6.5323151 C105.427531,5.06788781 104.510824,4.4971049 103.207823,4.4971049" id="path16"></path>
                        <path d="M120.435073,23.1368927 L116.353115,23.1368927 C115.943764,23.1080689 115.615132,22.7794371 115.615132,22.375853 L115.609371,1.33185457 C115.643964,0.945567298 115.98413,0.645763854 116.399242,0.645763854 L120.198695,0.645763854 C120.556151,0.663048623 120.850191,0.905210609 120.930911,1.23384293 L120.930911,4.45097762 L121.005858,4.45097762 C122.153192,1.5740053 123.761755,0.201820808 126.592605,0.201820808 C128.431793,0.201820808 130.224858,0.864851801 131.377954,2.68097629 C132.450331,4.36449603 132.450331,7.19534808 132.450331,9.23055828 L132.450331,22.4738662 C132.404209,22.842853 132.064044,23.1368927 131.660465,23.1368927 L127.549677,23.1368927 C127.174918,23.1080689 126.863581,22.8313258 126.823228,22.4738662 L126.823228,11.0466873 C126.823228,8.74626146 127.088438,5.37921921 124.257587,5.37921921 C123.260162,5.37921921 122.343449,6.04801828 121.887976,7.06273921 C121.31143,8.34844411 121.236478,9.62838026 121.236478,11.0466873 L121.236478,22.375853 C121.230717,22.7967311 120.873254,23.1368927 120.435079,23.1368927" id="path18"></path>
                        <path d="M65.8186967,13.0876657 C65.8186967,14.684702 65.8590543,16.0165272 65.0518874,17.4348358 C64.4003894,18.5879351 63.362604,19.2970874 62.2152755,19.2970874 C60.6412993,19.2970874 59.7188225,18.0978649 59.7188225,16.3278636 C59.7188225,12.833985 62.8494755,12.1997832 65.8186967,12.1997832 L65.8186967,13.0876657 M69.9525457,23.0792384 C69.6815709,23.3213881 69.2895139,23.3386834 68.9839457,23.177253 C67.6232901,22.0472199 67.3753762,21.5225629 66.6316305,20.4444185 C64.3830927,22.7390768 62.786053,23.4251669 59.8744874,23.4251669 C56.4209656,23.4251669 53.7400212,21.2977046 53.7400212,17.0370212 C53.7400212,13.7103377 55.538853,11.4445048 58.1102556,10.3375336 C60.3357285,9.35739894 63.4433166,9.18443775 65.8186967,8.91346066 L65.8186967,8.38303669 C65.8186967,7.40866781 65.893649,6.25557192 65.3171007,5.41381642 C64.8212702,4.65853576 63.8641974,4.34719987 63.0166742,4.34719987 C61.4542278,4.34719987 60.064751,5.14860106 59.7245854,6.80905854 C59.6554,7.17805166 59.3844252,7.54127669 59.0096649,7.55857298 L55.037253,7.13192464 C54.702853,7.05697748 54.3280993,6.78599603 54.4261126,6.27287258 C55.3370583,1.45293325 59.6957616,2.87523285e-05 63.5932212,2.87523285e-05 C65.5880781,2.87523285e-05 68.1940728,0.530453921 69.768049,2.04100808 C71.762902,3.90325735 71.5726437,6.38817854 71.5726437,9.09219007 L71.5726437,15.4803391 C71.5726437,17.4002464 72.3682795,18.2420013 73.1177907,19.2797921 C73.3772411,19.6487788 73.4348954,20.0927205 73.1004781,20.3694636 C72.2644848,21.0670901 70.7769894,22.3643219 69.9582927,23.0907709 L69.9525311,23.0792212" id="path28"></path>
                        <path d="M12.0786772,13.0876657 C12.0786772,14.684702 12.1190315,16.0165272 11.3118685,17.4348358 C10.6603658,18.5879351 9.62834623,19.2970874 8.47525033,19.2970874 C6.90127444,19.2970874 5.98456517,18.0978649 5.98456517,16.3278636 C5.98456517,12.833985 9.11521854,12.1997832 12.0786772,12.1997832 L12.0786772,13.0876657 M16.2125232,23.0792384 C15.941547,23.3213881 15.5494901,23.3386834 15.2439205,23.177253 C13.8832715,22.0472199 13.6411179,21.5225629 12.8916064,20.4444185 C10.6430694,22.7390768 9.05180159,23.4251669 6.13446583,23.4251669 C2.68670834,23.4251669 -2.83596159e-07,21.2977046 -2.83596159e-07,17.0370212 C-2.83596159e-07,13.7103377 1.80459391,11.4445048 4.3702306,10.3375336 C6.59570464,9.35739894 9.70329762,9.18443775 12.0786772,8.91346066 L12.0786772,8.38303669 C12.0786772,7.40866781 12.1536287,6.25557192 11.5828458,5.41381642 C11.0812458,4.65853576 10.1241799,4.34719987 9.28241762,4.34719987 C7.71997642,4.34719987 6.32472768,5.14860106 5.98456517,6.80905854 C5.91537788,7.17805166 5.64440066,7.54127669 5.27541192,7.55857298 L1.29723234,7.13192464 C0.962833921,7.05697748 0.593842887,6.78599603 0.686090649,6.27287258 C1.60280212,1.45293325 5.95573656,2.87523285e-05 9.85320278,2.87523285e-05 C11.8480546,2.87523285e-05 14.4540503,0.530453921 16.0280265,2.04100808 C18.0228834,3.90325735 17.8326199,6.38817854 17.8326199,9.09219007 L17.8326199,15.4803391 C17.8326199,17.4002464 18.6282596,18.2420013 19.3777722,19.2797921 C19.6429828,19.6487788 19.7006371,20.0927205 19.3662358,20.3694636 C18.5302424,21.0670901 17.042751,22.3643219 16.224049,23.0907709 L16.2125258,23.0792212" id="path30"></path>
                    </g>
                </g>
            </g>
        </g>
    </g>
</svg>