<?xml version="1.0" encoding="UTF-8"?>
<svg width="199px" height="57px" viewBox="0 0 199 57" version="1.1" xmlns="http://www.w3.org/2000/svg" xmlns:xlink="http://www.w3.org/1999/xlink">
    <!-- Generator: Sketch 56.3 (81716) - https://sketch.com -->
    <title>path3402</title>
    <desc>Created with Sketch.</desc>
    <g id="Web" stroke="none" stroke-width="1" fill="none" fill-rule="evenodd">
        <g id="Partnership-Program" transform="translate(-146.000000, -1011.000000)" fill="#000000" fill-rule="nonzero">
            <g id="#1">
                <g id="#7" transform="translate(146.000000, 913.000000)">
                    <path d="M123.033913,139.757809 C123.033913,139.757809 123.527513,140.496694 123.941951,141.05899 C124.697485,142.081346 126.063034,143.498703 127.089815,144.377 C127.406464,144.644207 127.7755,144.949752 127.7755,144.949752 C127.7755,144.949752 127.194589,144.88934 126.867462,144.821958 C126.087481,144.669766 124.943121,143.911131 124.370359,143.420865 C123.427396,142.616921 122.391302,141.306447 122.858126,140.144678 C122.927976,139.977384 123.033913,139.757809 123.033913,139.757809 L123.033913,139.757809 Z M128.277249,138.357878 C129.767362,138.457791 131.164343,138.888807 132.462371,139.605618 C133.737117,140.31662 135.610235,141.703771 135.419315,143.337218 C135.357615,143.863499 135.013026,144.263147 134.575305,144.450192 C134.004871,144.697648 133.709177,144.653501 132.981583,144.440898 C132.455386,144.285221 132.219064,144.192279 131.721971,143.907646 C130.25747,143.059555 128.186445,141.246035 127.060711,139.797309 C126.799941,139.458073 126.536843,139.075851 126.333117,138.815615 C126.200404,138.656453 126.101451,138.506585 126.113092,138.465923 C126.15733,138.29979 127.694009,138.316055 128.277249,138.357878 L128.277249,138.357878 Z M124.480953,135.575443 C124.328449,135.416281 124.166632,135.02128 123.996666,134.736647 C123.907026,134.585617 123.739389,134.39044 123.629959,134.313763 C123.242296,134.02913 122.91517,134.01635 122.537985,134.345131 C122.014117,134.805191 121.711438,135.524326 121.689319,136.221387 C121.677677,136.526932 121.727736,136.860359 121.673021,137.120595 C121.576396,137.552773 121.141004,137.996569 120.908174,138.41132 C120.633434,138.902748 120.411081,139.752001 120.384306,140.300355 C120.287681,142.012802 121.193391,143.58816 122.369183,144.833575 C123.55196,146.09177 125.099117,147.137362 126.783643,147.847202 C128.373873,148.518704 130.706832,148.974118 132.454222,148.368836 C133.021164,148.173659 133.815115,147.690364 134.213254,147.187318 C134.297073,147.080435 134.366922,146.964258 134.454234,146.909655 C134.529903,146.860861 134.73363,146.841111 134.895447,146.812067 C135.454239,146.71564 136.257503,146.29508 136.58463,146.015094 C137.240047,145.446989 137.603262,144.904443 137.769735,144.117926 C138.105011,142.536759 137.192316,140.799916 136.15273,139.74503 C134.370415,137.924539 132.611383,136.647755 130.331975,135.755517 C129.333134,135.365163 127.774336,135.00153 126.638124,135.103765 C126.286551,135.13281 125.922172,135.224589 125.579911,135.250148 C125.406453,135.265251 124.765006,135.426737 124.697485,135.477855 C124.612502,135.539428 124.504236,135.597517 124.480953,135.575443 L124.480953,135.575443 Z M70.1348966,130.902811 C71.0813512,130.960899 71.6680833,131.006208 72.4073191,131.325695 C72.8159361,131.498798 73.2885813,131.896123 73.0557512,132.370124 C72.9148889,132.660567 72.414304,132.76164 72.1221021,132.739567 C71.1314097,132.673346 70.4177852,131.946079 70.0790173,130.973679 C70.0662117,130.938826 70.0697041,130.902811 70.1348966,130.902811 L70.1348966,130.902811 Z M74.2769454,133.34601 C74.828753,132.657081 75.0778813,131.84849 75.1395813,130.960899 C75.2012813,130.066338 74.9149001,129.205467 74.4154794,128.523509 C73.5586643,127.361741 72.129087,126.782019 70.6948531,126.675136 C70.4981116,126.662357 69.32814,126.627504 69.0277891,126.720445 C68.973074,126.740195 68.9393136,126.761107 68.9090457,126.752975 C68.8752853,126.749489 68.6785438,125.943222 68.6424551,125.662074 C68.5143985,124.673409 68.3584023,123.974025 68.2443155,123.19564 C68.1488551,122.577579 68.0801702,121.914209 68.0254551,121.254325 C67.7018212,117.408872 67.8135797,115.50938 68.132557,111.746413 C68.1546759,111.516383 68.1663174,111.254985 68.132557,111.096984 C68.0464099,110.645056 67.7716702,110.330217 67.3292929,110.216364 C65.9998326,109.867833 64.7285798,111.180632 64.0766553,112.23087 C62.5539459,114.685687 63.0510384,119.702202 63.4899232,122.180254 C63.6692025,123.206096 64.1371911,125.484323 64.4619892,126.304532 C64.6342836,126.746004 64.9101873,127.613845 64.8892326,127.655669 C64.8706062,127.694007 64.174444,127.95889 63.5364893,128.204023 C63.2966742,128.291156 62.4922459,128.708231 62.1476573,128.921996 C61.4386894,129.365792 60.9532384,129.727101 60.4631309,130.278941 C60.3141196,130.450883 59.8181913,131.186283 59.7448498,131.350092 C59.3490385,132.249301 59.3257555,133.032332 59.6773291,133.988468 C59.7669687,134.233601 60.2605687,135.266413 60.5888592,135.233883 C61.0615045,135.19206 60.957895,134.411351 61.0824592,134.007056 C61.1232045,133.867644 61.2559177,133.63529 61.3606913,133.509819 C62.0149441,132.739567 64.2116968,131.886829 65.1115854,131.61846 C65.2408062,131.577798 66.6482646,131.150268 66.8543193,131.244371 C66.9090344,131.26993 67.1767891,131.745093 67.3479193,132.03205 C67.4398872,132.193536 67.5434967,132.313198 67.6564193,132.435183 C68.5120702,133.354142 69.7763381,134.224307 71.0347852,134.482219 C71.588921,134.593749 72.6750738,134.500808 73.224553,134.188292 C73.3491172,134.117424 73.7588983,133.955938 74.2769454,133.34601 L74.2769454,133.34601 Z M60.9800139,122.443976 C61.019595,122.441652 61.0801309,122.421902 61.1325177,122.399829 C61.7786214,122.117519 61.7786214,120.966206 61.6226252,120.424822 C61.2035309,119.000494 59.8496234,117.529696 58.7692914,116.797782 C58.1243518,116.367927 56.8042046,115.756837 55.8600783,115.576763 C54.3827708,115.293292 53.0742652,115.683646 52.2838067,116.876782 C51.5690181,117.956065 51.2535332,119.290936 51.1964898,120.545646 C51.0335087,124.14829 52.1720482,129.4111 53.5736859,132.418919 C53.7622784,132.822052 54.6889425,134.701794 55.5504141,135.005015 C56.4072292,135.307075 56.7844141,134.304469 56.8693971,133.555128 C56.9788273,132.59086 56.6703273,131.312915 56.4258556,130.278941 C55.9951198,128.470068 55.3769557,125.642324 55.2302726,124.83141 C55.0754406,123.974025 54.7168821,122.138431 54.8461028,121.202045 C54.9124594,120.704809 55.0067557,120.45619 55.3851047,120.486396 C55.557399,120.501499 57.9823254,121.614473 59.3059649,122.108225 C59.8018932,122.291784 60.4188932,122.490446 60.9800139,122.443976 L60.9800139,122.443976 Z M43.0451052,124.105304 C43.0451052,124.105304 43.321009,124.100657 43.6050618,124.105304 C44.509607,124.116922 46.0264957,124.283055 46.0264957,124.283055 C46.0264957,124.283055 45.8565296,125.615603 45.7191598,126.466018 C45.6260277,127.034122 45.5515221,127.384976 45.4292862,127.834581 C45.373407,128.034405 45.234873,128.604833 45.0893542,128.827893 C45.0637429,128.873202 45.02649,128.920834 45.02649,128.920834 C45.02649,128.920834 44.2942391,127.510447 43.884458,126.527591 C43.5584958,125.748045 43.3955146,125.167161 43.1673411,124.694321 C43.112626,124.583953 43.0520901,124.432923 43.0451052,124.302805 C43.0381203,124.212187 43.0451052,124.105304 43.0451052,124.105304 L43.0451052,124.105304 Z M38.1929243,123.951951 C38.1929243,123.951951 38.6271526,124.925513 38.9647563,125.662074 C39.3198223,126.435812 41.1137789,130.031485 41.8530147,131.048032 C42.6725769,132.184242 44.239524,134.328866 44.2523297,134.393925 C44.2860901,134.629764 44.3373127,135.049162 44.5573372,135.384913 C44.7284674,135.65212 45.1510542,135.764812 45.5619994,135.791532 C46.0171824,135.818253 46.4886636,135.482502 46.6935541,135.108412 C47.0882013,134.39741 47.7610805,132.37361 47.9065994,131.890314 C48.6924012,129.196173 49.5410672,124.164555 49.8192993,121.57962 C49.8914766,120.901147 50.1173219,117.367048 50.1347842,116.571237 C50.1510823,116.012426 50.1347842,115.085335 49.8134785,114.627598 C49.6947351,114.453333 49.4665616,114.308112 49.246537,114.311597 C48.9496786,114.322053 48.351305,114.736805 48.089371,114.980776 C47.364105,115.663896 46.8809824,116.357471 46.7261503,117.206724 C46.5934371,117.945609 46.4060088,120.065836 46.4060088,120.065836 L43.244175,119.939203 L41.4828147,119.910159 C41.4828147,119.910159 41.3163411,119.500055 41.1801355,119.158495 C40.8856053,118.426581 40.621343,117.694667 40.5072563,117.283401 C40.2767544,116.457383 39.8332129,114.81929 39.7272752,114.563701 C39.5049223,114.026964 39.309345,113.714448 38.7866412,113.644742 C38.2068941,113.569227 37.8087545,113.527404 37.3896602,113.753948 C36.6003658,114.186126 36.2406432,115.099276 36.1067659,116.04147 C35.8716074,117.645872 36.5223677,118.940082 37.1905904,120.843059 C37.4711507,121.643517 37.0846526,121.909562 36.4187583,122.950507 C36.3326111,123.08411 36.2441357,123.224684 36.2278376,123.331567 C36.2045545,123.438449 36.3069998,123.716112 36.4525187,123.831127 C36.4979206,123.868304 36.5107262,123.872951 36.5933809,123.876436 L38.1929243,123.951951 L38.1929243,123.951951 Z M20.1369439,134.340484 C20.1369439,134.340484 20.0961986,135.359354 20.0112156,135.927459 C19.9402024,136.408431 19.8435779,136.769741 19.6142401,137.13686 C19.3627835,137.539994 19.1706986,137.793259 18.7737232,137.853671 C18.2871081,137.924539 18.0181892,137.593435 17.7143459,137.11711 C17.3103855,136.470005 16.9075893,135.269898 16.6701025,134.511264 C16.326678,133.433142 16.1811591,132.770935 15.9972233,131.544107 C15.6933799,129.531924 15.3860441,126.109355 15.7131705,123.781171 C15.7737063,123.380361 15.8738233,122.793668 15.8738233,122.793668 C15.8738233,122.793668 16.3604384,123.338537 16.7155044,123.719597 C16.866844,123.884568 17.5886176,124.961528 17.6526459,125.074219 C17.77721,125.290308 18.1113213,125.859575 18.1578874,125.975751 C18.2289006,126.100061 18.749276,127.214197 18.8400798,127.475594 C19.0147024,127.975155 19.2684873,128.744245 19.4640647,129.357659 C19.921576,130.770369 19.8400854,131.293165 20.1369439,132.861552 C20.1707043,133.041627 20.199808,134.340484 20.1672118,134.340484 C20.153242,134.345131 20.1369439,134.340484 20.1369439,134.340484 L20.1369439,134.340484 Z M16.6840723,119.414084 C16.6840723,119.414084 16.8761572,119.078333 17.0274968,118.826229 C17.8691779,117.426298 19.2137722,116.624678 20.8377627,116.544516 C22.5013343,116.460869 24.6375512,117.422813 25.8564172,118.26858 C29.3383926,120.685058 31.1707661,125.04169 32.1696075,129.217085 C33.3465641,134.112777 33.400115,139.276837 31.9973132,144.014529 C31.1835717,146.764434 29.6003265,150.206754 27.6387323,152.265407 C27.0543285,152.876497 26.1590965,153.709485 25.9041474,154.051045 C25.638721,154.403061 25.5746927,154.699312 25.9798172,154.935151 C26.4070606,155.180284 27.3430379,154.67143 27.8098624,154.390282 C30.0997472,153.001968 31.5968453,151.618302 32.9530811,149.630517 C33.2953415,149.128633 34.6702037,146.871317 34.9216603,146.399639 C36.4606677,143.501027 37.249962,140.975343 37.6725488,137.775833 C38.2057299,133.703835 37.8646337,129.079996 36.4513545,124.997543 C35.8343546,123.206096 34.8820791,121.362369 33.8902226,119.807923 C33.6550641,119.443128 32.2091887,117.504137 32.0310736,117.313607 C31.5339812,116.790811 30.305802,115.728955 29.7318756,115.267733 C26.8610795,112.968593 23.7597815,111.46178 20.3558042,111.877693 C18.4838496,112.107723 16.9471704,112.726945 15.4477441,113.943317 C14.8726535,114.414995 13.9017517,115.396689 13.5129253,116.096073 C13.2603045,116.544516 12.9459838,117.089385 12.9052385,117.096356 C12.8610008,117.106812 12.6945272,116.99412 12.5129197,116.867488 C12.3545951,116.758281 11.6805518,116.445766 11.3231574,116.313324 C8.98787075,115.444321 6.37551614,115.648793 4.22998604,117.038268 C2.67351629,118.043197 1.35686162,119.953144 0.774786177,121.685341 C-0.0831930334,124.254011 -0.151877936,126.91446 0.197367333,129.646939 C0.794576742,134.283557 2.46746158,138.676203 4.9610728,142.564642 C6.53500481,145.014811 8.57576133,147.434775 11.011165,149.170456 C11.2847405,149.367957 12.770197,150.229989 13.0740404,150.369401 C13.6235196,150.627314 14.3546064,150.865476 14.7771932,150.41471 C14.9972177,150.181195 14.9902328,149.991827 14.8272516,149.683958 C14.5688101,149.206471 13.9075724,148.558205 13.5420291,148.170174 C13.22538,147.828614 11.4314235,145.634034 11.0612235,145.120532 C10.6549348,144.572177 8.82954623,141.843184 8.58973114,141.423785 C6.28704067,137.444729 4.45815961,131.140974 4.63511055,126.252252 C4.67236338,125.242676 4.82137469,123.78698 5.04838412,122.838977 C5.3568841,121.561032 6.11940294,119.831159 7.26376327,119.02373 C8.46865945,118.170992 9.58508016,118.219786 11.0274631,118.791376 C11.4104688,118.945891 11.9552914,119.191024 11.9552914,119.191024 C11.9552914,119.191024 11.5350329,120.26566 11.2602933,121.073089 C10.5047594,123.316464 10.200916,126.89471 10.479148,129.357659 C10.7084858,131.376813 11.1601763,132.923126 12.0751989,134.526366 C12.8039574,135.811282 13.7853366,137.071801 15.0111875,138.115069 C16.1928006,139.12116 18.0810534,139.997134 19.7422967,140.041281 C21.1229797,140.07381 22.552557,139.474338 23.277823,138.221952 C24.5374343,136.043636 24.6177607,132.605963 24.2626947,130.340515 C23.7295135,126.91446 21.9518551,123.697524 19.3872307,121.518046 C18.4663873,120.737338 16.6840723,119.414084 16.6840723,119.414084 L16.6840723,119.414084 Z M126.517053,132.066903 C126.585738,132.054123 126.694004,132.022756 126.785972,131.990226 C127.584579,131.685843 127.91287,130.946958 128.109611,130.138367 C128.565958,128.256303 128.761536,124.09601 128.836041,122.463726 C128.891921,121.243869 128.922189,120.036792 128.973411,118.829714 C129.016485,117.806196 129.097975,116.444604 128.8861,115.483822 C128.808102,115.138776 128.5776,114.741452 128.245817,114.533495 C127.865139,114.291847 127.002504,114.273259 126.528694,114.370847 C125.358723,114.612495 124.978045,115.362998 124.812736,116.516634 C124.41576,119.271186 124.605517,124.676894 124.840675,126.958608 C124.916345,127.707948 125.202726,130.122103 125.597374,131.132841 C125.730087,131.476725 126.017632,132.164491 126.517053,132.066903 L126.517053,132.066903 Z M90.4842542,127.933331 C90.4842542,127.933331 88.7519977,127.811345 87.5622355,127.678904 C86.0453469,127.517418 83.1966696,127.02599 81.5552168,126.436974 C81.0604527,126.265032 80.0581188,125.845633 79.9708075,125.341426 C79.882332,124.813983 80.205966,124.406202 80.5703452,123.979833 C80.7798924,123.7347 81.9673263,122.595006 82.2991093,122.317343 C83.6949262,121.156736 86.5238129,119.361804 88.6111354,118.490478 C89.3235958,118.194227 90.5087014,117.771343 90.5087014,117.771343 C90.5087014,117.771343 90.4202259,121.136986 90.4376882,124.451511 C90.4446731,126.203458 90.4842542,127.933331 90.4842542,127.933331 L90.4842542,127.933331 Z M122.220172,126.593812 C122.320289,125.689956 122.08513,123.979833 122.046713,123.75445 C121.972208,123.23514 121.578725,122.037357 121.515861,121.889812 C121.198047,121.163707 120.887219,120.563073 120.554272,119.969409 C119.986166,118.949377 118.638079,117.333357 117.834815,116.642105 C114.856917,114.072273 110.244552,112.608445 106.286438,112.126311 C103.603071,111.802178 100.518071,111.852134 97.6717219,112.376091 C96.6938351,112.556165 95.2386465,112.888431 95.2386465,112.888431 C95.2386465,112.888431 95.2421389,112.307547 95.1944087,111.897443 C95.1722899,111.713883 95.0302635,111.221294 94.9522654,111.062131 C94.7438823,110.635762 94.4051144,110.416188 93.9126786,110.323247 C93.3166334,110.209393 92.6844994,110.175702 92.1326919,110.408056 C91.2293108,110.790277 90.9033485,111.636045 90.7473523,112.60496 C90.6192957,113.385668 90.4854184,114.741452 90.4854184,114.741452 C90.4854184,114.741452 89.8102109,115.059776 89.2455977,115.340924 C87.5133411,116.193662 85.8660676,117.222989 84.4283413,118.287169 C84.0302017,118.581096 82.3165715,120.014718 81.9370583,120.372543 C80.8765169,121.372825 79.9230773,122.37427 79.1966471,123.656862 C78.6320339,124.658306 78.470217,125.549382 78.8986245,126.610077 C79.4923415,128.089008 81.6169168,129.205467 83.0721055,129.840955 C84.1419601,130.311471 87.4609543,131.393077 88.8416373,131.592901 C89.4923977,131.685843 90.5028806,131.864755 90.5645806,131.906579 C90.590192,131.925167 90.6088184,131.941432 90.6262806,131.963506 C90.6577127,132.008814 90.7112636,133.474966 90.7007863,134.00938 C90.6891448,134.536822 91.091941,137.995407 91.2211617,138.726159 C91.2910108,139.124646 91.5913617,140.647724 91.8986976,141.04621 C92.0977674,141.315741 92.4528334,141.297152 92.7415428,141.117078 C94.3236239,140.137708 94.803254,136.731403 94.9208333,134.998044 C94.9918465,133.943159 95.026771,132.355021 95.026771,132.355021 C95.026771,132.355021 96.8416823,132.407301 97.9592671,132.378257 C99.0430916,132.351536 100.238675,132.179594 101.365573,132.000682 C102.807956,131.772976 105.618216,131.160724 107.229401,130.344 C108.557697,129.67366 109.798682,128.540936 110.200314,127.343153 C110.57517,126.245282 110.518127,125.487809 109.948857,124.49682 C109.309738,123.376876 108.097857,122.547373 106.869678,122.478829 C106.502971,122.454432 105.128108,122.637991 104.705522,122.964448 C104.537884,123.09689 104.547197,123.331567 104.668269,123.490729 C104.713671,123.548817 105.355118,123.884568 105.735795,124.086716 C105.925552,124.190114 106.083876,124.300482 106.230559,124.435247 C106.547208,124.715233 106.830097,125.019616 106.798665,125.375117 C106.754427,125.839825 106.26432,126.126781 105.794003,126.310341 C103.593757,127.181667 99.200252,127.907772 97.0745124,128.033243 C96.2433087,128.082037 95.0628597,128.123861 95.0628597,128.123861 L95.311988,116.42253 C95.311988,116.42253 96.2898747,116.235486 97.0593785,116.110015 C97.50292,116.044956 99.3748746,115.876499 99.871967,115.86372 C103.661278,115.763808 107.890638,116.100721 111.367957,117.742299 C112.894159,118.45911 114.294632,119.350187 115.35401,120.557264 C116.753319,122.159342 117.48557,124.34579 117.291157,126.629827 C117.078117,129.129953 115.316757,132.090138 113.912791,133.894365 C110.197985,138.663424 103.831244,142.582068 98.2316784,144.880046 C92.5122051,147.225656 86.8614166,148.577955 80.7903697,148.803338 C79.2269151,148.859103 75.8136246,148.780102 74.0918455,148.303777 C73.8427172,148.235233 73.5959172,148.151586 73.3665794,148.102791 C73.1849719,148.058644 72.9032474,147.938982 72.8240851,147.877408 C72.7821757,147.83907 72.7367738,147.793761 72.7367738,147.793761 C72.7367738,147.793761 72.8438757,147.735673 72.9451568,147.690364 C73.1279285,147.610202 73.8974323,147.564893 74.2955719,147.492863 C74.6494737,147.42548 75.0231662,147.236112 75.1675209,146.974714 C75.307219,146.728419 75.3270096,146.534404 75.1582077,146.328771 C74.767053,145.851284 73.2955662,145.934932 72.6494625,146.034844 C71.9765833,146.14405 71.1395588,146.347359 70.9847267,146.932891 C70.8077758,147.621819 71.1325739,148.296807 71.4876399,148.921838 C72.2001002,150.170739 73.2175681,150.821329 74.7123379,151.226786 C76.8310925,151.807671 79.5074754,152.215451 81.509815,152.292128 C86.0418544,152.460584 90.3294222,151.672905 94.718271,150.340357 C97.2305087,149.584046 100.522727,148.31191 102.929027,147.153627 C104.654299,146.324124 107.378412,144.792913 108.908106,143.792631 C109.390065,143.475468 112.213131,141.406359 112.650851,141.042725 C113.565874,140.29687 114.763785,139.224558 115.627585,138.366011 C117.303963,136.708167 119.388957,134.168542 120.404096,132.154036 C120.645076,131.668416 120.835996,131.193253 121.147989,130.634443 C121.256255,130.443913 121.720751,129.296085 121.797585,128.96382 C121.873255,128.636201 121.985013,128.154067 122.001311,128.136641 C122.024594,127.95889 122.23647,126.976034 122.220172,126.593812 L122.220172,126.593812 Z M141.742982,125.743398 C141.827965,125.735265 141.84892,125.73178 141.926918,125.720162 C143.314586,125.531956 144.674314,125.283338 145.713901,124.81863 C146.678982,124.391099 147.247088,123.854362 147.762807,122.89358 C148.548608,121.437884 148.600995,119.401304 147.890863,117.858476 C147.358846,116.711811 146.194695,115.748705 145.13299,115.237527 C144.025882,114.703113 142.942058,114.449848 141.694088,114.308112 C139.517126,114.069949 137.158556,114.518392 135.195798,115.466395 C134.035139,116.032176 132.617203,117.005738 131.901251,118.26161 C131.375054,119.184054 131.391353,120.379513 132.0328,121.253163 C133.051432,122.644962 135.234215,122.951668 136.881488,122.89358 C138.136443,122.847109 140.392567,122.457917 141.585822,122.037357 C141.917605,121.917695 143.134143,121.443693 143.346018,121.229928 C143.495029,121.076574 143.593982,120.859324 143.526461,120.653691 C143.251722,119.823026 141.23192,119.38504 140.64868,119.297907 C139.082898,119.059745 138.272649,119.648761 136.49499,120.349307 C136.053777,120.521249 135.465881,120.711779 135.01419,120.753603 C134.208598,120.830279 133.234203,120.608382 133.0817,119.7266 C133.002537,119.272348 133.535719,118.849464 133.942007,118.674037 C134.895447,118.26161 135.670771,118.116389 136.611405,118.101286 C139.38092,118.059462 142.495024,118.513713 144.763954,120.116954 C145.07711,120.336528 145.37979,120.661823 145.384446,121.069604 C145.384446,121.121883 145.309941,121.561032 145.167914,121.606341 C145.14696,121.615635 145.124841,121.605179 145.108543,121.608664 C145.056156,121.623767 144.968844,121.766665 144.895503,121.860768 C144.732522,122.05943 144.074777,122.34174 143.945556,122.396343 C142.41819,123.03183 139.596288,123.340861 138.139935,123.460523 C136.614898,123.590641 134.215583,123.792789 133.638164,123.876436 C133.045611,123.960083 132.400671,124.077422 131.884953,124.308614 C131.371562,124.540968 130.866321,125.06144 130.714981,125.636515 C130.449554,126.675136 130.790651,127.950758 131.36807,128.782584 C132.883794,130.957414 136.429798,131.781108 139.082898,132.108727 C141.64985,132.428213 145.798884,132.424728 148.319271,131.087532 C148.709261,130.880737 148.909495,130.686722 148.825676,130.270809 C148.662695,129.491262 148.071307,128.989379 147.362339,128.768643 C146.617282,128.531642 145.072454,128.439862 144.394918,128.398038 C141.35532,128.227259 137.682424,128.316715 134.789509,127.527874 C134.5625,127.462815 134.171345,127.361741 134.042124,127.217682 C133.589269,126.727416 134.883805,126.588003 135.162037,126.527591 C135.243528,126.511327 135.26099,126.507841 135.345973,126.499709 L141.742982,125.743398 L141.742982,125.743398 Z M151.224991,114.39873 C149.997976,114.848334 149.719744,116.825664 149.662701,117.825947 C149.468288,121.082383 150.330923,125.61328 151.426389,128.665245 C151.739546,129.534248 152.190072,130.953929 153.164467,130.873767 C153.835018,130.814517 154.313484,130.298691 154.689504,129.768925 C155.651093,128.415465 156.915361,126.581033 157.75355,125.304249 C158.690691,123.872951 159.59058,122.431196 160.475334,121.12653 C160.5836,120.96853 160.686046,120.815176 160.804789,120.717588 C160.965442,120.588632 161.109797,120.581661 161.174989,120.701323 C161.205257,120.747794 161.147049,122.392858 161.106304,122.7228 C161.037619,123.247919 161.006187,123.673127 160.946816,124.126216 C160.783834,125.4425 160.363576,127.294359 160.034121,128.546745 C159.670906,129.947837 159.227365,131.40818 158.895582,132.763964 C158.789644,133.204274 158.690691,133.649231 158.694184,134.06863 C158.697676,134.675073 159.087667,135.010824 159.720965,134.784279 C160.968934,134.345131 162.623193,131.641696 163.105151,130.702987 C163.269297,130.385824 163.918893,128.77329 164.064412,128.321362 C164.582459,126.772725 164.895615,125.304249 165.038806,123.6162 C165.176176,121.975783 165.060925,119.586026 164.365927,117.968844 C164.110978,117.374019 163.58711,116.57356 163.151717,116.170427 C162.468361,115.538425 161.106304,115.044673 160.167999,115.579087 C159.141217,116.159971 157.454363,119.076009 157.166818,119.574408 C156.187767,121.279884 154.50324,124.615321 154.24247,124.98941 C154.185427,125.071896 154.110921,125.150896 153.980537,125.190396 C153.881584,125.21944 153.842003,125.013807 153.816391,124.880204 C153.648754,123.908966 153.533503,119.366451 153.531174,119.239819 C153.503235,118.475375 153.465982,116.600281 153.244793,115.676675 C153.100438,115.073717 152.953755,114.578804 152.398455,114.325539 C152.003808,114.147788 151.703457,114.222141 151.224991,114.39873 L151.224991,114.39873 Z M168.140104,114.689172 C168.007391,114.790246 167.793187,115.008658 167.637191,115.184085 C167.612744,115.208482 167.17153,115.868367 167.084219,116.071676 C167.007385,116.247103 166.949178,116.373736 166.893298,116.520119 C166.491666,117.555255 166.502144,118.574125 166.724496,119.685938 C166.930551,120.723397 167.126128,120.768706 167.65931,122.193034 C167.69307,122.270872 167.709368,122.338255 167.72101,122.424226 C167.743128,122.619403 167.426479,123.932201 167.407853,124.353923 C167.385734,124.997543 167.886319,125.454117 168.724508,125.542412 C168.801342,125.549382 168.858385,125.548221 168.914264,125.564485 C169.248376,125.645809 169.462579,126.284782 169.645351,126.797122 C169.9003,127.517418 170.29844,128.615289 170.29844,128.615289 C170.29844,128.615289 169.239062,128.859261 168.672121,129.073026 C168.038823,129.311188 167.560357,129.619057 167.273976,130.198779 C166.930551,130.877252 167.156396,131.253665 167.866528,131.473239 C168.127298,131.556887 170.183189,131.950726 170.832785,132.042506 C171.643034,132.161006 172.405553,132.26208 173.176221,132.357345 C173.846772,132.438669 176.922458,132.79417 177.901509,132.768611 C179.393951,132.725626 180.362524,132.112212 181.234473,130.851693 C181.703626,130.179029 182.023767,129.379733 181.315964,128.946393 C180.228647,128.28767 176.705926,128.237714 176.059822,128.230744 C175.031877,128.220288 173.610449,128.237714 173.610449,128.237714 L172.893332,125.845633 C172.893332,125.845633 175.417211,125.872354 176.835147,125.878163 C177.179736,125.878163 177.524324,125.859575 177.717573,125.818913 C178.441675,125.658589 178.691968,125.103263 178.721071,124.302805 C178.760653,123.36642 178.583702,122.935404 177.836317,122.809933 C177.449819,122.748359 173.114521,122.7228 172.526624,122.654256 C172.159917,122.614756 171.772255,122.556667 171.772255,122.556667 C171.772255,122.556667 171.459098,121.741106 171.186687,120.917412 C170.911947,120.058865 170.676789,119.184054 170.676789,119.184054 C170.676789,119.184054 170.896813,119.17476 171.079585,119.17476 C171.384592,119.172436 171.694257,119.216583 171.9364,119.258407 C173.258875,119.500055 175.225126,119.790497 176.838639,120.043762 C177.705932,120.182013 178.142488,120.243586 178.598836,119.669673 C178.993483,119.16198 179.198373,118.736773 179.226313,118.123359 C179.25076,117.54596 178.809547,117.163739 178.270545,116.752473 C176.565064,115.451292 173.65003,114.040905 171.477725,113.799257 C170.474226,113.686566 170.229755,113.798096 169.350821,114.026964 C169.183183,114.069949 168.575496,114.353421 168.581317,114.383627 C168.581317,114.383627 168.251862,114.602039 168.140104,114.689172 L168.140104,114.689172 Z M195.548873,126.711151 C194.431288,125.777089 192.987741,123.872951 192.298563,122.884286 C191.37772,121.573811 190.511592,120.072807 189.682716,118.909876 C189.504601,118.648479 188.970256,117.713255 188.988882,117.681887 C189.026135,117.615666 189.563973,117.636578 190.116945,117.72952 C191.293901,117.92702 192.894609,118.751876 193.749095,119.432672 C195.05178,120.474778 195.958654,121.906077 196.387061,123.580185 C196.576818,124.341143 196.673442,125.936251 196.133276,126.646092 C196.027339,126.782019 195.757256,126.888901 195.548873,126.711151 L195.548873,126.711151 Z M186.673386,113.034814 C186.673386,113.034814 186.319484,111.998517 186.059879,111.185279 C185.611681,109.781863 184.625645,106.00263 184.397471,104.828082 C184.054047,103.08543 183.07616,98.5185184 183.026101,98.4209299 C182.957416,98.2884883 182.912015,98.2466646 182.746705,98.1409437 C182.343909,97.9051047 182.182092,97.9829432 181.694313,98.2431793 C181.061015,98.5754451 180.504551,98.9146814 180.029577,99.5408746 C179.074973,100.778158 179.303147,103.106342 179.489411,104.472581 C180.144828,109.250934 180.80723,111.352573 182.629126,116.108853 C182.659394,116.190177 182.659394,116.208765 182.622141,116.280795 C182.054035,117.487872 181.747864,118.945891 181.747864,120.123924 C181.75252,123.852039 183.899215,127.540653 186.306679,130.503163 C186.488286,130.728546 187.669899,132.141256 188.206573,132.113374 C188.744411,132.087815 188.831722,131.461622 188.751396,130.938826 C188.481312,129.217085 187.267103,127.462815 186.437064,126.010605 C185.503415,124.387614 185.300852,123.719597 184.844505,122.231372 C184.771164,121.999018 184.588392,120.911603 184.596541,120.772191 C184.615167,120.372543 184.702479,119.868335 184.702479,119.868335 C184.702479,119.868335 186.220531,121.989724 187.222865,123.299037 C187.770016,124.018172 188.163499,124.493335 188.619846,125.005675 C189.082014,125.526147 190.862001,127.372197 191.374227,127.858978 C192.451067,128.884819 192.928369,129.311188 194.09252,129.914146 C195.015691,130.390471 195.844567,130.508972 196.744456,129.915308 C198.171705,128.980084 198.793361,127.001593 198.954014,125.397191 C199.141442,123.480273 198.749123,121.324031 197.901622,119.682452 C196.896959,117.723711 195.524425,116.313324 193.658292,115.079526 C191.750248,113.817846 189.511586,112.959299 187.315997,113.010417 C187.019139,113.017387 186.673386,113.034814 186.673386,113.034814 L186.673386,113.034814 Z" id="path3402" transform="translate(99.500000, 126.500000) scale(1, -1) translate(-99.500000, -126.500000) "></path>
                </g>
            </g>
        </g>
    </g>
</svg>