<svg xmlns="http://www.w3.org/2000/svg" width="195" height="56" viewBox="0 0 195 56">
    <path fill="#304155" fill-rule="nonzero" d="M6.466 10.425v43.637H.428V10.425h6.038zm34.633.062L26.719 36.01 40.849 54h-7.096L23.482 42.048 16.448 54h-5.665V10.487h5.665v32.246l17.679-32.246h6.972zm31.333 36.666H54.006L50.956 54h-6.599L63.22 10.238 82.143 54h-6.785l-2.926-6.847zm-2.615-5.665l-6.598-15.19-6.599 15.19h13.197zm39.115-4.233l8.155 16.62-6.723.063-.063-.125-7.345-14.255c-.56.062-1.12.124-1.743.124l-.125.063h-6.536V54h-5.851l.062-43.575h12.45c7.906.249 14.255 6.785 14.255 14.629 0 4.918-2.428 9.462-6.536 12.2zm-8.093-3.424c4.794 0 8.778-3.922 8.778-8.777 0-4.793-3.984-8.715-8.778-8.715h-6.287V33.83h6.287zm25.57-24.816h6.383v28.39c0 4.518.835 7.806 2.507 9.862 1.672 2.057 4.332 3.086 7.979 3.086 3.566 0 6.094-.968 7.584-2.903 1.49-1.935 2.234-5.213 2.234-9.833V9.015h5.593v28.51c0 6.14-1.262 10.609-3.785 13.405-2.523 2.796-6.54 4.195-12.051 4.195-5.614 0-9.757-1.45-12.432-4.347-2.675-2.898-4.012-7.376-4.012-13.435V9.015zm6.778-3.77V.748H152.7v4.499h-19.514zm48.613 48.63h-1.681c-5.416 0-10.396-2.552-13.073-6.224v-.125l2.49-4.233c1.93 2.801 5.665 4.98 10.645 5.291h1.619c4.295 0 7.843-3.175 7.843-7.47s-3.361-6.038-7.843-6.723c-.934-.249-1.743-.249-2.926-.435-6.163-1.183-11.703-4.794-11.703-11.33 0-6.536 5.291-12.014 11.703-12.014h.934c4.295 0 8.901 1.867 11.205 4.793l-2.802 5.167c-2.427-2.677-4.73-4.171-8.403-4.358h-.934c-3.3 0-6.038 2.988-6.038 6.412 0 3.3 2.303 5.104 6.038 5.602 1.556.187 2.614.25 3.05.312 7.408.996 13.01 5.229 13.01 12.574 0 7.284-5.913 12.575-13.134 12.762z"/>
</svg>
