<?xml version="1.0" encoding="UTF-8"?>
<svg width="195px" height="56px" viewBox="0 0 195 56" version="1.1" xmlns="http://www.w3.org/2000/svg" xmlns:xlink="http://www.w3.org/1999/xlink">
    <!-- Generator: Sketch 56.2 (81672) - https://sketch.com -->
    <title>IKARŪS</title>
    <desc>Created with Sketch.</desc>
    <g id="v7.0" stroke="none" stroke-width="1" fill="none" fill-rule="evenodd">
        <g id="IkarusDetail" transform="translate(-152.000000, -234.000000)" fill="#FFFFFF" fill-rule="nonzero">
            <g id="TopBar" transform="translate(0.000000, 100.000000)">
                <g id="Logo" transform="translate(150.000000, 128.000000)">
                    <g id="BusinessInfo">
                        <path d="M8.466,16.425 L8.466,60.06225 L2.42775,60.06225 L2.42775,16.425 L8.466,16.425 Z M43.0985615,16.48725 L28.7188115,42.00975 L42.8495615,60 L35.7530615,60 L25.4818115,48.048 L18.4475615,60 L12.7828115,60 L12.7828115,16.48725 L18.4475615,16.48725 L18.4475615,48.73275 L36.1265615,16.48725 L43.0985615,16.48725 Z M74.431873,53.1525 L56.005873,53.1525 L52.955623,60 L46.357123,60 L65.218873,16.23825 L84.142873,60 L77.357623,60 L74.431873,53.1525 Z M71.817373,47.48775 L65.218873,32.29875 L58.620373,47.48775 L71.817373,47.48775 Z M110.931935,43.25475 L119.086685,59.8755 L112.363685,59.93775 L112.301434,59.81325 L104.955935,45.558 C104.395685,45.62025 103.835435,45.6825 103.212935,45.6825 L103.088435,45.74475 L96.5521845,45.74475 L96.5521845,60 L90.7006845,60 L90.7629345,16.425 L103.212935,16.425 C111.118685,16.674 117.468185,23.21025 117.468185,31.05375 C117.468185,35.9715 115.040435,40.51575 110.931935,43.25475 Z M102.839435,39.831 C107.632685,39.831 111.616685,35.90925 111.616685,31.05375 C111.616685,26.2605 107.632685,22.33875 102.839435,22.33875 L96.5521845,22.33875 L96.5521845,39.831 L102.839435,39.831 Z M128.408542,15.0146484 L134.791599,15.0146484 L134.791599,43.4040527 C134.791599,47.9228742 135.627467,51.210622 137.299228,53.267395 C138.970989,55.324168 141.63057,56.3525391 145.278049,56.3525391 C148.844473,56.3525391 151.372341,55.3849584 152.861728,53.4497681 C154.351115,51.5145777 155.095798,48.2369616 155.095798,43.6168213 L155.095798,15.0146484 L160.688571,15.0146484 L160.688571,43.5256348 C160.688571,49.665558 159.42717,54.133653 156.90433,56.9300537 C154.381491,59.7264544 150.364258,61.1246338 144.852512,61.1246338 C139.239446,61.1246338 135.095567,59.6757957 132.420749,56.7780762 C129.745931,53.8803566 128.408542,49.4021299 128.408542,43.3432617 L128.408542,15.0146484 Z M135.18674,11.2456055 L135.18674,6.74707031 L154.700656,6.74707031 L154.700656,11.2456055 L135.18674,11.2456055 Z M183.799533,59.8755 L182.118783,59.8755 C176.703033,59.8755 171.723033,57.32325 169.046283,53.6505 L169.046283,53.526 L171.536283,49.293 C173.466033,52.09425 177.201033,54.273 182.181033,54.58425 L183.799533,54.58425 C188.094783,54.58425 191.643033,51.4095 191.643033,47.11425 C191.643033,42.819 188.281533,41.076 183.799533,40.39125 C182.865783,40.14225 182.056533,40.14225 180.873783,39.9555 C174.711033,38.77275 169.170783,35.16225 169.170783,28.626 C169.170783,22.08975 174.462033,16.61175 180.873783,16.61175 L181.807533,16.61175 C186.102783,16.61175 190.709283,18.47925 193.012533,21.405 L190.211283,26.57175 C187.783533,23.895 185.480283,22.401 181.807533,22.21425 L180.873783,22.21425 C177.574533,22.21425 174.835533,25.20225 174.835533,28.626 C174.835533,31.92525 177.138783,33.7305 180.873783,34.2285 C182.430033,34.41525 183.488283,34.4775 183.924033,34.53975 C191.331783,35.53575 196.934283,39.76875 196.934283,47.11425 C196.934283,54.3975 191.020533,59.68875 183.799533,59.8755 Z" id="IKARŪS"></path>
                    </g>
                </g>
            </g>
        </g>
    </g>
</svg>