<?xml version="1.0" encoding="UTF-8"?>
<svg width="29px" height="30px" viewBox="0 0 29 30" version="1.1" xmlns="http://www.w3.org/2000/svg" xmlns:xlink="http://www.w3.org/1999/xlink">
    <!-- Generator: Sketch 56.3 (81716) - https://sketch.com -->
    <title>Icon 32x32</title>
    <desc>Created with Sketch.</desc>
    <g id="Page-1" stroke="none" stroke-width="1" fill="none" fill-rule="evenodd">
        <g id="Talent" transform="translate(-856.000000, -4998.000000)" fill="#3C3D41">
            <g id="Advantages-#6" transform="translate(0.000000, 4436.000000)">
                <path d="M883.791667,562 L857.208333,562 C856.540367,562 856,562.525 856,563.171875 L856,582.761875 C856,583.40875 856.540367,583.93375 857.208333,583.93375 L865.7614,583.93375 L865.7614,586.19875 L863.614433,586.19875 C861.9653,586.19875 860.623567,587.5 860.623567,589.099375 C860.623567,590.69875 861.9653,592 863.614433,592 L877.386533,592 C879.035667,592 880.3774,590.69875 880.3774,589.099375 C880.3774,587.5 879.035667,586.19875 877.386533,586.19875 L875.112933,586.19875 L875.112933,583.93375 L883.791667,583.93375 C884.458667,583.93375 885,583.40875 885,582.761875 L885,563.171875 C885,562.525 884.458667,562 883.791667,562 L883.791667,562 Z M877.966537,588.842105 C878.290795,588.842105 878.555556,589.019537 878.555556,589.236842 C878.555556,589.454147 878.290795,589.631579 877.966537,589.631579 L863.839018,589.631579 C863.514761,589.631579 863.25,589.454147 863.25,589.236842 C863.25,589.019537 863.514761,588.842105 863.839018,588.842105 L877.966537,588.842105 L877.966537,588.842105 Z M868.083333,584.105263 L872.916667,584.105263 L872.916667,586.473684 L868.083333,586.473684 L868.083333,584.105263 Z M858.416667,580.157895 L882.583333,580.157895 L882.583333,580.947368 L858.416667,580.947368 L858.416667,580.157895 Z M858.416667,564.368421 L882.583333,564.368421 L882.583333,577.789474 L858.416667,577.789474 L858.416667,564.368421 Z M865.208398,574.329479 C865.445392,574.530879 865.744599,574.631579 866.043805,574.631579 C866.375598,574.631579 866.708378,574.507077 866.952285,574.26082 C867.413438,573.79577 867.380851,573.071646 866.878224,572.64413 L865.503654,571.472349 L866.878224,570.3024 C867.379863,569.874883 867.413438,569.150759 866.952285,568.684794 C866.491133,568.219743 865.712012,568.191364 865.208398,568.616135 L862.843386,570.629217 C862.588616,570.847094 862.444444,571.152856 862.444444,571.472349 C862.444444,571.792758 862.588616,572.098519 862.843386,572.315482 L865.208398,574.329479 Z M876.301681,571.472349 L874.927011,572.645045 C874.425336,573.071646 874.391759,573.79577 874.853933,574.26082 C875.09687,574.507077 875.429674,574.631579 875.762479,574.631579 C876.061706,574.631579 876.359947,574.530879 876.597946,574.329479 L878.961153,572.314566 C879.215941,572.098519 879.361111,571.792758 879.361111,571.472349 C879.361111,571.152856 879.215941,570.847094 878.961153,570.629217 L876.597946,568.616135 C876.096271,568.191364 875.317094,568.219743 874.852945,568.684794 C874.391759,569.150759 874.425336,569.873968 874.927011,570.3024 L876.301681,571.472349 Z M869.953458,576.192014 C870.031059,576.204973 870.107625,576.210526 870.184192,576.210526 C870.797758,576.210526 871.343035,575.818073 871.455815,575.258086 L872.896091,568.100437 C873.022322,567.47103 872.554647,566.869392 871.852098,566.756469 C871.143341,566.638918 870.477006,567.061916 870.349741,567.690397 L868.909464,574.848046 C868.783233,575.477453 869.250909,576.079091 869.953458,576.192014 Z" id="Icon-32x32"></path>
            </g>
        </g>
    </g>
</svg>