<?xml version="1.0" encoding="UTF-8"?>
<svg width="180px" height="180px" viewBox="0 0 180 180" version="1.1" xmlns="http://www.w3.org/2000/svg" xmlns:xlink="http://www.w3.org/1999/xlink">
    <!-- Generator: Sketch 56.3 (81716) - https://sketch.com -->
    <title>Icon 150x150</title>
    <desc>Created with Sketch.</desc>
    <g id="Page-1" stroke="none" stroke-width="1" fill="none" fill-rule="evenodd">
        <g id="Talent" transform="translate(-630.000000, -4568.000000)" fill="#2E71F2">
            <g id="Advantages-#6" transform="translate(0.000000, 4436.000000)">
                <path d="M696.637584,189 C685.626362,189 677,197.626154 677,208.637964 C677,209.941808 678.057181,211 679.362416,211 C680.66647,211 681.724832,209.941808 681.724832,208.637964 C681.724832,200.273996 688.274631,193.724071 696.637584,193.724071 C697.941638,193.724071 699,192.665879 699,191.362036 C699,190.057011 697.941638,189 696.637584,189 M720,132 L720,132 C670.2948,132 630,172.2948 630,222 C630,271.7052 670.2948,312 720,312 C769.7052,312 810,271.7052 810,222 C810,172.2948 769.7052,132 720,132 L720,132 Z M720,307 C673.130282,307 635,268.869718 635,222 C635,175.130282 673.130282,137 720,137 C766.868521,137 805,175.131479 805,222 C805,268.869718 766.868521,307 720,307 L720,307 Z M743.2332,178 C734.6232,178 726.1248,181.594197 720,187.722857 C713.8752,181.594197 705.3756,178 696.7668,178 C679.5144,178 666,191.550413 666,208.847788 C666,229.733346 683.8884,247.160632 711.234,271.411841 L718.4652,277.443068 C718.9092,277.813554 719.4552,278 720,278 C720.5448,278 721.0908,277.813554 721.536,277.443068 L728.82,271.364929 C756.1104,247.160632 774,229.733346 774,208.847788 C774,191.550413 760.4856,178 743.2332,178 L743.2332,178 Z M725.672049,267.284428 L720,272 L714.382927,267.330999 C688.981805,244.874416 671,227.534629 671,208.846683 C671,194.353674 682.359634,183 696.861244,183 C704.818366,183 712.984634,186.809236 718.175049,192.939838 C719.083341,194.012156 720.916659,194.012156 721.824951,192.939838 C727.015366,186.809236 735.181634,183 743.138756,183 C757.640366,183 769,194.353674 769,208.846683 C769,227.534629 751.01939,244.874416 725.672049,267.284428 L725.672049,267.284428 Z" id="Icon-150x150"></path>
            </g>
        </g>
    </g>
</svg>