<?xml version="1.0" encoding="UTF-8"?>
<svg width="37px" height="30px" viewBox="0 0 37 30" version="1.1" xmlns="http://www.w3.org/2000/svg" xmlns:xlink="http://www.w3.org/1999/xlink">
    <!-- Generator: Sketch 56.3 (81716) - https://sketch.com -->
    <title>Icon 32x32</title>
    <desc>Created with Sketch.</desc>
    <g id="Page-1" stroke="none" stroke-width="1" fill="none" fill-rule="evenodd">
        <g id="Talent" transform="translate(-1152.000000, -4998.000000)" fill="#3C3D41">
            <g id="Advantages-#6" transform="translate(0.000000, 4436.000000)">
                <path d="M1153.46418,577 L1174.09692,577 C1174.46597,577 1174.82096,576.856518 1175.09159,576.596304 L1187.55605,564.636187 C1187.99891,564.210603 1188.14536,563.547909 1187.9251,562.965467 C1187.70602,562.383025 1187.16475,562 1186.56138,562 L1165.92748,562 C1165.55843,562 1165.20461,562.143482 1164.9328,562.403696 L1152.46951,574.363813 C1152.02782,574.788181 1151.88138,575.450875 1152.10046,576.034533 C1152.32072,576.615759 1152.86082,577 1153.46418,577 L1153.46418,577 Z M1166.05501,565 L1182.18421,565 L1172.99647,574 L1156.86842,574 L1166.05501,565 Z M1153.43586,584 C1152.64327,584 1152,583.34245 1152,582.529628 C1152,581.717983 1152.64327,581.059256 1153.43586,581.059256 L1175.22878,581.059256 L1185.57501,570.432585 C1186.13442,569.857376 1187.04304,569.855023 1187.60475,570.430233 C1188.16531,571.004266 1188.1676,571.934717 1187.60704,572.509926 L1176.84039,583.568299 C1176.57159,583.845905 1176.20516,584 1175.8238,584 L1153.43586,584 Z M1188.57551,578.45384 C1189.13976,579.056689 1189.14207,580.035855 1188.57898,580.64118 L1178.42599,591.545697 C1178.15311,591.836599 1177.78543,592 1177.40156,592 L1153.44531,592 C1152.6475,592 1152,591.306785 1152,590.452646 C1152,589.597268 1152.6475,588.905291 1153.44531,588.905291 L1176.80146,588.905291 L1186.53011,578.455078 C1187.09667,577.849753 1188.01011,577.847277 1188.57551,578.45384 Z" id="Icon-32x32"></path>
            </g>
        </g>
    </g>
</svg>