<?xml version="1.0" encoding="UTF-8"?>
<svg width="30px" height="30px" viewBox="0 0 30 30" version="1.1" xmlns="http://www.w3.org/2000/svg" xmlns:xlink="http://www.w3.org/1999/xlink">
    <!-- Generator: Sketch 56.3 (81716) - https://sketch.com -->
    <title>Icon 32x32</title>
    <desc>Created with Sketch.</desc>
    <g id="Page-1" stroke="none" stroke-width="1" fill="none" fill-rule="evenodd">
        <g id="Talent" transform="translate(-255.000000, -4998.000000)" fill="#3C3D41">
            <g id="Advantages-#6" transform="translate(0.000000, 4436.000000)">
                <path d="M284.037641,585.984624 L277.170841,579.118882 C278.00622,577.506282 278.486259,575.680855 278.486259,573.742921 C278.486259,567.268142 273.218024,562 266.742192,562 C260.267297,562 255,567.268142 255,573.742921 C255,580.217701 260.267297,585.485843 266.742192,585.485843 C268.681097,585.485843 270.505619,585.005813 272.119185,584.170448 L278.985049,591.037127 C279.629163,591.680293 280.479543,592 281.344925,592 C282.265624,592 283.202262,591.637165 283.920444,590.919932 C285.312744,589.52672 285.365248,587.314082 284.037641,585.984624 L284.037641,585.984624 Z M266.742192,583.141946 C261.560214,583.141946 257.343938,578.925745 257.343938,573.742921 C257.343938,568.560098 261.560214,564.343896 266.742192,564.343896 C271.926045,564.343896 276.142321,568.560098 276.142321,573.742921 C276.142321,578.925745 271.926045,583.141946 266.742192,583.141946 L266.742192,583.141946 Z M282.262812,589.262329 C281.782773,589.741421 281.05709,589.792987 280.642682,589.379524 L274.125596,582.862554 C274.763148,582.345022 275.345382,581.762798 275.862923,581.125258 L282.379071,587.64129 C282.794417,588.056629 282.741912,588.783236 282.262812,589.262329 Z M266.742192,568.504782 C267.390056,568.504782 267.914161,569.029814 267.914161,569.67673 C267.914161,570.324583 267.390056,570.848678 266.742192,570.848678 C265.146439,570.848678 263.847897,572.147197 263.847897,573.742921 C263.847897,574.390774 263.323793,574.91487 262.675928,574.91487 C262.029001,574.91487 261.503959,574.390774 261.503959,573.742921 C261.503959,570.854303 263.853523,568.504782 266.742192,568.504782 Z" id="Icon-32x32"></path>
            </g>
        </g>
    </g>
</svg>