<?xml version="1.0" encoding="UTF-8"?>
<svg width="48px" height="66px" viewBox="0 0 48 66" version="1.1" xmlns="http://www.w3.org/2000/svg" xmlns:xlink="http://www.w3.org/1999/xlink">
    <!-- Generator: Sketch 56.2 (81672) - https://sketch.com -->
    <title>download-10</title>
    <desc>Created with Sketch.</desc>
    <g id="v7.0" stroke="none" stroke-width="1" fill="none" fill-rule="evenodd">
        <g id="Capabilities_Tech" transform="translate(-1227.000000, -4346.000000)" fill="#B6C6D0" fill-rule="nonzero">
            <g id="Partners" transform="translate(0.000000, 4076.000000)">
                <g id="download-10" transform="translate(1227.000000, 270.000000)">
                    <g id="Adobe_Systems_logo_and_wordmark">
                        <g id="g4156" transform="translate(0.345386, 49.733260)">
                            <path d="M6.0660188,9.88255451 L5.5062748,6.58231669 C5.34661082,5.6310833 5.14254466,4.14446563 4.98702181,3.11468749 L4.9262851,3.11468749 C4.76271008,4.15225164 4.53425718,5.68100334 4.36654098,6.59033188 L3.76423519,9.88255451 L6.0660188,9.88255451 Z M3.46354237,12.0330195 L2.73608211,15.6955189 L0.0487121872,15.6955189 L3.40096517,0.458148749 L6.69455168,0.458148749 L9.73967033,15.6955189 L7.03826633,15.6955189 L6.32691097,12.0330195 L3.46354237,12.0330195 Z" id="path5"></path>
                            <path d="M15.8563642,8.88918421 C15.8563642,8.68606853 15.8563642,8.44860368 15.8158734,8.23128996 C15.708894,7.47905034 15.3067429,6.80146275 14.6600352,6.80146275 C13.5506699,6.80146275 13.1425372,8.39226987 13.1425372,10.2528324 C13.1425372,12.3907036 13.7243676,13.6075699 14.6216144,13.6075699 C15.0318177,13.6075699 15.5045975,13.398272 15.7613484,12.5010794 C15.8239255,12.3222345 15.8563642,12.0829419 15.8563642,11.8033412 L15.8563642,8.88918421 L15.8563642,8.88918421 Z M18.614594,0.0537485903 L18.614594,12.5356578 C18.614594,13.5249027 18.6652075,14.7419982 18.7056989,15.6932327 L16.3233933,15.6932327 L16.1678704,14.4239288 L16.1112749,14.4239288 C15.7111943,15.2066203 14.8404046,15.8720719 13.7995979,15.8720719 C11.5182901,15.8720719 10.3868385,13.3662089 10.3868385,10.2022282 C10.3868385,6.34691279 12.073893,4.47215338 13.912789,4.47215338 C14.8746842,4.47215338 15.4970053,4.94090082 15.8103518,5.61894678 L15.8568247,5.61894678 L15.8568247,0.0537485903 L18.614594,0.0537485903 L18.614594,0.0537485903 Z" id="path7"></path>
                            <path d="M24.3592758,13.7664929 C25.4120455,13.7664929 25.6727068,11.7914293 25.6727068,10.1561963 C25.6727068,8.60156783 25.4120455,6.57590523 24.3130326,6.57590523 C23.148912,6.57590523 22.9043549,8.60156783 22.9043549,10.1561963 C22.9043549,12.0327903 23.2114897,13.7664929 24.3348886,13.7664929 L24.3592758,13.7664929 Z M24.3068208,15.8723011 C21.7648512,15.8723011 20.1705122,13.8409152 20.1705122,10.2047435 C20.1705122,6.23630957 22.2173855,4.47238257 24.3714691,4.47238257 C26.8791591,4.47238257 28.4511821,6.60269701 28.4511821,10.1403997 C28.4511821,14.6858936 25.988124,15.8723011 24.3291374,15.8723011 L24.3068208,15.8723011 L24.3068208,15.8723011 Z" id="path9"></path>
                            <path d="M32.7512959,11.751127 C32.7512959,12.0266081 32.8019099,12.284224 32.8605761,12.456881 C33.1373422,13.380407 33.6062116,13.6075699 33.981905,13.6075699 C35.0489387,13.6075699 35.4793873,12.2617811 35.4793873,10.1097117 C35.4793873,8.15068541 35.0245521,6.80146275 33.9697118,6.80146275 C33.4465476,6.80146275 33.0059763,7.36684454 32.8543643,7.97413233 C32.8016797,8.16511264 32.7512959,8.46257253 32.7512959,8.66775088 L32.7512959,11.751127 L32.7512959,11.751127 Z M29.9928364,0.0537485903 L32.7510662,0.0537485903 L32.7510662,5.80580403 L32.7954685,5.80580403 C33.338878,4.95693005 34.0624273,4.47215338 35.1131264,4.47215338 C37.192439,4.47215338 38.2371566,6.8255066 38.2371566,9.90270565 C38.2371566,13.7907637 36.6791673,15.8720719 34.6603618,15.8720719 C33.6984666,15.8720719 33.0579707,15.4475229 32.4800513,14.3719438 L32.4218451,14.3719438 L32.2683928,15.6932327 L29.9001209,15.6932327 C29.9406122,14.7781751 29.9928364,13.5249027 29.9928364,12.5356578 L29.9928364,0.0537485903 L29.9928364,0.0537485903 Z" id="path11"></path>
                            <path d="M44.8471065,9.12046679 C44.8613704,7.56995792 44.4044646,6.48339219 43.5295337,6.48339219 C42.5312889,6.48339219 42.1068218,7.93794967 42.0766834,9.12046679 L44.8471065,9.12046679 Z M42.0665607,11.0616338 C42.0989999,13.0586763 43.1538403,13.7085548 44.4631307,13.7085548 C45.2934291,13.7085548 46.004785,13.5251319 46.53025,13.3284277 L46.9020319,15.3034856 C46.1704306,15.616977 45.0408199,15.8141396 43.9576815,15.8141396 C40.9974565,15.8141396 39.3808015,13.8006072 39.3808015,10.3616038 C39.3808015,6.67093701 41.2560478,4.45429238 43.7050717,4.45429238 C46.0712736,4.45429238 47.3826347,6.41332044 47.3826347,9.61119884 C47.3826347,10.3432862 47.352266,10.7556998 47.3037225,11.077207 L42.0665607,11.0616338 L42.0665607,11.0616338 Z" id="path13"></path>
                        </g>
                        <g id="g4151">
                            <polygon id="polygon15" points="30.0858437 -2.39511884e-05 47.7303217 -2.39511884e-05 47.7303217 42.0456971"></polygon>
                            <polygon id="polygon17" points="17.654601 -2.39511884e-05 2.65840383e-07 -2.39511884e-05 2.65840383e-07 42.0456971"></polygon>
                            <polygon id="polygon19" points="16.1552782 33.5862662 23.8722929 15.4926743 35.1131878 42.0434072 27.74794 42.0434072 24.3853342 33.5862662"></polygon>
                        </g>
                    </g>
                </g>
            </g>
        </g>
    </g>
</svg>