<?xml version="1.0" encoding="UTF-8"?>
<svg width="56px" height="67px" viewBox="0 0 56 67" version="1.1" xmlns="http://www.w3.org/2000/svg" xmlns:xlink="http://www.w3.org/1999/xlink">
    <!-- Generator: Sketch 56.2 (81672) - https://sketch.com -->
    <title>Android_robot</title>
    <desc>Created with Sketch.</desc>
    <g id="v7.0" stroke="none" stroke-width="1" fill="none" fill-rule="evenodd">
        <g id="Capabilities_Tech" transform="translate(-163.000000, -4345.000000)" fill-rule="nonzero">
            <g id="Partners" transform="translate(0.000000, 4076.000000)">
                <g id="Android_robot" transform="translate(164.000000, 270.000000)">
                    <g id="Group">
                        <g id="b-link" transform="translate(10.253181, 4.746626)" fill="#A4C639" stroke="#FFFFFF" stroke-width="2.74487865">
                            <g id="b">
                                <ellipse id="Oval" cx="17.3515376" cy="15.8220853" rx="17.3515376" ry="15.8220853"></ellipse>
                                <rect id="Rectangle" x="0" y="11.866564" width="34.7030753" height="34.8085877" rx="4.1935646"></rect>
                            </g>
                        </g>
                        <g id="a-link" transform="translate(34.420732, 33.000000) scale(-1, 1) translate(-34.420732, -33.000000) translate(14.420732, 0.000000)" fill="#B6C6D0" stroke="#FFFFFF" stroke-width="1.37243932">
                            <g id="a">
                                <path d="M34.3774117,-0.42074584 L34.3788522,-0.420744193 C35.0620314,-0.419963006 35.6156623,0.133668866 35.6164424,0.816847989 L35.6323415,14.7411045 C35.6331202,15.4230625 35.0809152,15.97653 34.3989572,15.9773086 C34.3980166,15.9773097 34.397076,15.9773097 34.3961354,15.9773086 L34.3946948,15.977307 C33.7115157,15.9765258 33.1578847,15.4228939 33.1571046,14.7397148 L33.1412056,0.815458247 C33.1404269,0.133500259 33.6926318,-0.419967165 34.3745898,-0.420745842 C34.3755304,-0.420746916 34.376471,-0.420746915 34.3774117,-0.42074584 Z" id="Rectangle" transform="translate(34.386774, 7.778281) rotate(29.000000) translate(-34.386774, -7.778281) "></path>
                                <rect id="c" x="0.330925702" y="21.3598152" width="9.46447508" height="25.3153365" rx="4.57479774"></rect>
                                <g id="c-link" transform="translate(16.562831, 39.555213)">
                                    <rect id="c" x="0.330925702" y="0" width="9.46447508" height="25.3153365" rx="4.57479774"></rect>
                                </g>
                            </g>
                        </g>
                        <g id="a" fill="#B6C6D0" stroke="#FFFFFF" stroke-width="1.37243932">
                            <path d="M34.2213089,-0.42074584 L34.2227495,-0.420744193 C34.9059287,-0.419963006 35.4595596,0.133668866 35.4603397,0.816847989 L35.4762388,14.7411045 C35.4770175,15.4230625 34.9248125,15.97653 34.2428545,15.9773086 C34.2419139,15.9773097 34.2409733,15.9773097 34.2400327,15.9773086 L34.2385921,15.977307 C33.555413,15.9765258 33.001782,15.4228939 33.0010019,14.7397148 L32.9851028,0.815458247 C32.9843242,0.133500259 33.5365291,-0.419967165 34.2184871,-0.420745842 C34.2194277,-0.420746916 34.2203683,-0.420746915 34.2213089,-0.42074584 Z" id="Rectangle" transform="translate(34.230671, 7.778281) rotate(29.000000) translate(-34.230671, -7.778281) "></path>
                            <rect id="c" x="0" y="21.3598152" width="9.46447508" height="25.3153365" rx="4.57479774"></rect>
                            <g id="c-link" transform="translate(16.562831, 39.555213)">
                                <rect id="c" x="0" y="0" width="9.46447508" height="25.3153365" rx="4.57479774"></rect>
                            </g>
                        </g>
                        <g id="b" transform="translate(10.253181, 4.746626)" fill="#B6C6D0">
                            <ellipse id="Oval" cx="17.3515376" cy="16.2176375" rx="17.3515376" ry="16.2176375"></ellipse>
                            <rect id="Rectangle" x="0" y="11.866564" width="34.7030753" height="34.8085877" rx="4.1935646"></rect>
                        </g>
                    </g>
                    <g id="Group" transform="translate(9.464475, 12.657668)" fill="#FFFFFF" stroke="#FFFFFF" stroke-width="1.37243932">
                        <path d="M0,9.5432982 L36.2804878,9.5432982" id="Path"></path>
                        <ellipse id="Oval" cx="10.2531813" cy="0.791104267" rx="1" ry="1"></ellipse>
                        <ellipse id="Oval" cx="26.0273065" cy="0.791104267" rx="1" ry="1"></ellipse>
                    </g>
                </g>
            </g>
        </g>
    </g>
</svg>