<?xml version="1.0" encoding="UTF-8"?>
<svg width="54px" height="66px" viewBox="0 0 54 66" version="1.1" xmlns="http://www.w3.org/2000/svg" xmlns:xlink="http://www.w3.org/1999/xlink">
    <!-- Generator: Sketch 56.2 (81672) - https://sketch.com -->
    <title>download-8</title>
    <desc>Created with Sketch.</desc>
    <g id="v7.0" stroke="none" stroke-width="1" fill="none" fill-rule="evenodd">
        <g id="TechnologiesDetail" transform="translate(-742.000000, -202.000000)" fill="#B6C6D0" fill-rule="nonzero">
            <g id="download-8" transform="translate(742.000000, 202.000000)">
                <path d="M29.4336406,5.7397032 C33.8277823,0.02638944 39.9369546,0 39.9369546,0 C39.9369546,0 40.8444223,5.3686017 36.480252,10.5409319 C31.8213629,16.0645716 26.5230837,15.159084 26.5230837,15.159084 C26.5230837,15.159084 25.529032,10.8163717 29.4369708,5.73805386 L29.4336406,5.7397032 Z M27.2696486,19.0525578 C29.4922994,19.0525578 33.6198455,16.0150376 38.9905691,16.0150376 C48.234962,16.0150376 51.8711335,22.5543706 51.8711335,22.5543706 C51.8711335,22.5543706 44.7593061,26.1673522 44.7593061,34.9365978 C44.7593061,44.8306087 53.6204268,48.239236 53.6204268,48.239236 C53.6204268,48.239236 47.4258319,65.565199 39.0593615,65.565199 C35.2151748,65.565199 32.2292555,62.9919714 28.1803294,62.9919714 C24.0527833,62.9919714 19.9579956,65.6616541 17.2914698,65.6616541 C9.65223372,65.6616541 0,49.2283102 0,36.0139529 C0,23.0170285 8.16992055,16.1981389 15.8320874,16.1981389 C20.8146252,16.1981389 24.6801048,19.0525578 27.2696486,19.0525578 Z" id="Shape"></path>
            </g>
        </g>
    </g>
</svg>