<?xml version="1.0" encoding="UTF-8"?>
<svg width="94px" height="85px" viewBox="0 0 94 85" version="1.1" xmlns="http://www.w3.org/2000/svg" xmlns:xlink="http://www.w3.org/1999/xlink">
    <!-- Generator: Sketch 55.1 (78136) - https://sketchapp.com -->
    <title>Atom_editor_logo</title>
    <desc>Created with Sketch.</desc>
    <g id="Page-1" stroke="none" stroke-width="1" fill="none" fill-rule="evenodd">
        <g id="Services_Tech" transform="translate(-582.000000, -2078.000000)">
            <g id="Capabilities" transform="translate(0.000000, 1642.000000)">
                <g id="logos" transform="translate(379.000000, 438.000000)">
                    <g id="Atom_editor_logo" transform="translate(205.000000, 0.000000)">
                        <path d="M72.2890019,18.7553362 C73.7914951,11.1324317 72.9512587,5.3471689 69.3998381,3.04814687 C68.2160306,2.28180618 66.7967602,1.94645934 65.1994385,2.00690865 C56.5739024,2.3333349 42.6562653,14.1721681 31.2851005,31.626813 C17.8081645,52.3137994 13.0188263,73.0462593 20.5951944,77.950837 C24.1915871,80.2789712 29.9224087,78.6286007 36.3966979,74.0295781" id="Path" stroke="#959B9E" stroke-width="3.56521739" stroke-linecap="round"></path>
                        <path d="M79.397443,53 C85.8303661,50.4861022 89.7859933,47.0452078 89.9915895,43.0933729 C90.4670655,33.9539574 70.7227663,25.4927 45.8716629,24.1807211 C43.5418726,24.0577233 41.2509428,23.9930038 39.0100532,24.0006006 C17.3481194,24.0740371 0.439295945,30.0600997 0.00839572725,38.3426949 C-0.196794206,42.2867753 3.37025982,46.1112074 9.48501624,49.2850148" id="Path" stroke="#959B9E" stroke-width="3.56521739" stroke-linecap="round"></path>
                        <path d="M38.895026,5.33952838 C34.5223066,1.71869312 30.421237,-0.225716195 27.1263168,0.0209137144 C26.2490479,0.0865786794 25.4377108,0.302345802 24.6837545,0.685740557 C16.6415576,4.77528484 19.2107324,25.9258458 30.4348784,47.9106072 C41.6590245,69.8953707 57.276912,84.399382 65.3191089,80.3098353 C73.0531671,76.3769821 70.965716,56.6684127 60.8114712,35.6113106" id="Path" stroke="#959B9E" stroke-width="3.56521739" stroke-linecap="round"></path>
                        <path d="M51,41.5 C51,44.5375661 48.5375661,47 45.5,47 C42.4624339,47 40,44.5375661 40,41.5 C40,38.4624339 42.4624339,36 45.5,36 C48.5375661,36 51,38.4624339 51,41.5 Z" id="Path" fill="#959B9E" fill-rule="nonzero"></path>
                    </g>
                </g>
            </g>
        </g>
    </g>
</svg>