<?xml version="1.0" encoding="UTF-8"?>
<svg width="76px" height="69px" viewBox="0 0 76 69" version="1.1" xmlns="http://www.w3.org/2000/svg" xmlns:xlink="http://www.w3.org/1999/xlink">
    <!-- Generator: Sketch 56.2 (81672) - https://sketch.com -->
    <title>Atom_editor_logo</title>
    <desc>Created with Sketch.</desc>
    <g id="v7.0" stroke="none" stroke-width="1" fill="none" fill-rule="evenodd">
        <g id="Capabilities_Tech" transform="translate(-694.000000, -4344.000000)">
            <g id="Partners" transform="translate(0.000000, 4076.000000)">
                <g id="Atom_editor_logo" transform="translate(696.000000, 270.000000)">
                    <path d="M57.8532409,15.0183707 C59.0556935,8.9143156 58.3832482,4.28175555 55.541029,2.44080934 C54.593622,1.82716058 53.457773,1.55863097 52.1794287,1.60703587 C45.27637,1.86842231 34.1380172,11.3483903 25.0376185,25.3252299 C14.2519609,41.8903732 10.4190302,58.4919295 16.4824346,62.4192792 C19.3606452,64.2835371 23.9470496,62.9619998 29.1284549,59.2793239" id="Path" stroke="#B6C6D0" stroke-width="2.85217374" stroke-linecap="round"></path>
                    <path d="M63.5421609,42.4398496 C68.6904607,40.4268413 71.8561685,37.6715386 72.0207081,34.5070993 C72.4012339,27.1886952 56.5997749,20.4133275 36.7113156,19.3627578 C34.846773,19.2642671 33.0133308,19.2124429 31.2199359,19.218526 C13.8837846,19.2773305 0.351570688,24.0706813 0.00671914148,30.702985 C-0.157495363,33.8612148 2.69723538,36.923636 7.59090476,39.4650683" id="Path" stroke="#B6C6D0" stroke-width="2.85217374" stroke-linecap="round"></path>
                    <path d="M31.127879,4.27563739 C27.6283704,1.37624675 24.3462644,-0.180742668 21.7093237,0.0167466961 C21.0072411,0.0693280403 20.357924,0.242103969 19.7545291,0.54910804 C13.3183197,3.82381831 15.3744428,20.7601698 24.3571817,38.3645088 C33.3399205,55.9688495 45.8389921,67.5829638 52.2752015,64.3082516 C58.464806,61.159012 56.7942087,45.377338 48.6677171,28.5158239" id="Path" stroke="#B6C6D0" stroke-width="2.85217374" stroke-linecap="round"></path>
                    <path d="M40.8155488,33.231203 C40.8155488,35.6635398 38.8448509,37.6353383 36.413872,37.6353383 C33.982893,37.6353383 32.0121951,35.6635398 32.0121951,33.231203 C32.0121951,30.7988662 33.982893,28.8270677 36.413872,28.8270677 C38.8448509,28.8270677 40.8155488,30.7988662 40.8155488,33.231203 Z" id="Path" fill="#B6C6D0" fill-rule="nonzero"></path>
                </g>
            </g>
        </g>
    </g>
</svg>