<?xml version="1.0" encoding="UTF-8"?>
<svg width="58px" height="66px" viewBox="0 0 58 66" version="1.1" xmlns="http://www.w3.org/2000/svg" xmlns:xlink="http://www.w3.org/1999/xlink">
    <!-- Generator: Sketch 56.2 (81672) - https://sketch.com -->
    <title>Node.js_logo</title>
    <desc>Created with Sketch.</desc>
    <g id="v7.0" stroke="none" stroke-width="1" fill="none" fill-rule="evenodd">
        <g id="Capabilities_Tech" transform="translate(-969.000000, -4346.000000)" fill="#B6C6D0" fill-rule="nonzero">
            <g id="Partners" transform="translate(0.000000, 4076.000000)">
                <g id="Node.js_logo" transform="translate(969.000000, 270.000000)">
                    <path d="M29.0132627,65.6588672 C28.1380167,65.6588672 27.2687656,65.4295881 26.5014267,64.9883906 L18.5061146,60.2615308 C17.3119434,59.5946461 17.8946414,59.358782 18.2885021,59.2228907 C19.8807304,58.6661557 20.203852,58.5404414 21.9033879,57.5766313 C22.082034,57.4748625 22.3158326,57.5107809 22.498675,57.6185361 L28.6409834,61.258266 C28.8627923,61.377994 29.1775212,61.377994 29.3831441,61.258266 L53.3325116,47.4536324 C53.5543205,47.327918 53.6981966,47.0705029 53.6981966,46.8071014 L53.6981966,19.2098069 C53.6981966,18.9344326 53.5543205,18.6889903 53.3277157,18.5513031 L29.3879399,4.75864228 C29.166131,4.62694152 28.8723841,4.62694152 28.6505752,4.75864228 L4.71559523,18.5513031 C4.4835951,18.6830039 4.33612215,18.940419 4.33612215,19.2038205 L4.33612215,46.801115 C4.33612215,47.0645165 4.4799982,47.3159452 4.70780194,47.4416596 L11.2661519,51.2250631 C14.8270841,53.0030233 17.0032094,50.907784 17.0032094,48.8005719 L17.0032094,21.5624613 C17.0032094,21.1733454 17.308946,20.8740255 17.6986103,20.8740255 L20.731997,20.8740255 C21.1096717,20.8740255 21.4214031,21.1733454 21.4214031,21.5624613 L21.4214031,48.8125447 C21.4214031,53.5537719 18.8316342,56.277583 14.3295128,56.277583 C12.9447058,56.277583 11.8536458,56.277583 8.80826938,54.7809835 L2.52568185,51.1651991 C0.973019469,50.2672394 0.0138458006,48.591048 0.0138458006,46.801115 L0.0138458006,19.2038205 C0.0138458006,17.4079011 0.973019469,15.7317097 2.52568185,14.8457228 L26.4990287,1.03510276 C28.0157221,0.179047852 30.0299868,0.179047852 31.5346905,1.03510276 L55.4780632,14.8517092 C57.0247307,15.7436825 57.9898992,17.4138875 57.9898992,19.2098069 L57.9898992,46.8071014 C57.9898992,48.5970344 57.0247307,50.2672394 55.4780632,51.1651991 L31.5346905,64.9758192 C30.7673516,65.4188126 29.8981004,65.6462957 29.0108648,65.6462957" id="Path"></path>
                    <path d="M36.4108896,46.6424755 C25.9319173,46.6424755 23.7348101,41.8389898 23.7348101,37.8101439 C23.7348101,37.4270145 24.0441436,37.1217082 24.4284126,37.1217082 L27.5217477,37.1217082 C27.8634533,37.1217082 28.1512054,37.3701437 28.2051589,37.7071779 C28.6727561,40.8548259 30.0635579,42.4424187 36.4000989,42.4424187 C41.4477504,42.4424187 43.5939014,41.3038058 43.5939014,38.6308791 C43.5939014,37.0923748 42.9824282,35.9489728 35.1411835,35.1827139 C28.5828335,34.5361829 24.5303248,33.093461 24.5303248,27.8553628 C24.5303248,23.0303261 28.6068129,20.1568551 35.4349304,20.1568551 C43.1023249,20.1568551 46.9030506,22.8148157 47.3826374,28.5258394 C47.4006219,28.7233905 47.3286839,28.9149552 47.1967975,29.0586288 C47.0649112,29.196316 46.8790713,29.2801255 46.6872365,29.2801255 L43.5759169,29.2801255 C43.2521958,29.2801255 42.9704386,29.0526424 42.9044954,28.7413497 C42.1551409,25.4308716 40.3447006,24.3712792 35.4229407,24.3712792 C29.913687,24.3712792 29.2722396,26.2869266 29.2722396,27.7236621 C29.2722396,29.4657039 30.0275889,29.9745477 37.4611848,30.9563169 C44.8228427,31.9320998 48.3178318,33.3089713 48.3178318,38.4752328 C48.3178318,43.683399 43.9655812,46.6706115 36.3761196,46.6706115 L36.4108896,46.6424755 Z" id="Shape"></path>
                </g>
            </g>
        </g>
    </g>
</svg>