<?xml version="1.0" encoding="UTF-8"?>
<svg width="74px" height="66px" viewBox="0 0 74 66" version="1.1" xmlns="http://www.w3.org/2000/svg" xmlns:xlink="http://www.w3.org/1999/xlink">
    <!-- Generator: Sketch 56.2 (81672) - https://sketch.com -->
    <title>iconfinder_React.js_logo_1174949</title>
    <desc>Created with Sketch.</desc>
    <g id="v7.0" stroke="none" stroke-width="1" fill="none" fill-rule="evenodd">
        <g id="TechnologiesDetail" transform="translate(-202.000000, -202.000000)" fill="#B6C6D0" fill-rule="nonzero">
            <g id="iconfinder_React.js_logo_1174949" transform="translate(202.000000, 202.000000)">
                <ellipse id="Oval" cx="37" cy="32.8814371" rx="6.5982238" ry="6.61317365"></ellipse>
                <path d="M37,48.0311377 C27.7335702,48.0311377 19.6369449,46.9377246 13.5776199,44.8562874 C9.64760213,43.5125749 6.30905861,41.7209581 3.93001776,39.6790419 C1.40639432,37.5185629 0.0657193606,35.160479 0.0657193606,32.8814371 C0.0657193606,28.5077844 4.85008881,24.2263473 12.8809947,21.4335329 C19.4529307,19.1413174 28.0227353,17.8634731 36.9868561,17.8634731 C45.7932504,17.8634731 54.2447602,19.1017964 60.7772647,21.3676647 C64.6021314,22.6850299 67.8223801,24.3976048 70.1094139,26.2946108 C72.5936057,28.3760479 73.9079929,30.6550898 73.9079929,32.8814371 C73.9079929,37.4263473 68.5584369,42.0239521 59.9360568,44.8826347 C53.8373002,46.9113772 45.6880995,48.0311377 37,48.0311377 Z M37,21.0251497 C28.4959147,21.0251497 20.0838366,22.2634731 13.9325044,24.4107784 C6.54564831,26.9928144 3.23339254,30.5233533 3.23339254,32.8814371 C3.23339254,35.3317365 6.79538188,39.1916168 14.6028419,41.8658683 C20.3335702,43.8287425 28.0884547,44.8694611 37,44.8694611 C45.3595027,44.8694611 53.1538188,43.8155689 58.9502664,41.8790419 C67.0600355,39.1784431 70.7666075,35.3185629 70.7666075,32.8814371 C70.7666075,31.6299401 69.8202487,30.154491 68.0984014,28.7185629 C66.1136767,27.0586826 63.2220249,25.5437126 59.7651865,24.3449102 C53.548135,22.2107784 45.4646536,21.0251497 37,21.0251497 Z" id="Shape"></path>
                <path d="M22.0291297,65.8419162 C20.6884547,65.8419162 19.5055062,65.5520958 18.5065719,64.9724551 C14.7342806,62.7856287 13.4198934,56.4886228 15.010302,48.1233533 C16.3115453,41.2598802 19.4923623,33.1976048 23.9744227,25.411976 C28.3776199,17.7712575 33.6614565,11.0526946 38.8795737,6.50778443 C41.928952,3.84670659 45.017762,1.89700599 47.8042629,0.869461078 C50.8404973,-0.250299401 53.4692718,-0.250299401 55.3882771,0.856287425 C59.3182948,3.12215569 60.6195382,10.0778443 58.7793961,18.9832335 C57.4781528,25.3065868 54.3761989,32.9341317 50.0387211,40.4826347 C45.4120782,48.5185629 40.4174067,55 35.5936057,59.2287425 C32.4653641,61.9688623 29.2451155,63.9712575 26.3008881,65.011976 C24.7630551,65.5652695 23.3172291,65.8419162 22.0291297,65.8419162 Z M25.3282416,26.2023952 L26.6952043,26.9928144 C22.4497336,34.3700599 19.3083481,42.2874251 18.0991119,48.7161677 C16.6401421,56.4227545 18.0465364,61.0598802 20.0706927,62.2323353 C20.5701599,62.5221557 21.2273535,62.6802395 22.0291297,62.6802395 C24.6447602,62.6802395 28.7587922,61.0203593 33.5168739,56.857485 C38.0777975,52.8658683 42.8490231,46.6479042 47.3047957,38.9149701 C51.4845471,31.6562874 54.4550622,24.3580838 55.6905861,18.3640719 C57.4124334,9.97245509 55.9271758,4.83473054 53.8110124,3.60958084 C52.7332149,2.99041916 50.9850799,3.06946108 48.8820604,3.84670659 C46.450444,4.74251497 43.7033748,6.49461078 40.9431616,8.90538922 C35.9879218,13.2263473 30.9275311,19.6550898 26.6952043,27.005988 L25.3282416,26.2023952 Z" id="Shape"></path>
                <path d="M51.9708703,65.8814371 C48.3957371,65.8814371 43.8611012,63.7209581 39.1293073,59.6371257 C33.8454707,55.0790419 28.469627,48.2946108 23.9744227,40.508982 L23.9744227,40.508982 C19.5580817,32.8682635 16.4035524,24.9245509 15.0760213,18.1137725 C14.3005329,14.1353293 14.1559503,10.4862275 14.6554174,7.54850299 C15.20746,4.34730539 16.5087034,2.06826347 18.4408526,0.948502994 C22.3577265,-1.33053892 29.0216696,1.01437126 35.8039076,7.06107784 C40.6145648,11.342515 45.6618117,17.8502994 50.0124334,25.3856287 C54.6522202,33.4215569 57.7673179,40.9964072 59.0028419,47.2934132 C59.8046181,51.3772455 59.9360568,55.1712575 59.3708703,58.2538922 C58.7662522,61.5341317 57.3992895,63.8658683 55.4277087,65.011976 C54.4419183,65.5916168 53.2721137,65.8814371 51.9708703,65.8814371 Z M26.7083481,38.9281437 C30.9669627,46.3053892 36.2507993,52.9844311 41.1928952,57.239521 C47.1207815,62.3508982 51.8262877,63.457485 53.8635879,62.2718563 C55.9797513,61.0467066 57.5307282,56.0275449 55.9271758,47.9125749 C54.7442274,41.9580838 51.7605684,34.7125749 47.2916519,26.9796407 C43.0987567,19.7209581 38.2749556,13.4898204 33.714032,9.43233533 C27.3261101,3.74131737 22.1474245,2.46347305 20.0312611,3.68862275 C18.9534636,4.30778443 18.1516874,5.8754491 17.7705151,8.08862275 C17.3367673,10.6443114 17.468206,13.9113772 18.1779751,17.5077844 C19.4397869,23.9760479 22.4628774,31.5772455 26.7083481,38.9281437 L26.7083481,38.9281437 Z" id="Shape"></path>
            </g>
        </g>
    </g>
</svg>