<?xml version="1.0" encoding="UTF-8"?>
<svg width="58px" height="66px" viewBox="0 0 58 66" version="1.1" xmlns="http://www.w3.org/2000/svg" xmlns:xlink="http://www.w3.org/1999/xlink">
    <!-- Generator: Sketch 56.2 (81672) - https://sketch.com -->
    <title>download-6</title>
    <desc>Created with Sketch.</desc>
    <g id="v7.0" stroke="none" stroke-width="1" fill="none" fill-rule="evenodd">
        <g id="TechnologiesDetail" transform="translate(-1256.000000, -202.000000)" fill-rule="nonzero">
            <g id="download-6" transform="translate(1256.000000, 202.000000)">
                <path d="M26.0555972,2.40397561 C26.5175047,2.40397561 26.7484584,2.63961101 27.2103659,2.87696638 C24.4405947,4.06374323 21.6708235,7.14764307 20.2851011,13.7901535 L15.2057927,15.2142857 C16.8241424,10.4688983 20.0541474,2.40225564 26.0555972,2.40225564 L26.0555972,2.40397561 Z M29.4176067,4.80621864 C29.914596,6.21820543 30.4115854,7.86751527 30.4115854,10.4575805 L30.4115854,10.9288119 L23.2088415,12.8120301 C24.6998095,7.86751527 27.1829554,5.74697404 29.4176067,4.80451128 L29.4176067,4.80621864 Z M35.2134146,8.71113943 L31.962516,9.60902256 L31.962516,8.93886341 C31.962516,6.92025297 31.7123074,5.34895749 31.2118902,4.0037594 C32.9615373,4.45270096 34.4627889,6.4713114 35.2134146,8.71439263 L35.2134146,8.71113943 Z M50.5660629,12.519333 C50.5487662,12.2658637 50.3478479,12.0640982 50.095443,12.0467285 C49.6248231,12.0467285 44.6867243,11.5758364 44.6867243,11.5758364 C44.6867243,11.5758364 41.157075,8.03130263 40.6881603,7.79671271 C40.2175404,7.32410821 39.5116105,7.56041046 39.2763005,7.56041046 C39.2763005,7.56041046 38.5720758,7.79671271 37.3955261,8.26931721 C36.2189763,4.96108572 34.1028919,1.89086881 30.5749477,1.89086881 L30.3396377,1.89086881 C29.5612563,0.698631481 28.2312429,-0.0127534755 26.8116936,0.00387548473 C18.3473558,-0.232426765 14.3470866,10.3960375 12.9352269,15.8275645 C11.0544524,16.300169 9.17197276,17.0090758 7.05588832,17.7179825 C5.17340869,18.190587 5.17340869,18.4268893 4.93980388,20.081005 C4.70449393,21.2590916 0,58.5760113 0,58.5760113 L37.3955261,65.6616541 L57.6219512,61.1753361 C57.6219512,61.1753361 50.5660629,12.9919375 50.5660629,12.519333 Z" id="Shape" fill="#B6C6D0"></path>
                <path d="M49.944098,12.4594444 C49.7113335,12.4594444 44.8266536,11.9921621 44.8266536,11.9921621 C44.8266536,11.9921621 41.335187,8.47480106 40.8713448,8.24200953 C40.6385803,8.0075188 40.6385803,8.0075188 40.4058159,8.0075188 L37.6143293,65.6616541 L57.6219512,61.2097286 C57.6219512,61.2097286 50.6423913,13.3974073 50.6423913,12.9284258 C50.6423913,12.6939351 50.1768624,12.4594444 49.944098,12.4594444" id="Path" fill="#B6C6D0"></path>
                <path d="M30.4115854,23.4009428 L27.856262,30.9724981 C27.856262,30.9724981 25.7641648,29.7889065 22.9763862,29.7889065 C19.0263314,29.7889065 18.7938761,32.1560896 18.7938761,32.8645292 C18.7938761,36.1768702 27.6238068,37.5971801 27.6238068,45.6421719 C27.6238068,52.0301356 23.673752,56.0526316 18.3306501,56.0526316 C12.0560427,56.0526316 8.80335366,52.0301356 8.80335366,52.0301356 L10.4305404,46.3523269 C10.4305404,46.3523269 13.6832295,49.1895159 16.4710081,49.1895159 C18.3306501,49.1895159 19.0263314,47.769206 19.0263314,46.5856145 C19.0263314,42.0913973 11.8252719,41.854679 11.8252719,34.519842 C11.8252719,28.3685966 16.2385528,22.4523542 24.8360282,22.4523542 C28.7860831,22.2156359 30.4115854,23.3992275 30.4115854,23.3992275" id="Path" fill="#FFFFFF"></path>
            </g>
        </g>
    </g>
</svg>