<svg xmlns="http://www.w3.org/2000/svg" width="151" height="91" viewBox="0 0 151 91">
    <g fill="none" fill-rule="nonzero">
        <path fill="#FFF" d="M75.235.21l75.032 76.056H89.933c-2.942 0-4.81.282-6.563 1.31-2.028 1.107-2.976 2.588-4.102 4.97l-4.033 8.226s-4.038-8.226-4.032-8.226c-1.143-2.382-2.085-3.863-4.108-4.97-1.77-1.028-3.615-1.31-6.569-1.31H.2L75.235.21z"/>
        <path fill="#0E4B89" d="M73.05 68.382c-3.52 1.176-8.723 2.589-15.435 2.589-14.658 0-21.044-7.514-21.044-17.089 0-10.998 8.7-17.593 21.364-17.593 6.632 0 10.676 1.153 14.983 2.938v7.801h-1.125c-3.108-2.393-6.684-4.466-12.619-4.466-7.489 0-12.201 4.174-12.201 10.89 0 5.935 2.941 11.434 12.51 11.118.942-.046 2.542-.247 3.593-.557V57.86h-7.85v-6.262H73.05v16.784zM105.227 38.972c-2.742-1.544-6.284-1.98-10.311-1.98H77.785v33.281h9.985V59.424h6.912c3.873 0 7.534-.493 10.47-2.158 3.474-1.957 5.307-5.034 5.307-9.764 0-4.122-1.76-6.555-5.232-8.53m-5.033 9.104c0 2.417-1.32 3.628-2.679 4.26-1.274.579-3.164.808-4.838.808H87.77V43.29h4.907c1.674 0 3.564.069 4.838.654 1.36.626 2.68 1.7 2.68 4.133"/>
    </g>
</svg>
