<svg xmlns="http://www.w3.org/2000/svg" width="32" height="55" viewBox="0 0 32 55">
    <g fill="#3180FB" fill-rule="nonzero">
        <path d="M15.907 8.834a2.622 2.622 0 0 0-2.619 2.62 2.622 2.622 0 0 0 2.62 2.619 2.622 2.622 0 0 0 2.618-2.62 2.622 2.622 0 0 0-2.619-2.619z"/>
        <path d="M15.907 0C7.22 0 .152 7.83.152 17.454V37.56c0 9.623 7.068 17.453 15.755 17.453 8.687 0 15.755-7.83 15.755-17.453V17.454C31.662 7.83 24.595 0 15.907 0zm12.755 37.56c0 7.97-5.722 14.454-12.755 14.454S3.152 45.53 3.152 37.561V17.454C3.152 9.484 8.874 3 15.907 3s12.755 6.484 12.755 14.454V37.56z"/>
    </g>
</svg>
