<?xml version="1.0" encoding="UTF-8"?>
<svg width="400px" height="400px" viewBox="0 0 400 400" version="1.1" xmlns="http://www.w3.org/2000/svg" xmlns:xlink="http://www.w3.org/1999/xlink">
    <!-- Generator: Sketch 56.2 (81672) - https://sketch.com -->
    <title>Instagram Favicon</title>
    <desc>Created with Sketch.</desc>
    <g id="Instagram-Favicon" stroke="none" stroke-width="1" fill="none" fill-rule="evenodd">
        <rect id="Rectangle" fill="#374050" x="0" y="0" width="400" height="400"></rect>
        <g id="Favicon" transform="translate(50.000000, 50.000000)">
            <path d="M150.442857,29.0322581 C172.366598,29.0322581 192.241611,34.1598054 210.068491,44.4150538 C227.895372,54.6703022 241.957358,68.9939941 252.254873,87.3865591 C262.552388,105.779124 267.701068,126.567984 267.701068,149.753763 C267.701068,172.939542 262.552388,193.784137 252.254873,212.288172 C241.957358,230.792207 227.895372,245.171633 210.068491,255.426882 C192.241611,265.68213 172.366598,270.809677 150.442857,270.809677 C128.519116,270.809677 108.644103,265.68213 90.817223,255.426882 C72.9903426,245.171633 58.9283559,230.792207 48.6308411,212.288172 C38.3333263,193.784137 33.1846462,172.939542 33.1846462,149.753763 C33.1846462,126.567984 38.3333263,105.779124 48.6308411,87.3865591 C58.9283559,68.9939941 72.9903426,54.6703022 90.817223,44.4150538 C108.644103,34.1598054 128.519116,29.0322581 150.442857,29.0322581 Z M150.442857,72.5053763 C136.712837,72.5053763 124.643888,75.6264921 114.235648,81.8688172 C103.827407,88.1111423 95.6891704,97.0843501 89.8206943,108.78871 C83.9522181,120.493069 81.018024,134.147951 81.018024,149.753763 C81.018024,165.359576 83.9522181,179.014458 89.8206943,190.718817 C95.6891704,202.423177 103.827407,211.396385 114.235648,217.63871 C124.643888,223.881035 136.712837,227.002151 150.442857,227.002151 C164.172877,227.002151 176.241826,223.881035 186.650067,217.63871 C197.058307,211.396385 205.196544,202.423177 211.06502,190.718817 C216.933496,179.014458 219.86769,165.359576 219.86769,149.753763 C219.86769,134.147951 216.933496,120.493069 211.06502,108.78871 C205.196544,97.0843501 197.058307,88.1111423 186.650067,81.8688172 C176.241826,75.6264921 164.172877,72.5053763 150.442857,72.5053763 Z" id="PIXOUL" fill="#FFFFFF"></path>
            <path d="M-21.5537577,131.475048 L322.455459,130.322974 C333.038043,130.287533 341.645652,138.837682 341.681093,149.420266 C341.681236,149.463047 341.681236,149.505828 341.681093,149.548608 C341.645344,160.223148 333.000794,168.867698 322.326254,168.903447 L-21.6829622,170.055521 C-32.2655461,170.090961 -40.8731557,161.540812 -40.9085964,150.958228 C-40.9087397,150.915448 -40.9087397,150.872667 -40.9085964,150.829886 C-40.8728478,140.155347 -32.2282973,131.510796 -21.5537577,131.475048 Z" id="Rectangle" fill="#3180FB" fill-rule="nonzero" transform="translate(150.386248, 150.189247) rotate(-45.000000) translate(-150.386248, -150.189247) "></path>
        </g>
    </g>
</svg>