<?xml version="1.0" encoding="UTF-8"?>
<svg width="77px" height="82px" viewBox="0 0 77 82" version="1.1" xmlns="http://www.w3.org/2000/svg" xmlns:xlink="http://www.w3.org/1999/xlink">
    <!-- Generator: Sketch 55.1 (78136) - https://sketchapp.com -->
    <title>download-9</title>
    <desc>Created with Sketch.</desc>
    <g id="Page-1" stroke="none" stroke-width="1" fill="none" fill-rule="evenodd">
        <g id="Services_Tech" transform="translate(-780.000000, -2262.000000)" fill-rule="nonzero">
            <g id="Capabilities" transform="translate(0.000000, 1642.000000)">
                <g id="logos" transform="translate(379.000000, 438.000000)">
                    <g id="download-9" transform="translate(401.000000, 182.000000)">
                        <polygon id="Path" fill="#B6B6B6" points="38 0 -1.17234e-12 13.612 5.79591837 64.083 38 82 70.2040816 64.083 76 13.612"></polygon>
                        <polygon id="Path" fill="#959B9E" points="39 0 39 9.102 39 9.061 39 82 71.2040816 64.083 77 13.612"></polygon>
                        <path d="M39.0413081,9 L15,63 L23.9638554,63 L28.7969019,50.9172414 L49.2030981,50.9172414 L54.0361446,63 L63,63 L39.0413081,9 Z M46,44 L32,44 L39,27 L46,44 L46,44 Z" id="Shape" fill="#FFFFFF"></path>
                    </g>
                </g>
            </g>
        </g>
    </g>
</svg>