<?xml version="1.0" encoding="UTF-8"?>
<svg width="80px" height="90px" viewBox="0 0 80 90" version="1.1" xmlns="http://www.w3.org/2000/svg" xmlns:xlink="http://www.w3.org/1999/xlink">
    <!-- Generator: Sketch 55.1 (78136) - https://sketchapp.com -->
    <title>download-6</title>
    <desc>Created with Sketch.</desc>
    <defs>
        <filter x="-16.7%" y="-14.6%" width="133.3%" height="129.3%" filterUnits="objectBoundingBox" id="filter-1">
            <feOffset dx="0" dy="2" in="SourceAlpha" result="shadowOffsetOuter1"></feOffset>
            <feGaussianBlur stdDeviation="2" in="shadowOffsetOuter1" result="shadowBlurOuter1"></feGaussianBlur>
            <feColorMatrix values="0 0 0 0 0   0 0 0 0 0   0 0 0 0 0  0 0 0 0.5 0" type="matrix" in="shadowBlurOuter1" result="shadowMatrixOuter1"></feColorMatrix>
            <feMerge>
                <feMergeNode in="shadowMatrixOuter1"></feMergeNode>
                <feMergeNode in="SourceGraphic"></feMergeNode>
            </feMerge>
        </filter>
    </defs>
    <g id="Page-1" stroke="none" stroke-width="1" fill="none" fill-rule="evenodd">
        <g id="Services_Tech" transform="translate(-959.000000, -2078.000000)" fill-rule="nonzero">
            <g id="Capabilities" transform="translate(0.000000, 1642.000000)">
                <g id="logos" transform="translate(379.000000, 438.000000)">
                    <g id="download-6" filter="url(#filter-1)" transform="translate(584.000000, 0.000000)">
                        <path d="M32.5570891,3.00214794 C33.1342535,3.00214794 33.4228356,3.29641563 34,3.59283125 C30.539105,5.07490938 27.07821,8.92616459 25.3467169,17.2215062 L19,19 C21.0221665,13.0738354 25.0581347,3 32.5570891,3 L32.5570891,3.00214794 Z M36.758,6.0021322 C37.379,7.76545842 38,9.82515991 38,13.0597015 L38,13.6481876 L29,16 C30.863,9.82515991 33.96575,7.17697228 36.758,6 L36.758,6.0021322 Z M44,10.8786999 L39.9379248,12 L39.9379248,11.1630876 C39.9379248,8.64219385 39.6252832,6.67991875 39,5 C41.1862256,5.56065003 43.0620752,8.08154382 44,10.8827626 L44,10.8786999 Z M63.1834995,15.6344722 C63.1618869,15.3179331 62.9108347,15.065963 62.5954488,15.0442713 C62.007398,15.0442713 55.837126,14.4562088 55.837126,14.4562088 C55.837126,14.4562088 51.4267452,10.0297019 50.840825,9.73673982 C50.2527742,9.1465389 49.3706981,9.44163936 49.0766727,9.44163936 C49.0766727,9.44163936 48.1967271,9.73673982 46.7266002,10.3269407 C45.2564732,6.19553428 42.6123753,2.36136668 38.2041251,2.36136668 L37.9100997,2.36136668 C36.9374936,0.872469361 35.2756102,-0.0159268755 33.5018495,0.00483980722 C22.9254579,-0.290260655 17.9270263,12.9828449 16.162874,19.7658787 C13.8128015,20.3560796 11.4605983,21.241381 8.81650046,22.1266824 C6.46429734,22.7168833 6.46429734,23.0119838 6.17240257,25.077687 C5.87837718,26.5489125 0,73.151263 0,73.151263 L46.7266002,82 L72,76.397368 C72,76.397368 63.1834995,16.2246732 63.1834995,15.6344722 Z" id="Shape" fill="#959B9E"></path>
                        <path d="M62.4063396,15.5596817 C62.1154949,15.5596817 56.011971,14.9761273 56.011971,14.9761273 C56.011971,14.9761273 51.6493003,10.5835544 51.0697184,10.2928382 C50.7788737,10 50.7788737,10 50.488029,10 L47,82 L72,76.4403183 C72,76.4403183 63.2788737,16.7310345 63.2788737,16.1453581 C63.2788737,15.8525199 62.6971843,15.5596817 62.4063396,15.5596817" id="Path" fill="#959B9E"></path>
                        <path d="M38,29.2237126 L34.8070627,38.6792699 C34.8070627,38.6792699 32.1929373,37.2011696 28.7095416,37.2011696 C23.7738541,37.2011696 23.4833957,40.1573701 23.4833957,41.0420881 C23.4833957,45.1786266 34.5166043,46.9523469 34.5166043,56.9991443 C34.5166043,64.9766013 29.5809167,70 22.9045837,70 C15.0643124,70 11,64.9766013 11,64.9766013 L13.0332086,57.8860045 C13.0332086,57.8860045 17.097521,61.4291607 20.5809167,61.4291607 C22.9045837,61.4291607 23.7738541,59.6554404 23.7738541,58.1773402 C23.7738541,52.5648436 14.7759588,52.2692235 14.7759588,43.1092863 C14.7759588,35.4274493 20.2904584,28.0390903 31.0332086,28.0390903 C35.9688962,27.7434702 38,29.2215705 38,29.2215705" id="Path" fill="#FFFFFF"></path>
                    </g>
                </g>
            </g>
        </g>
    </g>
</svg>