<?xml version="1.0" encoding="UTF-8"?>
<svg width="42px" height="42px" viewBox="0 0 42 42" version="1.1" xmlns="http://www.w3.org/2000/svg" xmlns:xlink="http://www.w3.org/1999/xlink">
    <!-- Generator: Sketch 56.2 (81672) - https://sketch.com -->
    <title>Icon</title>
    <desc>Created with Sketch.</desc>
    <g id="v7.0" stroke="none" stroke-width="1" fill="none" fill-rule="evenodd">
        <g id="Capabilities_Strategy" transform="translate(-545.000000, -4551.000000)">
            <g id="Features" transform="translate(0.000000, 4076.000000)">
                <g transform="translate(149.000000, 270.000000)" id="Feature-5">
                    <g transform="translate(392.000000, 201.000000)">
                        <g id="Icon">
                            <polygon id="Path" points="0 0 50 0 50 50 0 50"></polygon>
                            <path d="M25,4.16666666 C13.5,4.16666666 4.16666666,13.5 4.16666666,25 C4.16666666,36.5 13.5,45.8333334 25,45.8333334 C36.5,45.8333334 45.8333334,36.5 45.8333334,25 C45.8333334,13.5 36.5,4.16666666 25,4.16666666 Z M25,41.6666666 C15.8125,41.6666666 8.33333334,34.1875 8.33333334,25 C8.33333334,15.8125 15.8125,8.33333334 25,8.33333334 C34.1875,8.33333334 41.6666666,15.8125 41.6666666,25 C41.6666666,34.1875 34.1875,41.6666666 25,41.6666666 Z" id="Shape" fill-opacity="0.503332605" fill="#3180FB" fill-rule="nonzero"></path>
                            <polygon id="Path" fill-opacity="0.748743444" fill="#3180FB" points="27.0833334 14.5833334 22.9166666 14.5833334 22.9166666 22.9166666 14.5833334 22.9166666 14.5833334 27.0833334 22.9166666 27.0833334 22.9166666 35.4166666 27.0833334 35.4166666 27.0833334 27.0833334 35.4166666 27.0833334 35.4166666 22.9166666 27.0833334 22.9166666"></polygon>
                        </g>
                    </g>
                </g>
            </g>
        </g>
    </g>
</svg>