<?xml version="1.0" encoding="UTF-8"?>
<svg width="25px" height="25px" viewBox="0 0 25 25" version="1.1" xmlns="http://www.w3.org/2000/svg" xmlns:xlink="http://www.w3.org/1999/xlink">
    <!-- Generator: Sketch 56.2 (81672) - https://sketch.com -->
    <title>facebook</title>
    <desc>Created with Sketch.</desc>
    <g id="v7.0" stroke="none" stroke-width="1" fill="none" fill-rule="evenodd">
        <g id="MenuExpanded-Copy" transform="translate(-1121.000000, -698.000000)" fill="#FFFFFF" fill-rule="nonzero">
            <g id="facebook" transform="translate(1121.000000, 698.000000)">
                <path d="M21.6311142,0 L3.36882469,0 C1.50831121,0 0,1.50823899 0,3.36879996 L0,21.6310777 C0,23.4916387 1.50825006,25 3.36882469,25 L12.3756987,25 L12.3910491,16.066274 L10.0700857,16.066274 C9.76846019,16.066274 9.52364935,15.8223823 9.52248737,15.5207589 L9.51135683,12.6410878 C9.51019485,12.3378132 9.75573957,12.091353 10.0590164,12.091353 L12.3757599,12.091353 L12.3757599,9.30885936 C12.3757599,6.07980176 14.3478846,4.32155543 17.228433,4.32155543 L19.592145,4.32155543 C19.8945656,4.32155543 20.1398045,4.56673141 20.1398045,4.86921094 L20.1398045,7.2973644 C20.1398045,7.59972162 19.8947491,7.84483644 19.5924508,7.84501991 L18.1418716,7.84569263 C16.5753391,7.84569263 16.2720012,8.59008826 16.2720012,9.68252493 L16.2720012,12.0914141 L19.7142141,12.0914141 C20.0421982,12.0914141 20.2966718,12.3778095 20.2580207,12.7035285 L19.9167044,15.5831996 C19.8840466,15.8587703 19.6503663,16.0663963 19.3728977,16.0663963 L16.2873515,16.0663963 L16.2720012,25 L21.6312365,25 C23.4917499,25 25,23.491761 25,21.6312612 L25,3.36879996 C25,1.50823899 23.4916888,0 21.6311142,0 Z" id="Path"></path>
            </g>
        </g>
    </g>
</svg>