<?xml version="1.0" encoding="UTF-8"?>
<svg width="25px" height="25px" viewBox="0 0 25 25" version="1.1" xmlns="http://www.w3.org/2000/svg" xmlns:xlink="http://www.w3.org/1999/xlink">
    <!-- Generator: Sketch 56.2 (81672) - https://sketch.com -->
    <title>instagram-grey</title>
    <desc>Created with Sketch.</desc>
    <g id="v7.0" stroke="none" stroke-width="1" fill="none" fill-rule="evenodd">
        <g id="Contact-Us" transform="translate(-200.000000, -645.000000)" fill="#374050" fill-rule="nonzero">
            <g id="Contact" transform="translate(-1199.000000, -41.000000)">
                <g id="Company-Details" transform="translate(1349.000000, 417.000000)">
                    <g id="Phone-Number">
                        <g id="instagram-grey" transform="translate(50.000000, 269.000000)">
                            <path d="M17.5216486,0 L7.43460145,0 C3.33514493,0 0,3.33514493 0,7.43460145 L0,17.5216486 C0,21.6211051 3.33514493,24.95625 7.43460145,24.95625 L17.5216486,24.95625 C21.6211051,24.95625 24.95625,21.6211051 24.95625,17.5216486 L24.95625,7.43460145 C24.95625,3.33514493 21.6210598,0 17.5216486,0 Z M22.4456522,17.5216486 C22.4456522,20.2410779 20.2410779,22.4456522 17.5216486,22.4456522 L7.43460145,22.4456522 C4.7151721,22.4456522 2.51059783,20.2410779 2.51059783,17.5216486 L2.51059783,7.43460145 C2.51059783,4.71512681 4.7151721,2.51059783 7.43460145,2.51059783 L17.5216486,2.51059783 C20.2410779,2.51059783 22.4456522,4.71512681 22.4456522,7.43460145 L22.4456522,17.5216486 L22.4456522,17.5216486 Z" id="Shape"></path>
                            <path d="M12.478125,6.02355072 C8.91906703,6.02355072 6.02355072,8.91906703 6.02355072,12.4780797 C6.02355072,16.0370924 8.91906703,18.932654 12.478125,18.932654 C16.037183,18.932654 18.9326993,16.0371377 18.9326993,12.4780797 C18.9326993,8.91902174 16.037183,6.02355072 12.478125,6.02355072 Z M12.478125,16.4221014 C10.2999094,16.4221014 8.53414855,14.6563406 8.53414855,12.478125 C8.53414855,10.2999094 10.2999547,8.53414855 12.478125,8.53414855 C14.6563406,8.53414855 16.4221014,10.2999094 16.4221014,12.478125 C16.4221014,14.6562953 14.6562953,16.4221014 12.478125,16.4221014 Z" id="Shape"></path>
                            <circle id="Oval" cx="18.9451993" cy="6.07201087" r="1.54664855"></circle>
                        </g>
                    </g>
                </g>
            </g>
        </g>
    </g>
</svg>