<?xml version="1.0" encoding="UTF-8"?>
<svg width="25px" height="25px" viewBox="0 0 25 25" version="1.1" xmlns="http://www.w3.org/2000/svg" xmlns:xlink="http://www.w3.org/1999/xlink">
    <!-- Generator: Sketch 56.2 (81672) - https://sketch.com -->
    <title>linkedin</title>
    <desc>Created with Sketch.</desc>
    <g id="v7.0" stroke="none" stroke-width="1" fill="none" fill-rule="evenodd">
        <g id="MenuExpanded-Copy" transform="translate(-1021.000000, -698.000000)" fill="#FFFFFF" fill-rule="nonzero">
            <g id="linkedin" transform="translate(1021.000000, 698.000000)">
                <path d="M22.2721157,0 L2.21506414,0 C0.991730784,0 0,0.991730784 0,2.21506414 L0,22.2720516 C0,23.4954491 0.991730784,24.4871799 2.21506414,24.4871799 L22.2720516,24.4871799 C23.4954491,24.4871799 24.4871799,23.4954491 24.4871799,22.2720516 L24.4871799,2.21506414 C24.4871799,0.991730784 23.4954491,0 22.2721157,0 Z M7.57737191,21.1438465 C7.57737191,21.4998721 7.28878216,21.7884619 6.93275651,21.7884619 L4.18878211,21.7884619 C3.83275647,21.7884619 3.54416672,21.4998721 3.54416672,21.1438465 L3.54416672,9.64121809 C3.54416672,9.28519245 3.83275647,8.9966027 4.18878211,8.9966027 L6.93275651,8.9966027 C7.28878216,8.9966027 7.57737191,9.28519245 7.57737191,9.64121809 L7.57737191,21.1438465 Z M5.56076931,7.91230781 C4.1210898,7.91230781 2.9539744,6.74519241 2.9539744,5.3055129 C2.9539744,3.86583339 4.1210898,2.69871799 5.56076931,2.69871799 C7.00044882,2.69871799 8.16756422,3.86583339 8.16756422,5.3055129 C8.16756422,6.74519241 7.00051292,7.91230781 5.56076931,7.91230781 Z M21.9173098,21.1957695 C21.9173098,21.5230772 21.6519234,21.7884619 21.3246157,21.7884619 L18.3801285,21.7884619 C18.0528208,21.7884619 17.7874362,21.5230772 17.7874362,21.1957695 L17.7874362,15.8003849 C17.7874362,14.995513 18.0235259,12.2733976 15.6840387,12.2733976 C13.8693592,12.2733976 13.5012823,14.1366028 13.427372,14.9727566 L13.427372,21.1957695 C13.427372,21.5230772 13.1620515,21.7884619 12.8346797,21.7884619 L9.98685912,21.7884619 C9.65955143,21.7884619 9.39416681,21.5230772 9.39416681,21.1957695 L9.39416681,9.58929501 C9.39416681,9.26198732 9.65955143,8.9966027 9.98685912,8.9966027 L12.8346797,8.9966027 C13.1619874,8.9966027 13.427372,9.26198732 13.427372,9.58929501 L13.427372,10.5928207 C14.1002566,9.58301296 15.1002566,8.80358987 17.2294233,8.80358987 C21.9442952,8.80358987 21.9173098,13.2084617 21.9173098,15.6287182 L21.9173098,21.1957695 L21.9173098,21.1957695 Z" id="Shape"></path>
            </g>
        </g>
    </g>
</svg>