<?xml version="1.0" encoding="UTF-8"?>
<svg width="64px" height="88px" viewBox="0 0 64 88" version="1.1" xmlns="http://www.w3.org/2000/svg" xmlns:xlink="http://www.w3.org/1999/xlink">
    <!-- Generator: Sketch 55.2 (78181) - https://sketchapp.com -->
    <title>cloud-computing</title>
    <desc>Created with Sketch.</desc>
    <g id="v6.0" stroke="none" stroke-width="1" fill="none" fill-rule="evenodd">
        <g id="About" transform="translate(-703.000000, -1957.000000)" fill-rule="nonzero">
            <g id="Counters" transform="translate(0.000000, 1672.000000)">
                <g id="Group-4" transform="translate(658.000000, 285.000000)">
                    <g id="cloud-computing" transform="translate(45.000000, 0.000000)">
                        <path d="M49.1435003,47.598395 C57.481148,47.002964 64,39.8577917 64,31.305237 C64,23.871371 58.957794,17.285543 52.0607766,15.4631632 C50.5841306,6.5677846 42.9487901,0 33.78278,0 C27.1378728,0 20.9791784,3.60867286 17.7017445,9.31037597 C17.0714688,9.18407242 16.4051773,9.12994233 15.7568936,9.12994233 C10.1564434,9.12994233 5.6004502,13.6949135 5.6004502,19.3063998 C5.6004502,20.0281344 5.67248171,20.7318256 5.81654474,21.4174734 C2.19696117,24.0518046 0,28.3100386 0,32.8208796 C0,40.4351794 6.10467079,47.2194843 13.3258301,47.6164384 C13.3618458,47.6164384 13.3978616,47.6164384 13.4338773,47.6164384 L49.035453,47.6164384 C49.0534609,47.6164384 49.1074845,47.6164384 49.1435003,47.598395 Z M13.4698931,44.0438522 C8.08553742,43.7190717 3.56555993,38.5947562 3.56555993,32.8208796 C3.56555993,29.0859032 5.56443444,25.6035339 8.78784468,23.727024 C9.54417558,23.2939833 9.86831739,22.3737717 9.56218346,21.5618203 C9.29206528,20.8581291 9.16601013,20.1003078 9.16601013,19.3063998 C9.16601013,15.6616402 12.1193022,12.7025285 15.7568936,12.7025285 C16.5312324,12.7025285 17.2875633,12.828832 18.0078784,13.0994825 C18.8722566,13.424263 19.844682,13.027309 20.2408554,12.1792709 C22.6899268,6.94669525 28.0202589,3.57258613 33.8007878,3.57258613 C41.5621835,3.57258613 47.9729882,9.40059279 48.7113112,17.1231527 C48.7833427,17.9351041 49.3956106,18.5846652 50.1879572,18.7109688 C56.0405177,19.7213972 60.4524479,25.1344065 60.4524479,31.305237 C60.4524479,37.8549783 55.3021947,43.5566814 48.9634215,44.0438522 L13.4698931,44.0438522 Z" id="Shape" fill="#374050"></path>
                        <path d="M32,53.0410959 C31.0264167,53.0410959 30.24755,53.8393272 30.24755,54.8371164 L30.24755,75.881397 C27.8224425,76.6433451 26.016888,78.947331 25.9637835,81.6504326 C25.9283805,83.3013201 26.5125304,84.8796411 27.6277259,86.0769881 C28.7429213,87.2743352 30.24755,87.9637168 31.8583879,88 L32,88 L32,88 C35.2570787,88 37.9654104,85.2787568 38.0362165,81.9588401 C38.0716195,80.3079526 37.4874696,78.7296316 36.3722741,77.5322846 C35.646512,76.7521948 34.7437348,76.1898046 33.75245,75.881397 L33.75245,54.8371164 C33.75245,53.8393272 32.9735833,53.0410959 32,53.0410959 Z M33.8409575,80.0176867 C34.3011969,80.5256521 34.5667196,81.1787504 34.5490181,81.868132 C34.5136151,83.2650369 33.3807181,84.407959 32.0177015,84.407959 L31.9468955,84.407959 C31.2742379,84.3898174 30.6369834,84.0995514 30.176744,83.6097277 C29.7165046,83.1017623 29.4509819,82.4486639 29.4686834,81.7592823 C29.5040864,80.3623775 30.6369834,79.2194553 32,79.2194553 L32.0708061,79.2194553 C32.7434636,79.2194553 33.3630166,79.5097213 33.8409575,80.0176867 Z" id="Shape" fill="#3180FB"></path>
                        <path d="M20.5609383,55.4320902 L20.5609383,65.457154 C20.5609383,67.191219 19.1466939,68.5820837 17.4242167,68.5820837 L12.1298657,68.5820837 C11.3502181,66.0532388 8.99314409,64.1927315 6.2009179,64.1927315 C2.79222619,64.1927315 0,66.9563977 0,70.3703384 C0,73.784279 2.77409485,76.5479452 6.2009179,76.5479452 C8.99314409,76.5479452 11.3502181,74.7055011 12.1298657,72.158593 L17.4242167,72.158593 C21.1411411,72.158593 24.1509434,69.1420423 24.1509434,65.457154 L24.1509434,55.4320902 C24.1509434,54.4386154 23.3531645,53.6438356 22.3559408,53.6438356 C21.3768485,53.6438356 20.5609383,54.4386154 20.5609383,55.4320902 Z M6.2009179,72.971436 C4.76854213,72.971436 3.5900051,71.8153926 3.5900051,70.3703384 C3.5900051,68.9252841 4.75041079,67.7692407 6.2009179,67.7692407 C7.63329367,67.7692407 8.8118307,68.9252841 8.8118307,70.3703384 C8.8118307,71.8153926 7.65142501,72.971436 6.2009179,72.971436 Z" id="Shape" fill="#3180FB"></path>
                        <path d="M46.5757833,72.158593 L51.8701343,72.158593 C52.6497819,74.6874379 55.0068559,76.5479452 57.7990821,76.5479452 C61.2077738,76.5479452 64,73.784279 64,70.3703384 C64,66.9563977 61.2259052,64.1927315 57.7990821,64.1927315 C55.0068559,64.1927315 52.6497819,66.0351757 51.8701343,68.5820837 L46.5757833,68.5820837 C44.8351748,68.5820837 43.4390617,67.1731559 43.4390617,65.457154 L43.4390617,55.4320902 C43.4390617,54.4386154 42.6412828,53.6438356 41.6440592,53.6438356 C40.6468355,53.6438356 39.8490566,54.4386154 39.8490566,55.4320902 L39.8490566,65.457154 C39.8490566,69.1420423 42.8588589,72.158593 46.5757833,72.158593 Z M57.7990821,67.7692407 C59.2314579,67.7692407 60.4099949,68.9252841 60.4099949,70.3703384 C60.4099949,71.8153926 59.2495892,72.971436 57.7990821,72.971436 C56.348575,72.971436 55.1881693,71.8153926 55.1881693,70.3703384 C55.1881693,68.9252841 56.348575,67.7692407 57.7990821,67.7692407 Z" id="Shape" fill="#3180FB"></path>
                    </g>
                </g>
            </g>
        </g>
    </g>
</svg>