<?xml version="1.0" encoding="UTF-8"?>
<svg width="106px" height="88px" viewBox="0 0 106 88" version="1.1" xmlns="http://www.w3.org/2000/svg" xmlns:xlink="http://www.w3.org/1999/xlink">
    <!-- Generator: Sketch 55.2 (78181) - https://sketchapp.com -->
    <title>laptop</title>
    <desc>Created with Sketch.</desc>
    <g id="v6.0" stroke="none" stroke-width="1" fill="none" fill-rule="evenodd">
        <g id="About" transform="translate(-938.000000, -1957.000000)" fill-rule="nonzero">
            <g id="Counters" transform="translate(0.000000, 1672.000000)">
                <g id="Group-3" transform="translate(922.000000, 285.000000)">
                    <g id="laptop" transform="translate(16.000000, 0.000000)">
                        <path d="M43.3714868,70.9392157 L18.5230143,70.9392157 C17.3356415,70.9392157 16.3857434,71.8882353 16.3857434,73.0745098 C16.3857434,74.2607843 17.3356415,75.2098039 18.5230143,75.2098039 L41.5364562,75.2098039 C42.2057026,77.0647059 43.997556,78.3803922 46.0700611,78.3803922 L59.714053,78.3803922 C61.786558,78.3803922 63.5784114,77.0647059 64.2476578,75.2098039 L87.2826884,75.2098039 C88.4700611,75.2098039 89.4199593,74.2607843 89.4199593,73.0745098 C89.4199593,71.8882353 88.4700611,70.9392157 87.2826884,70.9392157 L62.4342159,70.9392157 C61.2468432,70.9392157 60.296945,71.8882353 60.296945,73.0745098 L60.296945,73.5490196 C60.296945,73.8509804 60.0378819,74.1098039 59.7356415,74.1098039 L46.0916497,74.1098039 C45.7894094,74.1098039 45.5303462,73.8509804 45.5303462,73.5490196 L45.5303462,73.0745098 C45.5087576,71.8882353 44.5588595,70.9392157 43.3714868,70.9392157 Z" id="Path" fill="#374050"></path>
                        <path d="M103.69002,70.9392157 L98.0769857,70.9392157 L98.0769857,21.7411765 C98.0769857,20.554902 97.1270876,19.6058824 95.9397149,19.6058824 C94.7523422,19.6058824 93.802444,20.554902 93.802444,21.7411765 L93.802444,73.0745098 C93.802444,74.2607843 94.7739308,75.2098039 95.9613035,75.2098039 L101.552749,75.2098039 L101.552749,78.1431373 C101.552749,81.1627451 99.0916497,83.6215686 96.0692464,83.6215686 L9.75804481,83.6215686 C6.73564155,83.6215686 4.27454175,81.1627451 4.27454175,78.1431373 L4.27454175,75.2098039 L9.86598778,75.2098039 C11.0533605,75.2098039 12.0032587,74.2607843 12.0032587,73.0745098 L12.0032587,21.7411765 C12.0032587,20.554902 11.0533605,19.6058824 9.86598778,19.6058824 C8.67861507,19.6058824 7.7287169,20.554902 7.7287169,21.7411765 L7.7287169,70.9392157 L2.13727088,70.9392157 C0.949898167,70.9392157 0,71.8882353 0,73.0745098 L0,78.1431373 C0,83.5137255 4.38248473,87.8921569 9.75804481,87.8921569 L96.0692464,87.8921569 C101.444807,87.8921569 105.827291,83.5137255 105.827291,78.1431373 L105.827291,73.0745098 C105.827291,71.8882353 104.877393,70.9392157 103.69002,70.9392157 Z" id="Path" fill="#374050"></path>
                        <path d="M61.2252546,15.1627451 L48.898167,27.4137255 L44.6020367,23.1 C43.7600815,22.2588235 42.4215886,22.2588235 41.5796334,23.1 C40.7376782,23.9411765 40.7376782,25.2784314 41.5796334,26.1196078 L47.3653768,31.9431373 C47.7755601,32.3529412 48.3368635,32.5686275 48.8765784,32.5686275 C49.4162933,32.5686275 49.9560081,32.3529412 50.38778,31.9431373 L64.2476578,18.1823529 C65.089613,17.3411765 65.089613,16.0039216 64.2476578,15.1627451 C63.4272912,14.3431373 62.0672098,14.3215686 61.2252546,15.1627451 Z" id="Path" fill="#3180FB"></path>
                        <path d="M79.2949084,0.150980392 L26.5323829,0.150980392 C22.214664,0.150980392 18.695723,3.66666667 18.695723,7.98039216 L18.695723,39.1254902 C18.695723,43.4392157 22.214664,46.954902 26.5323829,46.954902 L28.7560081,46.954902 L28.7560081,56.3372549 C28.7560081,58.0843137 30.1808554,59.4862745 31.9295316,59.4862745 C32.8362525,59.4862745 33.6997963,59.0980392 34.304277,58.3862745 L44.1918534,46.954902 L79.2949084,46.954902 C83.6126273,46.954902 87.1315682,43.4392157 87.1315682,39.1254902 L87.1315682,7.98039216 C87.1315682,3.66666667 83.6126273,0.150980392 79.2949084,0.150980392 Z M82.8570265,39.1254902 C82.8570265,41.0882353 81.2594705,42.6843137 79.2949084,42.6843137 L43.198778,42.6843137 C42.5727088,42.6843137 41.9898167,42.9431373 41.5796334,43.4176471 L33.0089613,53.3176471 L33.0089613,44.8196078 C33.0089613,43.6333333 32.0590631,42.6843137 30.8716904,42.6843137 L26.5107943,42.6843137 C24.5462322,42.6843137 22.9486762,41.0882353 22.9486762,39.1254902 L22.9486762,7.98039216 C22.9486762,6.01764706 24.5462322,4.42156863 26.5107943,4.42156863 L79.2733198,4.42156863 C81.2378819,4.42156863 82.8354379,6.01764706 82.8354379,7.98039216 L82.8354379,39.1254902 L82.8570265,39.1254902 Z" id="Shape" fill="#374050"></path>
                    </g>
                </g>
            </g>
        </g>
    </g>
</svg>