<?xml version="1.0" encoding="UTF-8"?>
<svg width="133px" height="110px" viewBox="0 0 133 110" version="1.1" xmlns="http://www.w3.org/2000/svg" xmlns:xlink="http://www.w3.org/1999/xlink">
    <!-- Generator: Sketch 51.3 (57544) - http://www.bohemiancoding.com/sketch -->
    <title>laptop</title>
    <desc>Created with Sketch.</desc>
    <defs></defs>
    <g id="Page-1" stroke="none" stroke-width="1" fill="none" fill-rule="evenodd">
        <g id="About" transform="translate(-910.000000, -2104.000000)" fill-rule="nonzero">
            <g id="WhatWeValue" transform="translate(0.000000, 1699.000000)">
                <g id="4" transform="translate(904.000000, 405.000000)">
                    <g id="laptop" transform="translate(6.000000, 0.000000)">
                        <path d="M54.4189409,88.6740196 L23.2411405,88.6740196 C21.7513238,88.6740196 20.5594705,89.8602941 20.5594705,91.3431373 C20.5594705,92.8259804 21.7513238,94.0122549 23.2411405,94.0122549 L52.1164969,94.0122549 C52.9562118,96.3308824 55.2044807,97.9754902 57.804888,97.9754902 L74.9242363,97.9754902 C77.5246436,97.9754902 79.7729124,96.3308824 80.6126273,94.0122549 L109.515071,94.0122549 C111.004888,94.0122549 112.196741,92.8259804 112.196741,91.3431373 C112.196741,89.8602941 111.004888,88.6740196 109.515071,88.6740196 L78.3372709,88.6740196 C76.8474542,88.6740196 75.6556008,89.8602941 75.6556008,91.3431373 L75.6556008,91.9362745 C75.6556008,92.3137255 75.3305499,92.6372549 74.9513238,92.6372549 L57.8319756,92.6372549 C57.4527495,92.6372549 57.1276986,92.3137255 57.1276986,91.9362745 L57.1276986,91.3431373 C57.100611,89.8602941 55.9087576,88.6740196 54.4189409,88.6740196 Z" id="Path" fill="#374050"></path>
                        <path d="M130.101629,88.6740196 L123.058859,88.6740196 L123.058859,27.1764706 C123.058859,25.6936275 121.867006,24.5073529 120.377189,24.5073529 C118.887373,24.5073529 117.695519,25.6936275 117.695519,27.1764706 L117.695519,91.3431373 C117.695519,92.8259804 118.91446,94.0122549 120.404277,94.0122549 L127.419959,94.0122549 L127.419959,97.6789216 C127.419959,101.453431 124.331976,104.526961 120.539715,104.526961 L12.2435845,104.526961 C8.45132383,104.526961 5.36334012,101.453431 5.36334012,97.6789216 L5.36334012,94.0122549 L12.3790224,94.0122549 C13.8688391,94.0122549 15.0606925,92.8259804 15.0606925,91.3431373 L15.0606925,27.1764706 C15.0606925,25.6936275 13.8688391,24.5073529 12.3790224,24.5073529 C10.8892057,24.5073529 9.69735234,25.6936275 9.69735234,27.1764706 L9.69735234,88.6740196 L2.68167006,88.6740196 C1.19185336,88.6740196 0,89.8602941 0,91.3431373 L0,97.6789216 C0,104.392157 5.498778,109.865196 12.2435845,109.865196 L120.539715,109.865196 C127.284521,109.865196 132.783299,104.392157 132.783299,97.6789216 L132.783299,91.3431373 C132.783299,89.8602941 131.591446,88.6740196 130.101629,88.6740196 Z" id="Path" fill="#374050"></path>
                        <path d="M76.8203666,18.9534314 L61.3533605,34.2671569 L55.9629328,28.875 C54.9065173,27.8235294 53.2270876,27.8235294 52.1706721,28.875 C51.1142566,29.9264706 51.1142566,31.5980392 52.1706721,32.6495098 L59.4301426,39.9289216 C59.9448065,40.4411765 60.6490835,40.7107843 61.3262729,40.7107843 C62.0034623,40.7107843 62.6806517,40.4411765 63.2224033,39.9289216 L80.6126273,22.7279412 C81.6690428,21.6764706 81.6690428,20.004902 80.6126273,18.9534314 C79.5832994,17.9289216 77.8767821,17.9019608 76.8203666,18.9534314 Z" id="Path" fill="#2EC986"></path>
                        <path d="M99.492668,0.18872549 L33.2906314,0.18872549 C27.8731161,0.18872549 23.4578411,4.58333333 23.4578411,9.9754902 L23.4578411,48.9068627 C23.4578411,54.2990196 27.8731161,58.6936275 33.2906314,58.6936275 L36.0806517,58.6936275 L36.0806517,70.4215686 C36.0806517,72.6053922 37.8684318,74.3578431 40.0625255,74.3578431 C41.2002037,74.3578431 42.2837067,73.872549 43.0421589,72.9828431 L55.4482688,58.6936275 L99.492668,58.6936275 C104.910183,58.6936275 109.325458,54.2990196 109.325458,48.9068627 L109.325458,9.9754902 C109.325458,4.58333333 104.910183,0.18872549 99.492668,0.18872549 Z M103.962118,48.9068627 C103.962118,51.3602941 101.957637,53.3553922 99.492668,53.3553922 L54.2022403,53.3553922 C53.4167006,53.3553922 52.685336,53.6789216 52.1706721,54.2720588 L41.4169043,66.6470588 L41.4169043,56.0245098 C41.4169043,54.5416667 40.2250509,53.3553922 38.7352342,53.3553922 L33.2635438,53.3553922 C30.7985743,53.3553922 28.7940937,51.3602941 28.7940937,48.9068627 L28.7940937,9.9754902 C28.7940937,7.52205882 30.7985743,5.52696078 33.2635438,5.52696078 L99.4655804,5.52696078 C101.93055,5.52696078 103.935031,7.52205882 103.935031,9.9754902 L103.935031,48.9068627 L103.962118,48.9068627 Z" id="Shape" fill="#374050"></path>
                    </g>
                </g>
            </g>
        </g>
    </g>
</svg>