<?xml version="1.0" encoding="UTF-8"?>
<svg width="27px" height="88px" viewBox="0 0 27 88" version="1.1" xmlns="http://www.w3.org/2000/svg" xmlns:xlink="http://www.w3.org/1999/xlink">
    <!-- Generator: Sketch 55.2 (78181) - https://sketchapp.com -->
    <title>pencil</title>
    <desc>Created with Sketch.</desc>
    <g id="v6.0" stroke="none" stroke-width="1" fill="none" fill-rule="evenodd">
        <g id="About" transform="translate(-1214.000000, -1957.000000)" fill-rule="nonzero">
            <g id="Counters" transform="translate(0.000000, 1672.000000)">
                <g id="Group-2" transform="translate(1166.000000, 285.000000)">
                    <g id="pencil" transform="translate(48.000000, 0.000000)">
                        <path d="M0.09,70.9926531 C0.09,71.3877551 0.216,71.764898 0.45,72.0702041 L12.042,87.2277551 C12.384,87.6767347 12.906,87.9281633 13.464,87.9281633 C14.022,87.9281633 14.544,87.6767347 14.886,87.2277551 L26.478,72.0702041 C26.712,71.764898 26.838,71.3877551 26.838,70.9926531 L26.838,22.3053061 C26.838,21.317551 26.046,20.5273469 25.056,20.5273469 C24.066,20.5273469 23.274,21.317551 23.274,22.3053061 L23.274,70.4 L13.464,83.2228571 L3.654,70.4 L3.654,22.395102 C3.654,21.4073469 2.862,20.6171429 1.872,20.6171429 C0.882,20.6171429 0.09,21.4073469 0.09,22.395102 L0.09,70.9926531 L0.09,70.9926531 Z" id="Path" fill="#374050"></path>
                        <path d="M11.682,22.395102 L11.682,67.1134694 C11.682,68.1012245 12.474,68.8914286 13.464,68.8914286 C14.454,68.8914286 15.246,68.1012245 15.246,67.1134694 L15.246,22.395102 C15.246,21.4073469 14.454,20.6171429 13.464,20.6171429 C12.474,20.6171429 11.682,21.4073469 11.682,22.395102 Z" id="Path" fill="#374050"></path>
                        <path d="M0.09,6.98612245 L0.09,14.9420408 C0.09,15.9297959 0.882,16.72 1.872,16.72 L25.038,16.72 C26.028,16.72 26.82,15.9297959 26.82,14.9420408 L26.82,6.98612245 C26.82,3.14285714 23.688,0 19.818,0 L7.092,0 C3.24,0 0.09,3.12489796 0.09,6.98612245 Z M23.274,6.98612245 L23.274,13.1640816 L3.654,13.1640816 L3.654,6.98612245 C3.654,5.10040816 5.202,3.55591837 7.092,3.55591837 L19.818,3.55591837 C21.726,3.55591837 23.274,5.08244898 23.274,6.98612245 Z" id="Shape" fill="#3180FB"></path>
                    </g>
                </g>
            </g>
        </g>
    </g>
</svg>