<?xml version="1.0" encoding="UTF-8"?>
<svg width="76px" height="88px" viewBox="0 0 76 88" version="1.1" xmlns="http://www.w3.org/2000/svg" xmlns:xlink="http://www.w3.org/1999/xlink">
    <!-- Generator: Sketch 55.2 (78181) - https://sketchapp.com -->
    <title>startup</title>
    <desc>Created with Sketch.</desc>
    <g id="v6.0" stroke="none" stroke-width="1" fill="none" fill-rule="evenodd">
        <g id="About" transform="translate(-199.000000, -1957.000000)" fill-rule="nonzero">
            <g id="Counters" transform="translate(0.000000, 1672.000000)">
                <g id="Group-6" transform="translate(188.000000, 285.000000)">
                    <g id="startup" transform="translate(11.000000, 0.000000)">
                        <g id="Group">
                            <path d="M53.5018692,84.307943 L39.7757009,84.307943 L39.7757009,80.2753564 C39.7757009,79.289613 38.9943925,78.5010183 38.017757,78.5010183 C37.0411215,78.5010183 36.2598131,79.289613 36.2598131,80.2753564 L36.2598131,84.307943 L22.5336449,84.307943 C21.5570093,84.307943 20.7757009,85.0965377 20.7757009,86.0822811 C20.7757009,87.0680244 21.5570093,87.8566191 22.5336449,87.8566191 L53.5196262,87.8566191 C54.4962617,87.8566191 55.2775701,87.0680244 55.2775701,86.0822811 C55.2598131,85.0965377 54.4785047,84.307943 53.5018692,84.307943 Z" id="Path" fill="#374050"></path>
                            <path d="M35.3364486,49.6635438 C30.9327103,50.703055 27.5233645,54.3771894 26.8308411,58.9474542 L19.7990654,58.9474542 C20.5271028,56.2590631 22.9598131,54.2875764 25.8364486,54.2875764 C26.8130841,54.2875764 27.5943925,53.4989817 27.5943925,52.5132383 C27.5943925,51.5274949 26.8130841,50.7389002 25.8364486,50.7389002 C21.0065421,50.7389002 16.9757009,54.2875764 16.1943925,58.9474542 L2.32616822,58.9474542 C2.14859813,58.8936864 1.98878505,58.8578411 1.79345794,58.8578411 C0.81682243,58.8578411 0.0355140187,59.6464358 0.0355140187,60.6321792 L0.0355140187,70.310387 C0.0355140187,72.5507128 1.84672897,74.3788187 4.06635514,74.3788187 L71.9691589,74.3788187 C74.188785,74.3788187 76,72.5507128 76,70.310387 L76,23.1380855 C76,20.8977597 74.188785,19.0696538 71.9691589,19.0696538 L52.9691589,19.0696538 C51.9925234,19.0696538 51.211215,19.8582485 51.211215,20.8439919 C51.211215,21.8297352 51.9925234,22.6183299 52.9691589,22.6183299 L71.9691589,22.6183299 C72.253271,22.6183299 72.4841121,22.8513238 72.4841121,23.1380855 L72.4841121,70.3283096 C72.4841121,70.6150713 72.253271,70.8480652 71.9691589,70.8480652 L4.06635514,70.8480652 C3.78224299,70.8480652 3.55140187,70.6150713 3.55140187,70.3283096 L3.55140187,62.514053 L66.9794393,62.514053 C67.9560748,62.514053 68.7373832,61.7254582 68.7373832,60.7397149 C68.7373832,59.7539715 67.9560748,58.9653768 66.9794393,58.9653768 L59.4682243,58.9653768 C58.6869159,54.305499 54.6560748,50.7568228 49.8261682,50.7568228 C48.8495327,50.7568228 48.0682243,51.5454175 48.0682243,52.5311609 C48.0682243,53.5169043 48.8495327,54.305499 49.8261682,54.305499 C52.7205607,54.305499 55.135514,56.2769857 55.8635514,58.9653768 L48.8672897,58.9653768 C48.1214953,53.8753564 43.9663551,49.8965377 38.8523364,49.4305499 C36.7392523,49.3050916 35.3364486,49.6635438 35.3364486,49.6635438 Z M37.8579439,52.9254582 C41.4981308,52.9254582 44.5345794,55.5063136 45.2981308,58.9474542 L30.417757,58.9474542 C31.1635514,55.5063136 34.217757,52.9254582 37.8579439,52.9254582 Z" id="Shape" fill="#374050"></path>
                            <path d="M24.8953271,20.8439919 C24.8953271,19.8582485 24.1140187,19.0696538 23.1373832,19.0696538 L4.06635514,19.0696538 C1.84672897,19.0696538 0.0355140187,20.8977597 0.0355140187,23.1380855 L0.0355140187,54.0904277 C0.0355140187,55.0761711 0.81682243,55.8647658 1.79345794,55.8647658 C2.77009346,55.8647658 3.55140187,55.0761711 3.55140187,54.0904277 L3.55140187,23.1380855 C3.55140187,22.8513238 3.78224299,22.6183299 4.06635514,22.6183299 L23.1373832,22.6183299 C24.1140187,22.6183299 24.8953271,21.8297352 24.8953271,20.8439919 Z" id="Path" fill="#374050"></path>
                            <path d="M44.5523364,47.8533605 C45.528972,47.8533605 46.3102804,47.0647658 46.3102804,46.0790224 L46.3102804,42.6558045 L50.1813084,42.6558045 C51.1579439,42.6558045 51.9392523,41.8672098 51.9392523,40.8814664 L51.9392523,37.3507128 C51.9392523,36.1498982 51.6018692,34.9670061 50.9626168,33.9454175 L48.2457944,29.6260692 C47.9794393,29.2138493 47.8551402,28.7299389 47.8551402,28.2460285 L47.8551402,14.0692464 C47.8551402,11.9185336 47.0915888,9.8395112 45.688785,8.20855397 L39.1897196,0.609368635 C38.8523364,0.215071283 38.3728972,0 37.8579439,0 L37.8579439,0 C37.3429907,0 36.8635514,0.23299389 36.5261682,0.627291242 L30.0981308,8.22647658 C28.7308411,9.85743381 27.9672897,11.9185336 27.9672897,14.0513238 L27.9672897,28.1384929 C27.9672897,28.6761711 27.8074766,29.1780041 27.5056075,29.6081466 L24.611215,33.8199593 C23.8654206,34.8953157 23.4747664,36.1498982 23.4747664,37.4582485 L23.4747664,40.8814664 C23.4747664,41.8672098 24.2560748,42.6558045 25.2327103,42.6558045 L28.428972,42.6737271 L28.428972,46.096945 C28.428972,47.0826884 29.2102804,47.8712831 30.1869159,47.8712831 C31.1635514,47.8712831 31.9448598,47.0826884 31.9448598,46.096945 L31.9448598,42.6737271 L31.9626168,42.6558045 C32.9392523,42.6558045 33.7205607,41.8672098 33.7205607,40.8814664 C33.7205607,39.895723 32.9392523,39.1071283 31.9626168,39.1071283 L26.9906542,39.1071283 L26.9906542,37.4582485 C26.9906542,36.8847251 27.1682243,36.3291242 27.4878505,35.8452138 L30.382243,31.6334012 C31.0925234,30.59389 31.4654206,29.3930754 31.4654206,28.1205703 L31.4654206,14.0513238 C31.4654206,12.7608961 31.9271028,11.5063136 32.7439252,10.5384929 L37.8934579,4.49857434 L43.0429907,10.5205703 C43.8775701,11.5063136 44.3392523,12.7608961 44.3392523,14.0513238 L44.3392523,28.2281059 C44.3392523,29.3930754 44.6588785,30.5221996 45.2803738,31.507943 L47.9971963,35.8272912 C48.2813084,36.2753564 48.4233645,36.795112 48.4233645,37.3327902 L48.4233645,39.0892057 L43.7,39.0892057 C42.7233645,39.0892057 41.9420561,39.8778004 41.9420561,40.8635438 C41.9420561,41.5087576 42.2794393,42.0643585 42.7943925,42.3690428 L42.7943925,46.0790224 C42.7943925,47.0647658 43.5934579,47.8533605 44.5523364,47.8533605 Z" id="Path" fill="#3180FB"></path>
                        </g>
                        <path d="M36.503937,42.1856252 L36.503937,49.9581621 C36.503937,50.9229032 37.1084069,51.7784283 37.9093295,51.8330363 C38.7706991,51.8876443 39.496063,51.0685245 39.496063,50.0309727 L39.496063,42.1856252 C39.496063,41.1844788 38.8311461,40.3835616 38,40.3835616 L38,40.3835616 C37.1688539,40.3835616 36.503937,41.1844788 36.503937,42.1856252 Z" id="Path" fill="#374050"></path>
                    </g>
                </g>
            </g>
        </g>
    </g>
</svg>