<?xml version="1.0" encoding="UTF-8"?>
<svg width="110px" height="110px" viewBox="0 0 110 110" version="1.1" xmlns="http://www.w3.org/2000/svg" xmlns:xlink="http://www.w3.org/1999/xlink">
    <!-- Generator: Sketch 51.3 (57544) - http://www.bohemiancoding.com/sketch -->
    <title>worldwide</title>
    <desc>Created with Sketch.</desc>
    <defs></defs>
    <g id="Page-1" stroke="none" stroke-width="1" fill="none" fill-rule="evenodd">
        <g id="About" transform="translate(-384.000000, -2104.000000)" fill-rule="nonzero">
            <g id="WhatWeValue" transform="translate(0.000000, 1699.000000)">
                <g id="2" transform="translate(373.000000, 405.000000)">
                    <g id="worldwide" transform="translate(11.000000, 0.000000)">
                        <path d="M18.8209776,19.6153971 C38.2670061,-0.278696538 70.2588595,-0.659551935 90.1529532,18.7864766 L84.4849287,18.8536864 C83.2527495,18.8760896 82.2894094,19.861833 82.2894094,21.0940122 C82.3118126,22.3037882 83.297556,23.2895316 84.507332,23.2895316 L84.5297352,23.2895316 L95.5521385,23.155112 C96.7843177,23.1327088 97.7476578,22.1469654 97.7476578,20.9147862 L97.6132383,9.89238289 C97.590835,8.66020367 96.6050916,7.67446029 95.3729124,7.69686354 C94.1407332,7.7192668 93.1773931,8.70501018 93.1773931,9.93718941 L93.2446029,15.6052138 C71.603055,-5.54346232 36.788391,-5.11780041 15.6397149,16.5237475 C8.31384929,24.0288391 3.29551935,33.3934012 1.16720978,43.6316904 C-0.916293279,53.6011405 -0.199389002,63.9066395 3.22830957,73.472831 C3.56435845,74.3689613 4.41568228,74.951446 5.31181263,74.951446 C5.55824847,74.951446 5.80468432,74.9066395 6.05112016,74.8170265 C7.19368635,74.4137678 7.79857434,73.1367821 7.39531568,71.9718126 C0.831160896,53.6235438 5.19979633,33.550224 18.8209776,19.6153971 Z" id="Path" fill="#374050"></path>
                        <path d="M16.5582485,94.173442 C26.8861507,104.254908 40.4849287,109.788513 54.890224,109.788513 C55.1142566,109.788513 55.3158859,109.788513 55.5399185,109.788513 C70.214053,109.609287 83.9248473,103.762037 94.1631365,93.2549084 C101.511405,85.7498167 106.507332,76.3628513 108.635642,66.1245621 C110.719145,56.155112 110.00224,45.849613 106.574542,36.2834216 C106.171283,35.1408554 104.894297,34.5359674 103.729328,34.9392261 C102.586762,35.3424847 101.981874,36.6194705 102.385132,37.7844399 C108.97169,56.1327088 104.603055,76.2060285 90.9818737,90.1408554 C81.5501018,99.7742566 68.9594705,105.173442 55.4727088,105.330265 C42.0083503,105.487088 29.2832994,100.379145 19.6498982,90.969776 L25.3179226,90.9025662 C26.5501018,90.8801629 27.513442,89.8944196 27.513442,88.6622403 C27.4910387,87.4524644 26.5052953,86.466721 25.2955193,86.466721 L25.2731161,86.466721 L14.2507128,86.6011405 C13.6682281,86.6011405 13.1081466,86.8475764 12.6824847,87.2732383 C12.2792261,87.6989002 12.0551935,88.2589817 12.0551935,88.8414664 L12.189613,99.8638697 C12.2120163,101.073646 13.1977597,102.059389 14.4075356,102.059389 L14.4299389,102.059389 C15.6621181,102.036986 16.6254582,101.051242 16.6254582,99.8190631 L16.5582485,94.173442 Z" id="Path" fill="#374050"></path>
                        <path d="M85.5826884,42.1530754 C80.6763747,30.346558 69.5643585,22.5054175 56.9289206,21.7437067 C56.704888,21.7213035 56.4584521,21.7213035 56.2120163,21.6989002 C56.189613,21.6989002 56.1448065,21.6989002 56.1224033,21.6989002 C55.9879837,21.6989002 55.8535642,21.6764969 55.7191446,21.6764969 C55.6967413,21.6764969 55.6743381,21.6764969 55.6519348,21.6764969 C55.405499,21.6764969 55.1590631,21.6540937 54.890224,21.6540937 C50.5215886,21.6540937 46.2649695,22.5054175 42.2099796,24.1856619 C34.010387,27.568554 27.6254582,33.9534827 24.2425662,42.1530754 C20.8372709,50.352668 20.8372709,59.3811813 24.2425662,67.5583707 C29.3953157,80.0145825 41.4482688,88.0797556 54.9350305,88.0797556 C55.1142566,88.0797556 55.2710794,88.0797556 55.4503055,88.0573523 C55.5399185,88.0573523 55.6519348,88.0797556 55.7415479,88.0797556 C55.7863544,88.0797556 55.8311609,88.0797556 55.8535642,88.0573523 C56.0551935,88.0573523 56.2344196,88.0349491 56.4360489,88.0349491 C56.5032587,88.0349491 56.5704684,88.0349491 56.6600815,88.0349491 C56.7272912,88.0349491 56.7720978,88.0349491 56.8393075,88.0125458 C60.5358452,87.8109165 64.1651731,86.9819959 67.6376782,85.5481874 C75.8372709,82.1652953 82.2221996,75.7803666 85.6050916,67.5807739 C88.9879837,59.3811813 89.010387,50.352668 85.6050916,42.1754786 C85.5826884,42.1754786 85.5826884,42.1754786 85.5826884,42.1530754 C85.5826884,42.1754786 85.5826884,42.1754786 85.5826884,42.1530754 Z M43.3301426,28.5542974 C40.8657841,31.7579633 38.8942974,35.9473727 37.5949084,40.8088798 L29.8209776,40.8088798 C32.8454175,35.3872912 37.5501018,31.1082688 43.3301426,28.5542974 Z M27.8046843,45.2671283 L36.6315682,45.2671283 C36.1162933,48.2915682 35.8474542,51.5176375 35.8474542,54.9005295 C35.8474542,58.2386151 36.1386965,61.4870876 36.698778,64.5339308 L27.8046843,64.5339308 C25.5643585,58.2610183 25.5643585,51.5176375 27.8046843,45.2671283 Z M29.8209776,68.9473727 L37.7293279,68.9473727 C39.1183299,73.8984929 41.2242363,78.1775153 43.800611,81.448391 C37.9309572,78.9840326 32.9798371,74.6378004 29.8209776,68.9473727 Z M53.501222,83.3302648 C48.8637475,81.963666 44.7415479,76.4076578 42.3892057,68.9473727 L53.501222,68.9473727 L53.501222,83.3302648 Z M53.501222,64.5115275 L41.2466395,64.5115275 C40.6193483,61.4646843 40.2832994,58.2162118 40.2832994,54.8781263 C40.2832994,51.4952342 40.596945,48.2467617 41.1346232,45.2447251 L53.501222,45.2447251 L53.501222,64.5115275 Z M53.501222,40.8312831 L42.1875764,40.8312831 C44.4503055,33.1245621 48.5725051,27.6805703 53.501222,26.4259878 L53.501222,40.8312831 Z M80.004277,40.8088798 L73.8433809,40.8088798 C72.7008147,36.5298574 71.0653768,32.7885132 69.004277,29.7864766 C73.5521385,32.3404481 77.3830957,36.1265988 80.004277,40.8088798 Z M57.9370672,26.4035845 C62.8657841,27.6805703 66.9655804,33.1245621 69.2507128,40.8088798 L57.9370672,40.8088798 L57.9370672,26.4035845 Z M57.9370672,45.2671283 L70.303666,45.2671283 C70.8637475,48.269165 71.1549898,51.4952342 71.1549898,54.9005295 C71.1549898,58.2386151 70.8189409,61.4870876 70.1916497,64.5339308 L57.9370672,64.5339308 L57.9370672,45.2671283 Z M57.9370672,83.3302648 L57.9370672,68.9473727 L69.0490835,68.9473727 C66.6967413,76.4076578 62.5745418,81.963666 57.9370672,83.3302648 Z M68.5562118,80.2162118 C70.7293279,77.1469654 72.4991853,73.2936049 73.7313646,68.9473727 L80.004277,68.9473727 C77.3382892,73.7416701 73.3953157,77.6174338 68.5562118,80.2162118 Z M82.0205703,64.5115275 L74.7395112,64.5115275 C75.2995927,61.4646843 75.590835,58.2386151 75.590835,54.8781263 C75.590835,51.4952342 75.3219959,48.269165 74.806721,45.2447251 L82.0205703,45.2447251 C84.2608961,51.5176375 84.2608961,58.2610183 82.0205703,64.5115275 Z" id="Shape" fill="#2EC986"></path>
                    </g>
                </g>
            </g>
        </g>
    </g>
</svg>