<?xml version="1.0" encoding="UTF-8"?>
<svg width="88px" height="88px" viewBox="0 0 88 88" version="1.1" xmlns="http://www.w3.org/2000/svg" xmlns:xlink="http://www.w3.org/1999/xlink">
    <!-- Generator: Sketch 55.2 (78181) - https://sketchapp.com -->
    <title>worldwide</title>
    <desc>Created with Sketch.</desc>
    <g id="v6.0" stroke="none" stroke-width="1" fill="none" fill-rule="evenodd">
        <g id="About" transform="translate(-445.000000, -1957.000000)" fill-rule="nonzero">
            <g id="Counters" transform="translate(0.000000, 1672.000000)">
                <g id="Group-5" transform="translate(425.000000, 285.000000)">
                    <g id="worldwide" transform="translate(20.000000, 0.000000)">
                        <path d="M15.0567821,15.6923177 C30.6136049,-0.222957231 56.2070876,-0.527641549 72.1223625,15.0291813 L67.587943,15.0829491 C66.6021996,15.1008717 65.8315275,15.8894664 65.8315275,16.8752098 C65.8494501,17.8430305 66.6380448,18.6316253 67.6058656,18.6316253 L67.6237882,18.6316253 L76.4417108,18.5240896 C77.4274542,18.506167 78.1981263,17.7175723 78.1981263,16.7318289 L78.0905906,7.91390631 C78.072668,6.92816293 77.2840733,6.13956823 76.2983299,6.15749083 C75.3125866,6.17541344 74.5419145,6.96400815 74.5419145,7.94975153 L74.5956823,12.4841711 C57.282444,-4.43476986 29.4307128,-4.09424033 12.5117719,13.218998 C6.65107943,19.2230713 2.63641548,26.714721 0.933767821,34.9053523 C-0.733034623,42.8809124 -0.159511202,51.1253116 2.58264766,58.7782648 C2.85148676,59.495169 3.53254582,59.9611568 4.2494501,59.9611568 C4.44659878,59.9611568 4.64374745,59.9253116 4.84089613,59.8536212 C5.75494908,59.5310143 6.23885947,58.5094257 5.91625255,57.5774501 C0.664928717,42.898835 4.15983707,26.8401792 15.0567821,15.6923177 Z" id="Path" fill="#374050"></path>
                        <path d="M13.2465988,75.3387536 C21.5089206,83.4039267 32.387943,87.8308106 43.9121792,87.8308106 C44.0914053,87.8308106 44.2527088,87.8308106 44.4319348,87.8308106 C56.1712424,87.6874297 67.1398778,83.0096293 75.3305092,74.6039267 C81.2091242,68.5998534 85.2058656,61.0902811 86.9085132,52.8996497 C88.5753157,44.9240896 88.0017923,36.6796904 85.2596334,29.0267373 C84.9370265,28.1126843 83.9154379,27.6287739 82.9834623,27.9513809 C82.0694094,28.2739878 81.585499,29.2955764 81.9081059,30.2275519 C87.1773523,44.906167 83.682444,60.9648228 72.785499,72.1126843 C65.2400815,79.8194053 55.1675764,84.1387536 44.378167,84.2642118 C33.6066802,84.3896701 23.4266395,80.3033157 15.7199185,72.7758208 L20.2543381,72.722053 C21.2400815,72.7041303 22.0107536,71.9155356 22.0107536,70.9297923 C21.992831,69.9619715 21.2042363,69.1733768 20.2364155,69.1733768 L20.2184929,69.1733768 L11.4005703,69.2809124 C10.9345825,69.2809124 10.4865173,69.4780611 10.1459878,69.8185906 C9.82338086,70.1591202 9.64415479,70.6071853 9.64415479,71.0731731 L9.75169043,79.8910957 C9.76961303,80.8589165 10.5582077,81.6475112 11.5260285,81.6475112 L11.5439511,81.6475112 C12.5296945,81.6295886 13.3003666,80.8409939 13.3003666,79.8552505 L13.2465988,75.3387536 Z" id="Path" fill="#374050"></path>
                        <path d="M68.4661507,33.7224603 C64.5410998,24.2772464 55.6514868,18.004334 45.5431365,17.3949654 C45.3639104,17.3770428 45.1667617,17.3770428 44.969613,17.3591202 C44.9516904,17.3591202 44.9158452,17.3591202 44.8979226,17.3591202 C44.790387,17.3591202 44.6828513,17.3411976 44.5753157,17.3411976 C44.5573931,17.3411976 44.5394705,17.3411976 44.5215479,17.3411976 C44.3243992,17.3411976 44.1272505,17.3232749 43.9121792,17.3232749 C40.4172709,17.3232749 37.0119756,18.004334 33.7679837,19.3485295 C27.2083096,22.0548432 22.1003666,27.1627862 19.394053,33.7224603 C16.6698167,40.2821344 16.6698167,47.504945 19.394053,54.0466965 C23.5162525,64.011666 33.1586151,70.4638045 43.9480244,70.4638045 C44.0914053,70.4638045 44.2168635,70.4638045 44.3602444,70.4458819 C44.4319348,70.4458819 44.5215479,70.4638045 44.5932383,70.4638045 C44.6290835,70.4638045 44.6649287,70.4638045 44.6828513,70.4458819 C44.8441548,70.4458819 44.9875356,70.4279593 45.1488391,70.4279593 C45.2026069,70.4279593 45.2563747,70.4279593 45.3280652,70.4279593 C45.381833,70.4279593 45.4176782,70.4279593 45.471446,70.4100367 C48.4286762,70.2487332 51.3321385,69.5855967 54.1101426,68.4385499 C60.6698167,65.7322363 65.7777597,60.6242933 68.4840733,54.0646191 C71.190387,47.504945 71.2083096,40.2821344 68.4840733,33.7403829 C68.4661507,33.7403829 68.4661507,33.7403829 68.4661507,33.7224603 C68.4661507,33.7403829 68.4661507,33.7403829 68.4661507,33.7224603 Z M34.6641141,22.8434379 C32.6926273,25.4063707 31.1154379,28.7578982 30.0759267,32.6471039 L23.8567821,32.6471039 C26.276334,28.309833 30.0400815,24.8866151 34.6641141,22.8434379 Z M22.2437475,36.2137026 L29.3052546,36.2137026 C28.8930346,38.6332546 28.6779633,41.21411 28.6779633,43.9204236 C28.6779633,46.5908921 28.9109572,49.1896701 29.3590224,51.6271446 L22.2437475,51.6271446 C20.4514868,46.6088147 20.4514868,41.21411 22.2437475,36.2137026 Z M23.8567821,55.1578982 L30.1834623,55.1578982 C31.294664,59.1187943 32.979389,62.5420122 35.0404888,65.1587128 C30.3447658,63.1872261 26.3838697,59.7102403 23.8567821,55.1578982 Z M42.8009776,66.6642118 C39.090998,65.5709328 35.7932383,61.1261263 33.9113646,55.1578982 L42.8009776,55.1578982 L42.8009776,66.6642118 L42.8009776,66.6642118 Z M42.8009776,51.609222 L32.9973116,51.609222 C32.4954786,49.1717475 32.2266395,46.5729695 32.2266395,43.902501 C32.2266395,41.1961874 32.477556,38.5974094 32.9076986,36.19578 L42.8009776,36.19578 L42.8009776,51.609222 Z M42.8009776,32.6650265 L33.7500611,32.6650265 C35.5602444,26.4996497 38.8580041,22.1444562 42.8009776,21.1407902 L42.8009776,32.6650265 Z M64.0034216,32.6471039 L59.0747047,32.6471039 C58.1606517,29.2238859 56.8523014,26.2308106 55.2034216,23.8291813 C58.8417108,25.8723585 61.9064766,28.901279 64.0034216,32.6471039 Z M46.3496538,21.1228676 C50.2926273,22.1444562 53.5724644,26.4996497 55.4005703,32.6471039 L46.3496538,32.6471039 L46.3496538,21.1228676 Z M46.3496538,36.2137026 L56.2429328,36.2137026 C56.690998,38.615332 56.9239919,41.1961874 56.9239919,43.9204236 C56.9239919,46.5908921 56.6551527,49.1896701 56.1533198,51.6271446 L46.3496538,51.6271446 L46.3496538,36.2137026 Z M46.3496538,66.6642118 L46.3496538,55.1578982 L55.2392668,55.1578982 C53.3573931,61.1261263 50.0596334,65.5709328 46.3496538,66.6642118 Z M54.8449695,64.1729695 C56.5834623,61.7175723 57.9993483,58.6348839 58.9850916,55.1578982 L64.0034216,55.1578982 C61.8706314,58.993336 58.7162525,62.093947 54.8449695,64.1729695 Z M65.6164562,51.609222 L59.791609,51.609222 C60.2396741,49.1717475 60.472668,46.5908921 60.472668,43.902501 C60.472668,41.1961874 60.2575967,38.615332 59.8453768,36.19578 L65.6164562,36.19578 C67.4087169,41.21411 67.4087169,46.6088147 65.6164562,51.609222 Z" id="Shape" fill="#3180FB"></path>
                    </g>
                </g>
            </g>
        </g>
    </g>
</svg>