<?xml version="1.0" encoding="UTF-8"?>
<svg width="80px" height="110px" viewBox="0 0 80 110" version="1.1" xmlns="http://www.w3.org/2000/svg" xmlns:xlink="http://www.w3.org/1999/xlink">
    <!-- Generator: Sketch 51.3 (57544) - http://www.bohemiancoding.com/sketch -->
    <title>cloud-computing</title>
    <desc>Created with Sketch.</desc>
    <defs></defs>
    <g id="Page-1" stroke="none" stroke-width="1" fill="none" fill-rule="evenodd">
        <g id="About" transform="translate(-665.000000, -2097.000000)" fill-rule="nonzero">
            <g id="WhatWeValue" transform="translate(0.000000, 1699.000000)">
                <g id="3" transform="translate(626.000000, 398.000000)">
                    <g id="cloud-computing" transform="translate(39.000000, 0.000000)">
                        <path d="M61.4293754,59.4979937 C71.851435,58.753705 80,49.8222396 80,39.1315463 C80,29.8392137 73.6972425,21.6069287 65.0759707,19.328954 C63.2301632,8.20973075 53.6859876,0 42.228475,0 C33.922341,0 26.223973,4.51084107 22.1271806,11.63797 C21.339336,11.4800905 20.5064716,11.4124279 19.6961171,11.4124279 C12.6955543,11.4124279 7.00056275,17.1186419 7.00056275,24.1329997 C7.00056275,25.0351679 7.09060214,25.914782 7.27068092,26.7718418 C2.74620146,30.0647557 0,35.3875482 0,41.0260995 C0,50.5439742 7.63083849,59.0243554 16.6572876,59.5205479 C16.7023073,59.5205479 16.747327,59.5205479 16.7923467,59.5205479 L61.2943163,59.5205479 C61.3168261,59.5205479 61.3843557,59.5205479 61.4293754,59.4979937 Z M16.8373663,55.0548153 C10.1069218,54.6488396 4.45694992,48.2434453 4.45694992,41.0260995 C4.45694992,36.357379 6.95554305,32.0044174 10.9848059,29.65878 C11.9302195,29.1174791 12.3353967,27.9672146 11.9527293,26.9522754 C11.6150816,26.0726614 11.4575127,25.1253848 11.4575127,24.1329997 C11.4575127,19.5770503 15.1491277,15.8781606 19.6961171,15.8781606 C20.6640405,15.8781606 21.6094541,16.03604 22.5098481,16.3743531 C23.5903208,16.7803288 24.8058526,16.2841363 25.3010692,15.2240886 C28.3624086,8.68336906 35.0253236,4.46573266 42.2509848,4.46573266 C51.9527293,4.46573266 59.9662352,11.750741 60.889139,21.4039409 C60.9791784,22.4188801 61.7445132,23.2308315 62.7349465,23.388711 C70.0506472,24.6517465 75.5655599,31.4180081 75.5655599,39.1315463 C75.5655599,47.3187228 69.1277434,54.4458517 61.2042769,55.0548153 L16.8373663,55.0548153 Z" id="Shape" fill="#374050"></path>
                        <path d="M40,66.3013699 C38.7830209,66.3013699 37.8094376,67.299159 37.8094376,68.5463955 L37.8094376,94.8517463 C34.7780532,95.8041814 32.52111,98.6841638 32.4547294,102.063041 C32.4104756,104.12665 33.1406631,106.099551 34.5346573,107.596235 C35.9286516,109.092919 37.8094376,109.954646 39.8229849,110 L40,110 C44.0713484,110 47.4567631,106.598446 47.5452706,102.44855 C47.5895244,100.384941 46.8593369,98.4120394 45.4653427,96.9153557 C44.55814,95.9402435 43.4296685,95.2372557 42.1905624,94.8517463 L42.1905624,68.5463955 C42.1905624,67.299159 41.2169791,66.3013699 40,66.3013699 Z M42.3011969,100.022108 C42.8764961,100.657065 43.2083995,101.473438 43.1862726,102.335165 C43.1420189,104.081296 41.7258977,105.509949 40.0221269,105.509949 L39.9336193,105.509949 C39.0927974,105.487272 38.2962292,105.124439 37.72093,104.51216 C37.1456308,103.877203 36.8137274,103.06083 36.8358543,102.199103 C36.880108,100.452972 38.2962292,99.0243192 40,99.0243192 L40.0885076,99.0243192 C40.9293295,99.0243192 41.7037708,99.3871516 42.3011969,100.022108 Z" id="Shape" fill="#2EC986"></path>
                        <path d="M25.7011729,69.2901128 L25.7011729,81.8214425 C25.7011729,83.9890238 23.9333673,85.7276047 21.7802708,85.7276047 L15.1623321,85.7276047 C14.1877727,82.5665486 11.2414301,80.2409144 7.75114737,80.2409144 C3.49028274,80.2409144 0,83.6954972 0,87.962923 C0,92.2303487 3.46761856,95.6849315 7.75114737,95.6849315 C11.2414301,95.6849315 14.1877727,93.3818763 15.1623321,90.1982412 L21.7802708,90.1982412 C26.4264264,90.1982412 30.1886792,86.4275528 30.1886792,81.8214425 L30.1886792,69.2901128 C30.1886792,68.0482693 29.1914556,67.0547945 27.9449261,67.0547945 C26.7210607,67.0547945 25.7011729,68.0482693 25.7011729,69.2901128 Z M7.75114737,91.214295 C5.96067766,91.214295 4.48750637,89.7692407 4.48750637,87.962923 C4.48750637,86.1566052 5.93801349,84.7115509 7.75114737,84.7115509 C9.54161709,84.7115509 11.0147884,86.1566052 11.0147884,87.962923 C11.0147884,89.7692407 9.56428126,91.214295 7.75114737,91.214295 Z" id="Shape" fill="#2EC986"></path>
                        <path d="M58.2197292,90.1982412 L64.8376679,90.1982412 C65.8122273,93.3592974 68.7585699,95.6849315 72.2488526,95.6849315 C76.5097173,95.6849315 80,92.2303487 80,87.962923 C80,83.6954972 76.5323814,80.2409144 72.2488526,80.2409144 C68.7585699,80.2409144 65.8122273,82.5439696 64.8376679,85.7276047 L58.2197292,85.7276047 C56.0439685,85.7276047 54.2988271,83.9664448 54.2988271,81.8214425 L54.2988271,69.2901128 C54.2988271,68.0482693 53.3016035,67.0547945 52.0550739,67.0547945 C50.8085444,67.0547945 49.8113208,68.0482693 49.8113208,69.2901128 L49.8113208,81.8214425 C49.8113208,86.4275528 53.5735736,90.1982412 58.2197292,90.1982412 Z M72.2488526,84.7115509 C74.0393223,84.7115509 75.5124936,86.1566052 75.5124936,87.962923 C75.5124936,89.7692407 74.0619865,91.214295 72.2488526,91.214295 C70.4357187,91.214295 68.9852116,89.7692407 68.9852116,87.962923 C68.9852116,86.1566052 70.4357187,84.7115509 72.2488526,84.7115509 Z" id="Shape" fill="#2EC986"></path>
                    </g>
                </g>
            </g>
        </g>
    </g>
</svg>