<svg xmlns="http://www.w3.org/2000/svg" width="54" height="54" viewBox="0 0 54 54">
    <g fill="none" fill-rule="evenodd">
        <path fill="#374050" d="M27.083 4.42c4.092 0 7.802.956 11.13 2.87 3.327 1.915 5.952 4.589 7.875 8.022 1.922 3.433 2.883 7.314 2.883 11.642 0 4.328-.961 8.219-2.883 11.673-1.923 3.454-4.548 6.138-7.875 8.053-3.328 1.914-7.038 2.871-11.13 2.871-4.093 0-7.803-.957-11.13-2.871-3.328-1.915-5.953-4.599-7.875-8.053-1.922-3.454-2.884-7.345-2.884-11.673s.962-8.209 2.884-11.642 4.547-6.107 7.875-8.021c3.327-1.915 7.037-2.872 11.13-2.872zm0 8.114c-2.563 0-4.816.583-6.759 1.748-1.943 1.165-3.462 2.84-4.557 5.025-1.096 2.185-1.644 4.734-1.644 7.647 0 2.913.548 5.462 1.644 7.647 1.095 2.185 2.614 3.86 4.557 5.025 1.943 1.165 4.196 1.748 6.759 1.748 2.563 0 4.815-.583 6.758-1.748 1.943-1.165 3.462-2.84 4.558-5.025 1.095-2.185 1.643-4.734 1.643-7.647 0-2.913-.548-5.462-1.643-7.647-1.096-2.185-2.615-3.86-4.558-5.025-1.943-1.165-4.195-1.748-6.758-1.748z"/>
        <path fill="#3180FB" fill-rule="nonzero" d="M1.907 47.26L47.162 1.701a3.577 3.577 0 0 1 5.075 0 3.625 3.625 0 0 1 0 5.11L6.982 52.37a3.577 3.577 0 0 1-5.075 0 3.625 3.625 0 0 1 0-5.11z"/>
    </g>
</svg>
