<?xml version="1.0" encoding="utf-8"?>
<svg width="151px" height="91px" viewBox="0 0 151 91" version="1.1" xmlns:xlink="http://www.w3.org/1999/xlink" xmlns="http://www.w3.org/2000/svg">
  <desc>Created with Lunacy</desc>
  <g id="g5156" transform="matrix(1 8.742278E-08 8.742278E-08 -1 0.0003814697 90.56248)">
    <g id="g6284">
      <g id="g5508">
        <path d="M75.0368 90.5625L75.0368 90.5625L150.068 14.5054L89.7346 14.5054C86.7928 14.5054 84.9249 14.2241 83.1712 13.1966C81.1433 12.0888 80.1951 10.6078 79.0697 8.22565L75.0368 0C75.0368 0 70.9982 8.22565 71.004 8.22565C69.8615 10.6078 68.919 12.0888 66.8968 13.1966C65.126 14.2241 63.2809 14.5054 60.3277 14.5054L0 14.5054L75.0368 90.5625Z" id="path5510" fill="#FFFFFF" stroke="none" />
      </g>
      <g id="g5512" transform="translate(36.16211 18.85742)">
        <path d="M36.4788 2.58881C32.96 1.41208 27.7561 0 21.0441 0C6.38636 0 0 7.51387 0 17.0885C0 28.0866 8.69984 34.682 21.364 34.682C27.996 34.682 32.0403 33.5283 36.3474 31.7431L36.3474 23.9422L35.2221 23.9422C32.1146 26.3359 28.5387 28.4081 22.6036 28.4081C15.1148 28.4081 10.4021 24.235 10.4021 17.519C10.4021 11.5836 13.3439 6.08457 22.9121 6.40028C23.8546 6.4462 25.454 6.64711 26.5051 6.95707L26.5051 13.1105L18.6564 13.1105L18.6564 19.373L36.4788 19.373L36.4788 2.58881Z" transform="translate(0.2094833 0.9420455)" id="path5514" fill="#0E4B89" stroke="none" />
      </g>
      <g id="g5516" transform="translate(77.56445 19.56641)">
        <path d="M27.4419 31.3011C24.7 32.8452 21.1584 33.2814 17.1312 33.2814L0 33.2814L0 0L9.98511 0L9.98511 10.8489L16.897 10.8489C20.7699 10.8489 24.4315 11.3426 27.3677 13.0072C30.8407 14.9646 32.6744 18.0413 32.6744 22.7712C32.6744 26.8927 30.915 29.3265 27.4419 31.3011M22.4094 22.1972C22.4094 19.7806 21.0898 18.5694 19.7303 17.938C18.4565 17.3582 16.5657 17.1286 14.892 17.1286L9.98511 17.1286L9.98511 26.9845L14.892 26.9845C16.5657 26.9845 18.4565 26.9156 19.7303 26.3301C21.0898 25.7044 22.4094 24.631 22.4094 22.1972" transform="translate(0.02032111 0.9305652)" id="path5518" fill="#0E4B89" stroke="none" />
      </g>
    </g>
  </g>
</svg>