<?xml version="1.0" encoding="utf-8"?>
<svg width="89px" height="46px" viewBox="0 0 89 46" version="1.1" xmlns:xlink="http://www.w3.org/1999/xlink" xmlns="http://www.w3.org/2000/svg">
  <desc>Created with Lunacy</desc>
  <g id="hcp" fill="#FFFFFF">
    <path d="M3.63 42.8825L3.63 2.0175L10.4225 2.0175L10.4225 17.72Q12.0725 16.1525 14.0525 15.19Q16.0325 14.2275 18.7 14.2275Q21.01 14.2275 22.7975 15.0112Q24.585 15.795 25.7813 17.2112Q26.9775 18.6275 27.5963 20.5937Q28.215 22.56 28.215 24.925L28.215 42.8825L21.4225 42.8825L21.4225 24.925Q21.4225 22.34 20.2263 20.9237Q19.03 19.5075 16.6375 19.5075Q14.8775 19.5075 13.3375 20.305Q11.7975 21.1025 10.4225 22.4775L10.4225 42.8825L3.63 42.8825ZM61.1325 14.6675L61.1325 52.095L67.925 52.095L67.925 40.545Q69.245 41.8375 70.9088 42.5662Q72.5725 43.295 74.965 43.295Q77.7425 43.295 79.9837 42.1813Q82.225 41.0675 83.8063 39.0875Q85.3875 37.1075 86.24 34.4125Q87.0925 31.7175 87.0925 28.555Q87.0925 25.09 86.3363 22.4087Q85.58 19.7275 84.1913 17.8987Q82.8025 16.07 80.8913 15.1075Q78.98 14.145 76.67 14.145Q73.7 14.145 71.4863 15.355Q69.2725 16.565 67.5675 18.5175L67.0175 15.905Q66.88 15.2725 66.4125 14.97Q65.945 14.6675 65.285 14.6675L61.1325 14.6675ZM54.725 20.635Q54.4225 21.02 54.1338 21.24Q53.845 21.46 53.295 21.46Q52.7725 21.46 52.2775 21.1437Q51.7825 20.8275 51.095 20.4287Q50.4075 20.03 49.4588 19.7137Q48.51 19.3975 47.1075 19.3975Q45.32 19.3975 43.9725 20.0437Q42.625 20.69 41.7313 21.9Q40.8375 23.11 40.3975 24.8287Q39.9575 26.5475 39.9575 28.72Q39.9575 30.975 40.4388 32.735Q40.92 34.495 41.8275 35.6912Q42.735 36.8875 44.0275 37.5062Q45.32 38.125 46.9425 38.125Q48.565 38.125 49.5687 37.7262Q50.5725 37.3275 51.26 36.8462Q51.9475 36.365 52.4563 35.9662Q52.965 35.5675 53.5975 35.5675Q54.4225 35.5675 54.835 36.2L56.7875 38.675Q55.66 39.995 54.34 40.8887Q53.02 41.7825 51.6038 42.3187Q50.1875 42.855 48.675 43.075Q47.1625 43.295 45.6775 43.295Q43.065 43.295 40.755 42.3187Q38.445 41.3425 36.7262 39.4725Q35.0075 37.6025 34.0037 34.8937Q33 32.185 33 28.72Q33 25.6125 33.8937 22.9587Q34.7875 20.305 36.52 18.3662Q38.2525 16.4275 40.81 15.3275Q43.3675 14.2275 46.695 14.2275Q49.8575 14.2275 52.2363 15.245Q54.615 16.2625 56.5125 18.16L54.725 20.635ZM70.7163 20.4012Q72.215 19.5075 74.3325 19.5075Q75.68 19.5075 76.7388 20.0025Q77.7975 20.4975 78.54 21.57Q79.2825 22.6425 79.6813 24.3612Q80.08 26.08 80.08 28.555Q80.08 31.0025 79.6125 32.8037Q79.145 34.605 78.2788 35.7875Q77.4125 36.97 76.1613 37.5475Q74.91 38.125 73.37 38.125Q71.8025 38.125 70.4413 37.5612Q69.08 36.9975 67.925 35.5675L67.925 22.9175Q69.2175 21.295 70.7163 20.4012Z" />
  </g>
</svg>