<?xml version="1.0" encoding="utf-8"?>
<svg width="206px" height="65px" viewBox="0 0 206 65" version="1.1" xmlns:xlink="http://www.w3.org/1999/xlink" xmlns="http://www.w3.org/2000/svg">
  <desc>Created with Lunacy</desc>
  <g id="IKARŪS">
    <g id="IKAR" fill="#374050">
      <path d="M77.6689 48.1452L80.5946 54.9927L87.3799 54.9927L68.4559 11.2309L49.5941 54.9927L56.1926 54.9927L59.2429 48.1452L77.6689 48.1452ZM2.42775 11.4177L8.466 11.4177L8.466 55.0549L2.42775 55.0549L2.42775 11.4177ZM123.32 26.0464C123.32 30.9642 120.892 35.5084 116.783 38.2474L124.938 54.8682L118.215 54.9304L118.153 54.8059L110.807 40.5507C110.247 40.6129 109.687 40.6752 109.064 40.6752L108.94 40.7374L102.404 40.7374L102.404 54.9927L96.5522 54.9927L96.6144 11.4177L109.064 11.4177C116.97 11.6667 123.32 18.2029 123.32 26.0464ZM37.6206 11.4799L44.5926 11.4799L30.2128 37.0024L44.3436 54.9927L37.2471 54.9927L26.9758 43.0407L19.9416 54.9927L14.2768 54.9927L14.2768 11.4799L19.9416 11.4799L19.9416 43.7254L37.6206 11.4799ZM102.404 34.8237L108.691 34.8237C113.484 34.8237 117.468 30.9019 117.468 26.0464C117.468 21.2532 113.484 17.3314 108.691 17.3314L102.404 17.3314L102.404 34.8237ZM61.8574 42.4804L68.4559 27.2914L75.0544 42.4804L61.8574 42.4804Z" />
    </g>
    <g id="Ū" fill="#374050">
      <path d="M134.26 10.0073L140.643 10.0073L140.643 38.3967Q140.643 45.1749 143.151 48.2601Q145.658 51.3452 151.13 51.3452Q156.479 51.3452 158.713 48.4424Q160.947 45.5397 160.947 38.6095L160.947 10.0073L166.54 10.0073L166.54 38.5183Q166.54 44.415 165.385 47.5762Q164.23 50.7373 161.221 53.1385Q157.452 56.1173 150.704 56.1173Q142.284 56.1173 138.272 51.7708Q134.26 47.4242 134.26 38.3359L134.26 10.0073ZM141.038 6.20789L141.038 1.70935L160.552 1.70935L160.552 6.20789L141.038 6.20789Z" />
    </g>
    <g id="S" fill="#374050">
      <path d="M189.651 54.8682C196.872 54.6814 202.786 49.3902 202.786 42.1069C202.786 34.7614 197.183 30.5284 189.776 29.5324C189.34 29.4702 188.282 29.4079 186.725 29.2212C182.99 28.7232 180.687 26.9179 180.687 23.6187C180.687 20.1949 183.426 17.2069 186.725 17.2069L187.659 17.2069C191.332 17.3937 193.635 18.8877 196.063 21.5644L198.864 16.3977C196.561 13.4719 191.954 11.6044 187.659 11.6044L186.725 11.6044C180.314 11.6044 175.022 17.0824 175.022 23.6187C175.022 30.1549 180.563 33.7654 186.725 34.9482C187.908 35.1349 188.717 35.1349 189.651 35.3839C194.133 36.0687 197.495 37.8117 197.495 42.1069C197.495 46.4022 193.946 49.5769 189.651 49.5769L188.033 49.5769C183.053 49.2657 179.318 47.0869 177.388 44.2857L174.898 48.5187L174.898 48.6432C177.575 52.3159 182.555 54.8682 187.97 54.8682L189.651 54.8682Z" />
    </g>
  </g>
</svg>