<?xml version="1.0" encoding="utf-8"?>
<svg width="206px" height="88px" viewBox="0 0 206 88" version="1.1" xmlns:xlink="http://www.w3.org/1999/xlink" xmlns="http://www.w3.org/2000/svg">
  <desc>Created with Lunacy</desc>
  <g id="IKARŪS">
    <g id="IKAR" fill="#FFFFFF">
      <path d="M77.6689 59.6452L80.5946 66.4927L87.3799 66.4927L68.4559 22.7309L49.5941 66.4927L56.1926 66.4927L59.2429 59.6452L77.6689 59.6452ZM2.42775 22.9177L8.466 22.9177L8.466 66.5549L2.42775 66.5549L2.42775 22.9177ZM123.32 37.5464C123.32 42.4642 120.892 47.0084 116.783 49.7474L124.938 66.3682L118.215 66.4304L118.153 66.3059L110.807 52.0507C110.247 52.1129 109.687 52.1752 109.064 52.1752L108.94 52.2374L102.404 52.2374L102.404 66.4927L96.5522 66.4927L96.6144 22.9177L109.064 22.9177C116.97 23.1667 123.32 29.7029 123.32 37.5464ZM37.6206 22.9799L44.5926 22.9799L30.2128 48.5024L44.3436 66.4927L37.2471 66.4927L26.9758 54.5407L19.9416 66.4927L14.2768 66.4927L14.2768 22.9799L19.9416 22.9799L19.9416 55.2254L37.6206 22.9799ZM102.404 46.3237L108.691 46.3237C113.484 46.3237 117.468 42.4019 117.468 37.5464C117.468 32.7532 113.484 28.8314 108.691 28.8314L102.404 28.8314L102.404 46.3237ZM61.8574 53.9804L68.4559 38.7914L75.0544 53.9804L61.8574 53.9804Z" />
    </g>
    <g id="Ū" fill="#FFFFFF">
      <path d="M134.26 21.5073L140.643 21.5073L140.643 49.8967Q140.643 56.6749 143.151 59.7601Q145.658 62.8452 151.13 62.8452Q156.479 62.8452 158.713 59.9424Q160.947 57.0397 160.947 50.1095L160.947 21.5073L166.54 21.5073L166.54 50.0183Q166.54 55.915 165.385 59.0762Q164.23 62.2373 161.221 64.6385Q157.452 67.6173 150.704 67.6173Q142.284 67.6173 138.272 63.2708Q134.26 58.9242 134.26 49.8359L134.26 21.5073ZM141.038 17.7079L141.038 13.2094L160.552 13.2094L160.552 17.7079L141.038 17.7079Z" />
    </g>
    <g id="S" fill="#FFFFFF">
      <path d="M189.651 66.3682C196.872 66.1814 202.786 60.8902 202.786 53.6069C202.786 46.2614 197.183 42.0284 189.776 41.0324C189.34 40.9702 188.282 40.9079 186.725 40.7212C182.99 40.2232 180.687 38.4179 180.687 35.1187C180.687 31.6949 183.426 28.7069 186.725 28.7069L187.659 28.7069C191.332 28.8937 193.635 30.3877 196.063 33.0644L198.864 27.8977C196.561 24.9719 191.954 23.1044 187.659 23.1044L186.725 23.1044C180.314 23.1044 175.022 28.5824 175.022 35.1187C175.022 41.6549 180.563 45.2654 186.725 46.4482C187.908 46.6349 188.717 46.6349 189.651 46.8839C194.133 47.5687 197.495 49.3117 197.495 53.6069C197.495 57.9022 193.946 61.0769 189.651 61.0769L188.033 61.0769C183.053 60.7657 179.318 58.5869 177.388 55.7857L174.898 60.0187L174.898 60.1432C177.575 63.8159 182.555 66.3682 187.97 66.3682L189.651 66.3682Z" />
    </g>
  </g>
</svg>