<?xml version="1.0" encoding="utf-8"?>
<svg width="231px" height="55px" viewBox="0 0 231 55" version="1.1" xmlns:xlink="http://www.w3.org/1999/xlink" xmlns="http://www.w3.org/2000/svg">
  <desc>Created with Lunacy</desc>
  <g id="iuzeit_logo">
    <path d="M0 10.1079L0 0L9.58447 0L9.58447 10.1079L0 10.1079ZM0 46.3274L0 14.1323L9.58447 14.1323L9.58447 46.3274L0 46.3274Z" transform="translate(57.73649 0.1743902)" id="Shape" fill="#FFFFFF" stroke="none" />
    <path d="M9.57772 0L9.57772 21.2756C9.57772 22.7311 10.2532 23.5829 11.908 23.5829C13.5628 23.5829 16.8319 22.3957 18.8988 21.2756L18.8988 0L28.4765 0L28.4765 32.1951L21.3574 32.1951L20.3577 29.7537C16.3066 31.6503 11.9064 32.7005 7.42982 32.839C1.90474 32.839 0 28.7409 0 22.5299L0 0L9.57772 0Z" transform="translate(75.64912 14.31341)" id="Path" fill="#FFFFFF" stroke="none" />
    <path d="M0.087807 0L24.5725 0L24.5725 7.26402L11.1312 24.911L24.9912 24.911L24.9912 32.175L0 32.175L0 24.911L13.3737 7.26402L0.0675439 7.26402L0.087807 0Z" transform="translate(111.4474 14.31341)" id="Path" fill="#FFFFFF" stroke="none" />
    <path d="M9.56421 20.0884L9.56421 21.014C9.56421 24.7098 11.0299 25.7091 15.4203 25.7091C18.7498 25.6747 22.0605 25.208 25.2682 24.3207L26.6663 31.4506C22.7517 32.7817 18.646 33.4748 14.5084 33.503C3.9986 33.503 0 28.3451 0 20.4171L0 12.8848C0 5.94939 3.12728 0 13.914 0C24.7008 0 27.0175 6.34512 27.0175 13.3476L27.0175 20.0549L9.56421 20.0884ZM17.9464 11.5634C17.9464 9.32317 17.271 7.47195 13.9613 7.47195C10.6517 7.47195 9.56421 9.32317 9.56421 11.5634L9.56421 12.9518L17.9464 12.9518L17.9464 11.5634Z" transform="translate(141.7746 13.64939)" id="Shape" fill="#FFFFFF" stroke="none" />
    <path d="M0 10.1079L0 0L9.58447 0L9.58447 10.1079L0 10.1079ZM0 46.3274L0 14.1323L9.58447 14.1323L9.58447 46.3274L0 46.3274Z" transform="translate(175.7761 0.1743902)" id="Shape" fill="#FFFFFF" stroke="none" />
    <path d="M14.1707 41.914C7.98368 41.914 4.39035 39.6 4.39035 33.6573L4.39035 16.7415L0 16.7415L0 9.075L4.39035 9.075L4.39035 1.34146L13.9748 0L13.9748 9.075L21.3574 9.075L20.8305 16.7415L13.9681 16.7415L13.9681 32.3226C13.9681 33.664 14.7651 34.1134 15.9606 34.1134C17.3142 34.1188 18.6605 33.9174 19.9524 33.5165L21.0872 40.7201C18.8583 41.473 16.5247 41.8758 14.1707 41.914Z" transform="translate(190.6898 5.238415)" id="Path" fill="#FFFFFF" stroke="none" />
    <path d="M1.72389 20.3232C3.69617 22.2482 5.16187 22.4159 6.39792 21.1683L21.933 5.49329L16.2931 0L0.805289 15.6884C-0.457782 16.936 -0.295676 18.3512 1.72389 20.3232Z" transform="translate(16.08068 10.73171)" id="Path" fill="#FFFFFF" stroke="none" />
    <path d="M24.7075 0L9.59123 15.286L9.64526 15.2122L8.59158 16.2787C6.56526 18.2909 3.70816 19.4311 0 17.9085L3.55956 21.3762L4.34982 22.1744L8.88877 26.6079L30.0165 5.19146L24.7075 0Z" transform="translate(18.61509 21.42317)" id="Path" fill="#FFFFFF" stroke="none" />
    <path d="M10.3612 21.4701L11.3541 20.464L26.4704 5.19817L21.1412 0L0 21.3695L4.53219 25.7963L5.32246 26.561L8.87526 30.0287C7.26772 26.3732 8.36868 23.489 10.3612 21.4701Z" transform="translate(0.5808772 0.3621951)" id="Path" fill="#FFFFFF" stroke="none" />
    <path d="M5.32921 0L5.32921 1.05976L3.30289 1.05976L3.30289 6.38537L2.02632 6.38537L2.02632 1.05976L0 1.05976L0 0L5.32921 0ZM12.2795 6.38537L12.0431 2.62927C12.0431 2.13963 12.0431 1.52927 11.9958 0.845122L11.9282 0.845122C11.7594 1.40854 11.5703 2.18659 11.3811 2.75L10.2261 6.29146L8.87526 6.29146L7.76754 2.6561C7.65272 2.15976 7.4636 1.40854 7.32175 0.845122L7.24746 0.845122C7.24746 1.43537 7.24746 2.04573 7.20018 2.62927L6.96377 6.38537L5.74123 6.38537L6.21404 0L8.13228 0L9.24 3.12561C9.38184 3.61524 9.50342 4.08476 9.66553 4.74207L9.66553 4.74207C9.82763 4.15854 9.96947 3.61524 10.1113 3.14573L11.2258 0L13.0697 0L13.5628 6.38537L12.2795 6.38537Z" transform="translate(217.1535 48.22561)" id="Shape" fill="#FFFFFF" stroke="none" />
  </g>
</svg>