<?xml version="1.0" encoding="UTF-8"?>
<svg width="231px" height="55px" viewBox="0 0 231 55" version="1.1" xmlns="http://www.w3.org/2000/svg" xmlns:xlink="http://www.w3.org/1999/xlink">
    <!-- Generator: Sketch 51.3 (57544) - http://www.bohemiancoding.com/sketch -->
    <title>LOGO</title>
    <desc>Created with Sketch.</desc>
    <defs></defs>
    <g id="Page-1" stroke="none" stroke-width="1" fill="none" fill-rule="evenodd">
        <g id="iuzeit" transform="translate(-79.000000, -375.000000)" fill-rule="nonzero">
            <g id="Content" transform="translate(79.000000, 323.000000)">
                <g id="LOGO" transform="translate(0.000000, 52.000000)">
                    <g id="iuzeit_logo">
                        <path d="M57.7364912,10.2823171 L57.7364912,0.174390244 L67.3209649,0.174390244 L67.3209649,10.2823171 L57.7364912,10.2823171 Z M57.7364912,46.5018293 L57.7364912,14.3067073 L67.3209649,14.3067073 L67.3209649,46.5018293 L57.7364912,46.5018293 Z" id="Shape" fill="#464C5E"></path>
                        <path d="M85.2268421,14.3134146 L85.2268421,35.5890244 C85.2268421,37.0445122 85.9022807,37.8963415 87.5571053,37.8963415 C89.2119298,37.8963415 92.4810526,36.7091463 94.5478947,35.5890244 L94.5478947,14.3134146 L104.125614,14.3134146 L104.125614,46.5085366 L97.0064912,46.5085366 L96.0068421,44.0670732 C91.9557489,45.9637174 87.5555319,47.0138713 83.0789474,47.152439 C77.5538596,47.152439 75.6491228,43.0542683 75.6491228,36.8432927 L75.6491228,14.3134146 L85.2268421,14.3134146 Z" id="Path" fill="#64C6BF"></path>
                        <polygon id="Path" fill="#64C6BF" points="111.535175 14.3134146 136.019825 14.3134146 136.019825 21.577439 122.578596 39.2243902 136.438596 39.2243902 136.438596 46.4884146 111.447368 46.4884146 111.447368 39.2243902 124.821053 21.577439 111.514912 21.577439"></polygon>
                        <path d="M151.338772,33.7378049 L151.338772,34.6634146 C151.338772,38.3591463 152.804474,39.3585366 157.194825,39.3585366 C160.524378,39.3241152 163.835094,38.8573508 167.042719,37.970122 L168.440877,45.1 C164.526304,46.431062 160.420584,47.1241705 156.282982,47.152439 C145.773158,47.152439 141.774561,41.9945122 141.774561,34.0664634 L141.774561,26.5341463 C141.774561,19.5987805 144.901842,13.6493902 155.688596,13.6493902 C166.475351,13.6493902 168.792105,19.9945122 168.792105,26.9969512 L168.792105,33.7042683 L151.338772,33.7378049 Z M159.720965,25.2128049 C159.720965,22.972561 159.045526,21.1213415 155.735877,21.1213415 C152.426228,21.1213415 151.338772,22.972561 151.338772,25.2128049 L151.338772,26.6012195 L159.720965,26.6012195 L159.720965,25.2128049 Z" id="Shape" fill="#64C6BF"></path>
                        <path d="M175.77614,10.2823171 L175.77614,0.174390244 L185.360614,0.174390244 L185.360614,10.2823171 L175.77614,10.2823171 Z M175.77614,46.5018293 L175.77614,14.3067073 L185.360614,14.3067073 L185.360614,46.5018293 L175.77614,46.5018293 Z" id="Shape" fill="#464C5E"></path>
                        <path d="M204.860526,47.152439 C198.673509,47.152439 195.080175,44.8384146 195.080175,38.8957317 L195.080175,21.979878 L190.689825,21.979878 L190.689825,14.3134146 L195.080175,14.3134146 L195.080175,6.57987805 L204.664649,5.23841463 L204.664649,14.3134146 L212.047193,14.3134146 L211.520351,21.979878 L204.657895,21.979878 L204.657895,37.5609756 C204.657895,38.902439 205.454912,39.3518293 206.650439,39.3518293 C208.003998,39.3571893 209.350341,39.1558534 210.642281,38.754878 L211.777018,45.9585366 C209.548108,46.7113975 207.214531,47.1142119 204.860526,47.152439 Z" id="Path" fill="#464C5E"></path>
                        <path d="M17.8045614,31.054878 C19.7768421,32.979878 21.2425439,33.147561 22.4785965,31.9 L38.0136842,16.225 L32.3737719,10.7317073 L16.8859649,26.420122 C15.6228947,27.6676829 15.785,29.0829268 17.8045614,31.054878 Z" id="Path" fill="#64C6BF"></path>
                        <path d="M43.3226316,21.4231707 L28.2063158,36.7091463 L28.2603509,36.6353659 L27.2066667,37.7018293 C25.1803509,39.7140244 22.3232456,40.8542683 18.6150877,39.3317073 L22.1746491,42.7993902 L22.9649123,43.597561 L27.5038596,48.0310976 L48.6315789,26.6146341 L43.3226316,21.4231707 Z" id="Path" fill="#464C5E"></path>
                        <path d="M10.9421053,21.8323171 L11.935,20.8262195 L27.0513158,5.56036585 L21.7221053,0.362195122 L0.580877193,21.7317073 L5.11307018,26.1585366 L5.90333333,26.9231707 L9.45614035,30.3908537 C7.84859649,26.7353659 8.9495614,23.8512195 10.9421053,21.8323171 Z" id="Path" fill="#464C5E"></path>
                        <path d="M222.482719,48.2256098 L222.482719,49.2853659 L220.456404,49.2853659 L220.456404,54.6109756 L219.179825,54.6109756 L219.179825,49.2853659 L217.153509,49.2853659 L217.153509,48.2256098 L222.482719,48.2256098 Z M229.432982,54.6109756 L229.196579,50.854878 C229.196579,50.3652439 229.196579,49.754878 229.149298,49.0707317 L229.081754,49.0707317 C228.912895,49.6341463 228.723772,50.4121951 228.534649,50.9756098 L227.379649,54.5170732 L226.028772,54.5170732 L224.921053,50.8817073 C224.806228,50.3853659 224.617105,49.6341463 224.475263,49.0707317 L224.400965,49.0707317 C224.400965,49.6609756 224.400965,50.2713415 224.353684,50.854878 L224.117281,54.6109756 L222.894737,54.6109756 L223.367544,48.2256098 L225.285789,48.2256098 L226.393509,51.3512195 C226.535351,51.8408537 226.65693,52.3103659 226.819035,52.9676829 C226.98114,52.3841463 227.122982,51.8408537 227.264825,51.3713415 L228.379298,48.2256098 L230.223246,48.2256098 L230.716316,54.6109756 L229.432982,54.6109756 Z" id="Shape" fill="#464C5E"></path>
                    </g>
                </g>
            </g>
        </g>
    </g>
</svg>