<?xml version="1.0" encoding="UTF-8"?>
<svg width="34px" height="110px" viewBox="0 0 34 110" version="1.1" xmlns="http://www.w3.org/2000/svg" xmlns:xlink="http://www.w3.org/1999/xlink">
    <!-- Generator: Sketch 51.3 (57544) - http://www.bohemiancoding.com/sketch -->
    <title>pencil</title>
    <desc>Created with Sketch.</desc>
    <defs></defs>
    <g id="Page-1" stroke="none" stroke-width="1" fill="none" fill-rule="evenodd">
        <g id="About" transform="translate(-1213.000000, -2104.000000)" fill-rule="nonzero">
            <g id="WhatWeValue" transform="translate(0.000000, 1699.000000)">
                <g id="5" transform="translate(1169.000000, 405.000000)">
                    <g id="pencil" transform="translate(44.000000, 0.000000)">
                        <path d="M0.113333333,88.7408163 C0.113333333,89.2346939 0.272,89.7061224 0.566666667,90.0877551 L15.164,109.034694 C15.5946667,109.595918 16.252,109.910204 16.9546667,109.910204 C17.6573333,109.910204 18.3146667,109.595918 18.7453333,109.034694 L33.3426667,90.0877551 C33.6373333,89.7061224 33.796,89.2346939 33.796,88.7408163 L33.796,27.8816327 C33.796,26.6469388 32.7986667,25.6591837 31.552,25.6591837 C30.3053333,25.6591837 29.308,26.6469388 29.308,27.8816327 L29.308,88 L16.9546667,104.028571 L4.60133333,88 L4.60133333,27.9938776 C4.60133333,26.7591837 3.604,25.7714286 2.35733333,25.7714286 C1.11066667,25.7714286 0.113333333,26.7591837 0.113333333,27.9938776 L0.113333333,88.7408163 Z" id="Path" fill="#374050"></path>
                        <path d="M14.7106667,27.9938776 L14.7106667,83.8918367 C14.7106667,85.1265306 15.708,86.1142857 16.9546667,86.1142857 C18.2013333,86.1142857 19.1986667,85.1265306 19.1986667,83.8918367 L19.1986667,27.9938776 C19.1986667,26.7591837 18.2013333,25.7714286 16.9546667,25.7714286 C15.708,25.7714286 14.7106667,26.7591837 14.7106667,27.9938776 Z" id="Path" fill="#374050"></path>
                        <path d="M0.113333333,8.73265306 L0.113333333,18.677551 C0.113333333,19.9122449 1.11066667,20.9 2.35733333,20.9 L31.5293333,20.9 C32.776,20.9 33.7733333,19.9122449 33.7733333,18.677551 L33.7733333,8.73265306 C33.7733333,3.92857143 29.8293333,0 24.956,0 L8.93066667,0 C4.08,0 0.113333333,3.90612245 0.113333333,8.73265306 Z M29.308,8.73265306 L29.308,16.455102 L4.60133333,16.455102 L4.60133333,8.73265306 C4.60133333,6.3755102 6.55066667,4.44489796 8.93066667,4.44489796 L24.956,4.44489796 C27.3586667,4.44489796 29.308,6.35306122 29.308,8.73265306 Z" id="Shape" fill="#2EC986"></path>
                    </g>
                </g>
            </g>
        </g>
    </g>
</svg>