<?xml version="1.0" encoding="utf-8"?>
<svg width="128px" height="28px" viewBox="0 0 128 28" version="1.1" xmlns:xlink="http://www.w3.org/1999/xlink" xmlns="http://www.w3.org/2000/svg">
  <desc>Created with Lunacy</desc>
  <g id="Logo">
    <path d="M4.37144 14.17L4.37144 22.3474L0 22.3474L0 0.312115L7.9678 0.312115C10.5514 0.312115 12.4994 0.936338 13.8119 2.1848C15.1244 3.43327 15.7806 5.12907 15.7806 7.27227C15.7806 9.37385 15.1037 11.0489 13.7499 12.2973C12.3961 13.5458 10.4687 14.17 7.9678 14.17L4.37144 14.17ZM7.50275 10.6431C10.0657 10.6431 11.3471 9.51951 11.3471 7.27227C11.3471 6.16946 11.0474 5.32676 10.448 4.74414C9.84865 4.16153 8.8669 3.87022 7.50275 3.87022L4.37144 3.87022L4.37144 10.6431L7.50275 10.6431ZM27.6398 0.312115L27.6398 22.3474L23.2684 22.3474L23.2684 0.312115L27.6398 0.312115ZM49.11 22.3474L44.1805 14.8254L39.8091 22.3474L34.8176 22.3474L41.7003 11.0801L34.6316 0.312115L39.8091 0.312115L44.6456 7.67802L48.955 0.312115L53.9465 0.312115L47.0948 11.3922L54.2876 22.3474L49.11 22.3474ZM71.5413 0C73.5875 0 75.4426 0.478571 77.1064 1.43573C78.7702 2.39288 80.0827 3.72976 81.0438 5.4464C82.0049 7.16304 82.4854 9.10334 82.4854 11.2673C82.4854 13.4313 82.0049 15.3768 81.0438 17.1039C80.0827 18.8309 78.7702 20.173 77.1064 21.1302C75.4426 22.0873 73.5875 22.5659 71.5413 22.5659C69.4951 22.5659 67.6401 22.0873 65.9763 21.1302C64.3124 20.173 63 18.8309 62.0389 17.1039C61.0778 15.3768 60.5972 13.4313 60.5972 11.2673C60.5972 9.10334 61.0778 7.16304 62.0389 5.4464C63 3.72976 64.3124 2.39288 65.9763 1.43573C67.6401 0.478571 69.4951 0 71.5413 0ZM71.5413 4.05749C70.2599 4.05749 69.1334 4.34879 68.162 4.93141C67.1906 5.51403 66.431 6.35153 65.8833 7.44394C65.3355 8.53634 65.0617 9.8108 65.0617 11.2673C65.0617 12.7239 65.3355 13.9983 65.8833 15.0907C66.431 16.1832 67.1906 17.0207 68.162 17.6033C69.1334 18.1859 70.2599 18.4772 71.5413 18.4772C72.8228 18.4772 73.9492 18.1859 74.9207 17.6033C75.8921 17.0207 76.6517 16.1832 77.1994 15.0907C77.7471 13.9983 78.021 12.7239 78.021 11.2673C78.021 9.8108 77.7471 8.53634 77.1994 7.44394C76.6517 6.35153 75.8921 5.51403 74.9207 4.93141C73.9492 4.34879 72.8228 4.05749 71.5413 4.05749ZM94.6237 0.312115L94.6237 13.2337C94.6237 14.9607 95.0009 16.256 95.7553 17.1195C96.5097 17.983 97.6 18.4148 99.0261 18.4148C100.432 18.4148 101.512 17.983 102.266 17.1195C103.02 16.256 103.398 14.9607 103.398 13.2337L103.398 0.312115L107.738 0.312115L107.738 13.2337C107.738 15.2728 107.361 16.9946 106.606 18.3992C105.852 19.8037 104.808 20.8493 103.475 21.5359C102.142 22.2226 100.628 22.5659 98.9331 22.5659C96.3082 22.5659 94.2103 21.7752 92.6395 20.1938C91.0687 18.6124 90.2833 16.2924 90.2833 13.2337L90.2833 0.312115L94.6237 0.312115ZM120.589 18.9766L127.937 18.9766L127.937 22.3474L116.218 22.3474L116.218 0.312115L120.589 0.312115L120.589 18.9766Z" transform="translate(0 2.636719)" id="PIXOUL" fill="#FFFFFF" stroke="none" />
    <path d="M1.87226 0.113356L33.8602 0.00622976Q33.9556 0.00591046 34.0494 0.0142658Q34.1433 0.0226211 34.2348 0.039583Q34.3264 0.0565448 34.415 0.0819748Q34.5035 0.107405 34.5883 0.141096Q34.6732 0.174786 34.7536 0.216463Q34.834 0.25814 34.9093 0.307462Q34.9846 0.356785 35.0542 0.413352Q35.1238 0.469918 35.1872 0.533267Q35.2505 0.596616 35.3071 0.666231Q35.3636 0.735845 35.413 0.811158Q35.4623 0.88647 35.504 0.966867Q35.5456 1.04726 35.5793 1.13209Q35.613 1.21691 35.6385 1.30547Q35.6639 1.39403 35.6808 1.48561Q35.6978 1.57718 35.7062 1.67102Q35.7145 1.76486 35.7142 1.8602L35.7146 1.74064Q35.7143 1.83598 35.7053 1.92988Q35.6963 2.02378 35.6787 2.11547Q35.6612 2.20716 35.6351 2.29589Q35.6091 2.38463 35.5749 2.46968Q35.5406 2.55473 35.4984 2.63541Q35.4562 2.71608 35.4063 2.79173Q35.3565 2.86737 35.2995 2.93737Q35.2424 3.00736 35.1787 3.07114Q35.1149 3.13491 35.0449 3.19195Q34.9749 3.24898 34.8993 3.29881Q34.8236 3.34864 34.7429 3.39085Q34.6623 3.43307 34.5772 3.46733Q34.4922 3.50159 34.4034 3.52761Q34.3147 3.55364 34.223 3.57121Q34.1313 3.58879 34.0374 3.59777Q33.9435 3.60676 33.8482 3.60707L1.8602 3.7142Q1.76486 3.71452 1.67102 3.70617Q1.57718 3.69781 1.48561 3.68085Q1.39403 3.66389 1.30547 3.63846Q1.21691 3.61303 1.13209 3.57933Q1.04726 3.54564 0.966867 3.50397Q0.88647 3.46229 0.811158 3.41297Q0.735845 3.36365 0.666231 3.30708Q0.596616 3.25051 0.533267 3.18716Q0.469918 3.12381 0.413352 3.0542Q0.356785 2.98459 0.307462 2.90927Q0.25814 2.83396 0.216463 2.75356Q0.174786 2.67317 0.141096 2.58834Q0.107405 2.50352 0.0819748 2.41496Q0.0565448 2.3264 0.039583 2.23482Q0.0226211 2.14325 0.0142658 2.04941Q0.00591045 1.95557 0.00622975 1.86023L0.00582934 1.97979Q0.00614863 1.88445 0.0151327 1.79055Q0.0241168 1.69665 0.0416924 1.60496Q0.059268 1.51327 0.0852917 1.42454Q0.111315 1.33581 0.145575 1.25075Q0.179835 1.1657 0.222051 1.08502Q0.264267 1.00435 0.314095 0.928702Q0.363924 0.853058 0.420958 0.783063Q0.477992 0.713068 0.541766 0.649293Q0.605541 0.585519 0.675536 0.528484Q0.745531 0.47145 0.821176 0.421622Q0.89682 0.371794 0.977497 0.329578Q1.05817 0.287362 1.14323 0.253102Q1.22828 0.218842 1.31701 0.192819Q1.40574 0.166795 1.49743 0.149219Q1.58912 0.131644 1.68302 0.12266Q1.77692 0.113676 1.87226 0.113356Z" transform="matrix(0.7071068 -0.7071068 0.7071068 0.7071068 57.5918 25.25977)" id="Rectangle" fill="#3180FB" stroke="none" />
  </g>
</svg>