<?xml version="1.0" encoding="UTF-8"?>
<svg width="1075px" height="281px" viewBox="0 0 1075 281" version="1.1" xmlns="http://www.w3.org/2000/svg" xmlns:xlink="http://www.w3.org/1999/xlink">
    <!-- Generator: Sketch 51.3 (57544) - http://www.bohemiancoding.com/sketch -->
    <title>Group</title>
    <desc>Created with Sketch.</desc>
    <defs></defs>
    <g id="Page-1" stroke="none" stroke-width="1" fill="none" fill-rule="evenodd">
        <g id="Services" transform="translate(-133.000000, -189.000000)" fill="#E6F5FE">
            <g id="TopPage">
                <g id="Content" transform="translate(233.000000, 190.000000)">
                    <g id="Group">
                        <path d="M178.181818,152.969609 L408.864456,129.103916 L466.535115,123.137493 L570.767593,112.353932 C581.244446,111.27003 590.808305,118.383749 592.78352,128.729657 C594.553917,138.002751 588.471779,146.955268 579.198685,148.725665 C578.719765,148.817099 578.237151,148.888001 577.752168,148.938176 L520.081509,154.904599 L418.719206,165.391221 C418.234224,165.441396 417.75161,165.512298 417.272689,165.603732 C407.999595,167.374129 401.917457,176.326646 403.687854,185.59974 C405.66307,195.945648 415.226929,203.059367 425.703781,201.975465 L447.549603,199.715366 L167.434972,228.695136 L189.280794,226.435037 C189.765776,226.384862 190.24839,226.31396 190.727311,226.222526 C200.000405,224.452129 206.082543,215.499611 204.312146,206.226518 C202.33693,195.88061 192.773071,188.76689 182.296219,189.850792 L80.9339157,200.337414 L23.2632564,206.303837 C12.7864037,207.387739 3.2225446,200.27402 1.24732892,189.928112 C-0.523067688,180.655018 5.55907005,171.702501 14.8321638,169.932104 C15.3110847,169.840669 15.7936985,169.769768 16.278681,169.719593 L466.535115,123.137493 L362.302637,133.921054 C351.825784,135.004956 342.261925,127.891236 340.28671,117.545328 C338.516313,108.272235 344.598451,99.3197169 353.871544,97.5493203 C354.350465,97.4578859 354.833079,97.386984 355.318062,97.3368093 L217.759062,111.568226 C228.235914,110.484325 237.799773,117.598044 239.774989,127.943952 C241.545386,137.217045 235.463248,146.169563 226.190154,147.93996 C225.711233,148.031394 225.228619,148.102296 224.743637,148.152471 L178.181818,152.969609 Z M109.764313,234.661559 L505.220263,193.748943 L505.220263,193.748943 L584.736744,185.52242 C595.213596,184.438519 604.777455,191.552238 606.752671,201.898146 C608.523068,211.171239 602.44093,220.123757 593.167836,221.894154 C592.688915,221.985588 592.206302,222.05649 591.721319,222.106665 L37.2324071,279.472326 C26.7555544,280.556228 17.1916954,273.442509 15.2164797,263.096601 C13.4460831,253.823507 19.5282208,244.870989 28.8013145,243.100593 C29.2802355,243.009158 29.7628492,242.938256 30.2478318,242.888082 L109.764313,234.661559 L-134.525481,259.935005 C-145.002333,261.018907 -154.566192,253.905188 -156.541408,243.55928 C-158.311805,234.286186 -152.229667,225.333668 -142.956573,223.563272 C-142.477652,223.471837 -141.995039,223.400935 -141.510056,223.350761 L80.9339157,200.337414 Z M415.487036,91.1119183 L157.590087,117.793117 C147.113234,118.877019 137.549375,111.7633 135.574159,101.417392 C133.803763,92.1442984 139.8859,83.1917806 149.158994,81.421384 C149.637915,81.3299496 150.120529,81.2590478 150.605511,81.208873 L408.502461,54.5276739 C418.979314,53.443772 428.543173,60.5574913 430.518388,70.9033992 C432.288785,80.1764929 426.206647,89.1290107 416.933554,90.8994073 C416.454633,90.9908417 415.972019,91.0617436 415.487036,91.1119183 Z" id="Combined-Shape-Copy"></path>
                        <path d="M901.05066,115.24683 L750.256363,130.847529 C749.771381,130.897704 749.288767,130.968606 748.809846,131.06004 C739.536752,132.830437 733.454614,141.782955 735.225011,151.056048 C737.200227,161.401956 746.764086,168.515675 757.240938,167.431774 L833.887244,159.50219 L817.409913,161.206883 C827.886766,160.122981 837.450625,167.2367 839.425841,177.582608 C841.196237,186.855702 835.1141,195.808219 825.841006,197.578616 C825.362085,197.67005 824.879471,197.740952 824.394489,197.791127 L566.497539,224.472326 C556.020686,225.556228 546.456827,218.442509 544.481612,208.096601 C542.711215,198.823507 548.793353,189.870989 558.066446,188.100593 C558.545367,188.009158 559.027981,187.938256 559.512964,187.888082 L543.035632,189.592774 L619.681938,181.663191 C620.166921,181.613016 620.649535,181.542114 621.128456,181.45068 C630.401549,179.680283 636.483687,170.727765 634.71329,161.454672 C632.738075,151.108764 623.174216,143.995044 612.697363,145.078946 L461.903066,160.679645 L404.232407,166.646068 C393.755554,167.72997 384.191695,160.616251 382.21648,150.270343 C380.446083,140.997249 386.528221,132.044732 395.801315,130.274335 C396.280235,130.182901 396.762849,130.111999 397.247832,130.061824 L476.764313,121.835301 L225.489944,110.524503 C225.004961,110.574678 224.522348,110.64558 224.043427,110.737014 C214.770333,112.507411 208.688195,121.459928 210.458592,130.733022 C212.433808,141.07893 221.997667,148.192649 232.474519,147.108747 L476.764313,121.835301 L872.220263,80.9226852 L814.549603,86.8891084 L951.736744,72.6961627 C962.213596,71.6122608 971.777455,78.7259801 973.752671,89.071888 C975.523068,98.3449817 969.44093,107.297499 960.167836,109.067896 C959.688915,109.159331 959.206302,109.230232 958.721319,109.280407 L901.05066,115.24683 Z M887.081509,42.0783415 L785.719206,52.5649633 C785.234224,52.6151381 784.75161,52.6860399 784.272689,52.7774744 C774.999595,54.547871 768.917457,63.5003887 770.687854,72.7734825 C772.66307,83.1193903 782.226929,90.2331096 792.703781,89.1492077 L814.549603,86.8891084 L534.434972,115.868878 L556.280794,113.608779 C556.765776,113.558604 557.24839,113.487702 557.727311,113.396268 C567.000405,111.625871 573.082543,102.673354 571.312146,93.4002598 C569.33693,83.054352 559.773071,75.9406327 549.296219,77.0245345 L447.933916,87.5111564 L390.263256,93.4775796 C379.786404,94.5614815 370.222545,87.4477622 368.247329,77.1018543 C366.476932,67.8287606 372.55907,58.8762428 381.832164,57.1058462 C382.311085,57.0144118 382.793698,56.9435099 383.278681,56.8933352 L937.767593,-0.472326085 C948.244446,-1.55622798 957.808305,5.55749133 959.78352,15.9033992 C961.553917,25.1764929 955.471779,34.1290107 946.198685,35.8994073 C945.719765,35.9908417 945.237151,36.0617436 944.752168,36.1119183 L887.081509,42.0783415 Z" id="Combined-Shape"></path>
                    </g>
                </g>
            </g>
        </g>
    </g>
</svg>