<?xml version="1.0" encoding="utf-8"?>
<svg width="974px" height="280px" viewBox="0 0 974 280" version="1.1" xmlns:xlink="http://www.w3.org/1999/xlink" xmlns="http://www.w3.org/2000/svg">
  <desc>Created with Lunacy</desc>
  <g id="Group">
    <path d="M407.186 0.147808L150.04 26.7513Q149.071 26.8515 148.134 27.0372Q147.197 27.2228 146.299 27.4924Q145.401 27.762 144.55 28.1132Q143.699 28.4645 142.901 28.8947Q142.103 29.3248 141.365 29.8303Q140.627 30.3358 139.955 30.9125Q139.284 31.4892 138.683 32.1325Q138.083 32.7757 137.559 33.4802Q137.047 34.1676 136.613 34.9079Q136.178 35.6482 135.824 36.4357Q135.469 37.2232 135.198 38.0518Q134.926 38.8804 134.74 39.7436Q134.553 40.6068 134.453 41.498Q134.353 42.3891 134.34 43.3013Q134.327 44.2134 134.401 45.1395Q134.475 46.0656 134.637 46.9984Q134.598 46.8144 134.563 46.6295L134.704 47.3695Q134.669 47.1839 134.637 46.9984Q134.735 47.4686 134.854 47.9332Q134.973 48.3977 135.113 48.8556Q135.253 49.3134 135.413 49.7638Q135.573 50.2141 135.753 50.656Q135.933 51.0978 136.133 51.5304Q136.333 51.9629 136.552 52.3853Q136.771 52.8077 137.009 53.219Q137.246 53.6303 137.502 54.0298Q137.758 54.4293 138.032 54.8161Q138.306 55.203 138.597 55.5764Q138.889 55.9498 139.196 56.3091Q139.504 56.6684 139.828 57.0128Q140.152 57.3572 140.491 57.686Q140.831 58.0148 141.185 58.3274Q141.539 58.6401 141.907 58.9359Q142.275 59.2317 142.657 59.51Q143.038 59.7884 143.432 60.0488Q143.826 60.3091 144.232 60.551Q144.638 60.7929 145.055 61.0158Q145.471 61.2387 145.898 61.4422Q146.325 61.6457 146.761 61.8294Q147.197 62.013 147.642 62.1765Q148.087 62.34 148.539 62.4829Q148.991 62.6259 149.45 62.748Q149.908 62.8702 150.373 62.9713Q150.837 63.0724 151.307 63.1522Q151.776 63.2321 152.249 63.2905Q152.722 63.349 153.198 63.3859Q153.674 63.4228 154.152 63.4381Q154.63 63.4535 155.109 63.4472Q155.588 63.4409 156.067 63.4129Q156.546 63.385 157.025 63.3356L216.443 57.1884Q216.921 57.1389 217.4 57.111Q217.879 57.0831 218.358 57.0768Q218.837 57.0705 219.315 57.0858Q219.793 57.1011 220.269 57.138Q220.745 57.1749 221.218 57.2334Q221.691 57.2918 222.16 57.3717Q222.63 57.4515 223.094 57.5526Q223.559 57.6537 224.017 57.7758Q224.476 57.8979 224.928 58.0409Q225.38 58.1838 225.825 58.3473Q226.269 58.5107 226.706 58.6944Q227.142 58.878 227.569 59.0815Q227.995 59.2849 228.412 59.5078Q228.829 59.7307 229.235 59.9726Q229.641 60.2145 230.035 60.4748Q230.429 60.7352 230.81 61.0135Q231.191 61.2919 231.56 61.5876Q231.928 61.8834 232.282 62.196Q232.636 62.5086 232.975 62.8374Q233.315 63.1662 233.639 63.5106Q233.962 63.8549 234.27 64.2142Q234.578 64.5734 234.869 64.9468Q235.16 65.3202 235.434 65.707Q235.708 66.0938 235.964 66.4933Q236.22 66.8927 236.458 67.304Q236.696 67.7153 236.915 68.1377Q237.134 68.56 237.334 68.9925Q237.533 69.425 237.714 69.8669Q237.894 70.3087 238.054 70.759Q238.214 71.2093 238.354 71.6672Q238.494 72.125 238.613 72.5895Q238.732 73.054 238.83 73.5242Q238.992 74.4571 239.066 75.3833Q239.14 76.3095 239.127 77.2217Q239.115 78.134 239.014 79.0252Q238.914 79.9165 238.728 80.7797Q238.541 81.6431 238.27 82.4717Q237.998 83.3004 237.644 84.088Q237.289 84.8755 236.854 85.6159Q236.42 86.3563 235.909 87.0438Q235.385 87.7483 234.784 88.3915Q234.184 89.0347 233.512 89.6114Q232.84 90.1881 232.102 90.6936Q231.364 91.1991 230.566 91.6293Q229.768 92.0594 228.917 92.4107Q228.066 92.762 227.168 93.0315Q226.27 93.3011 225.333 93.4868Q224.396 93.6724 223.427 93.7726L131.052 103.329L15.7132 115.262L15.7115 115.262Q14.743 115.363 13.806 115.548Q12.8691 115.734 11.9713 116.003Q11.0736 116.273 10.2223 116.624Q9.37113 116.976 8.57338 117.406Q7.77563 117.836 7.03785 118.341Q6.30007 118.847 5.62828 119.423Q4.95649 120 4.35617 120.643Q3.75585 121.286 3.23189 121.991Q2.7206 122.678 2.28606 123.419Q1.85151 124.159 1.49708 124.946Q1.14264 125.734 0.871072 126.562Q0.599503 127.391 0.412907 128.254Q0.22631 129.117 0.126136 130.009Q0.0259625 130.9 0.0129886 131.812Q1.46927e-05 132.724 0.0743416 133.65Q0.148669 134.576 0.309719 135.509Q0.271105 135.325 0.235719 135.139L0.377118 135.88Q0.341718 135.694 0.309719 135.509Q0.408076 135.979 0.527237 136.443Q0.646398 136.908 0.786126 137.365Q0.925855 137.823 1.08587 138.273Q1.24589 138.723 1.42588 139.165Q1.60587 139.607 1.80547 140.039Q2.00508 140.472 2.22389 140.894Q2.44271 141.316 2.68031 141.727Q2.91791 142.138 3.17382 142.538Q3.42973 142.937 3.70344 143.324Q3.97715 143.711 4.26811 144.084Q4.55907 144.457 4.86671 144.817Q5.17435 145.176 5.49805 145.52Q5.82175 145.864 6.16088 146.193Q6.5 146.522 6.85387 146.835Q7.20774 147.147 7.57565 147.443Q7.94356 147.739 8.32478 148.017Q8.706 148.295 9.09977 148.556Q9.49354 148.816 9.89908 149.058Q10.3046 149.3 10.7211 149.523Q11.1376 149.746 11.5643 149.95Q11.9909 150.153 12.4268 150.337Q12.8627 150.521 13.3071 150.684Q13.7514 150.848 14.2033 150.991Q14.6551 151.134 15.1136 151.256Q15.5721 151.379 16.0364 151.48Q16.5006 151.581 16.9696 151.661Q17.4386 151.741 17.9115 151.8Q18.3844 151.859 18.8602 151.896Q19.3361 151.933 19.8139 151.949Q20.2916 151.964 20.7705 151.958Q21.2493 151.952 21.7282 151.924Q22.2071 151.897 22.6851 151.848L22.6978 151.846L138.039 139.913L180.98 135.471Q181.458 135.421 181.937 135.394Q182.416 135.366 182.895 135.359Q183.374 135.353 183.852 135.368Q184.33 135.384 184.806 135.421Q185.282 135.458 185.755 135.516Q186.228 135.574 186.698 135.654Q187.167 135.734 187.631 135.835Q188.096 135.936 188.554 136.058Q189.013 136.181 189.465 136.323Q189.917 136.466 190.362 136.63Q190.807 136.793 191.243 136.977Q191.679 137.161 192.106 137.364Q192.533 137.568 192.949 137.79Q193.366 138.013 193.772 138.255Q194.178 138.497 194.572 138.757Q194.966 139.018 195.347 139.296Q195.729 139.574 196.097 139.87Q196.465 140.166 196.819 140.479Q197.173 140.791 197.512 141.12Q197.852 141.449 198.176 141.793Q198.5 142.138 198.807 142.497Q199.115 142.856 199.406 143.229Q199.698 143.603 199.972 143.99Q200.245 144.376 200.502 144.776Q200.758 145.175 200.995 145.587Q201.233 145.998 201.452 146.42Q201.671 146.843 201.871 147.275Q202.071 147.708 202.251 148.149Q202.431 148.591 202.591 149.042Q202.751 149.492 202.891 149.95Q203.031 150.408 203.15 150.872Q203.269 151.337 203.368 151.807Q203.529 152.74 203.603 153.666Q203.678 154.592 203.665 155.504Q203.652 156.417 203.551 157.308Q203.451 158.199 203.265 159.062Q203.078 159.926 202.807 160.754Q202.535 161.583 202.181 162.37Q201.826 163.158 201.392 163.898Q200.957 164.639 200.446 165.326Q199.922 166.031 199.321 166.674Q198.721 167.317 198.049 167.894Q197.377 168.471 196.639 168.976Q195.901 169.482 195.103 169.912Q194.306 170.342 193.454 170.693Q192.603 171.045 191.705 171.314Q190.807 171.584 189.87 171.769Q188.933 171.955 187.964 172.055L145.019 176.498L29.6824 188.431Q28.7137 188.531 27.7767 188.716Q26.8396 188.902 25.9417 189.172Q25.0438 189.441 24.1925 189.792Q23.3411 190.144 22.5433 190.574Q21.7454 191.004 21.0075 191.51Q20.2696 192.015 19.5977 192.592Q18.9259 193.168 18.3255 193.812Q17.7251 194.455 17.201 195.159Q16.6898 195.847 16.2552 196.587Q15.8207 197.327 15.4662 198.115Q15.1118 198.902 14.8402 199.731Q14.5687 200.56 14.3821 201.423Q14.1955 202.286 14.0953 203.177Q13.9951 204.068 13.9821 204.98Q13.9692 205.893 14.0435 206.819Q14.1178 207.745 14.2789 208.678Q14.2402 208.493 14.2048 208.307L14.3463 209.049Q14.3109 208.863 14.2789 208.678Q14.3773 209.148 14.4965 209.612Q14.6157 210.077 14.7555 210.535Q14.8953 210.993 15.0554 211.443Q15.2155 211.893 15.3956 212.335Q15.5757 212.777 15.7755 213.21Q15.9752 213.642 16.1941 214.064Q16.4131 214.487 16.6509 214.898Q16.8886 215.309 17.1447 215.709Q17.4008 216.108 17.6746 216.495Q17.9485 216.882 18.2397 217.256Q18.5308 217.629 18.8387 217.988Q19.1465 218.348 19.4704 218.692Q19.7944 219.036 20.1337 219.365Q20.473 219.694 20.8271 220.007Q21.1812 220.319 21.5494 220.615Q21.9175 220.911 22.299 221.189Q22.6805 221.468 23.0745 221.728Q23.4685 221.988 23.8743 222.23Q24.2801 222.472 24.6969 222.695Q25.1136 222.918 25.5405 223.121Q25.9674 223.325 26.4036 223.509Q26.8398 223.692 27.2843 223.856Q27.7289 224.019 28.1811 224.162Q28.6332 224.305 29.0919 224.427Q29.5507 224.549 30.0152 224.65Q30.4796 224.752 30.9489 224.831Q31.4182 224.911 31.8913 224.97Q32.3644 225.028 32.8405 225.065Q33.3165 225.102 33.7945 225.117Q34.2725 225.133 34.7516 225.126Q35.2306 225.12 35.7097 225.092Q36.1888 225.064 36.667 225.015L590.405 167.727Q591.373 167.627 592.311 167.441Q593.248 167.255 594.146 166.986Q595.043 166.716 595.895 166.365Q596.746 166.014 597.544 165.583Q598.342 165.153 599.08 164.648Q599.818 164.142 600.49 163.566Q601.161 162.989 601.762 162.346Q602.362 161.702 602.886 160.998Q603.398 160.311 603.832 159.57Q604.267 158.83 604.621 158.043Q604.975 157.255 605.247 156.427Q605.518 155.598 605.705 154.735Q605.892 153.872 605.992 152.981Q606.092 152.09 606.105 151.178Q606.118 150.266 606.044 149.34Q605.97 148.414 605.809 147.481Q605.847 147.665 605.882 147.85L605.742 147.116Q605.777 147.298 605.809 147.481Q605.71 147.011 605.591 146.546Q605.472 146.082 605.332 145.624Q605.192 145.166 605.032 144.716Q604.872 144.266 604.692 143.824Q604.512 143.382 604.313 142.95Q604.113 142.517 603.894 142.095Q603.675 141.672 603.437 141.261Q603.2 140.85 602.944 140.45Q602.688 140.051 602.414 139.664Q602.14 139.277 601.849 138.904Q601.558 138.53 601.25 138.171Q600.943 137.812 600.619 137.468Q600.295 137.123 599.956 136.794Q599.616 136.465 599.263 136.153Q598.909 135.84 598.54 135.544Q598.172 135.249 597.791 134.97Q597.41 134.692 597.016 134.431Q596.622 134.171 596.216 133.929Q595.81 133.687 595.394 133.464Q594.977 133.241 594.55 133.038Q594.124 132.834 593.688 132.65Q593.251 132.467 592.807 132.303Q592.362 132.14 591.91 131.997Q591.458 131.854 591 131.731Q590.541 131.609 590.077 131.508Q589.613 131.407 589.143 131.327Q588.674 131.247 588.201 131.188Q587.728 131.13 587.252 131.093Q586.776 131.056 586.298 131.04Q585.82 131.025 585.341 131.031Q584.863 131.037 584.384 131.065Q583.905 131.093 583.426 131.142L583.42 131.143L468.084 143.075L425.138 147.518Q424.66 147.567 424.181 147.595Q423.702 147.623 423.223 147.63Q422.744 147.636 422.266 147.62Q421.788 147.605 421.312 147.568Q420.836 147.531 420.363 147.473Q419.89 147.414 419.42 147.335Q418.951 147.255 418.487 147.154Q418.022 147.053 417.563 146.93Q417.105 146.808 416.653 146.665Q416.201 146.522 415.756 146.359Q415.311 146.195 414.875 146.012Q414.439 145.828 414.012 145.625Q413.585 145.421 413.168 145.198Q412.752 144.975 412.346 144.733Q411.94 144.492 411.546 144.231Q411.152 143.971 410.771 143.692Q410.389 143.414 410.021 143.118Q409.653 142.823 409.299 142.51Q408.945 142.197 408.605 141.869Q408.266 141.54 407.942 141.195Q407.618 140.851 407.31 140.492Q407.003 140.132 406.711 139.759Q406.42 139.386 406.146 138.999Q405.872 138.612 405.616 138.212Q405.36 137.813 405.122 137.402Q404.885 136.99 404.666 136.568Q404.447 136.146 404.247 135.713Q404.047 135.281 403.867 134.839Q403.687 134.397 403.527 133.947Q403.367 133.496 403.227 133.038Q403.087 132.58 402.968 132.116Q402.849 131.651 402.75 131.181Q402.589 130.248 402.515 129.322Q402.441 128.396 402.454 127.484Q402.467 126.572 402.567 125.681Q402.667 124.789 402.853 123.926Q403.04 123.063 403.312 122.234Q403.583 121.406 403.938 120.618Q404.292 119.831 404.727 119.09Q405.161 118.35 405.672 117.663Q406.196 116.958 406.797 116.315Q407.397 115.672 408.069 115.095Q408.741 114.518 409.479 114.013Q410.217 113.507 411.015 113.077Q411.813 112.647 412.664 112.296Q413.515 111.944 414.413 111.675Q415.311 111.405 416.248 111.22Q417.185 111.034 418.154 110.934L461.104 106.49L461.112 106.489L576.436 94.5583L576.443 94.5575Q577.411 94.457 578.348 94.2712Q579.284 94.0853 580.182 93.8157Q581.079 93.546 581.93 93.1947Q582.781 92.8434 583.578 92.4133Q584.375 91.9832 585.113 91.4778Q585.85 90.9725 586.522 90.396Q587.193 89.8195 587.793 89.1765Q588.393 88.5336 588.917 87.8294Q589.428 87.1421 589.863 86.4018Q590.297 85.6616 590.652 84.8741Q591.006 84.0867 591.278 83.2582Q591.549 82.4297 591.736 81.5666Q591.923 80.7035 592.023 79.8124Q592.123 78.9213 592.136 78.0093Q592.149 77.0972 592.075 76.1712Q592 75.2452 591.839 74.3125Q591.878 74.4967 591.913 74.6817L591.773 73.9474Q591.808 74.13 591.839 74.3125Q591.741 73.8422 591.622 73.3777Q591.503 72.9131 591.363 72.4552Q591.223 71.9973 591.063 71.547Q590.903 71.0966 590.723 70.6547Q590.543 70.2128 590.343 69.7802Q590.143 69.3476 589.924 68.9252Q589.706 68.5028 589.468 68.0915Q589.23 67.6801 588.974 67.2806Q588.718 66.8811 588.444 66.4942Q588.17 66.1074 587.879 65.7339Q587.588 65.3605 587.28 65.0012Q586.972 64.6419 586.648 64.2974Q586.324 63.953 585.985 63.6242Q585.646 63.2953 585.291 62.9826Q584.937 62.67 584.569 62.3742Q584.201 62.0784 583.82 61.8Q583.438 61.5216 583.044 61.2612Q582.65 61.0008 582.244 60.7589Q581.839 60.517 581.422 60.294Q581.005 60.0711 580.578 59.8676Q580.151 59.6641 579.715 59.4804Q579.279 59.2967 578.834 59.1333Q578.39 58.9698 577.938 58.8268Q577.485 58.6839 577.026 58.5617Q576.568 58.4395 576.103 58.3384Q575.639 58.2373 575.169 58.1575Q574.7 58.0776 574.227 58.0191Q573.754 57.9607 573.278 57.9238Q572.802 57.8868 572.324 57.8715Q571.846 57.8562 571.367 57.8625Q570.888 57.8688 570.409 57.8967Q569.929 57.9246 569.451 57.9741L454.11 69.9069L361.737 79.4635Q361.259 79.513 360.78 79.5409Q360.301 79.5688 359.822 79.5751Q359.343 79.5814 358.865 79.5661Q358.387 79.5508 357.911 79.5138Q357.435 79.4769 356.962 79.4185Q356.489 79.36 356.019 79.2802Q355.55 79.2003 355.086 79.0992Q354.621 78.9981 354.162 78.876Q353.704 78.7539 353.251 78.6109Q352.799 78.468 352.355 78.3045Q351.91 78.141 351.474 77.9574Q351.038 77.7737 350.611 77.5703Q350.184 77.3668 349.767 77.1439Q349.351 76.921 348.945 76.6791Q348.539 76.4372 348.145 76.1768Q347.751 75.9165 347.37 75.6381Q346.988 75.3597 346.62 75.064Q346.252 74.7682 345.898 74.4556Q345.544 74.143 345.204 73.8141Q344.865 73.4853 344.541 73.1409Q344.217 72.7965 343.909 72.4373Q343.601 72.078 343.31 71.7046Q343.019 71.3312 342.745 70.9444Q342.471 70.5575 342.215 70.1581Q341.959 69.7586 341.721 69.3473Q341.484 68.9359 341.265 68.5136Q341.046 68.0912 340.846 67.6587Q340.646 67.2261 340.466 66.7843Q340.286 66.3424 340.126 65.8921Q339.966 65.4418 339.826 64.9839Q339.686 64.526 339.567 64.0615Q339.448 63.597 339.349 63.1268Q339.188 62.194 339.114 61.2678Q339.039 60.3417 339.052 59.4295Q339.065 58.5173 339.166 57.6262Q339.266 56.735 339.452 55.8717Q339.639 55.0085 339.91 54.1799Q340.182 53.3513 340.536 52.5637Q340.891 51.7762 341.325 51.0359Q341.76 50.2955 342.271 49.6081Q342.795 48.9036 343.396 48.2604Q343.996 47.6171 344.668 47.0404Q345.34 46.4637 346.078 45.9582Q346.816 45.4527 347.613 45.0226Q348.411 44.5925 349.263 44.2412Q350.114 43.8899 351.012 43.6203Q351.91 43.3508 352.847 43.1651Q353.784 42.9795 354.753 42.8793L414.171 36.7321L414.177 36.7314Q415.145 36.6309 416.082 36.4451Q417.018 36.2593 417.916 35.9897Q418.813 35.72 419.664 35.3687Q420.515 35.0174 421.312 34.5873Q422.11 34.1572 422.847 33.6518Q423.585 33.1465 424.256 32.5699Q424.928 31.9934 425.528 31.3504Q426.128 30.7074 426.652 30.0032Q427.163 29.3158 427.598 28.5754Q428.032 27.8351 428.387 27.0476Q428.741 26.26 429.013 25.4314Q429.284 24.6028 429.471 23.7396Q429.658 22.8764 429.758 21.9852Q429.858 21.094 429.871 20.1818Q429.884 19.2696 429.809 18.3435Q429.735 17.4174 429.574 16.4846Q429.613 16.6691 429.648 16.8545L429.507 16.1147Q429.542 16.2997 429.574 16.4846Q429.476 16.0143 429.356 15.5498Q429.237 15.0853 429.097 14.6274Q428.958 14.1696 428.797 13.7193Q428.637 13.2689 428.457 12.8271Q428.277 12.3852 428.077 11.9527Q427.878 11.5201 427.659 11.0978Q427.44 10.6754 427.202 10.2641Q426.964 9.85277 426.708 9.45329Q426.452 9.05382 426.178 8.66699Q425.904 8.28016 425.613 7.90674Q425.322 7.53333 425.014 7.17407Q424.706 6.81481 424.382 6.47042Q424.058 6.12604 423.719 5.79721Q423.38 5.46838 423.026 5.15577Q422.672 4.84315 422.303 4.54737Q421.935 4.25159 421.554 3.97323Q421.172 3.69488 420.778 3.4345Q420.384 3.17412 419.979 2.93224Q419.573 2.69036 419.156 2.46745Q418.739 2.24455 418.312 2.04107Q417.885 1.83759 417.449 1.65393Q417.013 1.47028 416.569 1.30681Q416.124 1.14335 415.672 1.00041Q415.22 0.857463 414.761 0.735321Q414.302 0.613179 413.838 0.512083Q413.373 0.410986 412.904 0.331137Q412.435 0.251287 411.962 0.192844Q411.489 0.1344 411.012 0.0974787Q410.536 0.0605574 410.058 0.0452317Q409.58 0.029906 409.101 0.0362066Q408.622 0.0425072 408.143 0.0704214Q407.664 0.0983357 407.186 0.147808ZM339.349 63.1268Q339.381 63.311 339.416 63.4953L339.275 62.7569Q339.311 62.9423 339.349 63.1268ZM402.75 131.181Q402.782 131.366 402.818 131.552L402.676 130.811Q402.712 130.997 402.75 131.181ZM203.368 151.807Q203.336 151.622 203.3 151.437L203.441 152.176Q203.406 151.991 203.368 151.807ZM238.83 73.5242Q238.869 73.7084 238.904 73.8933L238.763 73.1545Q238.799 73.3394 238.83 73.5243L238.83 73.5242Z" transform="translate(0 54.41895)" id="Combined-Shape-Copy" fill="#E6F5FE" fill-rule="evenodd" stroke="none" />
    <path d="M15.6542 56.8545L569.392 -0.433479Q569.87 -0.482955 570.349 -0.510869Q570.829 -0.538784 571.308 -0.545083Q571.787 -0.551382 572.265 -0.536052Q572.743 -0.520722 573.219 -0.483794Q573.695 -0.446866 574.168 -0.388413Q574.641 -0.329961 575.11 -0.2501Q575.58 -0.17024 576.044 -0.06913Q576.509 0.0319797 576.967 0.154137Q577.426 0.276295 577.878 0.419257Q578.331 0.562219 578.775 0.725702Q579.22 0.889184 579.656 1.07286Q580.092 1.25654 580.519 1.46004Q580.946 1.66355 581.363 1.88648Q581.779 2.10941 582.185 2.35132Q582.591 2.59322 582.985 2.85363Q583.379 3.11404 583.76 3.39242Q584.142 3.67081 584.51 3.96662Q584.878 4.26244 585.232 4.57508Q585.587 4.88773 585.926 5.2166Q586.265 5.54546 586.589 5.88988Q586.913 6.2343 587.221 6.5936Q587.529 6.95289 587.82 7.32634Q588.111 7.6998 588.385 8.08666Q588.659 8.47353 588.915 8.87304Q589.171 9.27256 589.409 9.68392Q589.646 10.0953 589.865 10.5177Q590.084 10.9401 590.284 11.3726Q590.484 11.8052 590.664 12.2471Q590.844 12.689 591.004 13.1394Q591.164 13.5897 591.304 14.0476Q591.444 14.5056 591.563 14.9701Q591.682 15.4346 591.78 15.9049Q591.941 16.8376 592.016 17.7637Q592.09 18.6897 592.077 19.6017Q592.064 20.5138 591.964 21.4049Q591.864 22.2959 591.677 23.159Q591.49 24.0222 591.219 24.8507Q590.947 25.6792 590.593 26.4666Q590.238 27.254 589.804 27.9943Q589.369 28.7346 588.858 29.4219Q588.334 30.1264 587.734 30.7696Q587.133 31.4129 586.461 31.9896Q585.789 32.5663 585.052 33.0718Q584.314 33.5773 583.516 34.0074Q582.718 34.4376 581.867 34.7888Q581.015 35.1401 580.117 35.4097Q579.22 35.6793 578.282 35.8649Q577.345 36.0506 576.377 36.1508L461.035 48.0836L418.095 52.5261Q417.126 52.6263 416.189 52.812Q415.252 52.9976 414.354 53.2672Q413.456 53.5368 412.605 53.888Q411.753 54.2393 410.956 54.6695Q410.158 55.0996 409.42 55.6051Q408.682 56.1106 408.01 56.6873Q407.338 57.264 406.738 57.9072Q406.137 58.5505 405.613 59.255Q405.102 59.9424 404.667 60.6827Q404.233 61.4231 403.878 62.2106Q403.524 62.9981 403.252 63.8267Q402.981 64.6553 402.794 65.5186Q402.608 66.3818 402.508 67.273Q402.407 68.1642 402.394 69.0764Q402.382 69.9886 402.456 70.9147Q402.53 71.8408 402.691 72.7737Q402.653 72.5891 402.617 72.4038L402.758 73.1411Q402.723 72.9573 402.691 72.7737Q402.79 73.2439 402.909 73.7084Q403.028 74.1729 403.168 74.6308Q403.308 75.0886 403.468 75.539Q403.628 75.9893 403.808 76.4311Q403.988 76.873 404.188 77.3055Q404.388 77.7381 404.607 78.1604Q404.826 78.5828 405.063 78.9941Q405.301 79.4054 405.557 79.8049Q405.813 80.2044 406.087 80.5912Q406.361 80.978 406.652 81.3514Q406.943 81.7248 407.251 82.0841Q407.559 82.4434 407.883 82.7878Q408.207 83.1321 408.546 83.461Q408.886 83.7898 409.24 84.1024Q409.594 84.415 409.962 84.7108Q410.33 85.0066 410.711 85.2849Q411.093 85.5633 411.487 85.8237Q411.881 86.0841 412.287 86.3259Q412.693 86.5678 413.109 86.7907Q413.526 87.0136 413.953 87.2171Q414.38 87.4206 414.816 87.6042Q415.252 87.7879 415.697 87.9514Q416.141 88.1148 416.594 88.2578Q417.046 88.4007 417.504 88.5228Q417.963 88.645 418.428 88.7461Q418.892 88.8472 419.361 88.927Q419.831 89.0069 420.304 89.0653Q420.777 89.1238 421.253 89.1607Q421.729 89.1976 422.207 89.2129Q422.685 89.2283 423.164 89.222Q423.643 89.2157 424.122 89.1877Q424.601 89.1598 425.079 89.1104L468.048 84.6649L583.361 72.735L583.378 72.7333Q583.856 72.6842 584.335 72.6567Q584.813 72.6291 585.292 72.6232Q585.771 72.6173 586.249 72.6329Q586.726 72.6486 587.202 72.6858Q587.678 72.723 588.151 72.7818Q588.624 72.8405 589.093 72.9206Q589.562 73.0007 590.026 73.1021Q590.49 73.2034 590.948 73.3258Q591.407 73.4482 591.859 73.5913Q592.31 73.7344 592.755 73.8981Q593.199 74.0617 593.635 74.2455Q594.071 74.4293 594.497 74.6329Q594.924 74.8365 595.34 75.0595Q595.757 75.2825 596.162 75.5245Q596.568 75.7665 596.961 76.0269Q597.355 76.2873 597.736 76.5657Q598.117 76.8441 598.485 77.1399Q598.853 77.4357 599.207 77.7483Q599.561 78.0609 599.9 78.3897Q600.239 78.7185 600.562 79.0628Q600.886 79.4072 601.194 79.7663Q601.501 80.1255 601.792 80.4989Q602.083 80.8722 602.357 81.2589Q602.63 81.6456 602.886 82.045Q603.142 82.4443 603.38 82.8555Q603.617 83.2667 603.836 83.6889Q604.055 84.1111 604.254 84.5435Q604.454 84.9758 604.634 85.4175Q604.814 85.8592 604.974 86.3093Q605.134 86.7594 605.273 87.2171Q605.413 87.6748 605.532 88.1391Q605.651 88.6034 605.75 89.0734Q605.911 90.0061 605.985 90.9321Q606.059 91.8581 606.046 92.7702Q606.033 93.6823 605.933 94.5733Q605.833 95.4644 605.646 96.3275Q605.459 97.1907 605.188 98.0191Q604.916 98.8476 604.562 99.6351Q604.208 100.423 603.773 101.163Q603.338 101.903 602.827 102.59Q602.303 103.295 601.703 103.938Q601.102 104.581 600.43 105.158Q599.759 105.735 599.021 106.24Q598.283 106.746 597.485 107.176Q596.687 107.606 595.836 107.957Q594.984 108.309 594.086 108.578Q593.189 108.848 592.252 109.033Q591.315 109.219 590.346 109.319L475.039 121.249L475.004 121.252L382.632 130.809Q381.663 130.909 380.726 131.095Q379.789 131.28 378.891 131.55Q377.993 131.819 377.142 132.171Q376.291 132.522 375.493 132.952Q374.695 133.382 373.957 133.888Q373.219 134.393 372.547 134.97Q371.875 135.547 371.275 136.19Q370.675 136.833 370.151 137.538Q369.639 138.225 369.205 138.965Q368.77 139.706 368.416 140.493Q368.061 141.281 367.79 142.109Q367.518 142.938 367.331 143.801Q367.145 144.664 367.045 145.556Q366.945 146.447 366.932 147.359Q366.919 148.271 366.993 149.197Q367.067 150.123 367.228 151.056Q367.19 150.872 367.154 150.686L367.296 151.427Q367.26 151.241 367.228 151.056Q367.327 151.526 367.446 151.991Q367.565 152.455 367.705 152.913Q367.845 153.371 368.005 153.822Q368.165 154.272 368.345 154.714Q368.525 155.156 368.725 155.588Q368.925 156.021 369.144 156.443Q369.363 156.865 369.601 157.277Q369.838 157.688 370.094 158.087Q370.35 158.487 370.624 158.874Q370.898 159.261 371.189 159.634Q371.481 160.007 371.788 160.367Q372.096 160.726 372.42 161.07Q372.744 161.415 373.083 161.744Q373.423 162.072 373.777 162.385Q374.131 162.698 374.499 162.993Q374.867 163.289 375.249 163.568Q375.63 163.846 376.024 164.106Q376.418 164.367 376.824 164.609Q377.23 164.85 377.647 165.073Q378.063 165.296 378.49 165.5Q378.917 165.703 379.353 165.887Q379.789 166.07 380.234 166.234Q380.679 166.397 381.131 166.54Q381.583 166.683 382.042 166.805Q382.5 166.928 382.965 167.029Q383.429 167.13 383.898 167.21Q384.368 167.289 384.841 167.348Q385.314 167.406 385.79 167.443Q386.266 167.48 386.744 167.496Q387.222 167.511 387.701 167.505Q388.18 167.498 388.659 167.47Q389.138 167.442 389.616 167.393L449.063 161.243Q449.54 161.194 450.019 161.167Q450.498 161.139 450.976 161.134Q451.455 161.128 451.932 161.144Q452.41 161.16 452.885 161.197Q453.361 161.235 453.834 161.294Q454.306 161.353 454.775 161.433Q455.244 161.513 455.708 161.615Q456.171 161.716 456.63 161.839Q457.088 161.961 457.539 162.104Q457.991 162.248 458.435 162.411Q458.879 162.575 459.315 162.759Q459.75 162.943 460.176 163.146Q460.603 163.35 461.019 163.573Q461.435 163.796 461.84 164.038Q462.246 164.28 462.639 164.541Q463.032 164.801 463.413 165.079Q463.794 165.358 464.162 165.653Q464.53 165.949 464.883 166.262Q465.237 166.574 465.576 166.903Q465.914 167.232 466.238 167.576Q466.561 167.92 466.869 168.279Q467.176 168.638 467.467 169.012Q467.758 169.385 468.031 169.771Q468.305 170.158 468.56 170.557Q468.816 170.956 469.053 171.367Q469.291 171.778 469.509 172.2Q469.728 172.622 469.928 173.055Q470.127 173.487 470.307 173.928Q470.487 174.37 470.647 174.82Q470.807 175.27 470.946 175.727Q471.086 176.185 471.205 176.649Q471.324 177.113 471.422 177.582Q471.584 178.515 471.658 179.441Q471.732 180.368 471.719 181.28Q471.706 182.192 471.606 183.083Q471.506 183.974 471.319 184.837Q471.133 185.701 470.861 186.529Q470.59 187.358 470.235 188.145Q469.881 188.933 469.446 189.673Q469.012 190.414 468.5 191.101Q467.976 191.806 467.376 192.449Q466.776 193.092 466.104 193.669Q465.432 194.246 464.694 194.751Q463.956 195.256 463.158 195.687Q462.36 196.117 461.509 196.468Q460.658 196.819 459.76 197.089Q458.862 197.358 457.925 197.544Q456.988 197.73 456.019 197.83L198.873 224.433Q198.395 224.483 197.916 224.511Q197.437 224.539 196.958 224.545Q196.479 224.551 196.001 224.536Q195.523 224.521 195.047 224.484Q194.57 224.447 194.097 224.388Q193.624 224.33 193.155 224.25Q192.686 224.17 192.221 224.069Q191.757 223.968 191.298 223.846Q190.839 223.724 190.387 223.581Q189.935 223.438 189.49 223.274Q189.046 223.111 188.61 222.927Q188.173 222.744 187.747 222.54Q187.32 222.337 186.903 222.114Q186.486 221.891 186.08 221.649Q185.675 221.407 185.281 221.147Q184.887 220.886 184.505 220.608Q184.124 220.33 183.755 220.034Q183.387 219.738 183.033 219.425Q182.679 219.113 182.34 218.784Q182 218.455 181.677 218.111Q181.353 217.766 181.045 217.407Q180.737 217.048 180.446 216.674Q180.155 216.301 179.881 215.914Q179.607 215.527 179.351 215.128Q179.095 214.728 178.857 214.317Q178.619 213.906 178.4 213.483Q178.181 213.061 177.982 212.628Q177.782 212.196 177.602 211.754Q177.422 211.312 177.262 210.862Q177.101 210.411 176.962 209.953Q176.822 209.496 176.703 209.031Q176.583 208.567 176.485 208.096Q176.324 207.164 176.25 206.237Q176.175 205.311 176.188 204.399Q176.201 203.487 176.301 202.596Q176.402 201.705 176.588 200.842Q176.775 199.978 177.046 199.15Q177.318 198.321 177.672 197.534Q178.027 196.746 178.461 196.006Q178.896 195.265 179.407 194.578Q179.931 193.874 180.53 193.232Q181.13 192.589 181.801 192.013Q182.472 191.436 183.209 190.931Q183.946 190.426 184.743 189.996Q185.54 189.566 186.39 189.215Q187.241 188.863 188.137 188.593Q189.034 188.324 189.97 188.138Q190.906 187.952 191.874 187.851L191.888 187.849L251.306 181.702Q252.275 181.602 253.212 181.416Q254.149 181.231 255.047 180.961Q255.945 180.691 256.796 180.34Q257.648 179.989 258.446 179.559Q259.243 179.129 259.981 178.623Q260.719 178.118 261.391 177.541Q262.063 176.964 262.663 176.321Q263.264 175.678 263.788 174.973Q264.299 174.286 264.734 173.545Q265.168 172.805 265.523 172.017Q265.877 171.23 266.149 170.401Q266.42 169.572 266.607 168.709Q266.793 167.846 266.894 166.955Q266.994 166.063 267.007 165.151Q267.02 164.239 266.945 163.313Q266.871 162.387 266.71 161.454Q266.748 161.638 266.784 161.823L266.642 161.084Q266.678 161.269 266.71 161.454Q266.611 160.983 266.492 160.519Q266.373 160.054 266.233 159.597Q266.093 159.139 265.933 158.688Q265.773 158.238 265.593 157.796Q265.413 157.354 265.213 156.922Q265.013 156.489 264.794 156.067Q264.575 155.645 264.337 155.233Q264.1 154.822 263.844 154.423Q263.587 154.023 263.314 153.636Q263.04 153.25 262.749 152.876Q262.457 152.503 262.15 152.144Q261.842 151.784 261.518 151.44Q261.194 151.096 260.855 150.767Q260.515 150.438 260.161 150.125Q259.807 149.813 259.439 149.517Q259.071 149.221 258.689 148.943Q258.308 148.665 257.914 148.404Q257.52 148.144 257.114 147.902Q256.708 147.66 256.291 147.437Q255.875 147.214 255.448 147.011Q255.021 146.807 254.585 146.624Q254.149 146.44 253.704 146.277Q253.259 146.113 252.807 145.97Q252.355 145.827 251.897 145.705Q251.438 145.583 250.973 145.482Q250.509 145.381 250.04 145.301Q249.57 145.221 249.097 145.163Q248.624 145.104 248.148 145.067Q247.672 145.031 247.194 145.015Q246.716 145 246.237 145.006Q245.758 145.013 245.279 145.04Q244.8 145.068 244.322 145.118L151.949 154.674L36.6079 166.607Q36.1297 166.657 35.6506 166.685Q35.1715 166.713 34.6925 166.719Q34.2135 166.725 33.7355 166.71Q33.2574 166.694 32.7814 166.658Q32.3054 166.621 31.8322 166.562Q31.3591 166.504 30.8898 166.424Q30.4206 166.344 29.9561 166.243Q29.4916 166.142 29.0329 166.02Q28.5741 165.898 28.122 165.755Q27.6699 165.612 27.2253 165.448Q26.7807 165.285 26.3445 165.101Q25.9083 164.917 25.4815 164.714Q25.0546 164.51 24.6378 164.287Q24.221 164.065 23.8153 163.823Q23.4095 163.581 23.0154 163.32Q22.6214 163.06 22.24 162.782Q21.8585 162.503 21.4903 162.208Q21.1222 161.912 20.7681 161.599Q20.414 161.286 20.0746 160.958Q19.7353 160.629 19.4114 160.284Q19.0875 159.94 18.7796 159.581Q18.4718 159.221 18.1806 158.848Q17.8895 158.475 17.6156 158.088Q17.3417 157.701 17.0856 157.301Q16.8296 156.902 16.5918 156.491Q16.354 156.079 16.1351 155.657Q15.9161 155.235 15.7164 154.802Q15.5167 154.369 15.3366 153.928Q15.1565 153.486 14.9964 153.035Q14.8363 152.585 14.6965 152.127Q14.5566 151.669 14.4374 151.205Q14.3182 150.74 14.2198 150.27Q14.0588 149.337 13.9844 148.411Q13.9101 147.485 13.9231 146.573Q13.936 145.661 14.0362 144.77Q14.1364 143.878 14.323 143.015Q14.5096 142.152 14.7812 141.323Q15.0527 140.495 15.4072 139.707Q15.7616 138.92 16.1961 138.18Q16.6307 137.439 17.142 136.752Q17.6651 136.049 18.2644 135.406Q18.8637 134.764 19.5342 134.188Q20.2047 133.612 20.9411 133.107Q21.6774 132.602 22.4736 132.172Q23.2697 131.742 24.1192 131.391Q24.9688 131.039 25.8647 130.769Q26.7607 130.499 27.6958 130.313Q28.6309 130.127 29.5976 130.026L29.6233 130.023L144.939 118.093L187.905 113.648Q188.874 113.547 189.811 113.362Q190.748 113.176 191.646 112.907Q192.544 112.637 193.395 112.286Q194.247 111.934 195.044 111.504Q195.842 111.074 196.58 110.569Q197.318 110.063 197.99 109.486Q198.662 108.91 199.262 108.267Q199.863 107.623 200.387 106.919Q200.898 106.231 201.333 105.491Q201.767 104.751 202.122 103.963Q202.476 103.175 202.748 102.347Q203.019 101.518 203.206 100.655Q203.392 99.7915 203.492 98.9002Q203.593 98.009 203.605 97.0967Q203.618 96.1845 203.544 95.2583Q203.47 94.3321 203.309 93.3992Q203.347 93.5833 203.382 93.7683L203.241 93.0295Q203.277 93.2144 203.309 93.3992Q203.21 92.929 203.091 92.4645Q202.972 92 202.832 91.5422Q202.692 91.0844 202.532 90.634Q202.372 90.1838 202.192 89.7419Q202.011 89.3 201.812 88.8675Q201.612 88.435 201.393 88.0127Q201.174 87.5903 200.936 87.179Q200.699 86.7677 200.442 86.3683Q200.186 85.9688 199.912 85.582Q199.639 85.1952 199.347 84.8218Q199.056 84.4484 198.748 84.0892Q198.441 83.7299 198.117 83.3856Q197.793 83.0412 197.453 82.7124Q197.114 82.3836 196.76 82.071Q196.406 81.7584 196.038 81.4626Q195.67 81.1669 195.288 80.8885Q194.907 80.6102 194.513 80.3498Q194.119 80.0895 193.713 79.8476Q193.307 79.6057 192.89 79.3829Q192.474 79.16 192.047 78.9565Q191.62 78.753 191.184 78.5694Q190.747 78.3857 190.303 78.2223Q189.858 78.0588 189.406 77.9159Q188.954 77.773 188.495 77.6508Q188.037 77.5287 187.572 77.4276Q187.108 77.3265 186.638 77.2467Q186.169 77.1668 185.696 77.1084Q185.223 77.05 184.747 77.013Q184.271 76.9761 183.793 76.9608Q183.315 76.9455 182.836 76.9518Q182.357 76.9581 181.878 76.986Q181.399 77.0139 180.921 77.0634L137.98 81.5059L137.971 81.5069L22.6387 93.4387Q22.1605 93.4882 21.6815 93.5161Q21.2024 93.544 20.7233 93.5503Q20.2443 93.5566 19.7663 93.5413Q19.2883 93.526 18.8122 93.4891Q18.3362 93.4521 17.8631 93.3937Q17.39 93.3352 16.9207 93.2554Q16.4514 93.1755 15.9869 93.0744Q15.5225 92.9733 15.0637 92.8512Q14.605 92.729 14.1528 92.5861Q13.7007 92.4431 13.2561 92.2797Q12.8115 92.1162 12.3754 91.9325Q11.9392 91.7489 11.5123 91.5454Q11.0854 91.3419 10.6686 91.119Q10.2519 90.8961 9.84609 90.6542Q9.44029 90.4123 9.04627 90.1519Q8.65225 89.8915 8.27079 89.6132Q7.88932 89.3348 7.52118 89.039Q7.15303 88.7432 6.79893 88.4306Q6.44483 88.118 6.10549 87.7891Q5.76614 87.4603 5.44223 87.1159Q5.11831 86.7715 4.81047 86.4122Q4.50263 86.053 4.21147 85.6795Q3.92032 85.3061 3.64643 84.9193Q3.37254 84.5324 3.11647 84.1329Q2.86039 83.7335 2.62264 83.3221Q2.38489 82.9108 2.16593 82.4884Q1.94697 82.0661 1.74725 81.6335Q1.54752 81.201 1.36742 80.7591Q1.18733 80.3172 1.02721 79.8669Q0.867104 79.4166 0.7273 78.9587Q0.587496 78.5008 0.468277 78.0363Q0.349057 77.5717 0.250659 77.1015Q0.0896061 76.1687 0.0152772 75.2426Q-0.0590517 74.3165 -0.0460793 73.4044Q-0.0331069 72.4922 0.067066 71.6011Q0.167239 70.71 0.353834 69.8467Q0.54043 68.9835 0.811999 68.155Q1.08357 67.3264 1.438 66.5389Q1.79244 65.7514 2.22698 65.0111Q2.66153 64.2707 3.17282 63.5834Q3.69684 62.8788 4.29724 62.2356Q4.89764 61.5924 5.56952 61.0157Q6.2414 60.439 6.97928 59.9335Q7.71717 59.428 8.51504 58.9978Q9.31291 58.5677 10.1643 58.2164Q11.0156 57.8651 11.9135 57.5956Q12.8113 57.326 13.7484 57.1403Q14.6855 56.9547 15.6542 56.8545ZM0.250659 77.1015Q0.282682 77.287 0.318111 77.4726L0.176564 76.7312Q0.211993 76.9167 0.250659 77.1015ZM14.2198 150.27Q14.2518 150.455 14.2872 150.641L14.1457 149.9Q14.1811 150.085 14.2198 150.27ZM176.485 208.096Q176.517 208.282 176.552 208.467L176.411 207.727Q176.446 207.912 176.485 208.096ZM471.422 177.582Q471.391 177.399 471.356 177.215L471.496 177.952Q471.461 177.767 471.422 177.582ZM605.75 89.0734Q605.718 88.8908 605.683 88.7081L605.823 89.4427Q605.788 89.2576 605.75 89.0734ZM591.78 15.9049Q591.749 15.7224 591.714 15.5397L591.854 16.2742Q591.819 16.0891 591.78 15.9049Z" transform="translate(367.0591 0)" id="Combined-Shape" fill="#E6F5FE" fill-rule="evenodd" stroke="none" />
  </g>
</svg>