<?xml version="1.0" encoding="utf-8"?>
<svg width="200px" height="94px" viewBox="0 0 200 94" version="1.1" xmlns:xlink="http://www.w3.org/1999/xlink" xmlns="http://www.w3.org/2000/svg">
  <desc>Created with Lunacy</desc>
  <g id="Logo">
    <g id="OILFIELD-SERVICES" fill="#FFFFFF" transform="translate(0 70.95703)">
      <path d="M2.93847 6.00384Q0.98613 8.06077 0.98613 11.6965Q0.98613 13.619 1.82285 15.3422Q2.65956 17.0654 4.28319 18.0615Q5.90682 19.0576 7.96872 19.0576Q9.87126 19.0576 11.5148 18.1561Q13.1584 17.2547 14.0548 15.5016Q14.9513 13.7484 14.9513 11.5272Q14.9513 9.33577 14.0997 7.60755Q13.248 5.87933 11.6244 4.91312Q10.0007 3.94691 7.97869 3.94691Q4.8908 3.94691 2.93847 6.00384ZM97.2782 14.117L99.1011 13.9576Q99.2305 15.0533 99.7037 15.7556Q100.177 16.4578 101.173 16.8911Q102.169 17.3244 103.414 17.3244Q104.52 17.3244 105.366 16.9957Q106.213 16.667 106.627 16.0942Q107.04 15.5215 107.04 14.8441Q107.04 14.1568 106.641 13.6439Q106.243 13.1309 105.327 12.7822Q104.739 12.5531 102.727 12.07Q100.715 11.5869 99.9079 11.1586Q98.862 10.6108 98.349 9.79895Q97.836 8.98713 97.836 7.98108Q97.836 6.87542 98.4636 5.91419Q99.0911 4.95297 100.296 4.45492Q101.502 3.95688 102.976 3.95688Q104.599 3.95688 105.84 4.47982Q107.08 5.00277 107.747 6.01878Q108.414 7.0348 108.464 8.31975L106.612 8.45921Q106.462 7.07464 105.601 6.36742Q104.739 5.66019 103.056 5.66019Q101.302 5.66019 100.501 6.30267Q99.6987 6.94515 99.6987 7.85159Q99.6987 8.6385 100.266 9.14651Q100.824 9.65451 103.18 10.1874Q105.536 10.7203 106.412 11.1188Q107.687 11.7065 108.295 12.6079Q108.903 13.5094 108.903 14.6848Q108.903 15.8502 108.235 16.8812Q107.568 17.9121 106.318 18.4849Q105.068 19.0576 103.504 19.0576Q101.522 19.0576 100.182 18.4799Q98.8421 17.9021 98.0801 16.7417Q97.318 15.5813 97.2782 14.117ZM171.507 14.1768L169.574 13.6887Q169.176 15.5314 168.05 16.4678Q166.925 17.4041 165.301 17.4041Q163.966 17.4041 162.821 16.7168Q161.675 16.0295 161.133 14.6399Q160.59 13.2504 160.59 11.3877Q160.59 9.94338 161.048 8.58372Q161.506 7.22405 162.637 6.41722Q163.767 5.61039 165.451 5.61039Q166.915 5.61039 167.881 6.33753Q168.847 7.06468 169.355 8.65842L171.258 8.21018Q170.67 6.18812 169.176 5.0725Q167.682 3.95688 165.49 3.95688Q163.558 3.95688 161.949 4.83842Q160.341 5.71996 159.469 7.41829Q158.598 9.11663 158.598 11.3977Q158.598 13.4895 159.37 15.3123Q160.141 17.1352 161.621 18.0964Q163.1 19.0576 165.461 19.0576Q167.742 19.0576 169.32 17.8075Q170.899 16.5574 171.507 14.1768ZM188.66 13.9576L186.837 14.117Q186.877 15.5813 187.639 16.7417Q188.401 17.9021 189.74 18.4799Q191.08 19.0576 193.062 19.0576Q194.626 19.0576 195.876 18.4849Q197.126 17.9121 197.794 16.8812Q198.461 15.8502 198.461 14.6848Q198.461 13.5094 197.853 12.6079Q197.246 11.7065 195.971 11.1188Q195.094 10.7203 192.739 10.1874Q190.383 9.65451 189.825 9.14651Q189.257 8.6385 189.257 7.85159Q189.257 6.94515 190.059 6.30267Q190.861 5.66019 192.614 5.66019Q194.297 5.66019 195.159 6.36742Q196.021 7.07464 196.17 8.45921L198.023 8.31975Q197.973 7.0348 197.306 6.01878Q196.638 5.00277 195.398 4.47982Q194.158 3.95688 192.534 3.95688Q191.06 3.95688 189.855 4.45492Q188.65 4.95297 188.022 5.91419Q187.395 6.87542 187.395 7.98108Q187.395 8.98713 187.908 9.79895Q188.42 10.6108 189.466 11.1586Q190.273 11.5869 192.285 12.07Q194.297 12.5531 194.885 12.7822Q195.802 13.1309 196.2 13.6439Q196.598 14.1568 196.598 14.8441Q196.598 15.5215 196.185 16.0942Q195.772 16.667 194.925 16.9957Q194.078 17.3244 192.973 17.3244Q191.728 17.3244 190.731 16.8911Q189.735 16.4578 189.262 15.7556Q188.789 15.0533 188.66 13.9576ZM17.7703 4.2059L17.7703 18.8086L19.7027 18.8086L19.7027 4.2059L17.7703 4.2059ZM23.0296 18.8086L23.0296 4.2059L24.962 4.2059L24.962 17.0854L32.1538 17.0854L32.1538 18.8086L23.0296 18.8086ZM34.5544 4.2059L34.5544 18.8086L36.4868 18.8086L36.4868 12.1746L43.3399 12.1746L43.3399 10.4514L36.4868 10.4514L36.4868 5.92914L44.4057 5.92914L44.4057 4.2059L34.5544 4.2059ZM47.2446 18.8086L47.2446 4.2059L49.177 4.2059L49.177 18.8086L47.2446 18.8086ZM52.6235 4.2059L52.6235 18.8086L63.5207 18.8086L63.5207 17.0854L54.5559 17.0854L54.5559 12.1149L62.6342 12.1149L62.6342 10.4016L54.5559 10.4016L54.5559 5.92914L63.182 5.92914L63.182 4.2059L52.6235 4.2059ZM66.1105 18.8086L66.1105 4.2059L68.0429 4.2059L68.0429 17.0854L75.2347 17.0854L75.2347 18.8086L66.1105 18.8086ZM77.5357 4.2059L77.5357 18.8086L82.805 18.8086Q84.1298 18.8086 85.1508 18.5596Q86.1718 18.3105 86.894 17.8274Q87.6161 17.3443 88.2237 16.5026Q88.8314 15.6609 89.2198 14.376Q89.6083 13.091 89.6083 11.4276Q89.6083 9.47522 89.0356 7.95618Q88.4628 6.43714 87.3073 5.46097Q86.4208 4.70394 85.1657 4.41508Q84.2693 4.2059 82.5659 4.2059L77.5357 4.2059ZM111.582 4.2059L111.582 18.8086L122.479 18.8086L122.479 17.0854L113.514 17.0854L113.514 12.1149L121.593 12.1149L121.593 10.4016L113.514 10.4016L113.514 5.92914L122.141 5.92914L122.141 4.2059L111.582 4.2059ZM125.179 18.8086L125.179 4.2059L131.653 4.2059Q133.606 4.2059 134.622 4.59935Q135.638 4.99281 136.245 5.9889Q136.853 6.98499 136.853 8.19026Q136.853 9.74416 135.847 10.81Q134.841 11.8758 132.739 12.1647Q133.506 12.5332 133.904 12.8918Q134.751 13.6688 135.508 14.8342L138.048 18.8086L135.618 18.8086L133.685 15.7705Q132.839 14.4557 132.291 13.7584Q131.743 13.0611 131.31 12.7822Q130.876 12.5033 130.428 12.3938Q130.099 12.324 129.352 12.324L127.111 12.324L127.111 18.8086L125.179 18.8086ZM138.397 4.2059L144.055 18.8086L146.037 18.8086L151.754 4.2059L149.782 4.2059L145.838 14.8143Q145.389 16.0096 145.051 17.2049Q144.742 16.0893 144.284 14.8143L140.489 4.2059L138.397 4.2059ZM153.816 18.8086L153.816 4.2059L155.749 4.2059L155.749 18.8086L153.816 18.8086ZM173.927 18.8086L173.927 4.2059L184.486 4.2059L184.486 5.92914L175.86 5.92914L175.86 10.4016L183.938 10.4016L183.938 12.1149L175.86 12.1149L175.86 17.0854L184.825 17.0854L184.825 18.8086L173.927 18.8086ZM4.39774 15.8851Q2.97831 14.366 2.97831 11.7264Q2.97831 8.42932 4.45751 7.01985Q5.9367 5.61039 7.98865 5.61039Q9.43298 5.61039 10.5934 6.34251Q11.7539 7.07464 12.3565 8.40442Q12.9591 9.7342 12.9591 11.5172Q12.9591 14.3361 11.5497 15.8701Q10.1402 17.4041 7.95876 17.4041Q5.81717 17.4041 4.39774 15.8851ZM127.111 10.6506L131.265 10.6506Q132.59 10.6506 133.337 10.3767Q134.084 10.1028 134.472 9.50012Q134.861 8.89748 134.861 8.19026Q134.861 7.15433 134.109 6.48695Q133.357 5.81956 131.733 5.81956L127.111 5.81956L127.111 10.6506ZM82.5859 17.0854L79.4681 17.0854L79.4681 5.92914L82.5361 5.92914Q84.2593 5.92914 85.0363 6.22796Q86.112 6.64632 86.8641 7.87649Q87.6161 9.10666 87.6161 11.3977Q87.6161 13.0512 87.2326 14.2116Q86.8491 15.3721 86.1618 16.0594Q85.6738 16.5475 84.852 16.8164Q84.0302 17.0854 82.5859 17.0854Z" />
    </g>
    <g id="Stallion" fill="#FFFFFF">
      <path d="M17.4814 27.9538L29.1655 27.9538L29.1655 26.0413Q29.1655 20.2739 28.0449 17.8684Q26.9243 15.4628 23.4729 13.879Q20.0214 12.2952 15.1207 12.2952Q10.6382 12.2952 7.47068 13.7446Q4.30311 15.1939 2.88368 17.7638Q1.46425 20.3337 1.46425 25.8919Q1.46425 29.7467 2.46532 32.227Q3.4664 34.7073 4.99041 36.1118Q6.51443 37.5163 11.206 40.6241Q15.8976 43.702 17.0929 45.0168Q18.2583 46.3317 18.2583 50.6049Q18.2583 52.5473 17.6457 53.5334Q17.0331 54.5195 15.7781 54.5195Q14.523 54.5195 14.0299 53.7426Q13.5369 52.9656 13.5369 50.2463L13.5369 44.3594L1.85273 44.3594L1.85273 47.527Q1.85273 52.9656 2.95839 55.924Q4.06405 58.8824 7.63503 60.7949Q11.206 62.7074 16.2562 62.7074Q20.8581 62.7074 24.3245 61.0489Q27.7909 59.3904 29.0012 56.94Q30.2114 54.4896 30.2114 49.3199Q30.2114 42.2078 28.03 39.0104Q25.8486 35.8129 17.4482 30.8272Q14.5188 29.0954 13.8931 27.8693Q13.238 26.6431 13.238 24.2212Q13.238 22.3372 13.8208 21.4102Q14.4035 20.4831 15.539 20.4831Q16.5849 20.4831 17.0331 21.1704Q17.4814 21.8577 17.4814 24.3679L17.4814 27.9538ZM95.7143 61.6914L95.7143 13.3113L83.2831 13.3113L83.2831 61.6914L95.7143 61.6914ZM112.479 13.3113L112.479 61.6914L100.047 61.6914L100.047 13.3113L112.479 13.3113ZM129.243 19.6165L129.243 13.3113L116.812 13.3113L116.812 19.6165L129.243 19.6165ZM46.5274 22.9933L46.5274 16.7478L34.4249 16.7478L34.4249 22.9933L31.8251 22.9933L31.8251 29.2686L34.4249 29.2686L34.4249 49.4096Q34.4249 55.3264 34.7536 56.9251Q35.0823 58.5238 36.427 59.7639Q37.7718 61.0041 39.5348 61.3477Q41.2979 61.6914 45.4217 61.6914L50.2926 61.6914L50.2926 55.2965Q47.3342 55.2965 46.9308 54.8482Q46.5274 54.4 46.5274 50.4854L46.5274 29.2686L49.7846 29.2686L49.7846 22.9933L46.5274 22.9933ZM63.2318 37.3967L51.9063 37.3967L51.9063 34.7372Q51.9063 30.1352 52.9671 27.64Q54.028 25.1448 57.2254 23.2323Q60.4229 21.3198 65.5328 21.3198Q71.6588 21.3198 74.7666 23.4863Q77.8744 25.6528 78.5019 28.8054Q79.1294 31.9581 79.1294 41.7895L79.1294 61.6914L67.3855 61.6914L67.3855 58.1577Q66.2799 60.2831 64.5317 61.3459Q62.7836 62.4086 60.3631 62.4086Q57.1955 62.4086 54.5509 60.6305Q51.9063 58.8525 51.9063 52.8461L51.9063 49.5889Q51.9063 45.1363 53.3108 43.5227Q54.7153 41.909 60.2734 39.7575Q66.2201 37.4266 66.6385 36.6198Q67.0568 35.8129 67.0568 33.3327Q67.0568 30.2249 66.5936 29.2836Q66.1305 28.3423 65.0547 28.3423Q63.8295 28.3423 63.5307 29.1342Q63.2318 29.926 63.2318 33.243L63.2318 37.3967ZM160.889 35.9624L160.889 45.6742Q160.889 51.0232 160.351 53.5184Q159.813 56.0137 158.05 58.1802Q156.287 60.3466 153.522 61.3776Q150.758 62.4086 147.172 62.4086Q143.168 62.4086 140.389 61.527Q137.61 60.6455 136.071 58.8675Q134.532 57.0894 133.875 54.5643Q133.217 52.0393 133.217 46.9891L133.217 36.8289Q133.217 31.3007 134.412 28.1928Q135.608 25.085 138.716 23.2024Q141.823 21.3198 146.664 21.3198Q150.728 21.3198 153.642 22.5301Q156.556 23.7403 158.139 25.6827Q159.723 27.6251 160.306 29.687Q160.889 31.7489 160.889 35.9624ZM176.936 25.6902L177.145 22.037L164.863 22.037L164.863 61.6914L176.936 61.6914L176.936 34.8866Q176.936 30.4042 177.264 29.3732Q177.593 28.3423 178.878 28.3423Q180.103 28.3423 180.372 29.2387Q180.641 30.1352 180.641 34.2292L180.641 61.6914L192.714 61.6914L192.714 33.9004Q192.714 28.7009 192.146 26.4746Q191.578 24.2483 189.606 22.7841Q187.634 21.3198 184.526 21.3198Q182.046 21.3198 180.148 22.4124Q178.25 23.505 176.936 25.6902ZM129.243 61.6914L129.243 22.037L116.812 22.037L116.812 61.6914L129.243 61.6914ZM148.816 32.9741Q148.816 29.926 148.487 29.1342Q148.159 28.3423 147.083 28.3423Q146.007 28.3423 145.648 29.1342Q145.29 29.926 145.29 32.9741L145.29 50.8738Q145.29 53.6828 145.648 54.5345Q146.007 55.3861 147.053 55.3861Q148.129 55.3861 148.472 54.6092Q148.816 53.8322 148.816 51.2623L148.816 32.9741ZM67.0568 42.8354Q64.1582 44.9571 63.695 46.3914Q63.2318 47.8258 63.2318 50.5152Q63.2318 53.5932 63.6352 54.4896Q64.0387 55.3861 65.234 55.3861Q66.3695 55.3861 66.7132 54.6839Q67.0568 53.9816 67.0568 50.9934L67.0568 42.8354Z" />
    </g>
  </g>
</svg>