<?xml version="1.0" encoding="UTF-8"?>
<svg width="95px" height="110px" viewBox="0 0 95 110" version="1.1" xmlns="http://www.w3.org/2000/svg" xmlns:xlink="http://www.w3.org/1999/xlink">
    <!-- Generator: Sketch 51.3 (57544) - http://www.bohemiancoding.com/sketch -->
    <title>startup</title>
    <desc>Created with Sketch.</desc>
    <defs></defs>
    <g id="Page-1" stroke="none" stroke-width="1" fill="none" fill-rule="evenodd">
        <g id="About" transform="translate(-153.000000, -2097.000000)" fill-rule="nonzero">
            <g id="WhatWeValue" transform="translate(0.000000, 1699.000000)">
                <g id="1" transform="translate(149.000000, 398.000000)">
                    <g id="startup" transform="translate(4.000000, 0.000000)">
                        <g id="Group">
                            <path d="M66.8773364,105.384929 L49.7196262,105.384929 L49.7196262,100.344196 C49.7196262,99.1120163 48.7429907,98.1262729 47.5221963,98.1262729 C46.3014019,98.1262729 45.3247664,99.1120163 45.3247664,100.344196 L45.3247664,105.384929 L28.1670561,105.384929 C26.9462617,105.384929 25.9696262,106.370672 25.9696262,107.602851 C25.9696262,108.835031 26.9462617,109.820774 28.1670561,109.820774 L66.8995327,109.820774 C68.1203271,109.820774 69.0969626,108.835031 69.0969626,107.602851 C69.0747664,106.370672 68.0981308,105.384929 66.8773364,105.384929 Z" id="Path" fill="#374050"></path>
                            <path d="M44.1705607,62.0794297 C38.6658879,63.3788187 34.4042056,67.9714868 33.5385514,73.6843177 L24.7488318,73.6843177 C25.6588785,70.3238289 28.6997664,67.8594705 32.2955607,67.8594705 C33.5163551,67.8594705 34.4929907,66.8737271 34.4929907,65.6415479 C34.4929907,64.4093686 33.5163551,63.4236253 32.2955607,63.4236253 C26.2581776,63.4236253 21.2196262,67.8594705 20.2429907,73.6843177 L2.90771028,73.6843177 C2.68574766,73.6171079 2.48598131,73.5723014 2.24182243,73.5723014 C1.02102804,73.5723014 0.0443925234,74.5580448 0.0443925234,75.790224 L0.0443925234,87.8879837 C0.0443925234,90.688391 2.30841121,92.9735234 5.08294393,92.9735234 L89.9614486,92.9735234 C92.7359813,92.9735234 95,90.688391 95,87.8879837 L95,28.9226069 C95,26.1221996 92.7359813,23.8370672 89.9614486,23.8370672 L66.2114486,23.8370672 C64.9906542,23.8370672 64.0140187,24.8228106 64.0140187,26.0549898 C64.0140187,27.287169 64.9906542,28.2729124 66.2114486,28.2729124 L89.9614486,28.2729124 C90.3165888,28.2729124 90.6051402,28.5641548 90.6051402,28.9226069 L90.6051402,87.910387 C90.6051402,88.2688391 90.3165888,88.5600815 89.9614486,88.5600815 L5.08294393,88.5600815 C4.72780374,88.5600815 4.43925234,88.2688391 4.43925234,87.910387 L4.43925234,78.1425662 L83.7242991,78.1425662 C84.9450935,78.1425662 85.921729,77.1568228 85.921729,75.9246436 C85.921729,74.6924644 84.9450935,73.706721 83.7242991,73.706721 L74.3352804,73.706721 C73.3586449,67.8818737 68.3200935,63.4460285 62.2827103,63.4460285 C61.0619159,63.4460285 60.0852804,64.4317719 60.0852804,65.6639511 C60.0852804,66.8961303 61.0619159,67.8818737 62.2827103,67.8818737 C65.9007009,67.8818737 68.9193925,70.3462322 69.8294393,73.706721 L61.0841121,73.706721 C60.1518692,67.3441955 54.9579439,62.3706721 48.5654206,61.7881874 C45.9240654,61.6313646 44.1705607,62.0794297 44.1705607,62.0794297 Z M47.3224299,66.1568228 C51.8726636,66.1568228 55.6682243,69.3828921 56.6226636,73.6843177 L38.0221963,73.6843177 C38.9544393,69.3828921 42.7721963,66.1568228 47.3224299,66.1568228 Z" id="Shape" fill="#374050"></path>
                            <path d="M31.1191589,26.0549898 C31.1191589,24.8228106 30.1425234,23.8370672 28.921729,23.8370672 L5.08294393,23.8370672 C2.30841121,23.8370672 0.0443925234,26.1221996 0.0443925234,28.9226069 L0.0443925234,67.6130346 C0.0443925234,68.8452138 1.02102804,69.8309572 2.24182243,69.8309572 C3.46261682,69.8309572 4.43925234,68.8452138 4.43925234,67.6130346 L4.43925234,28.9226069 C4.43925234,28.5641548 4.72780374,28.2729124 5.08294393,28.2729124 L28.921729,28.2729124 C30.1425234,28.2729124 31.1191589,27.287169 31.1191589,26.0549898 Z" id="Path" fill="#374050"></path>
                            <path d="M55.6904206,59.8167006 C56.911215,59.8167006 57.8878505,58.8309572 57.8878505,57.598778 L57.8878505,53.3197556 L62.7266355,53.3197556 C63.9474299,53.3197556 64.9240654,52.3340122 64.9240654,51.101833 L64.9240654,46.688391 C64.9240654,45.1873727 64.5023364,43.7087576 63.703271,42.4317719 L60.307243,37.0325866 C59.9742991,36.5173116 59.8189252,35.9124236 59.8189252,35.3075356 L59.8189252,17.586558 C59.8189252,14.898167 58.864486,12.299389 57.1109813,10.2606925 L48.9871495,0.761710794 C48.5654206,0.268839104 47.9661215,0 47.3224299,0 C46.6787383,0 46.0794393,0.291242363 45.6577103,0.784114053 L37.6226636,10.2830957 C35.9135514,12.3217923 34.9591121,14.898167 34.9591121,17.5641548 L34.9591121,35.1731161 C34.9591121,35.8452138 34.7593458,36.4725051 34.3820093,37.0101833 L30.7640187,42.2749491 C29.8317757,43.6191446 29.3434579,45.1873727 29.3434579,46.8228106 L29.3434579,51.101833 C29.3434579,52.3340122 30.3200935,53.3197556 31.5408879,53.3197556 L35.536215,53.3421589 L35.536215,57.6211813 C35.536215,58.8533605 36.5128505,59.8391039 37.7336449,59.8391039 C38.9544393,59.8391039 39.9310748,58.8533605 39.9310748,57.6211813 L39.9310748,53.3421589 L39.953271,53.3197556 C41.1740654,53.3197556 42.1507009,52.3340122 42.1507009,51.101833 C42.1507009,49.8696538 41.1740654,48.8839104 39.953271,48.8839104 L33.7383178,48.8839104 L33.7383178,46.8228106 C33.7383178,46.1059063 33.9602804,45.4114053 34.3598131,44.8065173 L37.9778037,39.5417515 C38.8656542,38.2423625 39.3317757,36.7413442 39.3317757,35.1507128 L39.3317757,17.5641548 C39.3317757,15.9511202 39.9088785,14.3828921 40.9299065,13.1731161 L47.3668224,5.62321792 L53.8037383,13.1507128 C54.8469626,14.3828921 55.4240654,15.9511202 55.4240654,17.5641548 L55.4240654,35.2851324 C55.4240654,36.7413442 55.8235981,38.1527495 56.6004673,39.3849287 L59.9964953,44.7841141 C60.3516355,45.3441955 60.5292056,45.99389 60.5292056,46.6659878 L60.5292056,48.8615071 L54.625,48.8615071 C53.4042056,48.8615071 52.4275701,49.8472505 52.4275701,51.0794297 C52.4275701,51.885947 52.8492991,52.5804481 53.4929907,52.9613035 L53.4929907,57.598778 C53.4929907,58.8309572 54.4918224,59.8167006 55.6904206,59.8167006 Z" id="Path" fill="#2EC986"></path>
                        </g>
                        <path d="M45.6299213,52.7320315 L45.6299213,62.4477026 C45.6299213,63.653629 46.3855086,64.7230354 47.3866619,64.7912954 C48.4633739,64.8595554 49.3700787,63.8356556 49.3700787,62.5387159 L49.3700787,52.7320315 C49.3700787,51.4805985 48.5389326,50.4794521 47.5,50.4794521 C46.4610674,50.4794521 45.6299213,51.4805985 45.6299213,52.7320315 Z" id="Path" fill="#374050"></path>
                    </g>
                </g>
            </g>
        </g>
    </g>
</svg>