<?xml version="1.0" encoding="UTF-8"?>
<svg width="32px" height="55px" viewBox="0 0 32 55" version="1.1" xmlns="http://www.w3.org/2000/svg" xmlns:xlink="http://www.w3.org/1999/xlink">
    <!-- Generator: Sketch 56.2 (81672) - https://sketch.com -->
    <title>macintosh-mouse</title>
    <desc>Created with Sketch.</desc>
    <g id="v7.0" stroke="none" stroke-width="1" fill="none" fill-rule="evenodd">
        <g id="Home-v2" transform="translate(-150.000000, -664.000000)" fill="#FFFFFF" fill-rule="nonzero">
            <g id="Main" transform="translate(0.000000, 100.000000)">
                <g id="Left" transform="translate(150.000000, 127.000000)">
                    <g id="macintosh-mouse" transform="translate(0.000000, 437.000000)">
                        <path d="M15.9072014,8.83400079 C14.4630013,8.83400079 13.2880012,10.0090009 13.2880012,11.453201 C13.2880012,12.8976012 14.4630013,14.0728013 15.9072014,14.0728013 C17.3514016,14.0728013 18.5264017,12.8976012 18.5264017,11.453201 C18.5264017,10.0090009 17.3514016,8.83400079 15.9072014,8.83400079 Z" id="Path"></path>
                        <path d="M15.9070014,0 C7.21960065,0 0.151800014,7.8296007 0.151800014,17.4536016 L0.151800014,37.5606034 C0.151800014,47.1844042 7.21960065,55.0142049 15.9070014,55.0142049 C24.5944022,55.0142049 31.6622028,47.1846042 31.6622028,37.5606034 L31.6622028,17.4536016 C31.6622028,7.8296007 24.5946022,0 15.9070014,0 Z M28.6624026,37.5606034 C28.6624026,45.5304041 22.9404021,52.0142047 15.9072014,52.0142047 C8.87380079,52.0142047 3.15200028,45.5304041 3.15200028,37.5606034 L3.15200028,17.4536016 C3.15200028,9.48380085 8.87400079,3.00000027 15.9072014,3.00000027 C22.9404021,3.00000027 28.6624026,9.48380085 28.6624026,17.4536016 L28.6624026,37.5606034 Z" id="Shape"></path>
                    </g>
                </g>
            </g>
        </g>
    </g>
</svg>