<?xml version="1.0" encoding="UTF-8"?>
<svg width="50px" height="50px" viewBox="0 0 50 50" version="1.1" xmlns="http://www.w3.org/2000/svg" xmlns:xlink="http://www.w3.org/1999/xlink">
    <!-- Generator: Sketch 56.3 (81716) - https://sketch.com -->
    <title>Icon 50x50</title>
    <desc>Created with Sketch.</desc>
    <g id="Page-1" stroke="none" stroke-width="1" fill="none" fill-rule="evenodd">
        <g id="Process" transform="translate(-243.000000, -1353.000000)" fill="#276CF2">
            <g id="#2" transform="translate(0.000000, 960.000000)">
                <g id="Switcher" transform="translate(-0.000000, 393.000000)">
                    <g id="Group-2" transform="translate(155.000000, 0.000000)">
                        <path d="M113,0 C126.807,0 138,11.192 138,24.999 C138,38.806 126.807,49.999 113,49.999 L112.999,49.999 C99.193,49.999 88,38.806 88,24.999 C88,11.192 99.193,0 112.999,0 L113,0 Z M113,1.8 C100.207,1.8 89.8,12.207 89.8,24.999 C89.8,37.792 100.207,48.199 112.999,48.199 C125.792,48.199 136.2,37.792 136.2,24.999 C136.2,12.207 125.792,1.8 113,1.8 Z M112.95,13.272 C107.367,13.272 102.824,17.814 102.824,23.398 C102.824,28.52 108.781,34.825 112.335,38.129 C112.45,38.238 112.588,38.31 112.733,38.346 L112.735,38.346 L112.737,38.347 C112.737,38.347 112.738,38.347 112.738,38.348 L112.739,38.348 L112.741,38.348 C112.81,38.365 112.88,38.372 112.95,38.372 L112.958,38.372 C113.186,38.371 113.413,38.283 113.587,38.109 L113.908,37.788 C116.651,35.054 123.076,28.653 123.076,23.398 C123.076,17.814 118.533,13.272 112.95,13.272 L112.95,13.272 Z M112.933,36.219 C107.642,31.166 104.625,26.52 104.625,23.398 C104.625,18.807 108.36,15.072 112.95,15.072 C117.541,15.072 121.276,18.807 121.276,23.398 C121.276,27.729 115.482,33.673 112.933,36.219 Z M112.95,20.074 C111.117,20.074 109.626,21.565 109.626,23.398 C109.626,25.231 111.117,26.722 112.95,26.722 C114.783,26.722 116.275,25.231 116.275,23.398 C116.275,21.565 114.783,20.074 112.95,20.074 Z M112.95,24.922 C112.11,24.922 111.427,24.238 111.427,23.398 C111.427,22.557 112.11,21.873 112.95,21.873 C113.791,21.873 114.475,22.557 114.475,23.398 C114.475,24.238 113.791,24.922 112.95,24.922 Z" id="Icon-50x50"></path>
                    </g>
                </g>
            </g>
        </g>
    </g>
</svg>