<?xml version="1.0" encoding="UTF-8"?>
<svg width="36px" height="30px" viewBox="0 0 36 30" version="1.1" xmlns="http://www.w3.org/2000/svg" xmlns:xlink="http://www.w3.org/1999/xlink">
    <!-- Generator: Sketch 56.3 (81716) - https://sketch.com -->
    <title>Icon 100x100</title>
    <desc>Created with Sketch.</desc>
    <g id="Page-1" stroke="none" stroke-width="1" fill="none" fill-rule="evenodd">
        <g id="Process" transform="translate(-103.000000, -2480.000000)" fill="#2E71F2">
            <g id="#3" transform="translate(0.000000, 1868.000000)">
                <path d="M134.497365,624.725666 L134.480886,624.725666 C134.026074,622.647378 132.162006,621.085553 129.935406,621.085553 L124.457233,621.085553 L119.783878,613.229299 C119.333681,612.470642 118.501837,612 117.614624,612 L115.653002,612 C114.891687,612 114.179149,612.335799 113.699289,612.922301 C113.218112,613.50815 113.031573,614.269425 113.185813,615.009753 L114.454013,621.085553 L113.169335,621.085553 C112.869423,621.085553 112.585989,620.954638 112.392859,620.72619 L110.387733,618.361851 C109.834709,617.708582 109.023957,617.334162 108.16377,617.334162 L105.907509,617.334162 C105.042048,617.334162 104.228661,617.713164 103.674318,618.373634 C103.119975,619.033449 102.89191,619.897493 103.048128,620.742554 L104.71643,629.775087 C105.13367,632.030765 107.11243,633.667867 109.421423,633.667867 L112.103494,633.667867 L110.992171,638.990247 C110.837931,639.730575 111.024469,640.491196 111.505647,641.077699 C111.985506,641.664201 112.698044,642 113.460019,642 L115.421641,642 C116.308194,642 117.13872,641.529358 117.590895,640.770701 L121.816029,633.667867 L134.497365,633.667867 C136.979713,633.667867 139,631.662237 139,629.197094 C139,626.731295 136.979713,624.725666 134.497365,624.725666 L134.497365,624.725666 Z M115.122388,614.61046 C115.076907,614.392485 115.171824,614.236041 115.232466,614.162074 C115.293767,614.088106 115.428892,613.963736 115.653002,613.963736 L117.614624,613.963736 C117.805777,613.963736 117.985065,614.064541 118.081301,614.228186 L122.160104,621.085553 L116.47364,621.085553 L115.122388,614.61046 L115.122388,614.61046 Z M134.497365,631.70413 L122.984038,631.70413 L123.398642,631.007004 C123.675484,630.540289 123.519925,629.938077 123.049294,629.662499 C122.58064,629.387576 121.973566,629.540748 121.695405,630.008771 L115.888318,639.771814 C115.791423,639.934804 115.612135,640.036264 115.421641,640.036264 L113.460019,640.036264 C113.23525,640.036264 113.100124,639.911894 113.038824,639.837926 C112.978182,639.763959 112.882606,639.60686 112.928746,639.388885 L114.740742,630.707207 C114.851479,630.176344 114.507404,629.656608 113.973495,629.546639 C113.441563,629.43536 112.914245,629.77705 112.804167,630.308568 L112.512824,631.70413 L109.421423,631.70413 C108.066875,631.70413 106.906117,630.743863 106.661573,629.420305 L104.993271,620.388427 C104.924061,620.017935 105.088848,619.75414 105.192993,619.630425 C105.297798,619.506055 105.528499,619.297899 105.907509,619.297899 L108.16377,619.297899 C108.438634,619.297899 108.698339,619.417687 108.87499,619.627152 L110.880116,621.990836 C111.450279,622.663088 112.2841,623.04929 113.169335,623.04929 L129.935406,623.04929 C131.06123,623.04929 132.022926,623.745107 132.417096,624.725666 L130.771864,624.725666 C130.22609,624.725666 129.783143,625.164888 129.783143,625.707534 C129.783143,626.249525 130.22609,626.689402 130.771864,626.689402 L134.497365,626.689402 C135.889484,626.689402 137.022558,627.813969 137.022558,629.197094 C137.022558,630.579564 135.889484,631.70413 134.497365,631.70413 Z M127.591478,624.725666 L112.456137,624.725666 C111.910363,624.725666 111.467416,625.164888 111.467416,625.707534 C111.467416,626.249525 111.910363,626.689402 112.456137,626.689402 L127.591478,626.689402 C128.137252,626.689402 128.580199,626.249525 128.580199,625.707534 C128.580199,625.164888 128.137252,624.725666 127.591478,624.725666 Z" id="Icon-100x100"></path>
            </g>
        </g>
    </g>
</svg>