<?xml version="1.0" encoding="UTF-8"?>
<svg width="50px" height="50px" viewBox="0 0 50 50" version="1.1" xmlns="http://www.w3.org/2000/svg" xmlns:xlink="http://www.w3.org/1999/xlink">
    <!-- Generator: Sketch 56.3 (81716) - https://sketch.com -->
    <title>Icon 50x50</title>
    <desc>Created with Sketch.</desc>
    <g id="Page-1" stroke="none" stroke-width="1" fill="none" fill-rule="evenodd">
        <g id="Process" transform="translate(-1147.000000, -1353.000000)" fill="#DDDDDD">
            <g id="#2" transform="translate(0.000000, 960.000000)">
                <g id="Switcher" transform="translate(-0.000000, 393.000000)">
                    <g id="Group-5" transform="translate(1083.000000, 0.000000)">
                        <path d="M89,0 C102.807,0 114,11.193 114,25 L114,25.001 C114,38.808 102.807,50.001 89,50.001 C75.193,50.001 64,38.808 64,25.001 L64,25 C64,11.193 75.193,0 89,0 Z M89,1.8 C76.208,1.8 65.8,12.208 65.8,25 C65.8,37.793 76.208,48.201 89,48.201 C101.793,48.201 112.2,37.793 112.2,25.001 C112.2,12.208 101.793,1.8 89,1.8 Z M100.649,15.847 C100.688,15.179 100.457,14.544 99.998,14.057 C99.498,13.527 98.786,13.242 98.04,13.312 L94.998,13.577 C92.402,13.803 89.945,14.705 87.83,16.195 L81.151,15.066 C80.239,14.914 79.298,15.212 78.644,15.867 L78.183,16.327 C77.592,16.918 77.288,17.736 77.351,18.57 C77.413,19.404 77.834,20.168 78.507,20.665 L80.488,22.129 L80.056,22.48 C79.54,22.9 79.226,23.522 79.192,24.186 C79.158,24.85 79.408,25.499 79.878,25.968 L80.578,26.668 L79.258,27.643 C78.842,27.95 78.581,28.421 78.543,28.936 C78.505,29.451 78.692,29.955 79.057,30.319 L83.592,34.854 C83.925,35.188 84.375,35.374 84.843,35.374 C84.887,35.374 84.932,35.372 84.976,35.368 C85.49,35.33 85.961,35.07 86.268,34.654 L87.244,33.333 L87.944,34.033 C88.388,34.478 88.979,34.723 89.607,34.723 C90.315,34.723 90.979,34.409 91.428,33.861 L91.789,33.42 L93.279,35.436 C93.777,36.109 94.539,36.53 95.373,36.593 C95.445,36.598 95.517,36.601 95.588,36.601 C96.346,36.601 97.076,36.301 97.617,35.76 L98.075,35.301 C98.733,34.645 99.031,33.707 98.877,32.793 L97.745,26.092 C99.382,23.829 100.335,21.18 100.5,18.371 L100.649,15.847 L100.649,15.847 Z M79.577,19.217 C79.322,19.029 79.169,18.751 79.146,18.436 C79.122,18.12 79.233,17.823 79.455,17.6 L79.916,17.14 C80.16,16.896 80.504,16.783 80.852,16.841 L85.925,17.698 L81.928,20.955 L79.577,19.217 L79.577,19.217 Z M84.865,33.582 L80.326,29.091 L81.865,27.956 L85.964,32.054 L84.865,33.582 L84.865,33.582 Z M96.803,34.028 L96.345,34.487 C96.12,34.71 95.819,34.818 95.508,34.798 C95.192,34.774 94.915,34.621 94.727,34.366 L92.965,31.984 L96.239,27.986 L97.102,33.093 C97.159,33.434 97.048,33.783 96.803,34.028 L96.803,34.028 Z M98.703,18.265 C98.543,20.994 97.543,23.553 95.811,25.668 L90.035,32.72 C89.838,32.962 89.442,32.985 89.217,32.761 L81.151,24.695 C81,24.544 80.986,24.368 80.989,24.277 C80.994,24.185 81.027,24.011 81.192,23.876 L88.141,18.214 C90.149,16.579 92.573,15.595 95.154,15.37 L98.251,15.102 C98.418,15.102 98.573,15.17 98.689,15.293 C98.755,15.363 98.865,15.515 98.852,15.741 L98.703,18.265 Z M91.698,18.073 C91.146,18.626 90.841,19.361 90.841,20.143 C90.841,20.925 91.146,21.66 91.699,22.213 C92.252,22.766 92.987,23.07 93.769,23.07 C94.55,23.07 95.285,22.766 95.839,22.213 C96.979,21.071 96.979,19.215 95.838,18.073 C94.733,16.967 92.806,16.967 91.698,18.073 Z M94.567,20.94 C94.139,21.366 93.398,21.365 92.972,20.94 C92.532,20.501 92.532,19.786 92.971,19.346 C93.185,19.133 93.468,19.016 93.769,19.016 C94.07,19.016 94.353,19.133 94.566,19.346 C95.005,19.785 95.005,20.501 94.567,20.94 Z M89.213,23.425 L86.234,26.404 C85.883,26.755 85.883,27.325 86.234,27.676 C86.41,27.852 86.641,27.94 86.871,27.94 C87.102,27.94 87.332,27.852 87.508,27.676 L90.487,24.698 C90.838,24.347 90.838,23.776 90.487,23.425 C90.135,23.074 89.565,23.074 89.213,23.425 Z M78.841,33.798 C79.193,33.447 79.763,33.447 80.114,33.798 C80.466,34.15 80.466,34.72 80.114,35.071 L77.84,37.345 C77.664,37.521 77.434,37.608 77.203,37.608 C76.973,37.608 76.742,37.521 76.567,37.345 C76.215,36.993 76.215,36.423 76.567,36.072 L78.841,33.798 Z" id="Icon-50x50"></path>
                    </g>
                </g>
            </g>
        </g>
    </g>
</svg>