<?xml version="1.0" encoding="UTF-8"?>
<svg width="33px" height="33px" viewBox="0 0 33 33" version="1.1" xmlns="http://www.w3.org/2000/svg" xmlns:xlink="http://www.w3.org/1999/xlink">
    <!-- Generator: Sketch 56.3 (81716) - https://sketch.com -->
    <title>Icon 100x100</title>
    <desc>Created with Sketch.</desc>
    <g id="Page-1" stroke="none" stroke-width="1" fill="none" fill-rule="evenodd">
        <g id="Process" transform="translate(-402.000000, -2477.000000)" fill="#2E71F2">
            <g id="#3" transform="translate(0.000000, 1868.000000)">
                <path d="M434.994122,612.353926 C435.046894,611.474229 434.742927,610.636825 434.139918,609.996084 C433.481324,609.296838 432.541982,608.924659 431.564644,609.012769 L427.303479,609.385654 C423.676283,609.702147 420.246101,610.973761 417.298608,613.0715 L407.853824,611.474229 C406.63655,611.266288 405.392537,611.666663 404.52004,612.540721 L403.877628,613.184986 C403.091677,613.971639 402.687795,615.060687 402.770823,616.171586 C402.853148,617.281781 403.413235,618.298931 404.306841,618.961523 L407.293737,621.172749 L406.484566,621.833226 C405.807677,622.385857 405.393944,623.203524 405.349616,624.076172 C405.305287,624.949525 405.633881,625.805256 406.250962,626.423441 L407.399985,627.575223 L405.358059,629.085088 C404.824007,629.479824 404.489784,630.086026 404.44053,630.748618 C404.390572,631.41121 404.631213,632.06041 405.100532,632.529864 L411.452876,638.89357 C411.881385,639.322845 412.459766,639.561096 413.061367,639.561096 C413.117657,639.561096 413.174651,639.558982 413.230941,639.554752 C413.89235,639.50541 414.498173,639.17059 414.892204,638.635582 L416.399373,636.590004 L417.548396,637.741082 C418.132406,638.326137 418.908507,638.64827 419.733157,638.64827 L419.733861,638.64827 C420.664056,638.64827 421.535146,638.234502 422.124785,637.514109 L422.798156,636.691507 L425.042726,639.733088 C425.702728,640.628998 426.717358,641.190087 427.826274,641.273263 C427.921264,641.280312 428.016253,641.283836 428.111243,641.283836 C429.11954,641.283836 430.089842,640.884166 430.808949,640.163773 L431.45136,639.519508 C432.323154,638.647565 432.721407,637.399212 432.516651,636.180465 L430.916604,626.689887 C433.21676,623.530591 434.557873,619.826417 434.787255,615.894566 L434.994122,612.353926 L434.994122,612.353926 Z M405.561408,617.260634 C405.162451,616.965287 404.91196,616.510636 404.875371,616.014397 C404.838079,615.518157 405.018911,615.031786 405.370725,614.680048 L406.013136,614.035783 C406.403649,613.645277 406.960922,613.46835 407.502011,613.558576 L415.056149,614.837238 L408.983145,619.793993 L405.561408,617.260634 L405.561408,617.260634 Z M413.193649,637.379476 C413.156357,637.429523 413.10851,637.44362 413.074032,637.445735 C413.03674,637.449259 412.989597,637.442915 412.945269,637.398508 L406.592925,631.034801 C406.5493,630.991099 406.542967,630.940347 406.545782,630.906512 C406.548596,630.871973 406.561261,630.823336 406.611923,630.785977 L408.909968,629.087203 L414.890093,635.07732 L413.193649,637.379476 L413.193649,637.379476 Z M429.958264,638.024446 L429.315852,638.668711 C428.965446,639.020449 428.483462,639.200195 427.983887,639.164246 C427.48783,639.126887 427.035398,638.876652 426.739874,638.476277 L424.177265,635.004012 L429.151204,628.920145 L430.434619,636.532203 C430.526794,637.076375 430.348777,637.633939 429.958264,638.024446 L429.958264,638.024446 Z M432.680596,615.771211 C432.454028,619.643147 431.036924,623.276832 428.583377,626.277529 L420.492371,636.174121 C420.305206,636.402504 420.028681,636.533613 419.733861,636.533613 L419.733157,636.533613 C419.472112,636.533613 419.225842,636.431405 419.041492,636.24602 L407.743355,624.928379 C407.544932,624.729601 407.442906,624.465269 407.457682,624.184019 C407.471755,623.903475 407.599815,623.650421 407.817236,623.473495 L417.549803,615.529435 C420.394567,613.206838 423.830377,611.811165 427.486422,611.491851 L431.748291,611.119672 C431.779954,611.116852 431.811617,611.115443 431.842577,611.115443 C432.132471,611.115443 432.402664,611.233158 432.603901,611.446034 C432.803731,611.658909 432.905053,611.937339 432.887463,612.229867 L432.680596,615.771211 Z M405.495267,637.003067 C405.907592,636.590004 406.575334,636.590004 406.987659,637.003067 C407.399985,637.41613 407.399985,638.085771 406.987659,638.498129 L403.801637,641.68985 C403.595474,641.896382 403.325985,642 403.055792,642 C402.785599,642 402.515407,641.896382 402.309244,641.68985 C401.896919,641.277492 401.896919,640.607851 402.309244,640.194788 L405.495267,637.003067 Z M419.327868,623.145723 L415.155361,627.325694 C414.743035,627.738052 414.743035,628.408398 415.155361,628.820756 C415.361523,629.027288 415.631716,629.130201 415.901909,629.130201 C416.171398,629.130201 416.441591,629.027288 416.647753,628.820756 L420.820261,624.640785 C421.232586,624.228427 421.232586,623.558786 420.820261,623.145723 C420.407936,622.73266 419.740194,622.73266 419.327868,623.145723 Z M425.562706,614.492549 C424.522746,614.492549 423.544704,614.898563 422.808711,615.635168 C421.290987,617.157016 421.290987,619.631869 422.808711,621.153717 C423.544704,621.890322 424.522746,622.296336 425.562706,622.296336 C426.604074,622.296336 427.581412,621.890322 428.317406,621.153717 C429.835129,619.631869 429.835129,617.157016 428.317406,615.635168 C427.581412,614.898563 426.604074,614.492549 425.562706,614.492549 Z M426.825013,619.65795 C426.152346,620.332525 424.975178,620.333935 424.301103,619.658655 C423.60592,618.961523 423.60592,617.827362 424.301103,617.130935 C424.638141,616.793295 425.086351,616.607205 425.562706,616.607205 C426.039765,616.607205 426.488679,616.793295 426.825013,617.13023 C427.520196,617.827362 427.520196,618.961523 426.825013,619.65795 Z" id="Icon-100x100"></path>
            </g>
        </g>
    </g>
</svg>