<?xml version="1.0" encoding="UTF-8"?>
<svg width="30px" height="30px" viewBox="0 0 30 30" version="1.1" xmlns="http://www.w3.org/2000/svg" xmlns:xlink="http://www.w3.org/1999/xlink">
    <!-- Generator: Sketch 56.3 (81716) - https://sketch.com -->
    <title>Icon 32x32</title>
    <desc>Created with Sketch.</desc>
    <g id="Page-1" stroke="none" stroke-width="1" fill="none" fill-rule="evenodd">
        <g id="Process" transform="translate(-402.000000, -2293.000000)" fill="#2E71F2">
            <g id="#3" transform="translate(0.000000, 1868.000000)">
                <path d="M431.037641,448.984624 L424.170841,442.118882 C425.00622,440.506282 425.486259,438.680855 425.486259,436.742921 C425.486259,430.268142 420.218024,425 413.742192,425 C407.267297,425 402,430.268142 402,436.742921 C402,443.217701 407.267297,448.485843 413.742192,448.485843 C415.681097,448.485843 417.505619,448.005813 419.119185,447.170448 L425.985049,454.037127 C426.629163,454.680293 427.479543,455 428.344925,455 C429.265624,455 430.202262,454.637165 430.920444,453.919932 C432.312744,452.52672 432.365248,450.314082 431.037641,448.984624 L431.037641,448.984624 Z M413.84116,446.315789 C408.618113,446.315789 404.368421,442.066098 404.368421,436.842105 C404.368421,431.618113 408.618113,427.368421 413.84116,427.368421 C419.066098,427.368421 423.315789,431.618113 423.315789,436.842105 C423.315789,442.066098 419.066098,446.315789 413.84116,446.315789 L413.84116,446.315789 Z M429.228059,452.22828 C428.739557,452.715842 428.001078,452.768319 427.579363,452.347547 L420.947368,445.715375 C421.596161,445.188694 422.188661,444.596178 422.715328,443.947368 L429.346368,450.578586 C429.769038,451.001266 429.715608,451.740719 429.228059,452.22828 Z M413.476871,431.315789 C414.115194,431.315789 414.631579,431.833099 414.631579,432.470497 C414.631579,433.10882 414.115194,433.625205 413.476871,433.625205 C411.904621,433.625205 410.625205,434.904621 410.625205,436.476871 C410.625205,437.115194 410.10882,437.631579 409.470497,437.631579 C408.833099,437.631579 408.315789,437.115194 408.315789,436.476871 C408.315789,433.630748 410.630748,431.315789 413.476871,431.315789 Z" id="Icon-32x32"></path>
            </g>
        </g>
    </g>
</svg>