<?xml version="1.0" encoding="UTF-8"?>
<svg width="50px" height="50px" viewBox="0 0 50 50" version="1.1" xmlns="http://www.w3.org/2000/svg" xmlns:xlink="http://www.w3.org/1999/xlink">
    <!-- Generator: Sketch 56.3 (81716) - https://sketch.com -->
    <title>Icon 50x50</title>
    <desc>Created with Sketch.</desc>
    <g id="Page-1" stroke="none" stroke-width="1" fill="none" fill-rule="evenodd">
        <g id="Process" transform="translate(-861.000000, -1353.000000)" fill="#276CF2">
            <g id="#2" transform="translate(0.000000, 960.000000)">
                <g id="Switcher" transform="translate(-0.000000, 393.000000)">
                    <g id="Group-4" transform="translate(783.000000, 0.000000)">
                        <path d="M103,0 C116.808,0 128,11.193 128,25 C128,38.807 116.808,49.999 103,49.999 C89.193,49.999 78,38.807 78,25 C78,11.193 89.193,0 103,0 Z M103,1.8 C90.208,1.8 79.8,12.207 79.8,25 C79.8,37.792 90.208,48.199 103,48.199 C115.793,48.199 126.2,37.792 126.2,25 C126.2,12.207 115.793,1.8 103,1.8 Z M111.306,20.523 L109.061,20.523 C108.231,20.523 107.501,20.931 107.042,21.552 L106.906,21.47 C106.005,20.925 105.321,20.077 104.979,19.081 L104.339,17.219 C104.222,16.88 104.158,16.524 104.149,16.164 L104.124,15.098 C104.098,14.018 103.23,13.172 102.15,13.172 L101.392,13.172 C100.213,13.172 99.164,13.965 98.842,15.1 L97.62,19.418 L94.847,19.418 C93.358,19.418 92.147,20.629 92.147,22.117 L92.147,22.22 C92.147,22.78 92.322,23.32 92.644,23.771 C92.322,24.223 92.147,24.763 92.147,25.322 L92.147,25.425 C92.147,25.985 92.322,26.525 92.644,26.977 C92.322,27.428 92.147,27.968 92.147,28.528 L92.147,28.631 C92.147,29.19 92.322,29.73 92.644,30.182 C92.322,30.634 92.147,31.173 92.147,31.733 L92.147,31.836 C92.147,33.324 93.358,34.535 94.847,34.535 L103.138,34.535 C104.054,34.535 104.953,34.286 105.739,33.813 L106.759,33.2 C107.148,34.086 108.032,34.708 109.061,34.708 L111.306,34.708 C112.691,34.708 113.819,33.581 113.819,32.195 L113.819,23.036 C113.819,21.65 112.691,20.523 111.306,20.523 L111.306,20.523 Z M104.811,32.27 C104.306,32.574 103.727,32.735 103.138,32.735 L94.847,32.735 C94.351,32.735 93.948,32.332 93.948,31.836 L93.948,31.733 C93.948,31.451 94.075,31.253 94.182,31.137 C94.674,30.602 94.674,29.762 94.182,29.227 C94.075,29.111 93.948,28.913 93.948,28.631 L93.948,28.528 C93.948,28.245 94.074,28.048 94.182,27.932 C94.674,27.397 94.674,26.557 94.181,26.021 C94.074,25.905 93.948,25.708 93.948,25.425 L93.948,25.322 C93.948,25.04 94.075,24.842 94.181,24.728 C94.674,24.192 94.674,23.352 94.181,22.815 C94.074,22.7 93.948,22.503 93.948,22.22 L93.948,22.117 C93.948,21.622 94.351,21.218 94.847,21.218 L99.696,21.218 C100.193,21.218 100.597,20.815 100.597,20.318 C100.597,19.821 100.193,19.418 99.696,19.418 L99.491,19.418 L100.574,15.591 C100.678,15.227 101.014,14.972 101.392,14.972 L102.15,14.972 C102.244,14.972 102.322,15.049 102.325,15.142 L102.351,16.207 C102.363,16.753 102.46,17.291 102.637,17.805 L103.276,19.667 C103.756,21.06 104.714,22.248 105.976,23.011 L106.547,23.356 L106.547,31.227 L104.811,32.27 L104.811,32.27 Z M112.019,32.195 C112.019,32.588 111.699,32.909 111.306,32.909 L109.061,32.909 C108.667,32.909 108.348,32.588 108.348,32.195 L108.348,23.036 C108.348,22.643 108.667,22.323 109.061,22.323 L111.306,22.323 C111.699,22.323 112.019,22.643 112.019,23.036 L112.019,32.195 Z M102.305,27.543 C102.802,27.543 103.205,27.946 103.205,28.443 C103.205,28.94 102.802,29.343 102.305,29.343 L98.392,29.343 C97.895,29.343 97.491,28.94 97.491,28.443 C97.491,27.946 97.895,27.543 98.392,27.543 L102.305,27.543 Z M102.305,24.19 C102.802,24.19 103.205,24.593 103.205,25.09 C103.205,25.587 102.802,25.99 102.305,25.99 L98.392,25.99 C97.895,25.99 97.491,25.587 97.491,25.09 C97.491,24.593 97.895,24.19 98.392,24.19 L102.305,24.19 Z" id="Icon-50x50"></path>
                    </g>
                </g>
            </g>
        </g>
    </g>
</svg>