<?xml version="1.0" encoding="UTF-8"?>
<svg width="28px" height="30px" viewBox="0 0 28 30" version="1.1" xmlns="http://www.w3.org/2000/svg" xmlns:xlink="http://www.w3.org/1999/xlink">
    <!-- Generator: Sketch 56.3 (81716) - https://sketch.com -->
    <title>Icon 25x25</title>
    <desc>Created with Sketch.</desc>
    <g id="Page-1" stroke="none" stroke-width="1" fill="none" fill-rule="evenodd">
        <g id="Process" transform="translate(-103.000000, -2293.000000)" fill="#276CF2">
            <g id="#3" transform="translate(0.000000, 1868.000000)">
                <path d="M130.902245,449.9696 L130.17183,446.6168 C129.481588,443.4464 127.279387,440.8712 124.281034,439.7276 L123.032025,439.25 C123.918262,437.768 124.44903,435.9464 124.44903,433.9736 C124.44903,426.1664 119.846199,425 117.102274,425 C114.358349,425 109.755518,426.1664 109.755518,433.9736 C109.755518,435.9188 110.27046,437.7164 111.134785,439.1876 L109.71778,439.7276 C106.719427,440.8712 104.517226,443.4464 103.826984,446.6168 L103.096569,449.9696 C102.825098,451.2236 103.131873,452.5088 103.942633,453.4976 C104.726612,454.4528 105.880667,455 107.111416,455 L126.888615,455 C128.119364,455 129.27342,454.4516 130.057398,453.4964 C130.868159,452.5076 131.176151,451.2224 130.902245,449.9696 L130.902245,449.9696 Z M117.102274,427.4 C119.210738,427.4 122.014314,428.0816 122.014314,433.9736 C122.014314,437.5976 119.810896,440.5472 117.102274,440.5472 C114.393652,440.5472 112.190234,437.5976 112.190234,433.9736 C112.190234,428.0816 114.99381,427.4 117.102274,427.4 L117.102274,427.4 Z M128.163189,451.9892 C127.839372,452.384 127.386515,452.6 126.888615,452.6 L107.111416,452.6 C106.613517,452.6 106.160659,452.384 105.836842,451.9892 C105.491113,451.5668 105.358421,451.0136 105.476504,450.4736 L106.206919,447.1208 C106.725514,444.7436 108.365295,442.8164 110.595495,441.9656 L112.718567,441.1568 C113.94323,442.2752 115.457623,442.9472 117.102274,442.9472 C118.720143,442.9472 120.211406,442.2968 121.42633,441.212 L123.402102,441.9656 C125.633519,442.8164 127.273301,444.7436 127.791895,447.1208 L128.52231,450.4736 C128.640394,451.0148 128.508919,451.5668 128.163189,451.9892 L128.163189,451.9892 Z" id="Icon-25x25"></path>
            </g>
        </g>
    </g>
</svg>