<?xml version="1.0" encoding="UTF-8"?>
<svg width="50px" height="50px" viewBox="0 0 50 50" version="1.1" xmlns="http://www.w3.org/2000/svg" xmlns:xlink="http://www.w3.org/1999/xlink">
    <!-- Generator: Sketch 56.3 (81716) - https://sketch.com -->
    <title>Icon 50x50</title>
    <desc>Created with Sketch.</desc>
    <g id="Page-1" stroke="none" stroke-width="1" fill="none" fill-rule="evenodd">
        <g id="Process" transform="translate(-557.000000, -1353.000000)" fill="#DDDDDD">
            <g id="#2" transform="translate(0.000000, 960.000000)">
                <g id="Switcher" transform="translate(-0.000000, 393.000000)">
                    <g id="Group-3" transform="translate(476.000000, 0.000000)">
                        <path d="M106,0 C119.807,0 131,11.193 131,25 C131,38.807 119.807,50 106,50 C92.193,50 81,38.807 81,25 C81,11.193 92.193,0 106,0 Z M106,1.8 C93.207,1.8 82.8,12.207 82.8,25 C82.8,37.792 93.207,48.2 106,48.2 C118.792,48.2 129.2,37.792 129.2,25 C129.2,12.207 118.792,1.8 106,1.8 Z M106.847542,22.9985667 L104.032571,25.7815463 L105.869023,27.7175259 L108.664184,24.959182 L108.453,23.612 C108.417,23.393 108.247,23.221 108.027,23.186 L106.847542,22.9985667 Z M104.641435,22.6479838 L104.415,22.612 C103.408,22.452 102.654,21.696 102.496,20.688 C102.337,19.679 102.824,18.73 103.734,18.268 L106.947,16.638 C107.146,16.537 107.256,16.321 107.22,16.101 L106.64,12.552 C106.529,11.869 106.708,11.208 107.147,10.691 C107.983,9.71 109.621,9.613 110.556,10.545 L113.125,13.115 C113.28,13.269 113.523,13.309 113.719,13.209 L116.99,11.542 C118.055,11 119.398,11.396 120.017,12.404 C120.436,13.087 120.466,13.928 120.098,14.651 L118.431,17.921 C118.331,18.119 118.369,18.358 118.525,18.515 L121.094,21.083 C121.767,21.757 121.96,22.72 121.597,23.597 C121.186,24.587 120.197,25.18 119.085,24.998 L115.541,24.418 C115.265,24.412 115.091,24.519 115.002,24.692 L113.364,27.917 C112.96,28.709 112.194,29.182 111.312,29.182 C110.161,29.182 109.198,28.36 109.02,27.229 L109.00743,27.1488142 L106.653505,29.4717454 C106.610674,29.5473315 106.556143,29.6179803 106.49,29.681 C106.432645,29.7353883 106.369966,29.7806498 106.303754,29.8168918 L96.989,39.009 C96.386,39.595 95.622,39.898 94.845,39.898 C94.376,39.898 93.904,39.788 93.46,39.562 C92.247,38.942 91.591,37.652 91.791,36.274 C91.891,35.572 92.225,34.914 92.731,34.423 L104.641435,22.6479838 Z M102.752522,27.0470486 L93.991,35.709 C93.763,35.929 93.617,36.219 93.572,36.531 C93.466,37.264 93.868,37.748 94.279,37.959 C94.464,38.053 95.118,38.316 95.73,37.723 L104.587508,28.9821605 L102.752522,27.0470486 Z M108.934,11.663 C109.065,11.663 109.179,11.714 109.283,11.818 L111.852,14.387 C112.289,14.824 112.87,15.065 113.487,15.065 C113.849,15.065 114.212,14.977 114.536,14.813 L117.806,13.146 C118.061,13.018 118.34,13.113 118.483,13.345 C118.578,13.499 118.581,13.664 118.495,13.834 L116.828,17.104 C116.371,18 116.542,19.079 117.252,19.788 L119.821,22.356 C120.031,22.566 119.982,22.792 119.934,22.908 C119.9,22.992 119.722,23.282 119.376,23.222 L115.832,22.642 C114.828,22.477 113.853,22.984 113.398,23.876 L111.758,27.102 C111.641,27.333 111.451,27.382 111.312,27.382 C111.267,27.382 110.864,27.37 110.797,26.949 L110.23,23.331 C110.073,22.339 109.301,21.566 108.31,21.409 L104.699,20.835 C104.368,20.782 104.291,20.519 104.274,20.409 C104.256,20.298 104.248,20.025 104.548,19.874 L107.761,18.244 C108.664,17.786 109.16,16.808 108.997,15.81 L108.416,12.261 C108.391,12.103 108.425,11.967 108.519,11.857 C108.621,11.737 108.78,11.663 108.934,11.663 Z M95.709,26.078 C95.465,26.078 95.231,25.979 95.062,25.803 L92.067,22.698 C91.73,22.35 91.73,21.797 92.067,21.448 L95.062,18.343 C95.4,17.992 96.017,17.992 96.357,18.343 L99.353,21.448 C99.69,21.797 99.69,22.35 99.353,22.698 L96.357,25.803 C96.187,25.979 95.954,26.078 95.709,26.078 Z M93.965,22.073 L95.709,23.882 L97.454,22.073 L95.709,20.265 L93.965,22.073 Z M118.25,33.959 C118.012,33.959 117.783,33.864 117.614,33.695 L115.086,31.168 C114.918,31 114.823,30.771 114.823,30.532 C114.823,30.293 114.918,30.064 115.086,29.896 L117.614,27.369 C117.783,27.2 118.012,27.105 118.25,27.105 C118.49,27.105 118.718,27.2 118.887,27.369 L121.414,29.896 C121.765,30.247 121.765,30.816 121.414,31.168 L118.887,33.695 C118.718,33.864 118.49,33.959 118.25,33.959 Z M116.995,30.532 L118.25,31.786 L119.504,30.532 L118.25,29.278 L116.995,30.532 Z M100.695,17.003 C100.448,17.003 100.212,16.902 100.042,16.724 L97.296,13.835 C96.966,13.487 96.966,12.942 97.296,12.595 L100.042,9.706 C100.382,9.349 101.007,9.349 101.347,9.706 L104.093,12.595 C104.423,12.942 104.423,13.487 104.093,13.835 L101.347,16.724 C101.177,16.902 100.942,17.003 100.695,17.003 Z M99.191,13.215 L100.695,14.797 L102.199,13.215 L100.695,11.632 L99.191,13.215 Z" id="Icon-50x50"></path>
                    </g>
                </g>
            </g>
        </g>
    </g>
</svg>