<?xml version="1.0" encoding="UTF-8"?>
<svg width="38px" height="38px" viewBox="0 0 38 38" version="1.1" xmlns="http://www.w3.org/2000/svg" xmlns:xlink="http://www.w3.org/1999/xlink">
    <!-- Generator: Sketch 56.3 (81716) - https://sketch.com -->
    <title>Icon 32x32</title>
    <desc>Created with Sketch.</desc>
    <g id="Page-1" stroke="none" stroke-width="1" fill="none" fill-rule="evenodd">
        <g id="About" transform="translate(-701.000000, -2958.000000)" fill="#2E71F2">
            <g id="#5" transform="translate(0.000000, 2400.000000)">
                <path d="M737.515625,558 L702.484375,558 C701.665,558 701,558.666249 701,559.487163 L701,575.512837 C701,576.334941 701.665,577 702.484375,577 L737.515625,577 C738.335,577 739,576.334941 739,575.512837 L739,559.487163 C739,558.666249 738.335,558 737.515625,558 L737.515625,558 Z M704,567 L736,567 L736,574 L704,574 L704,567 Z M704,561 L736,561 L736,564 L704,564 L704,561 Z M709.511905,579 C710.334524,579 711,579.676611 711,580.512994 L711,594.487006 C711,595.323389 710.334524,596 709.511905,596 L702.488095,596 C701.666667,596 701,595.323389 701,594.487006 L701,580.512994 C701,579.676611 701.666667,579 702.488095,579 L709.511905,579 Z M704,582 L708,582 L708,593 L704,593 L704,582 Z M737.52483,579 C738.339124,579 739,579.676611 739,580.512994 L739,594.487006 C739,595.323389 738.339124,596 737.52483,596 L715.47517,596 C714.660876,596 714,595.323389 714,594.487006 L714,580.512994 C714,579.676611 714.660876,579 715.47517,579 L737.52483,579 Z M717,582 L736,582 L736,593 L717,593 L717,582 Z" id="Icon-32x32"></path>
            </g>
        </g>
    </g>
</svg>