<?xml version="1.0" encoding="UTF-8"?>
<svg width="38px" height="38px" viewBox="0 0 38 38" version="1.1" xmlns="http://www.w3.org/2000/svg" xmlns:xlink="http://www.w3.org/1999/xlink">
    <!-- Generator: Sketch 57.1 (83088) - https://sketch.com -->
    <title>Icon 32x32</title>
    <desc>Created with Sketch.</desc>
    <g id="Web" stroke="none" stroke-width="1" fill="none" fill-rule="evenodd">
        <g id="About" transform="translate(-1102.000000, -2958.000000)" fill="#276CF2">
            <g id="#5" transform="translate(0.000000, 2400.000000)">
                <path d="M1138.51562,571.707312 L1133.89981,571.707312 C1133.89981,571.69425 1133.90694,571.682375 1133.90694,571.669313 L1133.90694,564.921938 C1133.90694,564.530062 1133.75138,564.153625 1133.47587,563.87575 L1128.06919,558.438188 C1127.79012,558.157938 1127.41131,558 1127.01588,558 L1109.57744,558 C1108.75688,558 1108.09306,558.665 1108.09306,559.484375 L1108.09306,576.276813 L1103.48438,576.276813 C1102.665,576.276813 1102,576.940625 1102,577.761188 L1102,594.515625 C1102,595.335 1102.665,596 1103.48438,596 L1132.42256,596 C1133.24312,596 1133.90694,595.335 1133.90694,594.515625 L1133.90694,588.384563 L1138.51562,588.384563 C1139.335,588.384563 1140,587.719562 1140,586.900188 L1140,573.191687 C1140,572.372313 1139.335,571.707312 1138.51562,571.707312 L1138.51562,571.707312 Z M1135,575 L1129.5006,580 L1124,575 L1135,575 L1135,575 Z M1126,561 L1126.11628,561 L1131,565.91311 L1131,566 L1126,566 L1126,561 L1126,561 Z M1105,579 L1113,579 L1113,593 L1105,593 L1105,579 Z M1130.99164,593 L1115.596,593 L1115.596,577.759704 C1115.596,576.940741 1114.92714,576.278222 1114.10302,576.278222 L1111,576.278222 L1111,561 L1123.33204,561 L1123.33204,567.119111 C1123.33204,567.938074 1124.0009,568.600593 1124.82502,568.600593 L1130.99164,568.600593 L1130.99164,571.679704 C1130.99164,571.692741 1130.99881,571.704593 1131,571.71763 L1120.22902,571.71763 C1119.4049,571.71763 1118.73604,572.381333 1118.73604,573.199111 L1118.73604,586.880889 C1118.73604,587.698667 1119.4049,588.36237 1120.22902,588.36237 L1130.99164,588.36237 L1130.99164,593 L1130.99164,593 Z M1137,585 L1122,585 L1122,576 L1129.15444,582.013182 C1129.42437,582.239984 1129.75714,582.353967 1130.09106,582.353967 C1130.42383,582.353967 1130.75659,582.239984 1131.02653,582.013182 L1137,576.992117 L1137,585 L1137,585 Z" id="Icon-32x32"></path>
            </g>
        </g>
    </g>
</svg>