<?xml version="1.0" encoding="UTF-8"?>
<svg width="120px" height="120px" viewBox="0 0 120 120" version="1.1" xmlns="http://www.w3.org/2000/svg" xmlns:xlink="http://www.w3.org/1999/xlink">
    <!-- Generator: Sketch 56.3 (81716) - https://sketch.com -->
    <title>Icon 100x100</title>
    <desc>Created with Sketch.</desc>
    <g id="Page-1" stroke="none" stroke-width="1" fill="none" fill-rule="evenodd">
        <g id="Home" transform="translate(-1060.000000, -4065.000000)" fill="#2E71F2">
            <g id="Advantages-#2" transform="translate(0.000000, 3709.000000)">
                <path d="M1120,356 C1153.1368,356 1180,382.862 1180,415.9988 L1180,416 C1180,449.1368 1153.1368,476 1120,476 C1086.8632,476 1060,449.1368 1060,416 L1060,415.9988 C1060,382.862 1086.8632,356 1120,356 Z M1120,359 C1088.56996,359 1063,384.569957 1063,415.998787 C1063,447.42883 1088.56996,473 1120,473 C1151.43004,473 1177,447.430043 1177,416 C1177,384.569957 1151.43004,359 1120,359 Z M1149.90164,407.478 C1151.06098,407.478 1152,408.373 1152,409.478 L1152,432.956 C1152,434.061 1151.06098,434.956 1149.90164,434.956 L1141.59948,434.956 L1141.59948,446 C1141.59948,447.105 1140.66046,448 1139.50111,448 L1090.09836,448 C1088.94007,448 1088,447.105 1088,446 L1088,417.304 C1088,416.199 1088.94007,415.304 1090.09836,415.304 L1098.40157,415.304 L1098.40157,386 C1098.40157,384.896 1099.34059,384 1100.49889,384 L1130.27148,384 C1130.84748,384 1131.40039,384.227 1131.79698,384.627 L1141.02767,393.941 C1141.39489,394.312 1141.59948,394.803 1141.59948,395.314 L1141.59948,407.478 L1149.90164,407.478 Z M1146.1141,411.478 L1124.54715,411.478 L1135.33062,420.573 L1146.1141,411.478 Z M1137.40275,396.108 L1129.36603,388 L1128.60013,388 L1128.60013,397.043 L1137.40275,397.043 L1137.40275,396.108 Z M1100.49889,444 L1106.20118,444 L1106.20118,419.304 L1092.19672,419.304 L1092.19672,444 L1100.49889,444 Z M1137.40275,444 L1137.40275,434.956 L1118.70007,434.956 C1117.54177,434.956 1116.6017,434.061 1116.6017,432.956 L1116.6017,409.478 C1116.6017,408.373 1117.54177,407.478 1118.70007,407.478 L1137.40275,407.478 L1137.40275,401.043 L1126.50177,401.043 C1125.34243,401.043 1124.40341,400.148 1124.40341,399.043 L1124.40341,388 L1102.5983,388 L1102.5983,415.304 L1108.29954,415.304 C1109.45889,415.304 1110.3979,416.199 1110.3979,417.304 L1110.3979,444 L1137.40275,444 Z M1120.79843,430.956 L1147.80328,430.956 L1147.80328,415.394 L1136.72079,424.742 C1136.3242,425.077 1135.82689,425.244 1135.33062,425.244 C1134.83331,425.244 1134.33705,425.077 1133.94046,424.742 L1120.79843,413.658 L1120.79843,430.956 Z" id="Icon-100x100"></path>
            </g>
        </g>
    </g>
</svg>