<?xml version="1.0" encoding="UTF-8"?>
<svg width="38px" height="38px" viewBox="0 0 38 38" version="1.1" xmlns="http://www.w3.org/2000/svg" xmlns:xlink="http://www.w3.org/1999/xlink">
    <!-- Generator: Sketch 56.3 (81716) - https://sketch.com -->
    <title>Icon 50x50</title>
    <desc>Created with Sketch.</desc>
    <g id="Page-1" stroke="none" stroke-width="1" fill="none" fill-rule="evenodd">
        <g id="About" transform="translate(-301.000000, -2958.000000)" fill="#2E71F2">
            <g id="#5" transform="translate(0.000000, 2400.000000)">
                <path d="M320.102613,574.917146 L316.539599,578.389046 L318.864065,580.804274 L322.402005,577.363108 L322.134702,575.682433 C322.089136,575.40922 321.87396,575.194642 321.595498,575.150978 L320.102613,574.917146 Z M317.310261,574.479777 L317.023654,574.434885 C315.749056,574.235278 314.79469,573.292131 314.594703,572.034603 C314.393451,570.775827 315.009865,569.591904 316.161686,569.015537 L320.228501,566.982034 C320.480383,566.856031 320.619614,566.586561 320.574048,566.3121 L319.83992,561.884553 C319.699423,561.032477 319.92599,560.207848 320.481649,559.562866 C321.539805,558.339021 323.613084,558.218009 324.796548,559.380724 L328.048228,562.586922 C328.244417,562.779044 328.551992,562.828946 328.800076,562.704192 L332.940304,560.624529 C334.288314,559.948358 335.9882,560.442387 336.771691,561.699915 C337.302035,562.551991 337.340008,563.601179 336.874216,564.503156 L334.764232,568.582638 C334.637658,568.829652 334.685756,569.127816 334.883211,569.323681 L338.134891,572.527384 C338.986732,573.368232 339.231019,574.569621 338.771557,575.66372 C338.251339,576.898793 336.999524,577.638589 335.592024,577.411535 L331.10625,576.687957 C330.756906,576.680472 330.536668,576.813959 330.424017,577.029785 L328.350739,581.053127 C327.839381,582.041185 326.869826,582.631276 325.753446,582.631276 C324.296582,582.631276 323.077677,581.605791 322.852375,580.194814 L322.836465,580.094779 L319.857014,582.992747 C319.802801,583.087044 319.733779,583.175182 319.650059,583.253802 C319.577463,583.321654 319.498128,583.37812 319.41432,583.423334 L307.624287,594.89093 C306.861047,595.621993 305.894023,596 304.910545,596 C304.316914,596 303.719486,595.86277 303.157499,595.580824 C301.622159,594.807344 300.791835,593.198007 301.044983,591.478886 C301.171556,590.603107 301.594313,589.782221 302.234776,589.169675 L317.310261,574.479777 Z M314.919393,579.967821 L303.829605,590.774021 C303.541017,591.048482 303.356219,591.410271 303.299261,591.799506 C303.165093,592.713959 303.67392,593.317772 304.194138,593.581004 C304.428299,593.698274 305.256092,594.026379 306.030723,593.286583 L317.242004,582.381966 L314.919393,579.967821 Z M322.218241,561.017507 C322.347346,560.867801 322.548598,560.775482 322.743522,560.775482 C322.909333,560.775482 323.053628,560.839107 323.185264,560.968852 L326.436944,564.173803 C326.990071,564.718982 327.725465,565.019641 328.506425,565.019641 C328.964622,565.019641 329.424085,564.909856 329.834184,564.705259 L333.973146,562.625596 C334.295909,562.46591 334.649049,562.584427 334.83005,562.873858 C334.950295,563.065981 334.954092,563.271826 334.845239,563.483909 L332.735254,567.563391 C332.156812,568.681194 332.373253,570.027298 333.271927,570.91181 L336.523607,574.115513 C336.789412,574.377498 336.727391,574.659444 336.666635,574.80416 C336.6236,574.908954 336.398299,575.270743 335.960354,575.19589 L331.47458,574.472312 C330.203779,574.266466 328.969685,574.898973 328.393774,576.011786 L326.317965,580.036376 C326.169873,580.324559 325.929383,580.385689 325.753446,580.385689 C325.696488,580.385689 325.186395,580.370719 325.101591,579.845501 L324.383918,575.331872 C324.185197,574.094305 323.208048,573.12995 321.953702,572.934085 L317.383123,572.217993 C316.964164,572.151873 316.866702,571.823767 316.845185,571.686537 C316.822401,571.548059 316.812276,571.207479 317.191997,571.019099 L321.258812,568.985596 C322.401773,568.414219 323.029579,567.194117 322.823263,565.949064 L322.08787,561.521516 C322.056226,561.324404 322.099261,561.154737 322.218241,561.017507 Z M305.18521,578.415811 L301.394326,574.542175 C300.967773,574.108028 300.967773,573.418134 301.394326,572.98274 L305.18521,569.109103 C305.61303,568.671214 306.39399,568.671214 306.82434,569.109103 L310.61649,572.98274 C311.043044,573.418134 311.043044,574.108028 310.61649,574.542175 L306.82434,578.415811 C306.609165,578.635379 306.314248,578.758887 306.004142,578.758887 C305.695302,578.758887 305.39912,578.635379 305.18521,578.415811 Z M306.004142,576.019271 L308.212854,573.762457 L306.004142,571.50689 L303.796696,573.762457 L306.004142,576.019271 Z M333.730124,588.26146 L330.530339,585.108906 C330.317695,584.899318 330.19745,584.613629 330.19745,584.315465 C330.19745,584.017302 330.317695,583.731613 330.530339,583.522025 L333.730124,580.369471 C333.944034,580.158636 334.233888,580.040119 334.535133,580.040119 C334.83891,580.040119 335.127498,580.158636 335.341408,580.369471 L338.539927,583.522025 C338.984201,583.959914 338.984201,584.669769 338.539927,585.108906 L335.341408,588.26146 C335.127498,588.472295 334.83891,588.590812 334.535133,588.590812 C334.233888,588.590812 333.944034,588.472295 333.730124,588.26146 Z M334.535133,585.879891 L336.122368,584.315465 L334.535133,582.75104 L332.946632,584.315465 L334.535133,585.879891 Z M311.488583,567.089323 L308.012868,563.485157 C307.595175,563.05101 307.595175,562.371096 308.012868,561.938197 L311.488583,558.334031 C311.918934,557.888656 312.71002,557.888656 313.140371,558.334031 L316.616086,561.938197 C317.03378,562.371096 317.03378,563.05101 316.616086,563.485157 L313.140371,567.089323 C312.925195,567.311386 312.627747,567.437389 312.31511,567.437389 C312.002473,567.437389 311.703759,567.311386 311.488583,567.089323 Z M312.31511,564.685298 L314.218779,562.711677 L312.31511,560.736808 L310.411441,562.711677 L312.31511,564.685298 Z" id="Icon-50x50"></path>
            </g>
        </g>
    </g>
</svg>