<?xml version="1.0" encoding="UTF-8"?>
<svg width="38px" height="38px" viewBox="0 0 38 38" version="1.1" xmlns="http://www.w3.org/2000/svg" xmlns:xlink="http://www.w3.org/1999/xlink">
    <!-- Generator: Sketch 56.3 (81716) - https://sketch.com -->
    <title>Icon 25x25</title>
    <desc>Created with Sketch.</desc>
    <g id="Page-1" stroke="none" stroke-width="1" fill="none" fill-rule="evenodd">
        <g id="Home" transform="translate(-172.000000, -1616.000000)" fill="#276CF2">
            <g id="#4" transform="translate(0.000000, 960.000000)">
                <path d="M191,656 C180.52416,656 172,664.52264 172,675 C172,685.47584 180.52416,694 191,694 C201.47736,694 210,685.47584 210,675 C210,664.52264 201.47736,656 191,656 L191,656 Z M191,690.96 C182.1992,690.96 175.04,683.8008 175.04,675 C175.04,666.1992 182.1992,659.04 191,659.04 C199.8008,659.04 206.96,666.1992 206.96,675 C206.96,683.8008 199.8008,690.96 191,690.96 Z M191,662.43264 C184.05056,662.43264 178.39616,668.07032 178.39616,675 C178.39616,681.92816 184.05056,687.56432 191,687.56432 C197.94944,687.56432 203.60384,681.92816 203.60384,675 C203.60384,668.07032 197.94944,662.43264 191,662.43264 Z M191,684.52432 C185.72712,684.52432 181.43616,680.2516 181.43616,675 C181.43616,669.74688 185.72712,665.47264 191,665.47264 C196.2744,665.47264 200.56384,669.74688 200.56384,675 C200.56384,680.2516 196.2744,684.52432 191,684.52432 Z M194.80304,673.48 L192.52,673.48 L192.52,670.81544 C192.52,669.9764 191.84056,669.29544 191,669.29544 C190.15944,669.29544 189.48,669.9764 189.48,670.81544 L189.48,675 C189.48,675.83904 190.15944,676.52 191,676.52 L194.80304,676.52 C195.6436,676.52 196.32304,675.83904 196.32304,675 C196.32304,674.15944 195.6436,673.48 194.80304,673.48 Z" id="Icon-25x25"></path>
            </g>
        </g>
    </g>
</svg>