<?xml version="1.0" encoding="UTF-8"?>
<svg width="26px" height="38px" viewBox="0 0 26 38" version="1.1" xmlns="http://www.w3.org/2000/svg" xmlns:xlink="http://www.w3.org/1999/xlink">
    <!-- Generator: Sketch 56.3 (81716) - https://sketch.com -->
    <title>Icon 25x25</title>
    <desc>Created with Sketch.</desc>
    <g id="Page-1" stroke="none" stroke-width="1" fill="none" fill-rule="evenodd">
        <g id="Home" transform="translate(-785.000000, -1312.000000)" fill="#276CF2">
            <g id="#4" transform="translate(0.000000, 960.000000)">
                <path d="M804.854545,369.651 L804.854545,359.347062 L809.522727,359.347062 C810.339364,359.347062 811,358.68325 811,357.862687 C811,357.043313 810.339364,356.378312 809.522727,356.378312 L804.854545,356.378312 L804.854545,353.484375 C804.854545,352.663813 804.192727,352 803.377273,352 C802.560636,352 801.9,352.663813 801.9,353.484375 L801.9,356.378312 L794.1,356.378312 L794.1,353.484375 C794.1,352.663813 793.439364,352 792.622727,352 C791.807273,352 791.145455,352.663813 791.145455,353.484375 L791.145455,356.556438 C787.639,357.327125 785,360.547625 785,364.393937 L785,364.523375 C785,368.343563 787.639,371.542687 791.145455,372.307437 L791.145455,382.65175 L786.477273,382.65175 C785.661818,382.65175 785,383.31675 785,384.136125 C785,384.956687 785.661818,385.6205 786.477273,385.6205 L791.145455,385.6205 L791.145455,388.515625 C791.145455,389.335 791.807273,390 792.622727,390 C793.439364,390 794.1,389.335 794.1,388.515625 L794.1,385.6205 L801.9,385.6205 L801.9,388.515625 C801.9,389.335 802.560636,390 803.377273,390 C804.192727,390 804.854545,389.335 804.854545,388.515625 L804.854545,385.4495 C808.585545,384.615875 811,380.750563 811,377.062187 C811,373.269313 808.444909,370.30175 804.854545,369.651 L804.854545,369.651 Z M794.1,359.347062 L801.9,359.347062 L801.9,369.515625 L794.1,369.515625 L794.1,359.347062 Z M787.954545,364.523375 L787.954545,364.393937 C787.954545,362.208937 789.292364,360.362375 791.145455,359.66175 L791.145455,369.2045 C789.292364,368.511 787.954545,366.683438 787.954545,364.523375 L787.954545,364.523375 Z M794.1,372.484375 L801.9,372.484375 L801.9,382.652938 L794.1,382.652938 L794.1,372.484375 Z M804.854545,382.34775 L804.854545,372.718313 C806.763182,373.291875 808.045455,374.9425 808.045455,377.118 C808.045455,379.230563 806.790364,381.5355 804.854545,382.34775 L804.854545,382.34775 Z" id="Icon-25x25"></path>
            </g>
        </g>
    </g>
</svg>