<svg xmlns="http://www.w3.org/2000/svg" width="231" height="55" viewBox="0 0 231 55">
    <g fill="#FFF" fill-rule="nonzero">
        <path d="M57.736 10.282V.174h9.585v10.108h-9.585zm0 36.22V14.307h9.585v32.195h-9.585zM85.227 14.313V35.59c0 1.456.675 2.307 2.33 2.307s4.924-1.187 6.99-2.307V14.313h9.579V46.51h-7.12l-1-2.442a32.893 32.893 0 0 1-12.927 3.085c-5.525 0-7.43-4.098-7.43-10.309v-22.53h9.578zM111.535 14.313h24.485v7.264l-13.441 17.647h13.86v7.264h-24.992v-7.264l13.374-17.647h-13.306zM151.339 33.738v.925c0 3.696 1.465 4.696 5.856 4.696 3.33-.035 6.64-.502 9.848-1.389l1.398 7.13a38.588 38.588 0 0 1-12.158 2.052c-10.51 0-14.508-5.157-14.508-13.086v-7.532c0-6.935 3.127-12.885 13.914-12.885 10.786 0 13.103 6.346 13.103 13.348v6.707l-17.453.034zm8.382-8.525c0-2.24-.675-4.092-3.985-4.092-3.31 0-4.397 1.852-4.397 4.092V26.6h8.382v-1.388zM175.776 10.282V.174h9.585v10.108h-9.585zm0 36.22V14.307h9.585v32.195h-9.585zM204.86 47.152c-6.186 0-9.78-2.314-9.78-8.256V21.98h-4.39v-7.667h4.39V6.58l9.585-1.342v9.075h7.382l-.527 7.667h-6.862V37.56c0 1.341.797 1.79 1.992 1.79a13.29 13.29 0 0 0 3.992-.596l1.135 7.204a22.77 22.77 0 0 1-6.916 1.193zM17.805 31.055c1.972 1.925 3.438 2.093 4.674.845l15.535-15.675-5.64-5.493L16.886 26.42c-1.263 1.248-1.101 2.663.919 4.635zM43.323 21.423L28.206 36.71l.054-.074-1.053 1.067c-2.027 2.012-4.884 3.152-8.592 1.63l3.56 3.467.79.799 4.539 4.433 21.128-21.416-5.31-5.192zM10.942 21.832l.993-1.006L27.051 5.56 21.722.362.581 21.732l4.532 4.427.79.764 3.553 3.468c-1.607-3.656-.506-6.54 1.486-8.559zM222.483 48.226v1.06h-2.027v5.325h-1.276v-5.326h-2.026v-1.06h5.329zm6.95 6.385l-.236-3.756c0-.49 0-1.1-.048-1.784h-.067c-.17.563-.358 1.341-.547 1.905l-1.155 3.541h-1.351l-1.108-3.635c-.115-.497-.304-1.248-.446-1.811h-.074c0 .59 0 1.2-.047 1.784l-.237 3.756h-1.222l.473-6.385h1.918l1.108 3.125c.141.49.263.96.425 1.617.162-.584.304-1.127.446-1.597l1.114-3.145h1.844l.493 6.385h-1.283z"/>
    </g>
</svg>
