<svg xmlns="http://www.w3.org/2000/svg" width="39" height="30" viewBox="0 0 39 30">
    <path fill="#EEE" fill-rule="evenodd" d="M17.377 20.816c0 2.613-.855 4.796-2.566 6.551C13.101 29.122 11.08 30 8.747 30c-2.333 0-4.374-.878-6.123-2.633C.874 25.612 0 23.51 0 21.061s1.05-5.428 3.149-8.939L10.146 0h6.764l-4.315 12.735c3.188 1.55 4.782 4.245 4.782 8.081zm21 0c0 2.613-.855 4.796-2.566 6.551C34.101 29.122 32.08 30 29.747 30c-2.333 0-4.374-.878-6.123-2.633C21.874 25.612 21 23.51 21 21.061s1.05-5.428 3.149-8.939L31.146 0h6.764l-4.315 12.735c3.188 1.55 4.782 4.245 4.782 8.081z"/>
</svg>
