<svg xmlns="http://www.w3.org/2000/svg" width="256" height="54" viewBox="0 0 256 54">
    <g fill="none" fill-rule="evenodd">
        <path fill="#374050" d="M8.743 32.76v16.354H0V5.044h15.936c5.167 0 9.063 1.248 11.688 3.745s3.937 5.889 3.937 10.175c0 4.203-1.354 7.553-4.061 10.05-2.708 2.497-6.563 3.745-11.564 3.745H8.743zm6.263-7.054c5.125 0 7.688-2.248 7.688-6.742 0-2.206-.6-3.891-1.798-5.056-1.199-1.166-3.162-1.748-5.89-1.748H8.743v13.546h6.263zM55.28 5.044v44.07h-8.743V5.044h8.743zm42.94 44.07L88.361 34.07l-8.743 15.044h-9.983L83.401 26.58 69.263 5.044h10.355l9.673 14.731L97.91 5.044h9.983L94.19 27.204l14.385 21.91H98.22zM143.083 4.42c4.092 0 7.802.957 11.13 2.872 3.327 1.914 5.952 4.588 7.875 8.021 1.922 3.433 2.883 7.314 2.883 11.642 0 4.328-.961 8.219-2.883 11.673-1.923 3.454-4.548 6.138-7.875 8.053-3.328 1.914-7.038 2.871-11.13 2.871-4.093 0-7.803-.957-11.13-2.871-3.328-1.915-5.953-4.599-7.875-8.053-1.922-3.454-2.884-7.345-2.884-11.673s.962-8.209 2.884-11.642 4.547-6.107 7.875-8.021c3.327-1.915 7.037-2.872 11.13-2.872zm0 8.115c-2.563 0-4.816.583-6.759 1.748-1.943 1.165-3.462 2.84-4.557 5.025-1.096 2.185-1.644 4.734-1.644 7.647 0 2.913.548 5.462 1.644 7.647 1.095 2.185 2.614 3.86 4.557 5.025 1.943 1.165 4.196 1.748 6.759 1.748 2.563 0 4.815-.583 6.758-1.748 1.943-1.165 3.462-2.84 4.558-5.025 1.095-2.185 1.643-4.734 1.643-7.647 0-2.913-.548-5.462-1.643-7.647-1.096-2.185-2.615-3.86-4.558-5.025-1.943-1.165-4.195-1.748-6.758-1.748zm46.164-7.49v25.843c0 3.454.755 6.044 2.264 7.771 1.508 1.727 3.689 2.59 6.541 2.59 2.811 0 4.971-.863 6.48-2.59 1.509-1.727 2.263-4.317 2.263-7.771V5.044h8.681v25.843c0 4.078-.754 7.522-2.263 10.33-1.509 2.81-3.597 4.9-6.263 6.274-2.666 1.373-5.694 2.06-9.084 2.06-5.25 0-9.445-1.581-12.587-4.744-3.142-3.163-4.712-7.803-4.712-13.92V5.044h8.68zm51.932 37.329h14.695v6.741h-23.438V5.044h8.743v37.329z"/>
        <path fill="#3180FB" fill-rule="nonzero" d="M117.907 47.26l45.255-45.559a3.577 3.577 0 0 1 5.075 0 3.625 3.625 0 0 1 0 5.11L122.982 52.37a3.577 3.577 0 0 1-5.075 0 3.625 3.625 0 0 1 0-5.11z"/>
    </g>
</svg>
