<svg xmlns="http://www.w3.org/2000/svg" width="106" height="23" viewBox="0 0 106 23">
    <g fill="none" fill-rule="evenodd">
        <path fill="#FFF" d="M3.59 13.865v6.718H0v-18.1h6.545c2.122 0 3.722.512 4.8 1.537 1.079 1.026 1.618 2.419 1.618 4.18 0 1.726-.556 3.102-1.668 4.127-1.113 1.026-2.696 1.538-4.75 1.538H3.591zm2.573-2.897c2.105 0 3.158-.923 3.158-2.769 0-.905-.246-1.598-.739-2.076-.492-.479-1.298-.718-2.419-.718H3.591v5.563h2.572zm16.541-8.486v18.1h-3.59v-18.1h3.59zm17.636 18.1l-4.049-6.178-3.59 6.179h-4.1l5.653-9.256-5.807-8.845H32.7l3.973 6.05 3.54-6.05h4.1l-5.628 9.102 5.908 8.999H40.34zM58.766 2.227c1.68 0 3.205.393 4.571 1.18 1.367.785 2.445 1.884 3.235 3.294.79 1.41 1.184 3.004 1.184 4.781 0 1.778-.395 3.376-1.184 4.794-.79 1.42-1.868 2.521-3.235 3.308-1.366.786-2.89 1.18-4.57 1.18-1.682 0-3.205-.394-4.572-1.18-1.367-.787-2.445-1.889-3.234-3.308-.79-1.418-1.185-3.016-1.185-4.794 0-1.777.395-3.371 1.185-4.781.789-1.41 1.867-2.509 3.234-3.295s2.89-1.18 4.571-1.18zm0 3.333c-1.053 0-1.978.239-2.776.718-.798.478-1.422 1.166-1.872 2.063-.45.898-.674 1.945-.674 3.141 0 1.197.224 2.243.674 3.14.45.898 1.074 1.586 1.872 2.065.798.478 1.723.717 2.776.717 1.053 0 1.978-.239 2.776-.717.798-.479 1.422-1.167 1.872-2.064.45-.898.675-1.944.675-3.14 0-1.197-.225-2.244-.675-3.142-.45-.897-1.074-1.585-1.872-2.063-.798-.479-1.723-.718-2.776-.718zm18.96-3.077v10.614c0 1.419.31 2.483.93 3.192.62.71 1.515 1.064 2.687 1.064 1.154 0 2.041-.354 2.661-1.064.62-.71.93-1.773.93-3.192V2.482h3.565v10.614c0 1.675-.31 3.09-.93 4.243-.62 1.154-1.477 2.013-2.572 2.577-1.095.564-2.338.846-3.73.846-2.157 0-3.88-.65-5.17-1.948-1.29-1.3-1.936-3.205-1.936-5.718V2.482h3.566zm21.33 15.332h6.035v2.769h-9.626v-18.1h3.59v15.33z"/>
        <path fill="#2E71F0" fill-rule="nonzero" d="M48.426 19.821L67.013 1.11a1.47 1.47 0 0 1 2.084 0c.577.581.577 1.518 0 2.099L50.511 21.92a1.47 1.47 0 0 1-2.085 0 1.489 1.489 0 0 1 0-2.099z"/>
    </g>
</svg>
