<?xml version="1.0" encoding="UTF-8"?>
<svg width="32px" height="32px" viewBox="0 0 32 32" version="1.1" xmlns="http://www.w3.org/2000/svg" xmlns:xlink="http://www.w3.org/1999/xlink">
    <!-- Generator: Sketch 56.2 (81672) - https://sketch.com -->
    <title>Icon</title>
    <desc>Created with Sketch.</desc>
    <g id="v7.0" stroke="none" stroke-width="1" fill="none" fill-rule="evenodd">
        <g id="Capabilities_Strategy" transform="translate(-941.000000, -4554.000000)">
            <g id="Features" transform="translate(0.000000, 4076.000000)">
                <g transform="translate(149.000000, 270.000000)" id="Feature-6">
                    <g transform="translate(782.000000, 201.000000)">
                        <g id="Icon" transform="translate(1.250000, 0.000000)">
                            <path d="M35.4072858,12.0898438 C32.5734834,9.2578125 28.684334,7.5 24.3652283,7.5 C15.7270169,7.5 8.75,14.4921875 8.75,23.125 C8.75,31.7578125 15.7270169,38.75 24.3652283,38.75 C31.6549406,38.75 37.7329581,33.7695312 39.4723265,27.03125 L35.4072858,27.03125 C33.8047217,31.5820312 29.4660725,34.84375 24.3652283,34.84375 C17.8963415,34.84375 12.6391495,29.5898438 12.6391495,23.125 C12.6391495,16.6601562 17.8963415,11.40625 24.3652283,11.40625 C27.6094434,11.40625 30.5018762,12.7539062 32.6125704,14.8828125 L26.3195747,21.171875 L40,21.171875 L40,7.5 L35.4072858,12.0898438 Z" id="Path" fill-opacity="0.754916958" fill="#3180FB"></path>
                            <polygon id="Path" points="0 0 47.5 0 47.5 47.5 0 47.5"></polygon>
                        </g>
                    </g>
                </g>
            </g>
        </g>
    </g>
</svg>