<?xml version="1.0" encoding="UTF-8"?>
<svg width="50px" height="34px" viewBox="0 0 50 34" version="1.1" xmlns="http://www.w3.org/2000/svg" xmlns:xlink="http://www.w3.org/1999/xlink">
    <!-- Generator: Sketch 56.2 (81672) - https://sketch.com -->
    <title>Icon</title>
    <desc>Created with Sketch.</desc>
    <g id="v7.0" stroke="none" stroke-width="1" fill="none" fill-rule="evenodd">
        <g id="Capabilities_Strategy" transform="translate(-150.000000, -4354.000000)">
            <g id="Features" transform="translate(0.000000, 4076.000000)">
                <g transform="translate(149.000000, 270.000000)" id="Feature-1">
                    <g transform="translate(1.000000, 0.000000)">
                        <g id="Icon">
                            <polygon id="Path" points="0 0 50 0 50 50 0 50"></polygon>
                            <path d="M8.33333334,12.5 L45.8333334,12.5 L45.8333334,8.33333334 L8.33333334,8.33333334 C6.04166666,8.33333334 4.16666666,10.2083333 4.16666666,12.5 L4.16666666,35.4166666 L0,35.4166666 L0,41.6666666 L29.1666666,41.6666666 L29.1666666,35.4166666 L8.33333334,35.4166666 L8.33333334,12.5 Z" id="Shape" fill-opacity="0.503332605" fill="#3180FB"></path>
                            <path d="M47.9166666,16.6666666 C49.0625,16.6666666 50,17.6041666 50,18.75 L50,39.5833334 C50,40.7291666 49.0625,41.6666666 47.9166666,41.6666666 L35.4166666,41.6666666 C34.2708334,41.6666666 33.3333334,40.7291666 33.3333334,39.5833334 L33.3333334,18.75 C33.3333334,17.6041666 34.2708334,16.6666666 35.4166666,16.6666666 L47.9166666,16.6666666 Z M45.8333334,35.4166666 L45.8333334,20.8333334 L37.5,20.8333334 L37.5,35.4166666 L45.8333334,35.4166666 Z" id="Combined-Shape" fill-opacity="0.748743444" fill="#3180FB" fill-rule="nonzero"></path>
                        </g>
                    </g>
                </g>
            </g>
        </g>
    </g>
</svg>