<?xml version="1.0" encoding="UTF-8"?>
<svg width="60px" height="82px" viewBox="0 0 60 82" version="1.1" xmlns="http://www.w3.org/2000/svg" xmlns:xlink="http://www.w3.org/1999/xlink">
    <!-- Generator: Sketch 55.1 (78136) - https://sketchapp.com -->
    <title>download-10</title>
    <desc>Created with Sketch.</desc>
    <g id="Page-1" stroke="none" stroke-width="1" fill="none" fill-rule="evenodd">
        <g id="Services_Tech" transform="translate(-599.000000, -2263.000000)" fill="#959B9E" fill-rule="nonzero">
            <g id="Capabilities" transform="translate(0.000000, 1642.000000)">
                <g id="logos" transform="translate(379.000000, 438.000000)">
                    <g id="download-10" transform="translate(220.000000, 183.000000)">
                        <g id="Adobe_Systems_logo_and_wordmark">
                            <g id="g4156" transform="translate(0.431568, 62.108202)">
                                <path d="M7.57963493,12.3415939 L6.88022146,8.22017014 C6.68071751,7.03224487 6.425732,5.17571764 6.23140249,3.88970363 L6.15551053,3.88970363 C5.95111965,5.18544101 5.66566231,7.09458634 5.45609692,8.23017972 L4.70350149,12.3415939 L7.57963493,12.3415939 Z M4.32777866,15.0271511 L3.41879974,19.6009766 L0.0608670378,19.6009766 L4.24958695,0.572148202 L8.36500172,0.572148202 L12.16995,19.6009766 L8.79448136,19.6009766 L7.90562589,15.0271511 L4.32777866,15.0271511 Z" id="path5"></path>
                                <path d="M19.8129046,11.1010469 C19.8129046,10.8473908 19.8129046,10.5508384 19.7623104,10.2794513 C19.6286371,9.34003469 19.1261397,8.4938455 18.3180631,8.4938455 C16.9318847,8.4938455 16.4219132,10.4804873 16.4219132,12.8040066 C16.4219132,15.4738365 17.148924,16.9934911 18.2700554,16.9934911 C18.7826141,16.9934911 19.3733637,16.7321143 19.6941801,15.6116766 C19.7723717,15.3883304 19.8129046,15.0894955 19.8129046,14.7403229 L19.8129046,11.1010469 L19.8129046,11.1010469 Z M23.2593785,0.0671226527 L23.2593785,15.654859 C23.2593785,16.8902541 23.3226212,18.4101949 23.3732161,19.5981216 L20.3964686,19.5981216 L20.2021391,18.0129815 L20.1314215,18.0129815 C19.6315114,18.9904272 18.5434389,19.8214607 17.2429261,19.8214607 C14.3923778,19.8214607 12.978602,16.6920731 12.978602,12.7408108 C12.978602,7.92619155 15.0866167,5.58494272 17.3843612,5.58494272 C18.586272,5.58494272 19.3638771,6.17032684 19.7554111,7.01708846 L19.81348,7.01708846 L19.81348,0.0671226527 L23.2593785,0.0671226527 L23.2593785,0.0671226527 Z" id="path7"></path>
                                <path d="M30.4374951,17.1919583 C31.7529559,17.1919583 32.0786585,14.7254469 32.0786585,12.683325 C32.0786585,10.741864 31.7529559,8.21216333 30.3797131,8.21216333 C28.9251167,8.21216333 28.6195368,10.741864 28.6195368,12.683325 C28.6195368,15.0268649 29.003309,17.1919583 30.4070227,17.1919583 L30.4374951,17.1919583 Z M30.3719513,19.8217469 C27.1956997,19.8217469 25.2035353,17.2848988 25.2035353,12.743952 C25.2035353,7.78806735 27.7611522,5.58522894 30.4527309,5.58522894 C33.5861493,5.58522894 35.5504294,8.24562162 35.5504294,12.6635977 C35.5504294,18.34013 32.4727797,19.8217469 30.3998364,19.8217469 L30.3719513,19.8217469 L30.3719513,19.8217469 Z" id="path9"></path>
                                <path d="M40.923524,14.6751164 C40.923524,15.0191443 40.9867675,15.340862 41.0600722,15.5564805 C41.4058981,16.709804 41.9917616,16.9934911 42.4611994,16.9934911 C43.7944834,16.9934911 44.3323392,15.3128346 44.3323392,12.6252738 C44.3323392,10.1787902 43.7640117,8.4938455 42.4459636,8.4938455 C41.7922576,8.4938455 41.2417532,9.19990914 41.0523105,9.95830611 C40.9864798,10.1968073 40.923524,10.5682831 40.923524,10.8245152 L40.923524,14.6751164 L40.923524,14.6751164 Z M37.4767632,0.0671226527 L40.923237,0.0671226527 L40.923237,7.25044072 L40.9787187,7.25044072 C41.6577219,6.19034457 42.5618139,5.58494272 43.8746875,5.58494272 C46.472838,5.58494272 47.7782376,8.52387209 47.7782376,12.3667592 C47.7782376,17.2222682 45.8314928,19.8214607 43.3089473,19.8214607 C42.1070364,19.8214607 41.3067215,19.2912728 40.5845975,17.9480613 L40.5118674,17.9480613 L40.3201252,19.5981216 L37.3609129,19.5981216 C37.4115079,18.4553736 37.4767632,16.8902541 37.4767632,15.654859 L37.4767632,0.0671226527 L37.4767632,0.0671226527 Z" id="path11"></path>
                                <path d="M56.0375274,11.3898787 C56.0553504,9.45356248 55.4844357,8.09663063 54.3911887,8.09663063 C53.1438581,8.09663063 52.6134764,9.91312024 52.5758177,11.3898787 L56.0375274,11.3898787 Z M52.5631692,13.8140592 C52.6037028,16.3080183 53.9217509,17.1196037 55.5577405,17.1196037 C56.5952181,17.1196037 57.4840742,16.8905403 58.1406553,16.6448909 L58.6052056,19.1113951 C57.6910523,19.5028914 56.2795768,19.7491133 54.9261696,19.7491133 C51.227298,19.7491133 49.2072492,17.2345611 49.2072492,12.9398433 C49.2072492,8.33084152 51.550414,5.56263743 54.6105276,5.56263743 C57.5671533,5.56263743 59.2057302,8.00912318 59.2057302,12.0027178 C59.2057302,12.9169677 59.1677838,13.4320007 59.1071276,13.8335073 L52.5631692,13.8140592 L52.5631692,13.8140592 Z" id="path13"></path>
                            </g>
                            <g id="g4151">
                                <polygon id="polygon15" points="37.592978 -2.99108738e-05 59.6401733 -2.99108738e-05 59.6401733 52.507772"></polygon>
                                <polygon id="polygon17" points="22.0598443 -2.99108738e-05 3.32300498e-07 -2.99108738e-05 3.32300498e-07 52.507772"></polygon>
                                <polygon id="polygon19" points="20.1864048 41.9434122 29.8289984 19.3476589 43.8747642 52.5049123 34.6717117 52.5049123 30.4700557 41.9434122"></polygon>
                            </g>
                        </g>
                    </g>
                </g>
            </g>
        </g>
    </g>
</svg>