<?xml version="1.0" encoding="UTF-8"?>
<svg width="67px" height="82px" viewBox="0 0 67 82" version="1.1" xmlns="http://www.w3.org/2000/svg" xmlns:xlink="http://www.w3.org/1999/xlink">
    <!-- Generator: Sketch 55.1 (78136) - https://sketchapp.com -->
    <title>Shape</title>
    <desc>Created with Sketch.</desc>
    <g id="Page-1" stroke="none" stroke-width="1" fill="none" fill-rule="evenodd">
        <g id="Services_Tech" transform="translate(-785.000000, -2080.000000)" fill="#3180FB" fill-rule="nonzero">
            <g id="Capabilities" transform="translate(0.000000, 1642.000000)">
                <g id="logos" transform="translate(379.000000, 438.000000)">
                    <g id="download-8" transform="translate(406.000000, 0.000000)">
                        <path d="M36.7780347,7.16789226 C42.2686194,0.0329558265 49.9021757,0 49.9021757,0 C49.9021757,0 51.0360782,6.70445095 45.5829435,13.1637929 C39.7615506,20.0618594 33.1412246,18.9310626 33.1412246,18.9310626 C33.1412246,18.9310626 31.8991333,13.5077694 36.7821958,7.16583252 L36.7780347,7.16789226 Z M34.0740752,23.7933351 C36.8513303,23.7933351 42.0087974,20 48.7196444,20 C60.2707334,20 64.8142163,28.166491 64.8142163,28.166491 C64.8142163,28.166491 55.9278187,32.6784773 55.9278187,43.6297418 C55.9278187,55.9856428 67,60.2424262 67,60.2424262 C67,60.2424262 59.2597061,81.8795443 48.8056022,81.8795443 C44.0021993,81.8795443 40.2712222,78.66603 35.2119925,78.66603 C30.0545255,78.66603 24.9379907,82 21.6061032,82 C12.0606958,82 0,61.477608 0,44.9751712 C0,28.7442703 10.2085102,20.2286617 19.7825702,20.2286617 C26.0083697,20.2286617 30.8383786,23.7933351 34.0740752,23.7933351 Z" id="Shape"></path>
                    </g>
                </g>
            </g>
        </g>
    </g>
</svg>